<?xml version="1.0" standalone="no"?>
<!DOCTYPE svg PUBLIC "-//W3C//DTD SVG 1.1//EN" "http://www.w3.org/Graphics/SVG/1.1/DTD/svg11.dtd" >
<svg xmlns="http://www.w3.org/2000/svg" xmlns:xlink="http://www.w3.org/1999/xlink" version="1.1">
<metadata></metadata>
<defs>
<font id="octin_spraypainta_regular" horiz-adv-x="543" >
<font-face units-per-em="1000" ascent="750" descent="-250" />
<missing-glyph horiz-adv-x="309" />
<glyph unicode="&#x28;C&#x29;" horiz-adv-x="634" d="M265 147l-20 7l-10 7l-7 -3l6 10l-13 9l-13 3l-5 22l-12 4v20l-7 2l4 20l-4 8v9l3 3v6l-3 3v16l-9 9l2 5l10 2v9l-6 5l12 6l-6 12l-5 5v21l-3 2l5 4l3 19l1 35h-4v18l3 5l-5 15l11 5v6l15 20l6 12l7 6l-3 5v12l16 -4l13 13h4l5 -5l4 7v5l2 2l7 -5l8 -2l22 -14v-23h-7 l-2 7l-4 -12l-7 -7l-10 3l-4 -7v-6l-7 -3l-7 6l-3 -11l5 -8l-11 -7l-5 -12l-3 -39l10 -24l-7 -5h-7l8 -16l-4 -8l3 -10l5 -5l-6 -12h-4v-4l3 -2l-4 -8l6 -6l-6 -23h6l-5 -18l12 -7v-3l-9 -10l7 -27h5l2 -11l20 -10l10 -9h20l6 -29l-13 -13l-15 -4l-3 2h-9zM541 383l-6 9 l-6 3l8 8l4 15l-6 4l-3 11l3 5v30l-3 19v21l-4 4l3 29l-3 6h4l-1 21l-30 29l-5 10l-3 2l-5 12h-13l-14 13l-19 -2v3l-14 5l-7 -6l-11 5l-4 -2l-3 2h-23l-21 7l-8 -4l-12 13v12l5 10l8 5l16 3l11 -3l8 5h25l8 -2l9 2h30l13 -6h12l9 -9v-8l7 4l26 -31l14 -12l1 -4h5l7 -8v-11 l9 -2l17 -19l3 -29l-9 -21l6 -14l-3 -9h-3l9 -19l-6 -23l3 -5l-4 -7l4 -6l-9 -15l6 -2v-21l-6 -11v-11l-3 -5v-5l-8 -3l-10 5zM194 7l-7 -3l-15 2l-20 7l-21 15v9l-16 11v3l-21 13l-5 10l-18 13l-16 33l4 16l-4 9v21l-2 11l-5 13l7 10v12l-5 9l3 7l2 65l2 15l5 12l13 16 l5 -7l12 -2v-9l-6 -10l11 -10v-10h4l-3 -11v-12l-4 -7l7 -7v-12l-3 -7l4 -17l-9 -14l8 -10l-3 -7l-1 -11l3 -4l-3 -15l2 -10l-2 -15h6l7 -16l7 -7h5l-4 -7l9 -9l13 -3v-13l9 -5l17 -5l9 -14l9 -6h4l3 4l7 3l16 -3l4 -3h19l5 -4l6 4l23 4l21 -13l3 -4l-3 -3l3 -6v-11l-7 -3 l-11 2l-5 -5l-14 -2l-5 2l-40 -5zM417 6h-14l-12 3l-6 -3l-19 -2l-7 10h-8l-13 9l3 12h7l4 4l15 7l15 -3l3 5l6 2l29 -2l15 -5l5 2h13l4 10l6 2l9 12l9 2l4 -4l4 4l2 7l7 7l16 28h5l16 16l2 9l-5 5v9l3 5v9l-5 8l2 8v46l9 3l-11 14l2 9h3l2 4l-3 9l6 5l-3 2l-4 13l7 15l4 21 h7l8 7l3 -2l5 -10l5 -5l4 -15l3 -22l-8 -5l8 -3l-5 -17l2 -9l3 -3v-43l-6 -13l3 -10l3 -3v-18l-5 -8l5 -8v-10h-3v-20l-11 -12l-9 -19l-7 -4h-8l-4 -5l-5 -2l-1 -7h-5v-7l-10 -11h-9v-7l-11 -9l-11 -3l-5 -11h-5l-3 -3l-16 -4l-10 5l-17 -6zM66 376l-11 12l-2 11l4 4v12 l-4 30l2 25l2 3l-2 7v60l-2 13l6 15v15l9 9l13 21h7l18 21l9 14l7 4l22 23l22 7l34 3h77l18 -12l5 -10l-3 -6h2v-3l-13 -3v-9l-7 -8h-7l-3 3h-30l-4 -3h-14l-4 5l-21 -2l-8 -3l4 -8l-15 7l-10 -3l-6 -5l-14 -4v-5l-23 -21l-14 -9l-9 -9h-4l5 -9l-9 -32l5 -4l-4 -1l3 -10 l-3 -11v-12l4 -5v-6h-4v-5l-2 -2l3 -10l-6 -11l3 -14l7 -12l-2 -6l-5 -5v-7l8 -3l-6 -18l-5 -5l-3 -8l-13 -10h4v-6l-11 4v7zM406 422l-7 10v20l-9 16v7l-10 3l-13 11h-6l-6 7l-14 6l-10 10l-2 7l-5 6l6 6l11 4l2 3h12l9 4h5v5h7l4 -3l12 -3l11 -15h5l18 -18h14v-8l7 -13v-9 l-3 -7l3 -17l4 -4l-1 -10l-3 -2l4 -4l-7 -13l3 -11l-14 -2h-13l-11 6zM371 147l-14 2l-22 12l4 24l11 3l4 -2l17 17h7l2 6l10 9l1 8l9 2l6 43l-3 6h9v11l17 3l4 -3l9 -14v-9l5 -14l-2 -9l-3 -3h8l-5 -9v-23l-9 -6l-5 -8l-9 -5l-7 -15l-9 -3l-3 3l-2 -12l-11 -12h-10v-13 l-7 4zM385 154h2v3h-2v-3zM223 523h3v3z" />
<glyph unicode="&#x28;R&#x29;" horiz-adv-x="572" d="M346 146l-9 -5l-21 5l-11 11v7l-3 7l7 3v3l7 8l11 2l12 -2l2 4l7 5v13h5v-9l9 -7h14l2 -2l20 6l11 11l7 -3v4l4 5v12h9l11 7l3 7h5l-3 7l-5 4l3 2h16v5l-2 2l4 17l7 -4l-4 -8v-5l9 4l-3 10l5 5l-5 21h-4v8l7 3l-3 7l-4 -2v6l7 8v4l-8 8l11 8l-4 8h-8l-8 -8l5 -7h-9v-11 l-7 2l10 18v10l-6 10l3 4l5 -9l10 -6l9 9l-7 3l-3 -4l-4 12l-11 3l-6 -6l-5 -14l-4 -2l4 -10l-10 9l-3 -3l2 -3v-7l-11 -6l5 15l-3 5l-12 -4l-2 -6l2 -1v-10l-11 9l-2 21l-7 -4h-12v-5h10l4 -14l5 -2l3 -6l-6 -6h7v-4l-11 -12l-8 -2l6 -7l2 -7l15 -3l-4 -4l-2 -7h-11v-14 l2 -2l2 5h5v-7l-7 -6l-5 6l-10 -10l7 -8l-4 -9l-7 6l-3 6l-6 -8l-7 6v10h-5l-2 -7h-5l-4 4l2 5l-7 5l3 2h-8v7l-8 -3l-3 3l2 11l-2 5h-5v7l-4 7h2v4h-7l-9 -11l-5 5h-9v4l9 3v6l5 8v8l-12 3v12l3 1l-4 8h-13v-9l-9 -5v-14l8 -7l-6 -3v-6l6 -11l-6 -4l-4 -28l-13 -6l-7 3 l-20 -5l-10 7h-8v16h-12v4l14 19h-6v7h-6l6 12v13l-8 8v4l5 -3h5l-2 15l-5 6l-4 -2l3 7h8l2 23h-6l-3 10h-7l-2 4l-5 -11l-10 8v3h8l2 3h11l3 -3l2 9l6 7l-3 11l-5 6h7v20l-8 10l8 4l8 10l-16 11l3 10l7 1l2 14l-4 17l4 4l-4 4l-2 10l-3 2v5h11l4 13l9 -4l21 5l9 -7l19 -6 l11 11l4 -3l-9 -6v-10h7l2 4l5 3v16l-3 2l-4 9h4l12 -6l3 -5l13 2l2 9h3v-2l9 -4v-3h12l6 3h12l-3 18h7l4 -6h6l4 -17l-6 5l-3 -3v-6l5 -5h7l4 5l9 2l-16 20l21 -7l-4 -6l4 2l3 -7l17 7l5 25l5 -9v-12l13 13l-6 14l-21 3l-3 11l-5 -4l5 -5l-7 -7l8 -8h-11v11l2 2v7l-14 14 h-14l-11 -3l-10 4l-17 -6l-11 10h-13v7h4l3 -3l3 4l-6 6v12l18 11h33l14 -3l4 3l6 -3h24l6 3l21 -12l3 -9l12 -5l3 -9h9l11 -8l4 -9l14 -9l19 -23v-9l3 -7l6 3l3 -7l2 -28l3 -6l-3 -8l3 -4l-3 -3l-2 -9h9v-6l-3 -5l3 -4v-24l-5 -8l2 -6l-2 -3l4 -5l-3 -8v-11l-11 -19l-19 -2 l-7 -15l-7 4v14l-7 11h-3v-5h-2l-8 13l-5 -14l4 -6h-5l-4 -9h-7l-7 6l-6 -15l3 -3l-2 -2v-5h-3l-5 10l-5 -4l8 -8h-13v16l2 7l-4 -4h-6l-2 -7l4 -9l-4 -3l-3 -7l-8 -2l-6 -6l8 -6v-5l5 -4l4 9h2v3h-6v4l5 6l15 -7l7 8l17 5l2 4h9l6 7l-6 3v4l5 3l6 12l3 -3v-9l6 -7l-6 -3 l-12 -14l5 -2l-5 -7l13 -7l9 13l-5 6l3 6h19l10 9l3 -2l-5 -11l-5 -2h12l6 -7v-14l8 -3l6 -9l-5 -4v-23l-2 -9l6 -7l-4 -3v-11l-4 -6l5 -23l-7 -15v-16l-16 -17l-8 -2l-4 -7l-5 -2l-9 -14l-7 -4l-5 -8l-1 -9h-4l-10 -6l-12 -15l-30 -15h-12l-5 2l-11 -8l-12 4l-14 -8z M53 452l2 28v23l-7 11l3 7v29l2 4v11l-3 6l12 27l9 14h4l8 7l2 8l16 8v5l7 9l9 6l13 17l11 2l11 6l9 -5l4 10h6l6 3h9l5 3l29 2l7 -6l21 4l19 -21v-5l-11 -14h-2l-3 -5h-5l-4 -4l-9 2h-26l-8 -9l-4 9h-10v-4h-11l-18 -12h-6l-3 -5l-9 -7l-13 -5l9 -9l-12 -1l-5 -10l-6 -2 l-3 6l-3 -2v-16h8v-2l-8 -3l-12 -10l7 -15l-5 -9v-12l-6 -20h10v-10l-7 -2v-12l4 -4h-6v-2l8 -4l-3 -3l2 -7l-10 -10v-9l-22 -11l-8 8zM155 150l-5 7l-7 3l-9 14l-15 4l-5 12l-14 7l-4 6l-6 4l-13 20l-12 5l-12 24v7l4 3l-6 2l-3 13l3 37l-3 8l5 4v37l-4 3l8 9l5 11v5l19 -3 l9 -6l4 -14l2 -26l3 -7v-16l-3 -5v-13h-4v-5h4v-12l4 -6l-7 -6l3 -4l9 -4l3 -7l5 -5l-2 -7l11 -2l4 -5v-6l9 -15l15 -6l5 -9l13 -8l7 -7h11l11 -4l9 5l7 -6l13 3h14l-3 -4h9l12 -12l5 3l4 -10l-4 -9h-3l-5 -10l-15 -1l-4 -3l-4 3l-8 -3h-35l-8 4zM284 469l4 4l14 6v-3l-5 -6 h14l4 12l17 -2l5 2l-2 3l4 9l-19 -9l-4 5l-7 2l17 7l1 -3l5 3v10l-14 3l-4 3h-9l2 -15l2 -1l-2 -3v-11h-7l2 14l-8 2l8 19l-3 9h-9v-5h-2l-2 9l-15 -2l-6 13l-5 -3v-17l-7 -8l6 -26l11 -14v-7h14zM443 521l5 8v6h9l9 6l3 6l4 -2l3 6l-7 3l-3 7l6 11h-3l-11 -8l-3 28l-11 -5 l-8 14l-7 -4v-19l11 -3l4 -4l-6 -6h-13v7h-4l6 11l-7 10h-2v-7l-5 -2l-15 -14l-3 7l-15 -2l6 -7v-5h22l4 10l9 -9l-3 -3l2 -2h7l2 -5l5 2l5 -3l-5 -8l4 -3v-9l-16 -2v-2h7v-5h11zM459 450l7 2v12l-2 5l6 1l5 5l-9 3v2l7 5v5l-8 8l10 10l-6 7l4 5v9l-4 2l-8 -3v-9l-16 -11 l-7 7l-2 -4l2 -5l-7 -7v4l-13 14h-9l5 -8l6 -3l2 -7l12 -5h8l6 12h11v-7l-4 -5l4 -14l-2 -7l2 -3l-7 -9v-6zM286 356l5 13h11v-7l9 3v17l-8 4l-6 -3l-9 3l-2 -3l4 -3v-9h-6l-5 5h-9v-9h11v-2zM270 485l-3 6l10 8h11l5 -5v-9l-5 -5h-4l-5 -4h-4l-3 6zM397 254l12 20l10 -5 l-6 -6l-9 -2l4 -14l-8 -8l-10 8zM418 450h9v10h11l-2 9l7 7v6h-5v-8l-9 -4v-9l-9 -1l2 -3l-4 -5v-2zM262 519l21 6l-4 -4l-3 -10l-10 -3l-9 3zM300 443l2 3v11l-12 3l-2 4h-2l-2 -4l6 -10l7 -4zM380 380l6 6l-3 4l3 16l-8 -3l-2 -11l2 -4zM440 278l6 -11l-3 -6h-5l2 5l-9 -5 v8zM420 328l5 4h4v-4h9l2 -2l-13 -6l-14 6zM431 425v9l-4 5h-5v-5h-2l-2 -9h13zM177 487l3 7l5 2l2 -9l-12 -5h-10l3 3zM448 290l-3 3l3 3h4v-8l9 -9h-11zM350 362h8l-2 14h-6v-14zM327 457l4 3l-4 9l-9 -3l2 -5zM421 309l10 -7v-2h-13l-2 9h5zM323 263l-7 -4v9l11 -2l3 -5 l-4 -5l-3 5v2zM436 436l7 4v8h-9v-9zM406 440h10v8h-12v-5h2v-3zM367 619l3 -4l10 6v-9h-13v7zM277 450v10h-7v-10h7zM371 365l-2 6l5 9l-7 3v-18h4zM448 313l7 -11l-3 -2l-8 8zM331 607l-4 -14l-4 18zM413 296h5l6 -10l-11 3v7zM267 547v7h-9v-7h9zM427 482h4l-3 8h-6 l-3 -4zM258 371h5v3h-3l-4 5l-7 -3zM401 316l5 -2v-5h-9v2zM374 637h6v-9l-6 3v6zM263 593h4l-1 -12l-3 3v9zM266 397h4l5 4l-5 3l-3 -5zM376 344l6 3l-5 5l-3 -6zM401 607l5 -2l-2 -4h-5v4zM297 340l3 4l-7 4v-4zM388 392h7l-3 5h-4v-5zM448 551v-4l-5 -2v6h5zM219 593v-4 h-7l3 4h4zM448 476l7 4l-7 2v-6zM413 542l3 5h-8l-2 -2h7v-3zM420 535l5 3l-5 3v-6zM399 547h5v3l-3 1zM263 473h3v3h-3v-3zM404 538h4v3h-2zM397 247l7 4l-7 -2v-2zM448 427l4 4h-4v-4zM443 602h2l-2 3h-3zM346 383h2v3h-2v-3zM422 476h5l-2 2zM260 466h3v3zM404 466l2 3 l-2 1v-4zM337 500h2l-2 3v-3zM401 524h3l-3 2v-2zM519 538v3h-2zM448 491h2v3zM392 420v2h-2zM267 529l-1 -5v2z" />
<glyph unicode="&#x28;P&#x29;" horiz-adv-x="633" d="M253 150l-9 9h-6l-10 9l-2 21v33l-8 6l-4 10l3 4l4 -6l5 2v20h-9v14l6 7v5l-5 3v6l-4 5v4l4 3v4l-6 3v2l9 3v5l-10 5l6 17v21l-8 7l-1 5l-5 3l6 3v5l12 9v7h-3l-1 37l-8 11v19l9 9v7l-3 7l3 7l-1 11l4 3v6l-8 4l5 6v10l14 16h6l4 4l5 -2l4 4h7v-3l7 -3v-7l3 -3l1 -9h8 l2 4l3 -6h11l9 18v7h16l15 8l4 -3h11l8 -4l3 4l-1 6h9l3 8h6l2 -5l-5 -3v-9l18 3l15 -9h4l5 -5l3 6l17 -20l10 -2l6 3l-5 -17h6l3 3l6 -5l2 -14l8 -9v-7l4 -5h14v-14l-11 2v-3l13 -4v-6h-11v-17l3 -3l8 14l3 -10l-5 -5l-2 -19h-9v-4h6l5 -5v-9l-5 9h-4l2 -4l-4 -10l-6 10 v-15l6 -2l10 -10l-8 -3l-5 2v-10l3 -2l-6 -7l-1 -16l-6 -11l-9 -4l3 -11l8 -5l-4 -4h-4l-5 8h-4l-5 -5l5 -10v-9h-5v5l-5 7h-2l-8 -17h-10l-10 -6l2 -7h3v-5h-9l4 8l-17 -11l-5 5h-8l-7 -4l3 -5l-4 -3l-5 3v7h-12v-4l-5 -8l-9 5l-7 7h-6l-10 5l-5 5l-9 -3l-6 3l-8 -10h-9v-9 l-2 -3l-3 -27l8 -8l-5 -8v-5l-7 -16h5v-5l-3 -4v-9l-6 -35l-10 9h-5zM535 404l-4 5l2 11l-11 8l10 5v13l-5 -4l-4 4l3 4l-4 12l10 -7l3 14l-7 11l3 4l-3 4l4 24v21l-8 8l8 6l-7 10l5 10l-9 26l-9 14l-4 3l-7 2v5l-8 2l-2 3l-4 -3v13l-19 10l-7 7l-7 3l-2 4h-7l-3 -4l-38 2 l-5 -10l-2 5l-13 9h-34v7l-11 6l-2 11l13 6l9 9h8l12 -5l3 3l79 2l23 -6l12 -8l6 -11l10 -2l8 -11l18 -15l14 -7l13 -20l11 -5l3 -14l4 -5v-6l-4 -5h4v-23l5 -23l6 -6l-6 -3l4 -10l-1 -32l-5 -12v-23l-3 -2v-6l9 -3l-4 -21v-21l-5 -14l-4 -2l-6 -12h-26l-8 8zM370 7l-3 9 l-15 -3l-4 17l7 9l9 5l7 7h39l2 2h33l5 3l13 -3l5 9l16 7l10 19l8 -3l8 14l9 9l2 5l11 12l6 22v33l4 6l-2 6v18l-2 7l-7 -2v9h8l-4 30l5 4v14l-5 12v9l5 3l-6 5l6 6v7l-8 4l-1 3h-3v5h19l5 4v12h6l4 -7l12 2l5 -2l4 -17l-1 -11l6 -7v-9l3 -4v-12l-4 -4l4 -3v-7l-3 -3v-16 l-5 -4l9 -20l-6 -46l6 -17l-7 -14l6 -11l-8 -10l-4 -9l-7 -5l-7 -14l-18 -18h-9l-3 -12l-16 -16l-7 -3l-2 -6l-8 -7l-5 -9l-15 -9h-28l-10 -7h-13l-19 5l-11 -5l-2 2h-29zM71 374h-7l-7 7v18l2 5l-4 5l-3 20l3 19l2 2l-5 16l4 20l-3 8l-5 4l8 12l-7 2l4 12v18l3 11l-3 15 l-4 6l4 6l7 24l27 27l10 5l9 16l11 5l2 5l8 4v6l13 7l3 4l22 12h14l16 3l9 -3l57 3l11 -5h9l9 -10v-4l8 -2l1 -5l-6 -5l-3 -5l-7 -4l-3 -6l-11 -3l-3 7h-10l-3 -5l-14 2l-1 3h-16l-20 -10l-12 7l-6 -6h-9l-8 -7h-13l-7 -8v-9l-4 -1l-12 -12l-14 -8l-2 -6l-18 -15l4 -6l-4 -3 v-13l-5 -9l12 -25l-9 -17h12v-7l-10 -2l2 -7l-2 -10l4 3l4 -4l-4 -10v-14l-4 -7l6 -9v-4h-5v-21l3 -3l-7 -6v-5l4 -5v-14l-11 -6l-5 -11l-6 3zM281 317l9 9h3l14 13l-3 -7l5 3v-3h6l-4 -6v-5l23 7l9 -2l7 13l5 3l4 -3l-2 -6l4 -4l3 8h5l2 -2h11l4 15l11 6l4 9l9 9l3 6l-3 4 l-16 -4l3 8v9l6 7v4l9 -5l4 4l-13 6v7l6 6l-6 8l-6 4v5h-7l5 9h11v12l-9 9v7l-13 3l-9 16l-14 6l-4 -14l-9 3l-7 -7l7 -7v-4l-7 -7h-4v9l-10 10l-6 -11l-3 3l9 12h10l2 16l-10 6l3 -8l-14 -5l-3 -11h-9l4 12l10 10l-2 5h-16v-9l-3 -6l-6 6l-4 12h4v7h-16v-15l4 -1l8 -9 l-6 -5h-4l-7 -7l18 -5l3 -9l2 2v9h7l-3 -6l10 -10l-2 -2l6 -2v-5h-11l-14 -7l-13 -3l4 -15v-17l4 2l3 8h4l-2 -8l9 -8l15 9l-3 4v6l7 4l4 -3v-9l-7 -7l-2 -5l-7 -4h-5l-8 -15l-12 -6v-7h2l-2 -11l2 -14l5 -5l-14 -2l2 -7l10 -8l-5 -11zM248 9l-9 -3l-9 3v3l-4 -3h-43l-10 7 l-12 2l-4 4l-12 4v6h-6l-3 12l-17 9l-14 15l-15 5l-5 17l-23 21v14l-8 31l6 12l-3 14l-2 30l-3 12l8 8l-5 8v17l5 5l-3 6v30l-2 2l5 11l6 3l-2 9h12l10 4l7 -13l4 -32h4l-3 -21l-4 -3v-9l4 -4v-7l8 -10l-8 -6v-21l3 -11l-4 -21l8 -3l-5 -33l7 -8h3l5 -5v-3h7v-13l6 -5h4 l5 -12l8 -6l5 -9l11 -5l4 -9l23 -7l8 -7l6 3l3 -3h4l4 7h25l4 -3l2 3h9l9 -6l17 6l23 -15v-21l-12 -3l-17 -9l-13 6h-12zM358 473l11 5h7l4 -9v-5h-7l-4 3l-11 2l-3 -5l-4 4zM334 356l-11 5l6 6h8l9 5v-16l-3 -3v6zM359 360l8 5v9l-3 5h5l4 -14l3 -3l-9 -4v-9h-5l-4 4z M359 388l-1 9h13l-2 -7h-5v-7h-5l-1 -2h-10v7h11zM501 488l-12 4l12 5l1 -5l6 -5v-7l3 -8l-10 5v11zM378 365l-2 2l6 5h12l3 5l2 -5l-17 -8v-8l-2 2zM331 340l3 11l5 2v-21h-2l-3 5zM341 399h-4l2 10l10 -10l-6 -11l-2 7v4zM293 455l6 2l6 -6l-6 -5h-4l-6 5zM362 430h7v-10 l-7 -4l-3 2zM281 296h7v11h-7l-3 -4zM403 575l3 6l9 -5l-16 -10v2zM350 437l2 -3v-8l-6 -4l-3 3zM508 411v-7h-10v7h10zM484 360v-7h-9v7h9zM295 344l4 -5l3 3v5h2v-8l-9 -4l-3 6zM433 571l7 -3v-5h-7l-3 4zM339 452h7v-6h-7l-4 4zM316 349l9 -2l-7 -5l-5 2zM521 407v-4 l-11 -6v5zM272 557h5l2 -5l-4 -3l-3 3v5zM378 347v-8h-5v8h5zM343 503h5v8h-5v-8zM525 403l5 -5l-7 -3l-2 4zM452 559l2 -2v-5l-2 -2l-4 4zM290 464h3l5 5h-8v-5zM311 377l2 -5l-6 -3v3zM510 450v-4h-8l6 4h2zM308 405l5 -3l-2 -3l-4 4l-3 -1zM376 430l6 -3l-2 -3l-4 3v3z M307 362l2 -6l-2 2v4zM367 460v-3l-3 -2v2zM322 450l3 -4l-5 2zM281 469l-4 -5zM436 524h2v3zM369 487h-2l4 3zM279 404v3h-2zM343 413l-2 -2v2h2zM320 358l-2 -2v2h2zM290 379h-2v2zM406 448l4 2h-2zM471 381l1 2h-1v-2z" />
<glyph unicode=" "  horiz-adv-x="309" />
<glyph unicode="&#x09;" horiz-adv-x="309" />
<glyph unicode="&#xa0;" horiz-adv-x="309" />
<glyph unicode="!" horiz-adv-x="214" d="M82 235l-2 4l2 7v46l2 6l-4 6l3 30l-3 25l-4 11l6 17l-5 13v21l3 7v13l-5 9l7 10l-5 5v14l6 19l-3 3v10l2 4l-5 10l4 7l-4 9l7 11l-2 8v45l-2 12l2 5v18l10 22l13 3l19 -3l9 -4l9 -20l4 -22l-2 -20l-6 -5l8 -11v-30l-5 -14l7 -11v-35l-4 -10l4 -1l-6 -4l4 -15v-11l-2 -9 l4 -8l-5 -8l7 -7l-4 -19v-20l-6 -13l4 -25h-5v-4l6 -7l-7 -11l6 -12l-4 -8l4 -10v-21l-6 -12l5 -9l-9 -20l3 -4l-3 -8l-8 -8l-14 3l-14 -2l-11 5zM80 29v24l6 23h5l13 7h12l5 -6l7 -1l10 -10l8 -16l-2 -9v-22l-20 -13h-21l-14 5z" />
<glyph unicode="&#x22;" horiz-adv-x="242" d="M151 531l-12 30l10 10l-4 4v18l2 3l-2 23l-3 2v30l3 4v38l11 10l7 3l6 7l18 -10l9 -24l-3 -3l8 -15l-3 -17v-23l-3 -11l5 -6l-2 -9v-23l-7 -2l7 -7l-3 -4v-26l-14 -13l-6 2l-4 -3l-17 5zM55 545l-2 2v19l-5 7l6 6l-4 2v83l3 8v11l6 19l9 9h21l5 -9v-12h4v-9l4 -7l-4 -2 v-5l8 -4v-5l-3 -3v-11l-3 -6l3 -3v-7l3 -3l-5 -23v-31h-3v-8l-6 -2l7 -15l-2 -8l-5 -7l-11 -10l-8 3l-12 -3z" />
<glyph unicode="#" horiz-adv-x="460" d="M268 7l-4 3l-5 23l3 2v11l-3 5v15l3 6v19l-4 13l7 2l-3 8v7l-9 23h-8l12 4l5 14l10 10l-4 10l-15 -8l4 -8l-3 -6v-6l-12 -5l-5 8h6l2 3l-4 7h-8v11h-9v3l6 5l6 -3l2 3h7l5 -10h3l1 7l9 15l-15 9l7 -15h-11l-11 19h-6l-7 -5h-12v8l-11 -3l-3 2l-1 -6l10 -6v-5l-9 -6h-9 l-2 2l-10 -2v-4l-4 -3l-5 4h-18l2 -6v-5l-2 -2v-14h-7v-4l4 -3l-4 -5l-9 -2v-5l3 -3l-4 -5l8 -7v-3h-7v-18l-5 -5l-3 -37h-6v-5l5 -7l-5 -18v-11l-10 -14l-29 -3l-16 19v21l6 11l-5 11l6 9l-3 9l5 24v32l7 7l-5 12l-5 5l10 6l-3 5l4 3l-4 7l-4 1v3h7l-3 24l-4 8h-5l-8 9 l-16 4l-6 6v30h7l7 7l3 -3l9 3v7l10 5l3 -3h6l3 7v18l6 6l-5 14l7 10h5l-6 18l8 8v4l-7 7l-3 19l7 7v4l-7 13l-16 8h-10v5h3v2l-9 3v9l5 7l2 8l11 7l12 3l19 10l-3 6l14 7l2 33l4 4v32l6 21l6 4l-6 12l9 19v29l9 4v20l9 9l14 -2h14l10 -10l-3 -1l7 -8l5 -41l-3 -5l-2 -11 l-3 -3v-7l4 -3l-8 -15v-5l4 -9v-9l-3 -4l12 -9l-1 -6l-5 3h-7v-8l9 3h16v7h5v-10h4l8 5l1 3v-21h-10l-10 4l2 8h-17l-4 -19l14 -10v15l10 -12l3 -12h-8l2 -6v-7h7l6 20l7 3l8 -7v-5l5 -4h14l6 -4l3 19l9 3l3 -3l-4 -13l19 -2l-6 2v7l4 5l6 -7l3 4l3 12h6v7h-11v5l9 5l5 10v5 l5 7l-8 8l10 10v5l-3 3l11 14l-7 9l3 14l5 11l2 28l9 18l12 12l12 4l11 -4l9 -9l12 -20v-19l-7 -12v-8l5 -4l-5 -23v-24l-5 -4v-14l-2 -13l2 -8l3 3h4l-11 -14l4 -10l5 -1l-4 -16l9 -4v-6h14l11 -18v-29l-8 -5l-3 -6l-19 -11h-11v-9l-7 -10l-2 -7h7l-3 -9v-9l2 -2v-8 l-10 -10l4 -10v-10l-12 -11l2 -9l10 -14h2l4 -7l5 -2v7l7 11l2 -2v-16l-5 -5l8 -7l7 -16v-9l-10 -7l-5 -12l-6 -6l-5 4l-4 -4v-5l-9 -9l4 -7h2v-7l-7 -2l-5 4h-9l-2 -25l-7 -8v-27l-5 -4l-4 -21l9 -9h-9l-5 -10l-4 -19v-16l-8 -11v-17l-13 -11v-8l-23 -6zM199 306l14 2 l-2 16l4 2v7h-9v-14l-16 -2v-5h9v-6zM175 202l8 4v7l-5 4l3 5l-19 -5l-2 -4l9 -5h4zM160 167v7l-5 2l9 5l5 -10l3 -2l1 -7l-6 -3l-9 3zM215 369v17l3 5l-5 2l-2 -2v-14l-5 9h-4l1 -13zM233 539l3 9h5l4 3l5 -5l-5 -15h-2l-2 8h-8zM185 370h5v9l7 10v4h-7l-5 -4v-19zM248 513 h6l7 -6l-12 -6l13 -4v-2l-8 -3l-6 8v13zM258 367l6 3l-4 4l9 5l-3 2h-7l-11 -4v-2l5 -3zM235 292l8 4l2 -2l4 4l-6 5h-7l-3 -4zM296 534l5 -4v-3h-18l2 7h11zM215 186v4l-9 3l13 4l4 -7v-7l-5 3h-3zM271 361v-2l9 13v5h-2l-4 -7h-6v-4zM202 141l1 3l5 -8l7 -4v-2h-7l-6 5v6z M181 181h7l2 -3l-5 -4h-4l-4 3zM268 561l9 -5l-11 -4l-2 9h4zM182 324l6 2v3l-7 7v-10zM205 567l5 -4l-5 -4l-6 5zM354 183h2l2 -5l-2 -7l-4 7zM170 138l5 -5l-5 -5l-3 4zM273 530v-5h-7v5h7zM245 393l8 7l-11 -3zM264 543h4v-7l-2 -2l-2 2v7zM208 174v-5h-6l4 9zM142 116h6 v-5h-6v5zM368 363h2v7l-2 2l-3 -6zM314 543l-1 -2h-8l6 6zM181 195l4 6h-7l-1 -3zM183 301v7l-2 2l-4 -3zM178 393l3 3v4l-6 -3zM173 271l8 5h-8v-5zM173 345l8 4h-8v-4zM95 396h5l-2 4l-3 -2v-2zM208 291h3l2 3h-5v-3zM358 291h3l-3 5v-5zM148 199h3l-3 5v-5zM259 351l3 5 l-3 -2v-3zM167 222v3h-3zM284 381h3v3zM275 324h3l-3 2v-2zM197 481l2 2h-2v-2zM236 366l2 4l-2 -2v-2zM202 347h1l-1 2v-2z" />
<glyph unicode="$" horiz-adv-x="495" d="M226 19l-2 16l-8 4v18l-4 2l-6 -3l-5 6l-40 7l-15 6l-8 8h-9l-12 9l-6 9l-18 18l-4 7l-6 3l-2 11l-11 3l-10 14l-9 28l-3 25l5 5v9l-4 6l7 30l8 8l23 4l3 3h9l11 -17h5l2 -7l3 5l-5 9h5l5 -5v-11l5 -6l-4 -3v-10l5 -4v-6l-6 4h-5v-7l6 -7h8v-5h-3v-14l10 -9l9 -18l6 6 l5 -2v-9h12l4 -4l-2 -12h5v9l6 7v-7l5 -7l12 -2l4 -5h5l6 6l10 -4v-2l9 2v7l5 2l7 -6l2 -5l7 5l6 -8l6 3l14 2l13 -4l10 7l9 -3l5 5h6l10 -4l20 16l3 -2l5 4h4l5 5v9l-4 6h8l10 12l-5 3v6l10 7l-3 5l2 5h-9v11h7v19l3 2l-5 21l-4 8l4 10l-10 17l-1 11h-8l-7 4l-4 8h-5v-12 l-2 -2l-10 11l-8 6l-12 -6l-4 3h-12v4l-12 -4v-5h-6v9l-7 6l-3 -3h-7v11h7l-3 9l-16 5l-2 -2h-5l-2 -8l5 -4v-7h-12l-14 -14l-9 6l-7 -11h-5v3h-6l-7 -4l-4 9l-10 2l-14 -10l-5 5l-44 12l-9 12l-11 5l-2 6l-17 16l-9 4v15l-9 4v7l-3 3v30l3 4v14l-7 7v18l6 15l-5 19l6 25 l2 1v5l-6 3l10 13l6 15l10 7l3 7l10 5l10 15l15 11l21 9l14 10l6 -7l12 5h30l11 -3l12 5l5 11v14h9l6 13l15 3l16 -11v-16h7l12 -10l-4 -5l5 -5l17 8h8l4 -7l6 -5l15 3l20 -9l13 -11l7 -10l9 -4l5 -12l11 -13l16 -12l17 -21l3 -12v-23l-5 -14v-13l-6 -3h-16l-3 -8l-14 3 l-7 14l-8 4l-3 14h-5l2 12l-2 9l-7 5h-5l-9 16l-7 3l-6 -3l-10 10l-22 5l-6 6l-21 4l-16 -4h-16l-5 -3h-9l-12 -4l-6 7h-8l-4 -5h-9v6l-17 -4l-12 -12l-12 12l-5 -14l7 -4l1 -9l3 -3h-7l-9 10h-11v-10l2 -4l-9 -7l4 -13l7 -11h-4l-12 -10l-3 -10l9 -3v-7l-7 -10l3 -3h12 l-8 -9v-14l12 -9l8 -3l4 -4l5 2l3 -7l-12 -4l16 -10h9l3 5l11 -7h7l7 8l8 -6l12 -2v-17h12v10l7 2l-2 -25l18 4l3 4l5 -8h6v9l-5 4v9l11 -4l4 7v7h4l3 -7h6l7 5l3 -7l17 5l10 -5h16l4 -5h31l5 -10l9 5l5 -4l1 -7l12 -11h7l14 -8l5 -15l8 -6l10 -13l-5 -9v-17l-4 -9v-18l7 -8 l-3 -15l2 -12l-2 -11l-4 -7v-19l-3 -4v-41l-14 -12l-11 -19l-14 -14l-5 -2l-7 -7l-6 4l-7 -16h-4l-13 -8l-39 -10l-5 -5h-13v-4h-13l-4 -8l-1 8l-9 -9l-4 -9l-8 -4v-16l-12 -10h-18l-4 -2l-6 12zM203 512l-9 5l7 7l-5 9v5h5l9 -14v-3h-7v-4h7l5 -5l-4 -3l-4 3h-4zM198 452 l5 5h7v-17h-4l-14 10zM185 466l-4 8l5 5l5 -13l-2 -6l-4 1v5zM233 173l3 2l1 -5h8v-11h-5zM332 179v6l5 2l2 4l2 -2l3 -10l-3 -2l-4 2h-5zM156 520v-5h-4l-9 -6v11h13zM228 443l8 -4v-5h-8l-6 3zM210 189h9l7 -4l-2 -3h-8l-6 5v2zM173 455l-5 -3h7v-4l-11 -3v10h9zM272 161 l5 3l2 -12l-4 -3l-3 3v9zM219 245l7 5l6 -12h-6l-2 4zM210 265v-5l-5 -10l-6 5zM171 508l3 -9l-10 -5v4zM185 433v-11h-3l-7 7zM369 418v-5l-4 -4l-7 9h11zM266 224h6v-11l-6 4v7zM240 413v2l6 3l5 -12l-6 4zM305 565v-6h-8v6h8zM266 182h6v-3l-5 -4l-6 3zM182 503l3 2l6 -3 v-7l-6 4zM228 487l8 -3l-3 -6l-7 7zM294 189l6 -2v-5l-12 5zM247 392l9 3l-2 -10zM304 251h-10l6 7zM236 215v-5h-5l-3 5h8zM242 344l3 6h-5l-4 -3zM309 318h2l-4 -7h-2v3zM455 254h2l-2 4l-3 -2zM164 149v6h-3zM242 2h-2l1 1z" />
<glyph unicode="%" horiz-adv-x="694" d="M441 3l-22 12l-20 15l-13 20l-7 3l-2 16l-7 2v5l5 7l-3 4l3 8v13l3 6l-3 3v14l-5 5l5 4l-3 7l-4 -4l-3 3l5 11l5 2v9l-7 7v9l4 3l-2 2v23l-6 5l4 4l-2 7h9v7l-3 4l-6 21l-8 4v5l14 4v11h-4l-5 4l3 10l4 -3h16l6 13l-3 3h-10v7h-15l-3 -20l-3 -3v-18h-11l-2 -5l2 -7l9 -3 l-12 -12l-6 5l-2 -16l-8 -1l6 -7l-3 -3l-3 3l-5 -4l-8 3l-3 5h-4l-7 -16h9v-7h-12l-4 5h-3v-5l-11 -7l-4 -16v-10l-18 -17l5 -5l-6 -5l-10 -3v-15h3v-5l-11 3l-9 -18l-10 -10v-8h-7v-9l-9 -9l-14 -21l-12 -12v-9l-4 -4h-5v-7l-12 -11h-33l-3 6v25l10 21l8 4v13l5 4l2 8h7 l13 27l5 14l15 13l4 10l7 5v8l7 3l3 10l9 11v16l13 2l2 21h10v21h-12v12l4 -8h5l9 -4l5 2v5l3 2v4h-3l-2 -4l-3 3l-1 6h5l14 10l8 14l-6 4v5l6 4v7l3 2l5 -8l6 8v8h-9v12l12 5l-3 5l3 8h8l10 9l-3 8l-8 4h-10v-5l-5 -10l-9 -9l-6 -2v-3h6v-9h-6l-6 5h-9l-5 -5l-10 8h-6v9h6 l1 -3l8 -5l4 3l7 -4v6h10v14l4 10l2 -3l3 9l-8 4l-4 -15l-5 5l-2 -5l-10 -3l-4 -4l-5 4l-16 5l-2 3l-3 -3v-5h-6l-3 3h-21v9h3l2 -4l6 5l-11 5l-4 12l4 3l-1 6l-10 -9l-20 -2v-11l-5 -5h-19l-9 -4l-9 6h-10l-11 7l-21 21l-2 7l-7 2l-11 26v25l-3 2v9l6 11l-7 7l5 30l-4 15 l3 4l-4 24l6 11l2 18v30l14 15l11 4l5 11l18 12h10l4 5l14 3l16 -8h8l1 -7l8 -7v-7l2 -3l-5 -9l-6 -1v-5l-5 -5h-15v-8l-20 -11v-6h2v-3l-9 -4l-4 -11h7l2 -3l-8 -7v-9l7 -6l-7 -8l4 -9l11 2l2 -9l-12 3l-5 -3v-9l10 -3l2 -7l-4 -7l-5 -18v-7l-3 -3l8 -8l-2 -8l4 -4l-7 -13 l9 -3l5 -5h3l-5 9l3 4l9 -9l-3 -6l2 -9h4l4 3l4 -3v-5h4l5 -5h11l4 -16l13 5l16 9v12l16 -4l5 7l-2 13h8l-7 9v8l10 -3l6 -6l4 3l-3 8h-5v4h8l-8 11v6l8 -3l5 6l-5 12v23l-10 -7l-5 5v7h15l5 -6l5 5l-5 10h-8v5h12l3 14l-3 4l-5 -4h-7v4l4 5v4l5 9h4l-1 17l-5 7h-12v16 l-13 7l-5 8l-6 -7l-8 8l9 13l-8 17l14 10h15l7 -3l10 4l11 -7h5l11 -6l5 -9l11 -12l11 -5l-6 -9l14 -13v-6l4 -4v-16h9l-5 -6l5 -6h-7v-13h12l9 -5l-2 -7l2 -13l-9 6l-5 -7l2 -2v-7l6 -4l-15 -3v-14l3 -2l-3 -13l5 -10h7l7 4l-3 5l8 4h9l2 -4h-10l-5 -14l10 -4v-5l-6 2 l-8 -18l8 -3v-9h-9l-3 -5h-9v-4h4l8 -13l15 16h5v-3h10l13 18l-4 15l15 1v19l8 8l-8 8h8l2 3l7 2v9l10 -8l6 12v6h8l17 29l10 11l8 22h4l13 18l-4 3l9 9l33 45l13 6l6 -3h9l13 -8l-4 -5l3 -3v-15l-12 -17l-1 -12l-14 -14v-8l-9 -4l-6 -14l-10 -10l-3 -19l-11 -11l-4 -11 l-6 -6l-5 -28l-6 -6v-12h9v-7l-11 2l-5 -4h-7v-3l-5 -6v-8l-9 -2v-20l-3 -4l4 -7l-3 -6l-7 -2l-3 -9l10 -2l2 -5h4l-2 -4l-7 1l-2 3l-11 -12l-3 -7v-13l16 11h7v-8l-13 -8h-10v-17l-7 10l-4 2l-4 8h-5l-19 -12l11 5l14 -5v-17l-6 -3v-9l4 -4v-6h-4l-12 -12v-5l8 -3l4 3v7 l15 14l10 16l8 3l-4 -8l10 -5l13 3l10 -3l7 8l5 -2v-6h10l3 -9l9 -4l8 -16l1 -21l-4 5l-9 -5v-4l-10 -11l5 -5v-3h-4l-11 -6l-4 8l-11 3l4 -10l-5 -13l4 -3v-7h-15l-10 -10l8 -6l7 -2l-7 -5l5 -7l9 -20l-14 2l5 5l-3 2l-7 -11l5 -14l-9 -5v-7l2 -3v-11l6 -3l-3 -6v-7l4 -3 v-4l-5 -8l17 -18l9 -4l5 -5h5l13 -16v-18l3 -5l-7 -7l-8 -2l-9 -7l-11 5zM527 6l-6 9l5 4l-8 13l7 12l14 9l8 8l14 5l8 30l7 8v15l-5 10v7l3 6l-3 3h-7v9l9 6l-2 13v21l-4 3l7 11l-3 18l-16 18l-15 5l-15 13l-7 15h-7l-3 5l18 6l4 19h6l3 -3h18l9 -5h7l13 -4l7 -11l8 -3 l20 -18v-9l8 -35l2 -23l-2 -16l3 -12l-7 -11l4 -3l-4 -10l4 -10l-4 -8l5 -9l-4 -16v-21l-2 -2v-24l-7 -4l-2 -5l-20 -24l-14 -3l-4 -7l-11 -8l-36 3h-3zM349 191l-4 3v9l4 4l-2 13l14 -4l-5 -11v-6l-7 -3l9 -9l-3 -4l-4 4zM312 200v9h3l4 -4l8 7h4l5 -9v-5h-8l-1 2h-15z M190 480l-3 4l3 5l2 -2h9l4 -13l-9 -4l-6 8v2zM351 469l-4 4l4 16h5v-30h-7v5zM247 308l10 10l2 -2l-2 -14h-14l-5 5zM436 333l4 7l6 -6l-5 -2l-2 -8l-7 -4l-5 7zM202 534l11 -11v-4h-6l-14 11zM486 136h15v7h5v-5l-5 -7h-13l2 -2l-2 -3l-2 3v7zM178 439l5 -5h9v-5l-16 -2 v12h2zM315 399l2 11l-7 8l-8 -5l8 -3v-6zM301 388l7 6v3h-14v-9h7zM407 359h4v8l-4 4h-7v-4zM470 196h-5v7h6l5 -5v-7h-6v5zM366 514l9 -9l-7 -6l-5 6zM315 461l12 14l-6 -2l-2 -4h-7l-2 -3zM177 557l4 -4v-6l-11 3zM449 420h7v-7h-7l-3 2zM338 521l5 -13h-7v9zM444 134 l7 -8l5 -2l-7 -2l-5 4v8zM358 249l9 -2l-4 -8l-5 5v5zM169 457h7v-7h-7v7zM220 355v-5h-9v5h9zM441 143h10v-3l-10 -3v6zM422 324l-3 -4h-8l8 8zM321 556h6v5h-10zM407 379l9 1l-2 3h-7v-4zM321 238l6 1l-6 8v-9zM451 117v-9l-6 3zM285 388h4v4h-9zM470 358v-5h-5v5h5z M298 200v-6l-7 6h7zM342 544h3v-6l-5 2zM389 355h7l-3 4l-4 -1v-3zM312 542l9 9l-5 -2zM423 380v8l-2 -3zM287 401h4v3zM375 323h2v2h-2v-2zM308 431l2 3h-2v-3zM319 478h2l-2 2v-2zM349 429v2h-2zM386 268l3 1h-3v-1z" />
<glyph unicode="&#x26;" horiz-adv-x="540" d="M186 -2l-10 2l-4 -2l-17 2l-4 3l-27 2l-8 7l-6 9l-10 2l-18 19l-7 3v7l-16 22l-6 3l-3 6v7l-8 7l-4 28v42l5 4v21l-4 7l4 8v17l7 7l-5 2l5 3l-6 4l15 35l9 2v14l27 17l7 16l5 -3l3 2v13l6 10l3 -2l2 -9l13 2l-6 12l5 4l2 7h6l4 14l-22 16l12 7l-2 2h-8l-10 17l-5 2v12 l-5 4l-17 28l-6 -2v10l-3 6l3 29v37l3 9l-5 5l6 25l-2 13l5 6l-3 2l8 23l25 26l6 2l4 12l17 9l19 4l5 -4l6 2l11 -5l3 -13l5 -5l2 -21l-4 -7v-6l5 -7l-4 -4l-18 6l-7 -8l3 -6l-7 -7v-18h-6l-4 6l-9 -2l5 -11l6 -27l-8 -4v-11l3 -3l3 8v7h10v-7l2 -2v-18l-7 -15h-5v-11h21 l3 -3h18v12l9 8l-6 5l-6 -14l-8 4l7 6h-8l-4 -7h-9v7h9l9 5l-2 12h5l2 -3h16l3 -2l-5 -4v-8h7l4 -3h5l-5 15l3 5l-3 1l3 3h13v-9h5l5 6l8 -4l5 3v11h6l4 -10l6 6l-6 14l-2 1l6 3l-6 6v8l5 5l-6 7l-7 -3l7 27l-7 3l-6 7l-3 -5h-4v17l-23 12v5l4 3l-10 10l18 8l2 14l16 6 l18 -3l14 -8l32 -32l-4 -4l12 -3l11 -13l6 -20l-6 -17l9 -19v-44l12 -12h-10v-13l-2 -2l2 -9l5 -3l-9 -4l2 -14l-2 -7h-3l-2 -8l-8 -3l4 -9l-5 -6h-14v-10l7 4h5l-3 -7l-9 -10v-20h-7l-4 -3l2 -5l-7 -6l-9 -17l6 -5l10 10l-3 8l21 6l-18 -21v-7l17 2l-4 -6v-5h-9l-4 5l-2 -3 h-5v3l-4 2l-6 -14h3l6 6l17 -8v-7l5 -10l7 3l2 19h14v-3l-12 -5l5 -9v-11l11 -3l-5 -13l7 -12l5 -4v-5l-11 5l-5 -9l2 -3h7l4 -7l6 2v-2l4 2h17v17l6 4h4v14l10 4v9l16 5l4 -4l4 13h8l7 -3l2 3h10l11 -6v-30l-9 -17v-13h-4l-9 -11l4 -10l-4 -5l-12 -2v-11l5 -18l-14 -3 l1 -26l4 -2l-5 -11l4 -3v-9l-3 -5l3 -2h8l-4 -15l8 -8l6 -14l14 -14l6 -9l9 -6v-5l6 -8l9 -20v-14l-6 -9l-10 -5l-8 3l-26 2l-24 16l-1 10l-19 14l-6 13l-13 7l-3 -4l-3 4h-10l-5 9h-2l-2 -5l-7 -6v-6l-9 -12l-10 -24l-2 2h-7l3 -2v-7h-5l-3 -4l-14 -5l-4 -10l-7 8h-9l-4 -5 l-2 2l-6 -2h-18l-6 7h-6v-4l-29 -6v3h-14zM146 90l5 5v4l14 14v4l-7 10h-3v7l11 11l6 -7h9l-2 14h-14l-2 5h-8l-13 16v3l9 -3l4 -5l12 -5l3 5l20 -4l-4 -14h4l5 7l2 -2l5 7h4l10 10l-5 8l-5 2l-1 3l-3 -14h-5l-4 5l2 1l-9 5l-3 4l-11 -6h-12v2h7l5 10l-14 2l-4 4l4 8h2l7 10 v8h-12l-3 7l-10 -6l5 -7l-2 -3h-5l-10 -7l3 -10l12 7v-11l-10 -2v-7l2 -8l-7 -6l5 -4v-5h-5l-5 5v6l3 4v10l-7 5h-5v-5l7 -11h-4l-4 -8l4 -11v-10h-3v-9l5 -13h7l-4 7h6v-3l10 -4l-5 -9l-10 -10l12 -7zM200 526l-9 -4l5 13l4 -4h5l6 10v13l9 9h7l2 2h6l2 -11l13 -4h9l-2 -8 h-8l4 -7l-5 -2l-2 -4l-10 2l-1 19h-19l-2 -15l6 -4v-5h-4l-10 -6l-4 1zM162 227l13 1l2 9l-10 -5v6h5l5 10l-5 4l4 11l-1 9l-17 -5l-5 -13h-11l5 -15l11 3l5 10v-12l-5 -4l2 -8zM250 76l4 3l-6 8h-16v-6h-9l4 5v9l4 3l-11 8h-9v7l4 3l-4 6l3 3l4 -3v3l-4 4l-14 -10v-3h5 l4 -12l9 -11v-6l-4 -1v-8h15l7 3zM186 206h4l3 15l5 -11h16l3 7h3l12 11v3h-12l-4 5l-4 -9l4 -8l-2 -2h-12v5l-7 6h-5v-6l-7 -8l3 -4v-4zM172 74l14 7l4 5h7l-2 13l-5 -2l-6 2l-14 -13v-10zM241 469h7v4l5 5l-3 4l-4 -2l-7 21l5 4l-3 6h-4l-3 -20h-7l9 -9v-6h5l-2 -3z M267 104h11v18l-4 3l-3 -8h5l-17 -1l-2 11l-7 -7v-4l9 -4v-5zM253 95v6l-9 3l-7 6l5 10h-13v-4l-3 -4l7 -9l11 -6l5 -6zM170 102h9l2 9l14 2l-2 7l-7 5l-7 -9l-15 -6zM136 223l-4 13h-11l-4 -4l13 -15zM322 397l7 2l7 7l7 -7v-4h-17l4 -9h-8l-4 7zM195 238l5 2l6 -2l14 7v7 h-5l-4 -7l-6 4l-8 -2v-5zM178 460h10v6l-9 4v8h-9v-9l5 -3zM232 448h5l-2 9l-6 4h-9l-5 4l-4 -4l7 -4h5l6 -5zM335 281l-6 3l-5 -3h-9l-2 6v-10h6l7 -6zM184 577h-8l-1 3h-5v2l6 4l5 -5l5 -1l2 -10l-4 -5l-3 4zM229 585v8h6v-13l-12 -3l-3 4zM225 134h2l9 13v5h-7l-5 -5 l5 -6l-4 -3v-4zM158 503h2v8l-5 10l-6 -4v-5zM202 134v8l-9 4l-5 -10zM197 440h8v10h4l-7 6l-5 -8v-8zM158 78h5l2 8l5 7l-15 -6zM364 284l2 -5l-2 -2h-12l2 7h10zM205 254h6v7l-2 2l2 5l-6 -2v-12zM186 531l3 -3l-13 -5v8h10zM280 363l9 6h-9l-6 5v-5zM116 197l4 6h4l4 7 l-12 -3v-10zM235 176h9v4h-5l-3 3l-7 -3zM190 257h5v9h-7l-2 -3l4 -2v-4zM232 194l3 3v4h-8l-7 -3l9 -1zM354 323l5 -2v-7h-8zM183 289l3 4l-2 3h-9v-3h4zM214 482h6l-5 8l-5 -4zM349 388l4 -4l-4 -4l-6 3zM287 386h10v5l-10 -3v-2zM227 470l7 7l-7 3v-10zM259 167l7 5l-4 4 l-3 -3v-6zM181 595h7v-6l-7 3v3zM259 136l8 7h-10l2 -2v-5zM177 195l7 6h-8l-1 -3zM165 97l-2 7h-3v-7h5zM287 159v8h-4v-5zM197 74h5v9zM223 436l4 3l-3 3l-4 -3zM250 496h3l2 4h-5v-4zM354 233v3l-7 4zM262 487l3 3l-6 1zM262 182v-2v2zM218 189l-2 8v-5zM186 446l2 4h-4 v-2zM250 201h5v2h-5v-2zM175 277v4l-5 -2zM267 499l-2 6v-5zM181 307h3l-3 4v-4zM308 383l2 5l-4 -2zM248 168v8l-2 -3zM349 78l-2 8v-3zM280 337v4h-4zM195 106l2 5l-4 -3zM276 353l4 3h-2zM176 187l5 2h-5v-2zM417 152v3h-3zM223 167l2 4h-2v-4zM255 491l2 3h-2v-3z M176 157l3 2h-3v-2z" />
<glyph unicode="'" horiz-adv-x="140" d="M45 559v67l3 5v22l-3 17l7 7v5l-6 6l13 19l7 2l5 5h4l5 -5v-5l7 -1l5 -9l-3 -8l7 -14v-16l-5 -5l2 -20l5 -14v-24l-5 -13v-26h-4l3 -4l-4 -15l-16 -16l-16 6z" />
<glyph unicode="(" horiz-adv-x="224" d="M124 -71l-7 7v7h-3l-6 19l-19 29l-5 4v10l-6 5l-4 6v8l-10 18v7l-9 12v27l-2 7v85l4 5l-4 4v35l-2 4l2 7v46l5 6l-10 12l10 15l-7 31l2 24l3 10l-5 5l2 5l2 30l-7 7l5 18l-2 5v16l3 8l-4 7l4 34l-4 21l3 15v19l3 6l-3 16l4 35l5 9l4 2l9 33l12 11l7 3l2 16l5 4l10 29l4 3 l7 9l3 12l10 5l3 5l15 7l22 -11l1 -13l-9 -9v-5l6 -5l-7 -11l-9 -27l-10 -7l-7 -21l-7 -7v-12l-14 -14v-13l4 -7l-4 -8l3 -6l-9 -9v-5l-3 -2v-9l5 -4v-12l-10 -20l3 -3l2 -16l-5 -14l3 -4v-8l4 -12l-4 -31l-3 -2l3 -3v-39l4 -12l-5 -4l3 -10v-31l-5 -14l-2 -68l3 -9l-2 -13 l-3 -5l3 -1v-31l-5 -9l6 -16l-3 -38l3 -24l-1 -7l5 -14h-8v-4l7 -7v-12l9 -30l5 -4l2 -9l7 -14v-13l7 -3l7 -14l9 -9v-14l9 -9l4 -19l3 -4v-10l-3 -1v-9l-17 -3l-22 11z" />
<glyph unicode=")" horiz-adv-x="224" d="M52 -78l3 3l-3 4h-4l4 11v9l4 5v5l6 6l3 10l11 22l8 10l10 20l8 3l7 11v7l5 10l4 25v23l7 10l-5 8v19l5 4l-5 10v20l-2 7v32l2 7l-2 7v76l2 4v19l3 7l-3 9v75l4 8l-4 22l3 9l-3 10v25l3 7v53l3 5l-6 24v21l3 5h-5l-12 27l-6 21l-10 9v12l-11 12l-19 47l3 21l5 9l28 -6 l9 -9l4 -9l16 -17v-12l9 -9l7 -13v-12l7 -7l23 -43l-3 -8l3 -4l6 -16l-2 -77l3 -7l-2 -15l-3 -4l4 -14v-12l-4 -13v-11l9 -3l-9 -16v-21l3 -5l1 -36l-5 -6l8 -8v-14l-7 -12l3 -24l-6 -6l3 -4v-21l-7 -32v-25l6 -21l-6 -11l2 -21l3 -6l-3 -17v-21l-4 -9l-5 -4l3 -15l-3 -11 l5 -4v-14l-8 -7l-5 -29l-5 -10l-12 -15l-15 -32l-8 -8l-3 -17l-29 -31l-24 2z" />
<glyph unicode="*" horiz-adv-x="381" d="M168 467l-7 3l-9 47h7l-4 9v13l-17 7v6l-27 -2l-6 -3h-6l-14 -7h-7l-12 -6l-18 12v17h5v6l7 3h9l26 14l20 5l5 9l11 -3v5l-5 3l-4 18v13l-18 11l-3 12l-6 3l-9 19l4 21h15l4 3l11 -8v-5l30 -25v-7l11 -20l10 6h6v-4h5l9 7l5 9l7 4l3 10h6l4 4l-1 7l21 19h6l7 4l7 -3v-10 h7l3 -2l-6 -11l3 -6l-11 -21l-15 -13l-6 -15l-5 -3l11 -22l9 -9h8l2 -5l10 -2l4 -3h12l19 -14l4 -6l-3 -7l5 -4v-8l-10 -2l-6 -7h-14l-19 5l-4 4h-14l-4 5h-3l-3 4l-9 -6l-2 -5l-8 8l-8 -5l-7 -19l-2 -12l2 -7l-2 -31l-12 -17h-14v10z" />
<glyph unicode="+" horiz-adv-x="394" d="M184 212h-9v9l-5 5l-3 21l3 1v12l-3 5v23l-14 28h-20l-9 2h-21l-6 7h-7l-3 -7l-7 7h-9l-9 4l-14 16l13 16h15l9 5h30l21 7h14l6 9v12l9 8l2 24l4 9l-4 12l3 7l-3 15l16 16l19 -8l-3 -15l6 3l2 -12l7 -13l-6 -8l6 -11l2 -9h2v-3l-4 -4v-16l6 -7h10l5 -9h23l9 -3h34l25 -5 l7 -15v-11l-14 -14h-10l-5 -3h-15l-1 -2l-42 -2l-5 -5h-9l-2 -5l-16 -13l3 -7l-8 -7l2 -16l4 -7l-5 -4l4 -7v-26l-16 -16h-8zM175 237v5h-3z" />
<glyph unicode="," horiz-adv-x="176" d="M35 -98l-3 6l7 19l-3 3l8 38l10 32l4 3v41l9 3l7 7l5 2l6 7l3 -7h7l4 4l2 -6l7 -3l11 -27v-14l-4 -5l-6 -20v-18l-10 -3l-4 -7v-7l-8 -7l3 -13l-10 -3v-11l-9 -3v-14l-18 -11h-5l-6 -4l-4 5z" />
<glyph unicode="-" horiz-adv-x="248" d="M112 320l-12 5h-44l-5 3h-20l-13 9l-4 6v16l17 12h25l6 -2l8 4h43l5 -2l10 3l7 -4l16 6h13l10 -4l11 4h21l14 -7l8 -16l-8 -16v-4l-18 -12l-16 7l-5 -5h-9l-9 -3l-12 4l-8 -4h-13l-14 8z" />
<glyph unicode="." horiz-adv-x="160" d="M64 9l-7 6v8l-9 18v25l3 2v5l11 12h18l9 -3h9l5 -5l7 -21v-6l4 -11l-10 -23l-20 -7l-1 -3h-9l-3 3h-7z" />
<glyph unicode="/" horiz-adv-x="260" d="M-4 -68l-6 8l6 26l4 2l-2 5l2 2l-2 3l5 11v12l11 34l10 19v21l4 9v12l2 13l8 7l1 21l12 37l5 9l9 24l3 22l6 8v13l5 25l4 -4l3 16l7 14l2 28l3 2l2 21l7 7l16 58l5 23l9 14l-4 17l10 19v16l6 17l6 7v21l12 22l3 25l7 21l6 12v10h5v25l9 22l12 17h26l5 -18l-4 -24l-3 -4 v-14l-4 -7v-12l-7 -14l-2 -16l-5 -5v-25l-5 -6l-2 -19l-7 -14v-10l-9 -16v-20l-3 -4l-6 -28l-3 -5l-2 -22l-9 -8v-14l-5 -19v-24l-7 -13l-4 -25l-3 -4l5 -5v-7l-12 4v-4l3 -2v-12l-3 -4v-8l-9 -13l-2 -16l-3 -5l-1 -18l-8 -23v-5l-7 -7v-9l-9 -19v-9l-5 -21l-4 -5v-6l-5 -12 v-18l-9 -21l-7 -10v-17l-6 -8l-5 -16v-12l-7 -20v-7l-8 -14l-4 -18l-5 -7l-5 -17l-8 -9h-17l-13 8v9z" />
<glyph unicode="0" d="M63 370l-6 13v33l-2 4v50l-2 8v21l3 7l-5 21l5 5l-8 4l5 14v18l4 4v9l5 10l9 4l2 9l11 14l8 3l25 28l10 4l6 14l7 5l12 4l11 7l4 5h54l6 5l14 -3l10 -5h11l3 3h6l3 -3h5l5 6l6 -3h20l6 -5h15l8 5l13 -6l10 5l18 -6l14 -2l2 -6l9 -4l8 -16h8l17 -16v-7h14l9 -16l4 -2l5 -8 v-9h10l-4 -6l10 -5l7 -12l-4 -9l8 -8l4 -12l-3 -17l-3 -5l3 -4v-7l3 -6l-7 -15l4 -7l3 -13l-4 -14l4 -5l-8 -23l2 -5v-23l-4 -4v-16l-15 -15l-6 3h-7l-7 -7h-6l-15 6v3l-6 7v14l-5 7v46l-4 14l5 9l-8 12l3 2l4 12l-3 8v29l-11 11l5 4l8 -3l-13 24l-7 3l-18 21l-7 2v6l-9 3 l-8 7h-13l-14 5h-25l-12 -12l-7 10l-4 -10l-12 12l-7 -5h-20l-3 2l-7 -3l-7 3l-12 -2l-2 -3l-7 3h-16l-10 -7h-9l-4 -11l-7 -4v-5l-6 -4l-12 -17h-8l3 -12l-5 -11l-9 -5l3 -11l-2 -3v-7l-5 -10l11 -15h-6v-12l-3 -3l3 -12l-5 -10l2 -30l4 -9l-6 -7l5 -9l-8 -7v-13l-12 -4 l3 -4l-10 -8l-6 3l-7 -3l-2 3zM281 3l-7 2l-26 -4l-17 4l-5 -2l-12 4l-42 2l-18 9l-2 3l-10 4l-16 20l-11 3l-8 13l-10 7l-14 22l-11 8l-8 12v13l-5 13v51l-2 7l2 4v19l-2 23l2 5l-3 33l3 18l3 5l-3 6l9 19l14 6h13l3 -6h3l5 -5l4 2l9 -9v-12l-2 -2h5v-7l-3 -2l9 -23l-2 -17 l7 -15l-6 -5l8 -11l-11 -26v-5l-3 -5l3 -7h3l4 -20l5 -7l-5 -3v-18h6l8 -9v-8l9 -4l21 -21l7 -1l6 -8l23 -6h19l2 -3h5l4 5l19 -2l2 9l7 -3l4 -6h8l2 2h16l10 3l7 -3l10 2l12 -5l10 10v5l7 7l4 -6l-9 -9l9 -2l21 20l-2 10l2 2h11l7 9l6 -1l11 20l6 19v32l6 13l-3 6v51h-5 l2 9v38l8 3l-3 2v9h4l15 14h16l9 5l15 -10l8 -11v-9l6 -10l-7 -26l3 -8v-21l5 -35l5 -15l-5 -5v-7l6 -13l-4 -8v-25l-2 -14l-9 -9v-6l-7 -10h-3l-4 -5v-16l-7 -7l-23 -7v-2l8 -2l-4 -8l-6 -2v-7l4 -4l-9 -2l-2 -3h-5v5l-9 -10l-16 -9h-5l-3 -4h8v-7l-21 2l-5 -7h-21l-8 5 l-3 -2l-3 -10l-11 7h-18l-5 -5v-4h-4v12h-28zM465 362l3 3l6 -6l-6 -3l-3 2v4z" />
<glyph unicode="1" horiz-adv-x="324" d="M175 5l-28 -2l-21 2l-6 6l-10 -6l-20 4h-19l-20 13l-3 13v27l13 13l10 3h14l2 3l24 5l5 15l-5 10l6 19l-2 8l-7 4v5l11 8l-11 4l-3 5l12 7v8l6 8l-6 9l-4 2v5h7l-3 11l2 7h4l-6 12v6l5 9v24l4 9l-7 12l6 9v41l-6 5l6 4l1 37l-4 7l-3 16l6 14l-3 4l-7 48l7 12v20l-3 9l6 9 l-6 6l3 3v25l3 2l-8 15v5l-13 6l-8 -5l-28 -4l-17 18v17l11 17l8 3l5 9l15 14l9 3l14 13l30 12h18l8 -8l5 3l7 -3l7 -17v-12l6 -8v-15l3 -13l-3 -3v-17l-3 -2l3 -7v-12l5 -5l-5 -13v-22l6 -3v-7l-9 -4l3 -9l8 -7l-6 -5l-2 -38l-3 -10l3 -3v-7l-7 -12l9 -8v-21l-5 -8l3 -2 l4 -9l-6 -13l6 -15l-4 -12l5 -24h4l2 -3l-11 -2v-7l4 -5v-11l5 -5v-15l-9 -5l4 -9v-10l6 -3l-4 -3v-5l-8 -3l8 -9l-6 -14v-9h13l-9 -9l-2 5h-2l2 -15h7v-9l-3 -2l3 -4l-3 -3h-4v-14l-5 -9l7 -18v-19l5 -5h4l11 -15h8l1 -5l17 2l4 -9l8 -7l5 -11l-4 -7l3 -2l2 -12l-5 -3 l-18 -20h-16l-2 -4h-18l-5 2h-12l-3 -7l-8 5v2z" />
<glyph unicode="2" horiz-adv-x="526" d="M302 319h-16l-6 6l-13 4l-1 16l11 15v8l19 9l5 -6l8 6h7l9 4l13 -4l10 7l4 -5l19 7l8 14l13 9v7l7 4v8h-7l5 4l4 9l-7 28l3 2l-2 17l4 2v5l-11 16h7v7l-5 4l8 9l-6 5v19l-5 16l-16 -3v3l3 2v5l4 2l-4 2l-3 8l-6 6h-9l-14 11l-5 8l-7 -7h-4l-3 -5l-12 12h-18l-12 7h-11 l2 7l-6 24l9 8l2 14h4l9 5h72l9 -8h3l12 -9h4l9 -7l2 -4l5 -2l5 -11l11 -6l6 -9l6 -2l3 -6l10 -7l5 -10l5 -3v-5l7 -6l2 -33l3 -15l-3 -6l5 -33l-2 -15l1 -37l5 -11l-7 -8l3 -14l-2 -15l-10 -9v-8l-9 -18l-19 -12l-4 -10l-18 -12l-4 -7l-15 -7l-10 2l-11 -5h-16l-7 -2 l-38 -2zM129 3l-4 -2h-12l-27 8l-16 -5l-15 29v13l5 5l5 11l10 5l3 5l9 -5l8 8h13l8 -3l10 4l3 5l5 -9l7 -5l14 5l4 -2h14v-3l4 -4l13 9h22l4 -2l3 5l14 -3l3 3l21 -9l6 6h16l11 -6l3 4v5h7v-7l9 7h17l5 -7l8 4h14l4 3h17l11 -3h37l18 -5h10l16 -11v-40l-6 -5l-17 -6l-35 -2 h-41l-17 -3l-18 5l-29 -7l-10 5h-16l-7 -5h-12l-5 3l-37 -5l-20 7l-28 -2l-7 -3l-9 5h-23zM63 102l-3 9l-8 8l5 17l-4 8v39l-2 3v22l3 4l-6 34l3 15v24l6 13v9l7 3l3 9l9 5l16 19l30 25l9 4l4 5h8v-5l4 3l4 -4l5 4l19 2h31l1 -2h8l3 4l8 -4l3 -7h11l5 -3l-8 -5l12 -18l-3 -7 l-4 -2v-9l-8 -9l-18 -3l-14 -6l-5 5l-22 -8l2 -3l-12 3h-13v-18h-9l-8 -3l-6 -12l-7 -7l3 -20h4l2 -3l-2 -2l2 -2v-11l-5 -5v-12l3 -2l5 -16l-5 -10v-9l-12 -23l6 -5l-3 -4v-16l-11 -22l-13 -5v-8h-4v5zM71 497l-8 4l-8 30v46l19 31l18 21l7 4l6 7l13 8l7 14l23 18l17 2h47 l7 -7h11l6 -5v-5l10 -13l-4 -22l-6 -13l-15 -5l-7 -7l-11 5h-9l-9 -5l-4 4l-4 -4v-11h-4l-16 -13l-3 -17l-11 2l-3 -3l3 -13l-12 -9v-10l-6 -3v-10l4 -3l-6 -2l-7 -13h4v-3l-27 -5l-3 3h-5l-2 -5l-8 2zM150 569h2v2h-5zM290 365v3h-2z" />
<glyph unicode="3" horiz-adv-x="527" d="M291 10l-3 4v8l-10 3l-6 7l-13 3l8 7l1 -3l7 4l-4 8h-7l-5 5h8l7 7l-6 9l12 2v16h5l3 -3l3 5l7 -14l5 3l-3 4l6 5l2 -3h4l9 -7l10 17l-3 2v7l4 4l-9 5l-13 -4l5 -5l-14 -4l-3 14h-6l-3 -5h-3l3 6l8 3l1 5l3 2l4 11h10v-6l-3 -3v-4l6 -2v-3l8 6l2 -6l8 -3l2 -13h2v-9l5 -5 l7 5l2 9l7 -2l7 2l-5 4l-18 -2v5l3 2l-5 4l18 3l9 7l5 9l-3 2l3 5h-5l-9 4h-7l-6 -11l10 -2v-6l-10 -5v6l-17 3l-4 9v5l-3 4v7l-12 3v-5l3 -2v-6h-5l-2 10l4 5l-14 15l5 6h3v14h13l-1 -5l-10 -12l4 -4v-9l12 -3h12v12l5 5l-5 12l-8 -5l3 9l17 -5v18l2 7l11 -11v-9l3 -10h-12 v-4l5 -6l4 3l2 -4h9l-3 17l9 8h4v6l-16 3v6l6 3l10 12v9l5 8l4 1v8l-2 1l-2 -4l-12 3v11h-8l3 7l12 -2l7 6v5h-2l-3 -5h-9l-6 7l-5 -15l-6 -3l-9 7l9 9v4l12 7v14h-7v5h-5v-11l-9 -5v-5l-12 -5l9 -10l-4 -3l-9 3v4l-3 3l8 11l7 2l-5 2l-3 4l-10 -4v-16h-3l-6 11l5 7l-4 10 l-13 3v8l-6 -2l3 12h5l6 -10h5v3l-4 2v10l-19 3l-10 -4l-7 6l3 4h6l-3 6h-10l3 14l-5 5l-6 -3v5l13 19l21 23l6 -6l16 -5l8 4h5l16 16v6l20 6l10 18l5 5l-4 6l13 13v4l-21 -3v5h4l18 22l-4 6v7h-6v4l12 14l-12 3v9l6 3v11h-6v17l-12 3l-5 5l-7 18l-30 12h-17l-4 7h-4l-5 -4 h-15v7l-24 23v7l14 18l3 12l13 2l4 -2l58 4l33 -12l9 -9l10 -4v-5l15 -8v-8l10 -5l3 -8l6 -3l14 -14l4 -14l5 -4v-8l8 -10l-3 -10l5 -9l-3 -5v-26l-4 -18l6 -7v-14l-2 -4l7 -4l-2 -17l-3 2v-7l3 -7l-3 -6v-10l-4 -5v-9l-7 -5l2 5h-2l-10 -14l12 -4l5 -5l-2 -7h-15l-4 3 l-7 -3l3 -16l-12 -5l9 -2l2 -3l14 -1l-2 -5h-6l3 -14l-2 -2l5 -3l8 -15l10 -3v-8l9 -4l-7 -7l4 -15l-3 -13l4 -36l5 -5l2 -10l-7 -4l4 -10l-4 -20l5 -9v-12l2 -2v-14l-10 -20l3 -14l-7 -7v-10l-13 -13l-3 -12l-14 -12v-10l-11 -3l-16 -17l-6 -11l-19 -6l-8 -8l-33 -10l-15 6 l-9 -5l-9 5l-7 -7l-8 4zM63 515h-5v8l-6 10v17l-4 19l6 13l4 21l5 2l4 12l15 14l3 8l12 5l3 8l5 2l18 18l19 10l9 10l25 3l6 3l8 -3h9l7 -6l7 4l3 -2h11l5 -5l10 -5l8 -11l-4 -11l1 -10l3 -9l-3 -2l-1 -14l-3 2l-2 -4l-4 2l-5 -2h-19l-5 4l-18 -7l-7 -7h-9l-2 -4h-5l-2 -8 l-19 -13l-11 -12l1 -6l3 -3l-16 -16l-2 -30l-9 -5l-4 -7l-16 4l-5 -7l-17 6zM172 12l-16 2l-21 11v5l-16 6l-10 17l-12 7l-13 21v5l-19 11l-7 9l-9 67l6 11l-5 12l4 14l7 14l9 4h14l3 4l6 -5l15 -4l4 -6l2 -14l2 -47l9 -13l2 -11l9 -3l-4 -4l3 -2v-7l5 -6l6 3v-7h-4v-3 l14 -11l16 -7l11 2l-2 -9l6 -6l8 4l12 2l4 3l5 -5l4 2l5 -4l13 2v-14l12 -7v-13l-10 -27l-6 -3h-12l-10 -4l-19 4l-5 -3l-12 3h-4zM192 349l-9 7l-5 17l8 10l5 15h41l14 -15v-15l6 -15l-18 -6h-9l-14 -8l-7 8zM346 247l-6 5l6 6l-5 4l6 6l11 -10l-10 -4l14 -17l-10 -4h-10v7 zM388 139l4 8h-3l-10 10v19l-7 -3v-18l-2 -2l9 -10zM306 236h-3v7h7l2 -15h12v-6h-6v5l-15 -14v18zM280 147l-2 10l12 10l-3 -20l2 -6h3l2 -3l-6 -2l-8 4v7zM358 462v11l5 -2v-4h10l-4 -12l-9 -2l-4 3zM370 554v7l5 5l4 -2l-1 -5l4 -5l-4 -4h-8v-5l-5 4zM267 197l9 1l8 4 l4 -5l-15 -7l-6 4v3zM262 180l9 -3l-9 -4l-3 -5l5 -1l-2 -3h-5l-3 9zM393 162v14h7l-4 4l-9 -9h-3v-6zM331 308h5v6l-8 7h-6v-4h6zM293 294l4 4h9l4 -10l-4 3zM289 330l5 3v-7l-14 -5v5zM217 171h5v-9l-2 -3l-3 3v9zM255 644h7l2 -4l-4 -4l-5 6v2zM340 509l2 -3v-7h-4l-3 3z M276 113v-7h-3l-6 7h9zM338 143h2l2 4h3v3h-5l-4 -3zM362 567l4 -3l-3 -5l-5 3zM294 252h7v-4h-7v4zM393 233l3 3v7h-3v-10zM298 99v-4h-4l-2 4h6zM349 308l-4 6v-6h4zM378 186l13 3h-7zM393 261h3v2h-3v-2zM340 162l2 5h-2v-5zM366 284v3h-3z" />
<glyph unicode="4" horiz-adv-x="509" d="M334 18l-7 7v12l-5 16l3 10v34l-3 6l4 13l-6 7l2 6l-2 14l-2 3l9 11h-5l-2 2h-7l-5 -4h-5l4 7h4l5 5v8l-12 2l-5 3l-2 -3l8 -7l-3 -3l-5 4h-5l-14 -12l-7 6l3 8l-13 4l-5 12h-8l-4 -9l-7 7h-11l-3 -13l-14 13h-22l-17 11l-9 -9l-7 8l-9 1l-9 6l-4 -4l5 -6h-4l-11 12v4 l-6 5l-6 12v6h-4l-5 -5l-21 -1l-8 -11l-10 -7l-12 6h-16v16l-5 7l3 10v10l11 15l3 13l12 6l-3 4l7 4l18 33l14 14l4 13l9 9h3l6 8v6h6v15l14 13v12l4 5l4 -5l2 14l10 5l5 11l16 16l-3 3l8 11h6l8 14l-3 2l9 2l10 19l20 23v5h-2v6l14 4l3 8l9 9v7l16 16v10l12 15l6 3l12 16 l16 25l29 19h12l15 -4l4 -8l-2 -2l4 -14l-4 -5l-9 -31l-5 -3l-5 -14l-7 -7l-2 -9l4 -5h7l-2 14h30l14 -14l5 -13l2 -14l8 -4l-9 -12l5 -5v-9l-2 -3l2 -2v-9l-4 -5v-11l-4 -8l11 -11v-5l-6 -5l3 -6l-2 -4h-4l-3 -17h14l-7 -9h2l-5 -8l3 -15l7 -4v-7h-9l-3 -11l7 -13l5 -2v-9 l-5 -5l5 -5l-2 -14l-5 -4v-17l8 -17l-6 -5v-5l7 -7v-11l-2 -3l7 -6l11 7l-9 9l12 7l6 -16l-6 -5l7 -8l15 -7l6 -11h2l2 -4l10 -7l-17 -26l-16 -14l-5 3l-2 -7h-7l-3 -10l-15 12h-9v-7l4 -4v-3l-11 4l-2 -10l7 -4l-6 -12l3 -4h6l-4 -6l7 -33l-2 -2l2 -11l-4 -5v-33l-7 -27 l-5 -7l-2 -9l-12 -11l-13 -3h-19l-14 8v10zM142 271l4 2l6 -3h14l13 9l-4 5l2 4h-7v5h14l3 8l9 4v7h-12v-9l-14 -4l6 13h-10v-9l-20 -10l-4 3l-5 -5v-9l5 -7v-4zM299 499l8 3v9h11v7l-7 6l-3 6l12 3l-2 8l-16 -12v-11h-7l-4 -5l8 -3v-11zM209 279h8l-4 14h10v5l6 11h-15v-4 h3l-5 -9l-7 4l-5 -2l-3 -7h5v-3l5 -4zM309 461l13 9l3 10l-3 12l-6 5h-5v-7l6 -6l-4 -11h-9v-6zM182 326h12l6 12l9 -5h9v6h-9v3l3 2l-7 3l-4 -8l-14 -4l-5 -5v-4zM277 168h6l7 8v8l-7 3l-5 -4v-12zM278 476h11l6 12l-5 7l-2 -5l-10 -7v-7zM116 245l10 7l-4 5l-6 -3l-2 -6z M253 365h9l10 4h-7l-7 4zM205 314l4 3v6h-7v-6zM303 448l-5 13l-4 -8zM334 568h7v10l-7 -7v-3zM223 365l-2 7h-7l6 -10zM320 450h2v9l-6 -4zM236 292l3 4l-4 4h-4zM265 443h4v7h-4v-7zM188 349l5 2v7l-5 -5v-4zM170 338l7 1l-2 5l-5 -5v-1zM239 398h5v4h-5v-4zM191 279h5v3 h-8zM308 434h3l2 3h-5v-3zM207 353l2 3l-4 4v-2zM248 284h3v4l-3 -1v-3zM265 296l2 2l-5 2zM163 287l-2 -5l-3 2zM218 395h3v3h-3v-3zM226 284l1 4l-4 -1zM302 432l-3 5v-3zM230 365h5l-3 3zM329 561h3v2h-3v-2zM253 418h5l-2 2zM248 428h3v2zM158 288h-2v3zM239 308l3 1h-5 zM258 432v2h-2zM272 185h2v2zM397 183l2 2h-2v-2zM307 303h1l-1 2v-2zM235 338l2 4l-2 -3v-1z" />
<glyph unicode="5" horiz-adv-x="526" d="M170 1l-26 5l-27 27l-13 9l-5 9l-7 7l-2 5l-15 7l-2 9h-4l-3 11h-5l-13 19v26l3 9v12l-3 1v30l3 10v11l6 7v5l6 10l12 4h17l13 -6l5 -9l12 -6v-3h-5v-6l5 -9v-5l3 -5v-9l-7 -7l7 -9l1 -12l5 -9l-6 -9l10 -4l15 -26l11 -3l8 -7l6 3l-2 -7l2 -10h10l3 5l10 -6h9l11 5l3 -5 l12 -3l9 -5h6l4 -21h15l12 14h5l17 12h10l9 4l15 -1l11 11h3l-3 -11l16 13l7 15l25 17l8 26l-5 4l7 4v31h-9l4 10l-4 2l10 2l-4 11v7l-2 3l2 11l4 7l-5 16l8 7v5l-11 2l4 11l5 9l-5 8v9l-6 7v8l-12 6l-7 7l-11 5l-10 1l-9 10h-5l-4 -4h-10l-4 4h-33l-5 11l-13 3l11 3l-11 5 l3 10l-12 5v4h4l10 12l12 10l-3 4l9 9l2 -10l12 5h7l8 -3l5 6l8 2l4 -2l13 3l8 -3h12l3 -5l11 5l18 -9l4 -5l15 -2l-3 -3v-10l16 -8l32 -37v-11l5 -9v-17l4 -18h-4v-3l3 -2v-34l-3 -5l3 -7v-9l-6 -6l7 -11l-5 -13h5v-5l-6 -12l5 -9v-9h4v-23l-3 -2l5 -8l-2 -9v-7l-3 -6l3 -6 l-3 -8l-1 9l-15 -29l-13 -9l-12 -15v-5l-4 -5l-15 -6l6 -5l-6 -2l-7 -8l-4 3l-7 -7l-5 -10l-5 4l-13 -12h-13l-19 -5h-37l-4 3l-15 3l-13 12h-12l-7 3h-9v-7l-7 -7h-9l-14 -7h-25l-9 3h-15zM164 349l-9 -2l-30 7l-11 -5l-15 7h-21l-9 9l-7 3v4l-5 5v37l-4 20l3 12l-5 11 l6 13l-4 31l2 7l-2 3v18l-5 12l7 3l-2 31l3 7l-3 12l2 8l-2 15v39l4 14l9 16h12l5 5h12l1 -2l9 4l56 2l14 -2l5 5l14 -7h30l4 -5l2 3h5l2 -6l8 -6l4 -7l7 -4v-3l-6 -3l-5 -11v-14l-10 -6l-3 -7h-8l-8 4l-3 -7h-10l-6 3l-6 -3h-16l-14 -5l-5 5h-6l-4 -3l8 -7l-14 -4l3 -6 l9 -5v-3h-9l-7 7l-5 -11v-14l13 -9l-4 -3v-14l-6 -4l-5 -14l2 -5l3 -20l-3 -3l4 -2v-5l-5 -3l10 -3v-9l-9 1v-10l4 -6l-1 -11l5 -11l8 -2l8 -11l6 -4l17 6l9 -9l9 5l14 -5l6 3h12l6 3l12 -17v-4h5l5 -5v-3l-5 3l-3 -5l6 -20l5 -6l-4 -8h-9l-11 -9l-9 -3l-2 -6h-5l2 4l-4 4 l-19 -6l-16 2l-12 6l-3 -14zM341 629l-4 -3h-10l-4 3h-19l-27 10v24l10 15l15 11h87l8 2l46 -5l9 -4v-3l7 -3v-20l-5 -9v-5l-2 -2v-6l-14 -3h-16l-9 -5h-16l-8 3h-20l-4 -6h-17v6h-7zM164 608l6 2l5 -2v-7h-11v7zM265 25l6 7l-8 3l-3 -10h5zM168 529l4 -7h-7v5zM329 234v-5 l-2 -2l-3 7h5zM260 40h3v5h-3v-5z" />
<glyph unicode="6" horiz-adv-x="527" d="M205 -2l-5 2l-14 -3l-16 8l-2 4l-13 7v5h-8l-32 32v4l-28 20l-4 13l-8 7l-1 16l-8 7l8 25l-3 2l-2 8v12l4 13l-7 9l4 7l-6 5l-2 7l4 11v37l-2 4l-2 13l5 13l-3 21l2 7v32l-5 15l3 3l-2 5l2 15l-2 17l-3 8l8 24l-7 7v3h2v18l-2 5l4 10l-2 6l-14 7h14l-2 9l3 9l-3 5l4 11 l-4 5l2 7v16l-4 7l5 8l-4 8l5 3v6l11 12v13l9 4l6 10l9 5h4l2 7l15 14l3 6l12 8l5 11h6l22 9l12 -2l16 7h32l26 -5v-6l15 -14v-2h-8l4 -8v-10l6 3l4 -7l-15 -8l-5 -12h-13v-9l-5 -7l-4 5l-7 2l-6 -6l-6 4l-7 -3l-8 -12l-24 -1l4 -5v-5l-2 2l-9 -6l5 -5v-4h-8l-4 -10l-9 -2 l3 -9l-3 -3l3 -4h-3l3 -5l-5 -3v-6l-5 -9h-5l12 -6v-16l9 5l3 12l1 -7l3 -2v-3h5v-4l-7 -9l-2 6l-4 -6l-10 2v-5l-8 -8l3 -3l10 2l4 -2l-7 -7v-3l4 3v-5h9l-1 -11l-9 -5v-6l9 -10l20 8l5 -6h5l4 15l9 -6l12 -4v-2l-5 -3l5 -4l5 -10l32 5l9 3v-5l-8 -8l12 -6l8 7h16l4 2h21 l5 5l4 10l6 -10l10 -2l3 -3h4v7l-3 2l3 10h3l4 -10v-6h7l3 -3h4l2 3l-5 4l4 3l6 -3l3 7h6l2 -11l5 -3l11 5l12 -11l7 2l9 -2l13 -19l11 -2l21 -29l9 -6l4 -9v-5l7 -7l2 -21l5 -18l-5 -8l8 -4l-3 -13l-5 -10v-9l7 -7l-4 -17l10 -7l-4 -17l3 -14l-3 -7l7 -3l-2 -4l-5 -2l3 -4 l-4 -9l8 -8l-7 -3v-9l4 -3l-4 -3l-2 -19l-5 -7v-4l-4 -5v-5l-11 -14v-4l-6 -5h-9v-7l-15 -16l-9 -3l-3 -8l-17 -18l-4 -10l-7 -2l-2 2l-21 -7l-6 -5l-6 3l-8 -3l-6 3l-13 -3l-9 3h-17l-4 5h-7l-17 8l-5 19h6v9h-3l-2 -4h-3l13 22l30 8h20l5 4h15l8 12l4 2v7l21 18v8h5l2 9 l6 8l-4 3l3 5v11l5 3v4l-5 8v6l6 7l-1 16l-8 11h-11l4 12l12 2v5h-5l-2 -2h-5l-4 4l9 5h7v5l-5 7v23l-4 4l2 14l2 2l-2 5l3 9l-8 12l-9 2l-6 13l-6 -4l-9 3l-7 11l-25 -2l-7 4h-6l-3 -4h-8l-4 -8l-11 3l8 5l-3 7l-13 -4l-16 11l-16 -4l-7 7l-11 -8l-5 -11l-2 2l-9 -3v-11 l-4 -5h-5l2 2l-3 13l-11 -5h-8l-3 -8h7v-4h-8l-4 7h-4l-2 12h-8l-4 -6l-9 -1l-8 4l-10 -4v-3l10 -5l3 -4l-4 -5l-12 9h-5v-5l10 -5l-2 -22h-4l-4 -7l3 -4l-3 -2v-45h12l-4 -4l-10 -3l7 -13l-5 -3v-22l11 -3l-8 -5l-3 -16v-14l-2 -4v-21l-4 -4l15 -7l3 -4l7 4l6 -23l10 -10 l12 -2l2 5l2 -8l9 4l4 -12h22v-3l4 3l2 -3l17 -2l9 -4l4 -17l6 -10l-3 -13l-14 -13l-25 -8l-7 3h-21zM438 503l-7 2l-12 12v4l5 4l-8 12l4 4l-3 10l-7 7l-2 14l-7 9h-3l-8 14l-17 7h-9v5l-14 6h-18l-14 8h-16l-7 6l-5 10h-7l-6 6v5l-3 3v6h4l3 -5h5v8l5 11l6 2l2 3l19 9h25 l13 -3l8 4l33 -8l6 -6v-6l12 -8v-3h9l11 -14l17 -9l2 -5l15 -15l6 -17h2l4 -7v-11l6 -5v-4l-8 -4v-3l6 -6l4 -11l-10 -15v-15l-16 -11l-21 -9zM170 469v18l5 5l8 -3l4 11l7 -7l-8 -4l5 -2l-2 -12l-3 -2v-7h-7l-4 3h-5zM204 456l-5 -5l-5 6v9h6v-5l5 -2l2 2h19l11 -14l-5 -5 l-13 8zM248 328l10 4l2 12h5l2 -17l-15 -11l-6 5zM178 553h8l12 12l6 -3l-6 -9l-7 -4h-8l-4 -8l-4 3zM179 311l-2 3l3 9h9l-5 -15l7 -10l-2 -3l-7 3zM237 487h-7v11h-4v5l3 3l15 -19h4v-6l-9 3zM283 547h14v-5l-4 -4l-16 3zM205 293l-2 5h9v-3l7 -5l-14 -5v8zM274 392l9 2 v10h-11l2 -5v-7zM242 445h6l9 -8l-9 -3l-6 6v5zM213 513l-6 6l2 2h10l-3 -13l-7 2zM388 113v5l9 -2v-5l-8 -7v4zM228 551h9v-7l-12 4zM242 517l6 -5v-9l-6 3v11zM293 335h5l-3 -7h-9v3zM182 514h7l2 -2l-2 -4h-7l-3 2zM239 307l3 4h4l-4 -11v2l-7 3zM272 355h5l-3 9l-7 -6z M313 439l3 -3v-7h-6zM258 470l5 -7l-7 -2v9h2zM412 182h5l-2 -9l-3 3v6zM283 359l5 3l2 5l-2 2l-5 -5v-5zM278 466v-12l-5 12h5zM203 528v-5l-5 -2v7h5zM200 424l3 3v4h-7l2 -2zM179 420l3 4h-7zM359 290v-6h-2v6h2zM251 413l5 2l-2 3zM143 177h2v3h-2v-3zM419 215h3l-3 2 v-2zM143 498h2v2zM145 300h2v2z" />
<glyph unicode="7" horiz-adv-x="473" d="M149 19l3 25l9 18l9 27l5 9l5 19l9 19l2 21l9 9l8 16v11l6 12l3 2l7 28l5 4v14l4 5l5 20l6 3l5 7l2 19l5 4v12l12 17l6 18v14l10 5v8l5 16l9 9l13 35v7l7 10l-5 13v7h3l3 -7l6 7v7l3 4l-9 3l4 2l7 9l4 10l7 6l13 27l-3 3v5l-5 -5l-3 3v9h6l2 2l-2 4l6 12h9v8l3 11l9 10 l-3 1l-2 7l-7 -7h-9l-3 4l-7 -4l-17 5l-17 -2l-5 -3l-20 3l-5 -11l-4 11h-12l-6 -3h-10l-2 5l-3 -2v-9h-9l-14 9h-11l-5 5h-21l-14 -5h-48l-9 5l-6 -4l-4 6l-14 -2l-2 -4l-11 5h-9l-9 5h-8l-13 9l-5 12v21l5 9l18 9l21 5h39l7 3l15 -4l34 6l9 -3h20l5 5l7 -4l9 7l4 -8h51 l3 8h2v-6h3l2 6h5l3 -8l26 8l3 -3v-7l35 2l9 3l9 -3h23l4 -4l5 2l7 -2l14 -14v-9l7 -15l-12 -6v-7l5 -2l-2 -5l-7 -3v-13h-9v2l-7 -3l18 -12l2 -12l8 -8v-12l8 -10l-8 -5l-5 -9v-12l-3 -12l-9 -21l-6 -2l4 -9l-12 -17l-9 -22l2 -2v-8l-6 -6l-5 -12v-13l-7 -10v-9l-7 -3l3 -7 l-14 -18l3 -10l-8 -8l-4 -16l-12 -12l-5 -2l-2 -16l2 -6l-4 -11l-5 -5l-12 -25l-4 -15v-8l-11 -10l4 -3l-13 -14l-3 -21l-12 -12v-9l-7 -14l-11 -13v-15l-5 -9l2 -4h-4v-5l-9 -13v-14l-8 -8l-13 -22l-5 -15l-12 -19l-9 -4h-16l-15 9zM321 535l-4 7h4l18 -9v-2h-9l-4 3l-7 -8 v6zM263 612h11v-5l-4 -3l-7 3v5zM324 614l6 -5v-5l-9 8z" />
<glyph unicode="8" horiz-adv-x="527" d="M143 7l-6 -2l3 7l-7 7l-5 2l-22 24h-5v8l-9 3l-6 12l-14 8l-15 24v5l-4 9v39h-4l5 14l-5 5l4 13l-4 11l7 9l-6 18l9 28l-4 13l-7 13l9 9l-2 15l-4 7l13 2v11l19 13l6 13l8 4l1 8l-6 4l11 7v5h7l-9 9v14l-18 19l-6 10l-11 5v9l3 7l-5 5l-5 -2v9l5 5l-2 6l2 10l-3 23l4 16 l-3 11l2 8l-4 3l4 4v30l4 15v11l9 6v13l23 16l5 12l10 5l18 23l12 7l4 5h9l11 8l29 4l7 -3h37l6 -9l10 -4l-3 -6l8 -17l-3 -12h3l5 -5l-3 -3l-2 -9l-3 11l-17 -14l-4 3l-6 -9h-16l-12 -4v-5l-5 -4l-12 3l-11 -4v-7l11 3v-9h-6v2l-12 -2l-9 -10l2 -2l-5 -7l-1 4h-8l-6 -4 l-10 -15l9 -4l-9 -9l4 -13l-6 -12h-4l13 -24l-8 -8l5 -12l8 -3v-8h-9v-8l11 -11h6l4 -7l2 -12h7l5 9l6 -9l-8 -4l4 -7l17 -4l3 -8h23l-4 17h-4l-7 5l4 4h3v-5h4l3 3l6 -3l-5 -5l2 -8l10 -3v-7h-10v-5h24v-4h6l8 7l4 -7v-9l5 -12l5 -6l6 32l-15 7l4 4l3 -3h6l5 3l4 -3l-3 -2 l17 -8l2 6h10v7l-5 3l-6 -3l-9 14l1 9l-2 5l21 -2v-3l-5 -5l-4 -14l9 4l7 -3l7 4h5l-15 -16h19l5 2l2 -2l14 4l-4 4l11 18l7 -3h10l3 11l8 8l-6 8l10 5v3l11 16l-6 -3l5 14l-5 5l7 4l6 10l-7 7l3 4l-5 8l-4 1l2 3h7v7l-9 7l9 3v6h-7l-5 19l-5 5l-4 -3h-6l-3 4h-3l-2 -4l-2 9 l16 3v4h-6l-6 -3v12h-14v9h-4l-6 -5l-10 10h-10l-3 -3l-7 8h-13l-4 7l-7 4v5h-6v-5h-6v29l-6 2v11h4l9 5v6l17 10h22l10 5l4 -3h33l9 -5h9l23 -19l13 -17h10l3 -10l7 -6l4 -9l9 -10l8 -4l20 -33v-12l2 -2l-2 -24l2 -46l-8 -17l4 -7v-6l4 -3l-6 -12v-9l-3 -3v-12l-4 -6h-9v-5 l4 -4v-6l-4 -4h-12l-2 -16l-14 -3l2 -9l-9 -2v-7l9 2v-6l-4 -8l7 -7l7 -2l8 -20l17 -21l11 -29l-9 -8v-12l7 -12l-5 -9l-4 -1l7 -8v-13l2 -12l-8 -8l6 -9l-5 -16v-15l7 -5l-6 -17l6 -9l-7 -7v-13l-4 -9l-19 -20l-9 -4v-11l-9 -8l-17 -7l-9 -18h-9v-8l-12 -5l-6 -8l-24 -6 l-2 -3h-9v5h-24l-17 -3l-26 12h-7l-2 12l-5 4v7h-12l-4 -4l3 -4l-9 -9l3 -3l7 3v-4l-12 -7v-6l-17 3l-5 -6h-17l-11 6l-7 -3l-25 -3l-13 9h-10zM268 41l5 8h-5v5h6l3 -3l2 7l-5 3l-2 5l6 -4l7 6l4 -3l12 8l10 -3l4 7l5 -5l12 -2l7 2l2 3l14 6l12 10h4l9 14l5 4l3 7l9 10 l3 -5l6 11v25l7 10l-3 7l-1 42l-6 6v20l7 4v11l-14 3l-6 7l13 6v7l-4 -2l-9 11h-2l4 5l-4 3v4l-5 7l-7 -4l-3 -24l-9 9l-6 -11l-3 4l-10 -4l-16 7l9 4l3 12h6l4 -10l-5 3l-3 -3l9 -7l18 18l-6 4l-2 6l-7 7h-6l-8 17l-18 -9l-11 -4l-8 8h-9l-14 6l-5 12h-13v5h-10v-3l7 -6 l-7 -14l-14 -7l-1 -3l-9 -3l-3 3l13 14l-15 4l-6 -6l-1 6l-9 -12h-21l-6 -4l-8 4l3 -6l-3 -6l4 2l19 -5l-5 -14v-7h-12v10l-9 9h-12v-12h-11l-8 -8l4 -3l-3 -2h-9v-26l-4 -8l6 -13l-9 -9l3 -7l6 3h12l4 -8l3 -1l-3 -3l4 -4l10 8l-9 -18l4 -2v-7l-6 -3l-9 3v-12h-7v9l-8 -4 l-3 -8l8 -5v-8l12 3l2 -3h10l-3 14h4l5 -9h3v-5h-3l-6 -6h-21l4 -15l5 3l12 2l-5 -19l-7 -1l5 -4l7 4l10 -7v-8l-6 -14l4 -3l5 6l-3 2l14 6l-10 4l7 7l6 -5v-5l7 -11l-3 -5l5 -5h12l4 -4h17l7 7l5 2l1 12l3 1l-9 8v4h14v-18l2 -3l-10 -6l-6 -12l6 -12l8 -6l1 -12h12z M269 306l5 2v4l-14 15l-2 -3l3 -6l-8 3v8l7 2l3 6l8 4l8 -14h11v-8l-9 -9l-2 -13l-16 1zM272 211l-4 -3l-3 3h-7v7l16 -2l5 -3l11 3l14 13l-2 -4l2 -9l-5 -15l-5 6l-15 -8l-2 7zM193 139v7l10 7h9l-7 7l-5 2v3h14l4 -15l5 3v-9h-6l-11 -10l-6 5h-7zM290 259l-8 -5l-4 8l3 5 l5 1l6 7l7 -11l8 -7v-9l-9 -2v6zM152 278l-5 2l3 8l14 -7l-8 -9l2 -4h9v5l6 5l2 -2v-5l-4 -4l6 -3v-3l-18 -2l-7 9v10zM173 206l-4 3l13 13v7h9l8 -5l-8 -8h-4l-5 -5v-10h-9v5zM320 246v4l9 -3l3 5v7l9 5l-3 -6l3 -10v-10l-7 -4h-9v7zM323 444l-4 -4h-6l6 11l15 -2l14 -11 l1 -8h-10l-10 14h-6zM163 135h7v25l3 5l6 -5v-4h3l-3 -17l-10 -10l-6 3v3zM230 289v5l3 3l-3 1l9 7l3 -14l9 3l-3 3v9l11 -11l-11 -13l-5 7h-13zM313 308v4h8l6 -10l5 15l7 -9l-19 -19l-1 14zM212 227l9 11h5l4 5h8l4 3l2 -3v-9h-5l-9 4l-9 -7l-3 -5l-6 -4l-3 -5v5zM136 234 l4 9l7 7l-2 -9l7 -4l6 2l3 -6l-12 -4l-4 5l-8 -7l-4 4zM163 241l-5 7v4h4l4 -9h16v-9h-15l-1 4zM244 135h7l-3 15l5 5l9 -5l-4 -4h-5l5 -8l-10 -9l-6 3zM233 471l6 6l21 2v-3l-12 -8l-9 6l-4 -14l-2 5v6zM209 310l-4 2l3 5l18 -2v-9l-5 -5l-6 9h-6zM298 162h6l8 -8l-12 -12 l-2 6v14zM304 294h-5v9h8l9 -14l-7 -7v7zM242 222l10 -5l-10 -18l-3 8zM233 271v5h5v-12l-5 -5l-10 2zM233 510l14 -10l-5 -3h-9l-4 3zM359 483v3h7l3 -7l7 -5v-3h-9l-3 8zM228 216l7 -8l-11 -8l-4 7zM233 432l-3 5h5l4 -5l12 -2l-3 -2l-10 2l-10 -7l2 5zM215 202l-3 -16 l-7 -8l-3 4zM277 287l2 2l2 -2h8v-9h-6l-6 4v5zM182 186h15l-4 -10l-11 6v4zM170 197l5 -2l-2 -3h4v-2l-14 -4l4 13zM313 146v7l7 -7v-5l-4 -2l-4 4l-6 -3l-3 3zM318 169h10v-9l-7 -3zM209 121l-4 -3l-7 3v5l5 -3l6 4l6 -8l-3 -5v4zM349 267l9 -4v-6h-5l-4 6l-6 -6l-2 2z M196 204l7 -9l-12 -4v8zM223 176l3 5l2 -5l5 -2l-5 -8l-5 3v7zM196 246l12 4v-2l-12 -10l-4 4zM299 195h5l7 4h5l-10 -10l-7 3v3zM323 543v9l2 3l7 -14v-4h-3l-4 6h-2zM218 281l3 4h7v-9h-7v2zM373 209l3 -3v-5l-12 3l-2 -5v7zM143 199v6l-7 -4v3h-8v-5h15zM332 220v-4 l-6 -7l-4 11h10zM290 91l-1 2l2 3l7 -5v-5h-9v2zM196 551h4v-12h-4l-3 5zM260 238l9 -1l5 -6l-6 -2l-8 8v1zM191 429l9 -3l-4 -7h-5v10zM319 278v-5l-6 -2l-6 7h12zM385 248l7 -10h-4l-9 7zM346 229h16l2 -2l-11 -2l-7 2v2zM238 146v-7l-10 -3v3zM289 186l6 1l-5 -9h-7l3 3z M200 303l9 -6v-3h-4l-9 9h4zM166 599h4v7l-3 2l-5 -6zM239 181l8 -7l-4 -4l-5 6zM289 162l4 -6l-7 -4v10h3zM248 165v-5l-6 -4v9h6zM296 521l3 6h5v-9l-2 3h-6zM330 272l6 -5l-7 -3l-3 4zM149 569h8v-5h-8v5zM218 75h8v4h-9zM337 500v-5h-8l3 5h5zM339 165l4 -5h-6l-5 5h7z M265 271h4l3 -3l-4 -4l-3 3v4zM255 131l4 -5l-3 -3l-5 4zM303 463l4 -7h-5l-3 4zM397 162v-6h-3l-4 6h7zM260 273v-5h-7v3zM244 333h4l3 3l-3 5zM309 246l4 -3l-3 -6l-3 4zM260 187v-4h-9l2 3zM373 252v3h6l4 -5l-7 2h-3zM158 518l5 -7h-5l-1 5zM272 79l-3 -3l-6 -1v4h9z M298 615v-7l-3 -2v9h3zM385 278v-5h-5v3zM353 509v-5h-4v5h4zM376 192l3 5v-5l-6 -5v3zM173 462h6v-4l-6 2v2zM145 273l-5 -2v7zM286 298h7l-3 -4l-4 3v1zM208 287l6 -5h-6v5zM188 135l-1 -5h-5l5 5h1zM296 126l3 -3l-4 -2l-2 2zM349 248v-7l-4 3zM281 123l2 -5l-2 -2l-2 2z M265 361h4l-4 5v-5zM289 144l1 -5h-4v2zM145 301l2 2l-4 3v-3zM218 267l3 -3l-3 -3l-1 6h1zM239 483v-2h-6v2h6zM188 156l3 -5h-4v2zM154 591h3v3h-3v-3zM268 144v-3h-3v3h3zM283 88v-2h-2v5zM217 206v-2h-3v2h3zM179 308h3v2h-3v-2zM334 208l-2 -2l-3 2h5zM242 7l5 3h-3z M182 176l-3 -5v3zM260 169h-4l4 2v-2zM272 139h-3l3 2v-2zM274 370h3v2zM233 333v-2l-3 2h3zM187 282l-5 -2l2 2h3zM359 201l3 2v-2h-3zM182 96h5l-3 1zM226 106h-5h5zM55 197l2 4l-2 -2v-2zM401 576v2h-2zM334 183l-2 -2v2h2zM223 130h-2l2 2v-2zM307 139h-3l2 1zM320 208 v-2l-1 2h1zM127 195h1l-1 2v-2zM136 216l1 1h-1v-1zM159 259h-1h2h-1z" />
<glyph unicode="9" horiz-adv-x="524" d="M306 3l-16 5l-8 25l3 2v12l11 9l-4 3l14 6h15l3 -2l14 6h11v9h19l7 15l4 4l5 11l9 4v15h12l4 23l-7 5l-2 9h-3l3 12l7 -8l2 6l-3 11l-11 2v5h7v5l-7 4l3 14l-3 2l3 2v19l4 9v12l-12 7v4l5 7h-6l-4 3l-6 -5h-4l-6 -6l-6 3v7h7l-3 11l10 4v8h-12l-5 -4l-6 2l-5 5l-2 -3v-15 l11 -9v-6l-4 -4l-9 2l-3 7l-9 10l-9 2l-3 11l-11 -2l-2 -10h-8v-6h-9l-2 2h-9v3l5 1l2 12l12 3l-3 8l-8 4l-7 -15h-15l2 -12l-2 -4h-9v4l11 19l2 10l-2 1v10l-4 9l-4 -3l5 -18l-13 -11h-5l-1 -5l-8 9v-13l-4 -3l-7 7l-7 2l-4 5l-4 -9h5l-6 -10h6v-4l8 7h4v-7l-9 -2l-3 -5h-6 l-5 5l-7 -5l-2 2h-5l-2 3l7 9l-2 5h-5l11 13h-15v-7l-20 10l-13 -5l3 -2h-12l-18 13l-16 4l-4 11l-12 9l-4 14h-10l-9 13l-13 8l-2 4l2 2l-6 14v14l-4 12l4 7v9l3 8l-5 8l4 6l-6 3l4 23l-4 30l6 4l-6 24l4 9v21l15 31l21 13l23 30l5 2l16 16h4l10 12l32 2l6 5l8 -4l7 3 l28 -2l4 -7h7v-9h8l6 -5l6 -12l-9 -5l-11 -17v-3h5v-4l-12 -2l-2 -3h-18l-16 -9l-4 4l-15 -9l-2 -7h-12l-14 -15h-4l2 -7l-5 -7l-6 5l1 -15l-4 -5l6 -5l-3 -4h-8v-11h10l-15 -12l-5 -8l6 -20l-2 -20l-4 -6l6 -5v-29l-2 -4l5 -2l2 -6l8 -3l7 -13l8 -4l9 -9h5l-3 9l5 3l4 -7h7 l5 -5h8l-4 -9l18 5l15 9l2 -3l9 3l3 -12h9l5 12h16l6 -5l10 7h5l-6 -8l8 -12v12l9 3v12h12l2 16l4 -4l9 5l3 -8v-8l-8 4l-10 -9l4 -3v-5h12l4 -4l9 8l-4 3l5 2l8 8l7 -6l-4 -4v-6l15 -4l6 6l2 -5h7v5l-7 4l3 3l8 -3l6 19l9 3v13h5l-3 7l-5 5v5l-6 4l-3 5l-7 4l7 5l-2 4l4 4 l2 -6l5 -5l6 13l-12 6l4 5h12v10h-16l-5 6l11 8l7 -3l3 1l-3 19l5 23h-12l-5 -3l-1 26l-18 9l-33 27l-12 -8h-9v11h-17l-8 -8l-3 8v9l-11 12l2 26l20 18h10l8 8l15 -6l14 -2l2 2h7l7 -4h21l16 -17l7 -4l16 -16l9 -6l3 -11h6l9 -6l19 -20l2 -13l4 -3l6 -13l-3 -10l5 -13 l-4 -5v-6l4 -11l-4 -10l1 -4l5 -3v-14l4 -7l-9 -5l8 -11l-5 -2l2 -17l-3 -3l6 -6l-5 -4v-19l3 -15l-5 -9l10 -7l-6 -8v-16h5v-7l-7 -14l5 -5l-8 -7l-1 -9l-4 -4l14 -4l-6 -8h-3v-5l5 -6h6l-8 -12l5 -17l-6 -9l6 -18l-5 -9l2 -7l-5 -9v-28l4 -6l-4 -22l-1 -25l2 -11l-2 -21 l-5 -5v-10l-14 -13l-2 -5l-5 -2l-18 -14l-3 -10l-13 -5l-14 -10l-4 -7l-22 -14l-19 -7h-13l-2 -2h-7l-8 5h-24zM176 3h-10l-26 5l-40 38l-9 14l-19 12l-11 15l-7 21l-3 61l4 42l3 4h3l6 7h9l8 6h9l3 -5l11 4l14 -7v-8l6 -10v-8l7 -3l-4 -9v-6l5 -3v-2l-5 -3l-3 -6l3 -24 l6 -2l-4 -13l16 -17l12 -16l5 3l2 -11l14 -6l10 -10l8 3h14l9 5l7 -7l18 -10l5 -6v-30l-5 -14h-11v-8l-20 4v-5l-5 -3l-9 3l-5 -3h-14l-7 5v3zM354 227v9l4 9l21 5v-5l-13 -6l-6 -11l-2 -9h-4l-4 4zM259 360l11 11l-6 10l-12 -2l4 3l-6 4v-9l5 -6v-6zM315 258h4v10h-2v7h16 v-7l-12 -15l-6 4v1zM308 217l9 3v7l-10 5l5 6h3v-5h6l7 -6l-9 -8l-2 -7l-5 -2l-4 2v5zM370 446h2l-4 9h11l2 -12l-2 -4l-14 -5v5zM282 236v6l16 -2l-4 -9l-7 -7v9zM294 461h-7v9l13 -5v-13h-3zM250 224l-4 3l8 5l3 -4l2 -13l-9 4v5zM333 526l3 5l2 -7h9l-5 -4h-6l-8 -5v6z M340 461l-2 3l2 2h7l4 -5v-4l3 -2v-3h-7v9h-7zM220 258h-3v3h8l4 -3l-5 -10l-4 4v6zM386 254l3 -2v-16h-5v16zM389 395l9 4v7l-7 3zM273 441h5v-11h-8zM156 478l9 -3v-6l-3 -3l-6 7v5zM306 446v4h2l5 -9l-13 -2v2zM273 180l5 -4v-8h-5l-3 8zM390 284h5v6l-11 4v-3zM369 413 l4 9l6 -9l-3 -4l-4 4h-3zM347 143h7l-6 -11l-3 4zM386 207l7 -1l-9 -5h-5v6h7zM381 522l9 -2v-3h-4v-5l-5 3v7zM160 261l2 2l4 -5h3l2 -4l-2 -2l-9 5v4zM389 159l4 -9h-7l-3 4zM345 248l-3 -15l-5 6zM336 439l7 -9l-5 -4l-2 5v8zM338 482h2v-9l-2 -2l-4 4zM266 646v-6h-7v6 h7zM282 275v-7h-6v7h6zM298 388l10 2v2l-8 3zM336 506l6 -7h-9v4zM190 245v-14l-5 3zM336 298v4h-10v-2zM342 383l5 7h-7zM243 314h7v4h-7v-4zM192 258l9 3l3 -3h-17h5zM398 111l2 5h-5v-3zM405 201l2 5h-2v-5zM220 379l5 2h-5v-2zM483 386h2l-5 2z" />
<glyph unicode=":" horiz-adv-x="160" d="M55 164l-2 13l2 46l6 9l16 6l6 -3h16l15 -8l5 -18v-13l-5 -27l-18 -13l-9 3l-13 -2l-8 4zM64 421l-2 5l-11 12l3 14l-6 13l5 9v7l7 9h2l11 9l7 -4h16l12 -12v-22l8 -3l-3 -9l2 -7l-10 -9l-5 -11l-22 -1h-14z" />
<glyph unicode=";" horiz-adv-x="171" d="M40 -106l-4 -7l-9 3v23l6 11l-4 8l7 41l5 13v19l4 14v26l8 6l2 8l16 6l19 -5l6 -4h8l9 -11v-15l-3 -6l5 -11l-7 -31l-8 -22l-9 -9l-6 -16l-10 -4v-10l-21 -27l-11 -9v7zM54 372l-11 3v14l-4 6v30l12 15l6 4l12 -4l5 5l20 -10l10 -10l-3 -6l6 -12l-6 -21l-7 -14l-14 -7 l-26 5v2z" />
<glyph unicode="&#x3c;" horiz-adv-x="412" d="M306 194l-10 9l-20 7h-9l-8 7l-2 5h-5l-25 9l-14 9h-9l-7 8l-5 1l-9 9h-14l-9 10l-7 2l-5 5h-13l-9 9l-14 4l-10 8l-14 2l-18 14l-9 9l-9 14v12l-4 8l22 28l9 3l6 10l60 25l21 18l8 -2l2 4l5 2v5l36 16l14 9h6l5 10l26 8l10 8l9 4l6 7l13 2l4 5l27 5l14 -14v-18l-13 -17 l-12 -9l-11 -4l-5 -5l-7 -3v-3l-16 -3l-7 -7h-4l-13 -13l-17 -6l-8 -7l-21 -4l-1 -12l-5 -2l-14 6l-4 -9l-12 -4v-7h6v-4h-9l-13 -5h-9l-10 -10l3 -3l-3 -3v-9l11 -6l3 -9l6 -6h8l2 -7l14 -2l2 -8h8l4 -7l13 -6h14l10 -9l20 -8l47 -30h13l7 -9l28 -18v-34l-13 -3l-25 2z" />
<glyph unicode="=" horiz-adv-x="394" d="M258 270l-8 -4l-15 4l-20 -4h-30l-6 2l-49 -3l-9 4l-8 -3h-8l-4 4l-9 -4h-12l-6 6h-12l-11 12v22l13 10h14l30 7h35l9 5l28 -8h18l9 12l7 -9h14l8 4l3 -4h15l2 -3h7l4 3l5 -3v-2l7 2h16l12 -2l9 -4h15l6 -12v-12l-17 -18h-11l-14 -4h-11l-10 -5l-7 7h-9zM196 388l-6 -3 l-8 3h-48l-5 -3h-9l-5 3l-10 -3h-15l-7 4l-25 4l-10 11v18l7 8h9l10 9h81l9 4h64l5 -3h13l8 4l11 -4h44l5 -4l9 3l3 -6l13 -5l-2 -15l-8 -7l-2 -11h-9l-2 -6l-18 -2l-11 6l-18 -4l-13 -6l-7 5h-10l-9 -5h-6l-5 -4l-7 4z" />
<glyph unicode="&#x3e;" horiz-adv-x="412" d="M48 210l6 17h6l9 4v5h6l20 17l13 4l7 6l46 28h12l9 9l14 5l9 9l16 7h7l35 23l3 13l-3 8l-7 2l-13 12l-8 -5v6l-11 8l-16 2l-17 14l-10 4l-11 10h-5l-6 7l-30 14l-11 10l-17 6l-11 9h-9l-19 18l-8 11l3 28h18l32 -10l19 -15l21 -9l5 -9h9l19 -12h11l8 -7l11 -4l6 -5l16 -5 l3 3h5l2 -5l9 -4l6 -6l10 -3l4 -8h11l11 -6l18 -5l16 -16h10l20 -20l2 -36l-13 -22l-19 -10l-10 -11l-22 -3l-25 -21l-10 -2l-5 -5l-4 3l-12 -10h-11l-2 -4l-14 -5v-4l-16 -8l-3 4l-12 -12l-21 -6l-10 -11h-15l-6 -9h-7l-5 3l-2 -7l-30 -14h-21l-16 8v17zM267 347l3 2h-3v-2 zM168 231h2v2z" />
<glyph unicode="?" horiz-adv-x="472" d="M199 227v16l3 5l-3 9v25l4 9v12l5 12l4 4h5l13 25l14 11l8 13l17 11l6 10l9 4l9 14v9l15 4l8 8v4l10 7v11h11l17 18l11 17v16l6 11l-4 3l3 15l-5 4v19l-7 -3l-5 2v4l14 5v5l-6 5h-5l-3 11l-16 14l-2 -5l-7 10l-2 -7h-5l-2 2l4 9l-2 9h-7l-13 8h-17l-7 -3l-8 8l-3 -3v-5 l-5 -2l-2 5l2 2v7h-5l-7 10l3 13v16h7l7 7l2 9l14 5l32 -2l5 -3h12l19 -5l17 -16l17 -10l11 -17l7 -7h4l9 -14h3l18 -23v-14l3 -5v-21l2 -4l-6 -10l10 -10v-8l-4 -7v-11l3 -4l-3 -6v-14l-6 -10l4 -3l-5 -5l-2 -7l-9 -9l-2 -9l-7 -9v-12l-17 -9l-18 -18l-8 -12h-9l-6 -26h-7 l-6 7l-6 -11l-11 -12h-7l-7 -14l-5 -4l-32 -37l-7 -2v-14h3v-3l-8 -2l8 -9h-8l-9 -33l-4 -4h-8v-7h-13l-19 5zM48 520l-4 16l5 5l-7 22l5 8v16l13 25l10 6l13 16l12 10l6 3l24 30l26 12h22l9 2l10 -5h16l24 -13v-8l-3 -2l3 -4l1 -12l-7 -3l6 -4l1 -5l3 -4h-10l-2 -12h-9 l2 10l-14 -7v-11l-12 4l-18 -3l-7 -7h-15l-3 -11l-8 -3l8 -9l-2 -2h-15l-13 -14l3 -2l-5 -10v-30l-9 -6v-7l-12 -11h-7l-5 -3h-12l-11 3zM198 33l4 7v21l9 6l4 10l11 4h20l17 -20l-2 -12l7 -9v-16l-5 -9l-12 -7l-5 -9l-4 4l-15 -7l-17 9zM190 578l4 -3l-9 -2v5h5z" />
<glyph unicode="@" horiz-adv-x="546" d="M288 204v4l-11 11h-7v5l-7 12l-14 13h-7l-2 5l6 7v7l-4 2l-2 5h-3v12l6 5l-7 8h-8v3l17 7v4l-9 9v10l4 5v9l-7 13v9l4 -1l-1 18l5 6l-4 24l-4 4v10l3 4l-7 9h11v12l20 23v12h-6v7l10 6l3 8l3 -3l3 -14h4l7 7h6l10 5l-3 3l5 15l5 -4l2 -9l11 4v-2l5 -2l7 -8h9l9 10v-10h10 l5 10v5l13 -11l-7 -6l-5 3l-9 -12l3 -2v-5l-3 3l-2 -3v-9h14v7l7 14h14v18l2 7h21v-7h-7l-5 -4l7 -7l2 7h15l4 2l2 -14l5 4v8l7 -3l2 -5l15 6l8 -8l21 -2l2 -7l-2 -5l11 -7l-4 -13l10 -16l-7 -7l4 -46l6 -4l-6 -5l-3 -20l8 -11l-3 -9v-11l4 -5h-10l4 -19l5 -5l-3 -1v-30 l-9 -21v-8l-5 -4l-6 -12l-17 -14h-9v-5l-7 -4h-7v-6l-13 -3l-10 5h-22l-4 11h-6l-6 6l5 5l3 12v12l14 5v6h11l17 13v32h6l4 12l-6 6h-4l-3 3l9 5l-2 9l2 18l-11 7l5 1l6 8v27h-6v26l-5 4h-7l-2 -4h-7l2 -12l-9 -2l-7 7v9h7v11l-13 -3l-8 13h-5l-6 7h-6l-10 -14h7v-5l-30 -4 v-5h4l5 -7l9 -2l-5 -5v-5h-4l-5 -9l-9 -2v2l5 3l-8 2l12 8v11h-9l-3 -8l-2 6l-9 -5l4 -12l-2 -2l-3 3l-5 -4l4 -4v-7h-3l-2 -7l-7 -7v-9l3 -3v-10l9 -6l-5 -2l6 -2l5 2v-4l5 -3v-6l-9 6l-5 -2l-9 9l-5 -2l5 -12l-4 -21l9 -11l10 -3l-10 -21l23 -15v-8l11 -4l14 -14l2 -13 l-5 -6l13 -13h9l-17 -5l-16 5l-14 -7h-11l-2 3h-17l-7 -6l-6 3zM83 369h-14l-8 9l5 5h-7l-7 23l5 12l-6 2v8l3 2l-3 11v23l-3 12v66l5 10v14l9 9l2 9l7 4l4 10l6 7h4l11 12l6 11l13 6l5 8l6 2l7 16l10 2l16 12l11 12l46 2l5 3l6 -4l22 4l6 -3l10 4l19 -7l11 6l16 2l7 -7l9 5 h12l11 -3h33l21 3l4 -5h14l26 -14l9 -11v-3l9 -6v-8l9 -4l12 -12v-14l4 -9h5v-60l-9 -14l-13 -7l-5 3l-10 -5l-4 2l-4 7l-8 2l-12 15l3 2l5 21l-8 16l-4 4v10h-9l-5 -3v7l-7 7l-5 2l-6 8h-7l-4 -4l-10 -4v-4h-3l-3 9h-3l-3 -5h-7v12h-9l-5 -4h-18l-8 2l-8 -2l-7 2l-7 -7 l2 -5h-7l-9 10h-7l-5 -8l-1 3h-3l-6 -5l-11 5h-14l-4 -7l-18 -2l-4 -6l-3 3h-9v-9l-9 -5l-18 -3l-8 -8l6 -8l-9 -11l-10 4l-11 -11l3 -13l-9 -8l2 -4v-16l-9 -3v-7l4 -4l-6 -7v-51l2 -4v-21l3 -3l5 -25l-5 2v5l-8 -7l-6 -14l-13 -9l6 -2v-3h-8l-1 3l-5 -4zM256 -6l-10 -6 l-11 6l-11 -4l-11 4l-7 -3h-20l-4 4h-5l-13 14l-24 15l-5 11l-10 6l-21 22l-9 6l-3 9l-16 11l-12 22v9l-7 9l5 9l-2 8v22l-3 6v34l-3 8l5 17l-4 7v65l2 13l8 11l16 9v9h14l9 -5l5 -14l7 3l5 -4l-6 -4v-9h11v-14l-4 -9v-12l-2 -4l6 -14v-9h-5l4 -14v-19h5l-6 -12l3 -10l14 -3 l-4 -13l-3 4h-7l-3 -11l2 -26l5 -4l3 -6v-4l10 -10l6 3l-3 -7l8 -4l1 -5l7 -3l5 -11l14 -7h12v-12l15 -2l6 5h6l3 -3l-3 -5l12 -6h21l8 -4l13 6h20l5 9h7v-6h2l4 -7h7l7 -4l12 6h14l4 2l19 -2l9 -4l21 6h9l9 3l11 -7l13 2h18l13 -10l7 -22l-4 -7l-3 -9l-1 -8l-12 -8l-14 -5 h-42l-4 -3h-9l-5 5h-14l-4 -5h-33l-15 -2l-11 3l-8 -5h-17l-6 -5h-9l-8 8h-11zM374 407h-5v4h7l4 9h5l5 -4h9v-7l-12 -8l-11 3zM272 522l-12 11v5h6l4 -8l5 3l2 5l7 -2l-8 -4l3 -10l5 -2v-8l-12 4v6zM357 347l8 -8l3 -22h-11v30zM203 95l3 4l1 -4l17 -2l-5 -5l-9 3l-8 -9 l-5 4zM332 381l14 8v-8l-7 -9l-5 -2l-2 2v9zM203 443l9 5l-2 -12l-7 -4l-3 -6l-4 4zM311 548l-2 2l5 2v11h9v-4l-4 -4l-3 -14l-5 4v3zM314 580h-5v2l5 2l10 11l3 -4v-13h-2l-2 6zM186 492h5l-2 -2v-7l9 2v-7l-2 -2l-17 8zM230 84h6l1 -3h8v-5l-3 -4l-12 5v7zM348 536l3 3 l15 -3l-4 -7l-9 2zM385 589l14 7l2 -3l-2 -2h-7v-9l-2 -2l-5 4v5zM272 596l4 4l3 -5l-13 -9l-5 5zM284 552h9v-10l-13 4zM380 353l3 7h5l2 -9l-8 -3l-4 3zM422 402h5l4 -3l-2 -1l4 -8l-11 3v9zM371 227l-2 1l2 3l7 -3v-4l-4 -5h-5v5zM325 395l7 4l5 -5l-10 -4l-2 -4l-2 4z M348 605v-5l-9 -6v11h9zM346 323v-5h-14v5h14zM422 428h7l2 -3l-5 -8l-4 3v8zM221 499l5 9v-11l-5 -5h-5v2zM413 353h7v-6l-5 -5l-2 2v9zM367 572h4l7 -11h-4l-7 7v4zM326 357l9 -4l-3 -4h-5l-4 4zM427 356l2 3l2 -15h-4v12zM223 383l-8 -9v12zM236 475l6 -4l4 2v-7l-10 4v5 zM327 305h8v-5h-8l-2 3zM233 233h9v-5h-9v5zM384 380l4 -4l-3 -7l-5 8zM219 527l-3 2h12l2 -5h-6l-3 3h-2zM185 227l6 -8l-5 -2l-1 2v8zM242 518h7v-3l-4 -2l-3 2v3zM182 273v-3h-7l-2 3h9zM327 554l3 -2v-4l-6 3zM210 548v-6h-4v6h4zM410 552v-4h-6v4h6zM378 488h2v4l-4 -2 zM221 617h5l-2 2zM369 471h2l-2 2v-2zM348 497h2l-2 2v-2zM335 369h-3l2 1zM337 593l-2 1l4 -1h-2z" />
<glyph unicode="A" horiz-adv-x="500" d="M32 14l-9 9v12l-4 3l4 19l11 24l-2 2l4 9v24l5 9v4l9 30l7 5l-2 16l2 7l-3 7l10 6v17l8 16l4 28l10 7l-6 20l7 9l-2 8l-6 5l8 8v26h7l3 5l-7 6l8 3l3 5l2 -3l3 3l2 16l7 7l2 15l-2 3v7l2 2v10l11 9v7l5 4v24l5 10l-3 7l10 5v14l4 19l8 14v16l6 2v24l-2 2l5 2l2 5l9 8 l-4 8l2 5h9l13 13l-4 2h5l3 -6h13v-5l14 6l-2 5v21l-3 12l3 7v13l11 15l18 9l21 -7l17 -11l10 -14l10 -33l6 -6l-7 -7l4 -3l3 -7l10 -3l-8 -7l4 -3l8 -18l-4 -3l4 -7l4 4l-3 3h5v-9l4 -10l-7 -10l11 -11l-4 -7l3 -7l7 -2v-9l-3 -2v-4l8 4v-8l5 -8l-5 -5v-17l4 -4l2 2h5v-7 l-7 -4v-9l9 -3l8 -9l1 -11l-4 -5v-7l4 -5h8l2 -2l-5 -7v-7l-5 -9l7 -9l5 -24v-23l9 -16v-6l6 -9l-3 -6l5 -14l4 -4v-3h5l-3 -4v-5l5 -2v-23l4 -5l-2 -9l5 -7v-7h2l5 -38l9 -14v-31l5 -10l2 -21l7 -30v-9h-4l5 -9h-4v-4l7 -13l-9 -22h-32l-5 3h-5l-4 4l-7 15l-6 21l-5 5v12 l-12 17v10h-5v10l3 7l-7 12l-13 10l7 11l-8 9h-14v-14l-3 -4l-4 10l7 12l10 9v3h-10v18h-10v-13h-18l-5 -7l-6 6l-10 -7l-1 3l-17 2h-28l-2 -5l-9 -5l-6 -13h-9v23l-4 4l-21 -1v-4l14 -6l-4 -9l-5 5l-10 5l-6 6l-13 -12l-7 4l4 3v3l-8 2v-18h-6v7h-9l-4 -10h-6l-7 5l-4 -5 l-7 -18v-7l2 -2l-4 -5l6 -3l-10 -12l-3 -10l-3 -3v-6l-6 -10v-7l-3 -4v-12l-11 -14l-6 -3l3 -4v-11l-13 -7l-17 -2l-3 -4l-9 6h-6zM235 372h14v27l2 3l-7 9l7 2l2 -2h6v12l-9 7l3 7h3v-3h7l5 3h5l-10 23l-3 -5l-4 -2l-3 7l4 6l-13 -6h-9l-2 -5h11v-5l-5 -2l-9 5l-2 8l-7 -6 v-7h9l-9 -5v-2h5l2 -7l6 -3l4 9l8 -4l-8 -11l-5 3h-5v-10l-5 -9l9 -13l-11 -3v-3h9l3 5h2l3 -10l-10 -10zM239 351h5l3 6l13 4v8h3l7 -7l11 3l8 11l-10 26h-5v-9h-13l4 -7l-2 -5h-3v-4h-4l-5 -8l-4 -1v-5l-8 -7v-5zM299 335l3 3v11l-9 3v8l2 3l-6 2l-11 -13l5 -5h8zM273 278 l5 19l-7 6l-8 -3h-14v-4h7l8 -6l8 8v-5l-4 -6v-5zM249 143l2 4h8l4 -4l-14 -7l-2 -4l-7 3zM198 323v12h-10v-15zM193 351h4l11 17h-8l-2 -5l-7 -7zM206 411l12 7v5l10 4l-11 3v-5l-3 -2zM257 391l4 5l-2 11h-3l-4 -11zM175 143l9 3v-3l-10 -10l-4 3zM247 314h12v4l-8 5 l-4 -5v-4zM251 266h9v6l-7 3l-4 -5zM319 157l7 -8l-7 -6l-3 4zM228 314l5 7l-5 5h-6zM404 328l2 4l4 -4v-8l-10 4zM218 349h5l5 4l-2 5l-8 -3v-6zM244 503h3l2 7l-2 3l4 7l-7 -5v-12zM299 268l8 4v6l-8 -3v-7zM205 379l7 2v7h-3l-1 -5h-12zM279 379l-2 4l8 -5l-8 -9v5z M235 476h3l4 4v3h-7v-7zM226 136v-9l-6 3zM295 321l7 9h-3l-4 -4v-5zM208 146l1 -5l-4 -5v10h3zM279 162v-3l-5 -4v7h5zM209 344v7l5 5h-6v-9zM188 275h5v4h-6zM269 379l5 -2l-5 -5l-1 5zM233 418l2 -2v-5l-5 2zM221 305l9 7l-9 -4v-3zM281 326v6h-4v-4zM244 543l-2 5h-3v-5 h5zM263 323l5 5l-5 2v-7zM253 347h7v2h-7v-2zM313 248l-4 6v-6h4zM281 312h2l-2 5l-2 -3zM223 266h5v2h-5v-2zM214 599h3l6 4l-9 -2v-2zM244 430l3 -7l-5 5zM242 291l2 5l-5 -3zM235 548l7 6l-7 -4v-2zM319 291l-3 5v-3zM329 566h3l-3 3v-3zM259 383v3h-3zM249 490h2v2h-2 v-2zM309 305v3h-2zM374 428h2l-2 2v-2zM302 261l2 2h-2v-2z" />
<glyph unicode="B" horiz-adv-x="506" d="M180 5l-9 4l-7 6h-23v-6h-21l-3 -4l-10 4h-17l-14 14l-4 36v26l-3 4v45l-4 9l4 4v17l-8 8l4 3v21l5 11l-3 8l2 27l-2 18l-5 11l7 6v4l-9 9l5 10v14l-3 5l6 10l-8 17l3 4l-5 9l7 6v14l-2 4v21l-5 21l7 6v21l-2 3l2 5l-2 15v21l4 4l-2 3v9l4 5v4l-6 -3v11l3 8l-3 14l4 11 l-4 6l2 12l-2 9l2 4v60l4 12l5 5v4l13 7h12l8 -5l1 -4h9l11 -10l-3 -4l2 -5l5 -4v-5l6 -3l-4 -13l-6 -8l4 -4v-4l-3 -2l8 -17h-8l3 -21l5 3h9l1 -3l-4 -4h-5l-1 -3l4 -6l2 -12l-5 -6v-10l9 -11l-1 -12l-8 7l-1 -16h9l-9 -18l10 -9l16 16l4 -3l1 -5l-6 -5l-9 -2l-3 -3l5 -1 l4 -5h8v-19h-3l-2 10l-5 -5l3 -11h-3l-3 -7l-4 4v14l3 6l-6 5l-2 8h-7v-8l5 -4v-7l-5 -5v-18l14 -7l5 11l6 -5l13 7v-15l-5 -3h12v5l20 6l10 -20l14 3v9l-4 -7l-5 7l-3 22h-7l-7 -6l-3 9l12 5l12 2l3 3l15 -10v-4l-11 -9l11 -5v-10l16 -4l5 -5h5l2 3l-2 4l4 2l8 10h-10 l-5 -7l-9 9h-5l-1 -5l-3 5v9l10 13l6 -6v-12l5 -4l2 13l7 12l-7 12l21 -3l-5 17l-2 -3h-7l-7 7l-5 -2l-6 16v7l-3 2h4l7 -18h10l4 3l6 -6l8 12v7l6 8v6l10 6l3 15l-3 3l6 10l4 -4v-9l14 -5v-4l-4 -12h6v-6l-6 -7l6 -5h7l3 -9h-7l-8 6h-7l-6 -5v-4l8 5l5 -5l-1 -18l-7 -4 l-3 -5l-7 -4v-9l7 3l4 5h7l9 15h14l6 -4h4l2 3h7v-3h-3v-2l5 -3l5 5v9l-10 3l-8 8l-5 -6h-9v7l9 4l16 -1l7 11l-10 10h-6v-6l-4 -2l-3 -5l-9 2l-3 11l-5 -3l5 9v4l7 -4v-13l8 5l-3 3l3 5l1 14h-9l-12 -5v3l5 4l5 9h2l8 -7h8l2 15h10v6h-10l-1 12l-9 3l10 10l-10 10h-10 l-2 10l-7 2l5 5l-16 11h-8l-5 5l-12 -11l-8 8h-9v-7l-5 -4h-4l4 6l-4 5h-8l-2 -5l7 -2l-2 -4h-7l-13 12l-4 -3l-1 -5h-8l-3 7h-4l-10 -14h-10v7h9v2l-9 5l-6 -3l-15 4l-8 -7l-7 6l-6 2l-7 8l-7 3l2 38l12 11h21l6 3l8 -3l4 5h17l5 -6l8 9h8l4 -5l5 2l4 5l14 -2h30l9 2l7 -5 h9l5 3h9l7 -5h5l7 -7h9l7 -7v-7l6 3l17 -17l5 -2l2 -5l11 -3l3 -12l11 -7l3 -10l6 -3l12 -20v-12l3 -6v-15l6 -9l-8 -4l8 -14v-12l-4 -6v-6h4l-2 -15h2v-3l-7 -4l3 -7l11 -6l-2 -15l-7 -7l-4 -9l2 -16l-5 -5l-12 -3v-9h-6v-7l2 -2l-9 -9l-8 -16l3 -5v-12l12 -6l-4 -7l10 -6 l10 4l-3 -5l3 -3v-18l9 -9l2 -12l7 -14v-9l-4 -10v-9l8 -24l-9 -13l3 -7v-18l-5 -2l3 -5l2 -21l2 -2l-2 -2h4l-2 -8v-20h-7v-15l-9 -18l-8 -5l-27 -30l-5 -12l-11 -5l-5 -11l-16 -8l-2 -5l-12 -2l-18 -13h-25l-7 -3l-5 3l-15 -3h-45v3l-13 -4l-17 4l-7 -3l-11 3h-26zM153 66 l9 5l6 -2l9 5v4l4 3l17 -3l5 5h12l4 -3h29l4 7l12 -8l9 5v-4l6 3l11 -7l10 4l9 -5l6 11l15 -3l3 9l9 -3l22 10l10 18l12 9l7 17v6l5 6v4h-5l-4 9l-9 -3l-3 3l2 5l3 -4l8 6h3l4 8l-7 6h-5l8 16v23l-7 -3v10h6l3 12l-9 11h-5l-2 5h7v7h-3l-5 8l-6 3l-7 12v7l-5 7h-7v7h-11 l-3 -3l-4 5v7h-5v-9l-5 -13l-6 4h-11l-5 3l-10 -5l3 -5l-17 -10l3 7v12l-7 7l-8 3l-10 -10v2h-8l3 2v12h-8l-4 -7l3 -5v-18h-3l-4 7h-8v-10l-4 -4h-6l1 -9l-5 -6l-11 10l7 3v9l5 2v5l17 7l-4 9v7l-9 5l-6 -3l5 -5v-4l-10 -6l-2 6l-3 2v5l-3 4l-6 -7l3 -2v-7l-3 -4v-5h-2 l-3 5l-7 5l-9 -3l-2 2l-12 -16l-2 -23h4l3 9l3 -9l4 5l2 -2v-7h-6l-3 -3h-11l-3 -5l-3 3h-4v-12l10 5v-5l4 -9l11 3l-1 13l4 5l2 -7l7 -2l-30 -30l-3 -7l-1 -17h21v-8l-11 5l-3 -6l3 -4l-6 -5v-5l12 -5v-6h-9l-7 -7l7 -16v-7l-6 -7h12v-10l-2 -2v-9l-4 -9v-7l-3 -3l3 -11 l11 2v-4l-5 2l-6 -4v-8zM231 461l-3 3l-9 2l3 7l23 2l4 10h5v-5l4 -7v-7l-6 -2l-3 -12h-6l-4 7zM180 268v4l5 9l-12 3v7l10 -3l6 -7v-4h5v16h3v-7l4 -9v-12l-4 -2l-6 10zM218 247v9h6v4l-11 6l9 9h6l5 -5l-5 -6l5 -17l-2 -2l-7 2h-6zM250 292l4 3l-2 3l2 4h16l-2 -9l5 -5v-3 l-7 3l-12 -9v9zM284 436l3 3v11h6l6 5v9l9 2l-3 3l-10 -4l-6 -11l-10 -5v-9zM151 310l6 4h10l4 2l-7 16l-7 -7v-5l-10 -6zM299 245l4 6h9l5 -4l-8 -9h-10l-3 4zM147 397l6 2l4 10l-2 4h-15zM173 485l-2 6l5 3l11 -3v-4l-4 -5l-3 3h-7zM329 283l4 -4l-4 -4l-4 3l-13 -5l-3 6z M313 309l4 2l2 -2l2 2v7l-8 7l-4 -10zM303 418v9h-12v-9h12zM252 210h9l-5 -9l-16 4zM144 382l11 6l-4 7l-12 -8zM338 245l2 10l6 4l3 -3l-10 -16h-4v2zM370 511l7 6v4l-7 7l-3 -7zM326 238l7 -10l-7 -7h-4zM215 187h4v-12h-6l-4 6zM146 233l7 2l-10 12h-2v-9zM278 254l4 9 l5 -7l-4 -11l-4 6zM275 529h7l-4 -9l-15 1zM333 561l5 2v-13l-3 -3l-5 9zM347 298v-4l-8 -4h-6l2 8h12zM171 525l-7 -14l-6 10zM314 473l5 5l-7 9l-3 -8zM197 157h6v-11l-10 7zM312 298l5 4l4 -9l-2 -3l-7 3v5zM299 267l10 -4v-5l-10 2v7zM319 512l2 8l5 4l-3 5h-4v-17z M257 580v-9l-5 -3v12h5zM278 233h4l-3 -12l-5 8zM208 200v3l10 -3v-4h-8v2zM289 125v6h10l-3 -2l-3 -7l-2 3h-2zM291 284v-5h5l-3 -4h-4l-3 9h5zM377 535l4 6v4l-9 -4zM208 251h2l-4 -11h-3v5zM282 316l2 7l-2 5l-4 -3v-5zM227 533v-12h-7zM167 440l4 -4l-4 -5l-5 5z M339 581l3 -6l-4 -3l-5 3zM150 545l5 -4v-3h-5l-4 7h4zM374 129v-6l-6 -4l2 10h4zM201 541h6l-4 -10l-2 2v8zM308 499h4v6h-4l-3 -5zM287 104v-5h-8l3 5h5zM321 196l5 -2l-7 -7v7zM238 185l6 -7l-4 -3l-2 2v8zM180 217l3 -5v-5l-6 5zM278 185l4 6l2 -9l-5 3h-1zM372 238 l9 -3v-2h-9v5zM390 207l-4 -4h-5v4h9zM227 134v-7l-8 4zM308 572h4v-7h-4v7zM258 275l3 -5h-7v5h4zM300 323h9l-6 6zM363 277l2 -2v-5h-6zM323 420h3l4 10l-4 -3zM162 395h6v4h-6v-4zM349 182l2 -3l-3 -2l-6 5h7zM349 196l-7 -5v5h7zM258 229l3 -5l-7 2zM252 101h6v-5l-6 3 v2zM351 450h2v7h-4zM372 217v-7h-3v7h3zM233 164l3 -3v-4l-5 2zM317 203v-3l-5 -2v5h5zM333 436h5l1 3h-6v-3zM268 173l2 -3l-4 -4v7h2zM185 101h3l-3 -6l-2 1zM351 145l-2 -5h-2v5h4zM206 290v-4h-5v2zM201 175v-5h-3v5h3zM326 207l-5 -4v4h5zM238 286h2l-2 -7l-2 2z M243 240l2 -5l-5 3zM305 300l3 -5h-3l-2 3zM176 325h4l-4 5v-5zM228 205l3 -5h-4v3zM303 92l-4 -5v5h4zM338 170v-4h-3v2zM270 134v-3l-4 3h4zM143 143h3v4l-3 -2v-2zM287 161h-5l5 3v-3zM206 295l-3 -2v5zM189 149v-2h-2v5zM168 155l-1 -3l-3 3h4zM342 219v-2h-3v2h3z M233 314h3l2 4zM143 224l3 2h-5zM263 136h-5l3 2zM222 194l-3 -3v3h3zM168 182v-3l-1 6zM326 434l3 2h-3v-2zM236 288l-3 -2v2h3zM319 101v-2l-2 2h2zM270 138h-2v2zM248 464l1 2h-1v-2z" />
<glyph unicode="C" horiz-adv-x="534" d="M156 23l-18 17l-12 4v6l-7 3l-20 24l-7 4l-23 25l-13 25v16l3 6l-4 15l3 7l-2 12v27l4 15l-5 17l3 22l-2 9v48l2 4l-4 25l2 6l-5 11l3 14l-2 7v30l-3 14l5 6l-4 28l6 5l-7 12v18l3 5v11h-4l4 7l4 16l-2 6l2 20l16 25l7 5l5 9l18 18l5 11l20 13l14 18l15 7l10 11h12l5 3 h12l6 -4l7 4l17 3l9 -3h12l9 -9h7l11 -15v-4l6 -6l-3 -8l-21 -21l-21 -9l-8 3l-9 -5h-11l-7 -4l-5 -11l-4 3l-16 -12v-4l-12 -12h-5l-11 -11h-10v-9l5 -5l-15 -20v-5l4 -3l-4 -9v-7l4 -5h6v-6l-6 2v-11l-4 -10v-14l4 -9v-23l-4 -4l1 -7l3 -3v-9l6 -5l-4 -18l-3 -3l7 -13 l-6 -5v-6l6 -7l-10 -5v-7l6 -7v-16h-6l9 -13v-12l-8 -3l3 -5v-15h6l-6 -12v-21l6 -7l5 -14l-6 -7v-7l4 -7l-6 -3l-4 -14l6 -10v-19l9 -9l4 -13l17 -10l6 -7l7 -2l-3 -4l12 -8l3 -7l7 -7l11 -2l22 -10l7 3l18 -2l2 -3l7 -2l2 -5l6 -3l4 -6v-14l-3 -4v-12l-9 -3v-8l-14 -7h-21 l-16 4l-5 -4h-18l-15 6zM316 7l-16 16l-6 2v2l6 3l-4 9l14 25l11 5l30 2l19 5l9 4l2 9l9 13l12 6l5 5l2 9l10 13v14l4 5v7l-4 9l4 14v9l3 7l-3 9v12h5v5l7 3l6 10h19l4 -4l8 3l8 -8l10 -18v-12l4 -13v-23l-2 -10l4 -11l-6 -24l-5 -9v-9l-6 -19l-9 -6l-15 -5l-8 -16h-6l-2 -7 l-14 -13l-11 -15h-9l-10 -9l-16 -6h-16l-6 -4l-19 4zM426 488l-7 14l2 37l-5 10v9l-7 6l6 9l-9 5l-4 8l-16 14l-6 2l-5 11l-45 5l-18 9h-8l-4 9l-9 6v10l-2 3l5 2v16l6 3l3 5l13 6h10l4 5l28 2l35 -9l12 -12l9 -4l15 -14l4 -9l8 -3l3 -7l9 -9l7 -13l7 4l12 -18l1 -9l8 -8 v-27l-3 -3v-21l5 -9v-22l-15 -23l-13 -3h-21l-6 7zM285 44l2 -8l-2 -1l-5 4zM126 323h1l-1 5v-5z" />
<glyph unicode="D" horiz-adv-x="535" d="M291 5l-4 3l-8 -4l-11 3l-10 -4l-3 3h-9l-8 3l-12 -6l-10 6l-8 -3l-25 5l-2 3l-10 1l-6 8l-14 5v7l10 10l-8 3l-5 14h12l6 7h15l4 5l5 2l10 10l8 -8h28v11l7 -2l3 -5l4 7l5 -4l-5 -9l13 5l8 -5h26l-6 4v3l10 -5l2 7l4 -5h5l5 5h19v7l11 16l19 9l1 8l14 13v9l18 6l10 13 v28l8 6v5h-3l-6 9l9 8l-5 11v21l-4 3l8 14l-5 14l3 5l-7 8l8 7l-6 11v19l6 5l-3 20l-4 6l4 6l-3 11l3 18l-5 5l5 3v7l-4 7l4 8v38l-5 4v3h5l3 24l-3 8l-6 3l3 4v21l-4 5l-9 4l-9 11h-6v7l-4 10l-11 -3v10l-3 1l6 7l-15 3l-9 5h-4l-7 11h-17l-10 5h-13l-3 -5l-2 7h-12l-9 7 l-13 -16v9l-12 5l-9 -7l-8 4h-9l-15 6l-8 -5l-13 6h-12l-11 -5l4 8v9l-11 7h-6v2l19 11l-9 4v11l10 4l11 12l11 -3h17l4 5l18 -2l18 2l37 -3l6 3h10l9 -5h13l2 3h24l13 -10l19 -9l14 -14l14 -11l10 -16l11 -4l18 -20l4 -1l10 -15h9v-14l10 -4l6 -5l5 -52l4 -11v-13l4 -6 l-4 -18l5 -11l-8 -11l8 -5v-2h-2l-5 -7v-23l-2 -7v-26l2 -2l-2 -11l5 -22l-3 -36l-4 -10v-6h6v-37h-4l2 -14l-4 -16l2 -5v-16l2 -7l-3 -6l6 -6l-7 -16v-9l-3 -5v-10l-9 -15l-12 -12l-2 3v-7l-13 -14l-21 -16l-9 -10h-8l-4 -4v-5l-14 -18l-17 -7l-7 -11l-15 -9l-12 -3h-12 l-1 -3l-6 -1l-2 -3h-12l-6 3h-10zM76 15l-6 8v9l-5 7v18l-2 8l6 23l-4 4l-2 30l-2 3l6 13v26l-8 8l7 15l-5 7l4 4v12l-3 10l3 4v14l-3 6l3 3l-2 18v46l-2 19l3 7l-4 15l4 14l-3 13l-3 4l7 10v23l-2 4l2 7v30l-2 4l4 5v19l-3 7l6 8l-5 6l-2 15l2 8l2 21v39l4 19l-6 11v13 l9 44l21 3l2 3l8 1l20 -11v-4l12 -15l-3 -15l3 -7l-7 -5v-7l-3 -7l9 -11l8 4l-1 -12h-5l-4 -8l5 -5l-4 -12l4 -5v-12l-3 -4h5v-5l6 -6l-6 -3v-9l-3 -10l6 -11l-3 -4v-17l9 -13h-11v-29l5 -4v-16l-5 -2v-9l5 -14l-5 -7v-14l3 -9l-7 -5v-16l5 -15l-9 -10l6 -6l-7 -11l6 -7v-11 l5 -5h7v-14h-9v-7l6 -3v-8l-10 -11l4 -12v-7l9 -12l-9 2l-3 -2v-23l3 -2v-16l-4 -5l1 -16l8 -3l-5 -2l12 -2l-3 -10l-3 8h-8l-6 -26l13 -30l-5 -7l-4 -2l1 -3h8v-7l-8 -6v-21l-6 -5l-4 -12l-12 -1l-13 -9l-6 6zM490 450h2v2h-4z" />
<glyph unicode="E" horiz-adv-x="506" d="M76 20v9l-4 15l-5 9v25l6 6l-9 16l4 11l-5 11l2 13l-4 5l6 17l-4 10l2 15h2l-2 36h-7v5l6 10l-6 14l3 4v12l3 9l-4 10l4 13h4l-4 15l-6 3l7 7l-2 19l3 7l-8 16v9l3 8l-3 22l5 5l2 44l-2 2l2 2l-2 20l4 19l-2 3v23l8 3l-8 4v23l2 4v28l-2 5l2 2v14l4 3l-4 11l3 6v40l4 4 v12l10 9h13l5 -2h13l8 -7l6 -18l7 -3v-5l-4 3v-4l3 -4l-6 -7l10 -15v-3l-4 3h-5v-3l5 -1l1 -17h5l-9 -21l4 -4h16l-7 -12h-10l-3 -2l3 -7l6 -5l4 -16l-4 -13l4 -5l5 2l7 -7l-2 -3h-7l-3 -4l-1 3h-3l14 -14l-10 -7l-9 -2l3 -10l13 -13l-11 -4v-18l7 -10v-3l5 -5l-3 -4h5l2 -3 l-4 -2l-6 -10l8 -4h14l9 9l17 -4h15l26 4l4 10l9 -12l7 3l5 -5l9 -3l6 6l20 -3h21l20 -3h26l9 -9v-4l10 -13l-4 -18l-12 -16h-15l-27 -6h-24l-4 -3h-14v3l-7 2l-5 -5h-11l-3 3h-11v-5l-28 2l-7 -12l-6 12l2 5l-16 -7l-7 7h-5v-9l-20 7l-3 11l-7 -7h-4v-13h-3l-5 -12l8 -5v-9 l-3 -4v-40l12 -7l-12 -3l3 -9l-3 -1l3 -3l-5 -4l5 -13h6v-4l-6 -7l-3 7l-4 -7l7 -9l-9 -17l8 4l3 -11l-11 -6l10 -4v-7l-10 -11l6 -3l-2 -17l-3 -4v-13l8 -3v-7l-8 -15l3 -8l-3 -7l3 -16l5 -5l2 -18l-2 -3h-8l-18 -18h-21l-12 11h-9zM235 630l-15 2h-14l-9 -9l-7 11h-19 l-11 -3l2 44l13 14l20 3l13 7l23 -4l9 5l11 -4l8 3l23 -4l7 4h7l3 3l8 -6h17l11 5l4 -5h17l13 3l24 -3h30l10 -4l8 2l9 -9h12v-7l5 -7l-3 -16l-5 -4l-3 -11l-10 -4l-58 -6l-4 2l-6 -6l-8 5l-19 -6h-42l-10 3l-12 -4l-42 4v-7l-2 -3l-5 3zM220 8l-7 -3h-12l-9 4l-2 -3h-5 l-5 5l-8 -3l-3 6l-7 6v12l-5 12l3 13l15 4l10 8h8l11 7h6l27 -8l6 3v5h2l3 -7l16 2l62 -2l8 4l13 -4l48 -3l9 4l10 -4h24l12 -2l17 -6l4 -8l4 -24l-17 -11v-6l-29 -4h-75l-10 2l-7 -2h-34l-6 2l-48 -2l-14 -3l-10 3zM155 378l10 14l-4 3l-4 -3h-9v-14h7zM160 300l20 -2 l-7 -9l-13 7v4zM178 429l5 -2v-10h-5l-7 5zM171 286l4 -5l-6 -3l-4 8h6zM150 55h5v-7h-5v7zM205 299l3 -6h-4l-4 6h5zM161 545l4 -5l-8 1zM144 399l-5 4v-4h5zM141 466v2h-2z" />
<glyph unicode="F" horiz-adv-x="481" d="M121 11l-3 3l-6 -7l-12 7l-8 11l3 9l-5 5l4 9l-6 11l-3 39l3 3v9l3 7l-6 16l6 6l-6 10v8l-9 9l8 14l-5 16l2 7l-6 3l4 3l2 6l4 2v2l-8 3l6 5l-8 21l4 10l-5 2v12l7 4l-5 19l-4 -5l-9 -2v6l12 4l-3 7l8 7l-4 4l-2 12l-7 11l-4 -2l-2 -5h-3v12h14l4 5v4l-11 2v21h7l2 -2 l2 6h-6v8l-5 1v6l14 5l-3 6l-2 19l-9 -3l-4 -4h-3v4l11 11l3 -6l2 4v12l-7 -3l-5 7l3 3l9 -2l2 21l-2 1v21l-7 8v9h12v9h-7l-5 3l5 4v7l5 5l-3 11l5 46l-3 7v10l3 2v28l4 6l-7 12l21 21h12l12 -7l4 2l7 -4l9 -12l6 5l6 -5h13l9 9l3 9l10 7h20v-7l9 9h17l5 -4l12 5l26 -3l3 5 h2v-5h55l8 -2h21l22 2l9 -3l3 3h44l4 -2h12l9 -6l3 -29h-5v-11l-7 -4l-4 -6l-35 -4l-9 2l-5 -2h-23l-13 3l-5 -3l-3 -5l-6 3l-6 -3h-6l-5 5l-7 -2l-2 -3h-7l-6 -3l-8 3h-13l-9 -4l-8 2h-34l-8 -2h-30l-3 -4l-4 6h-10l-4 -7l-4 5v4l-10 7l-4 8l-7 2v11l-2 2l-4 -4l-5 9l-6 -5 l10 -9l5 -15l-9 -4v-8l-6 -5l3 -5l-3 -14l6 -2l-6 -9l20 -3l4 -7l-9 -9v-6l-8 2l-5 -9l8 -8v-11h5l-5 -18l10 -4v-3h3l-3 -12h9v9l-4 4l10 3l3 -3v-6l-6 -14h-17l-3 -11l21 -5l-14 -15l2 -4l8 -3v-8l-8 -4l-4 -15l-9 -6v-10l7 -10h5l14 -9l7 15h4v-10l5 -5l17 9l4 -9h9l4 5 l7 -2l7 -7h12l9 3h39l9 4l15 -4l24 1l9 -8l19 7l19 -3l16 -14v-12l3 -4l-3 -11l-15 -12h-11l-4 -5h-39l-8 -3v7l-18 -6l-13 2l-5 -4l-27 5l-5 -4l-4 4l-15 -3l-6 -7l-11 8l-4 -8l-22 -3l-6 3v5h-6v-5l-12 -2l-2 2l2 7l-2 4h-12v-15l5 -10v-6l-8 4h-9v-9l4 -11l-6 -5l7 -12h6 l-7 -13l5 -5l-12 -20l4 -4l-5 -15l5 -20l-5 -2l4 -9l-2 -14v-23l3 -3l-7 -14l4 -4l-2 -4l-5 -2l5 -10v-49l-7 -24l-14 -15h-11v5zM174 422h4v-2l11 -5l-7 -8l-12 12zM171 367v7l-5 5h-6v-9zM192 490h7l5 -5l-3 -5h-5v5zM195 284h9l2 -3l-4 -3l-7 3v3zM165 520l5 -10h-4l-5 6 zM151 309h6v9h-4v-7zM72 359h4v3h-4v-3zM162 425l3 6l-3 -1v-5zM153 258h2l-2 5v-5zM153 473v-3v3zM153 425l2 2h-2v-2z" />
<glyph unicode="G" d="M175 -6l-12 6l-9 14l-14 7l-4 7l-12 11l-7 15l-11 2l-3 9l-17 14l-15 18l-9 15l-5 22l2 4v21l-3 10l3 7l-4 4v5l5 6l-3 3l2 14l3 7l-5 2v21l-4 8l4 8l-2 46l3 40l-3 11v21l-7 18h5v3l-3 2v21l5 14v43l3 7l-3 8v20l-2 4v29l5 24l6 7l3 11l9 8l5 11l29 21l8 17l13 2l2 5 l24 20l9 10h16l4 -5l3 10h43l7 -3l7 3l2 -3l9 -3l3 -6l10 -4l-3 -8l8 -7l-3 -20l-8 -11l-16 -3l-6 -5l-5 2l-5 -2l-6 2l-16 -8l-10 4l-4 -3l-3 -9l-9 -3l-17 -11l-13 -25l3 -7l-4 -4l-6 10l-7 -6v-5l2 -2l-5 -4l-4 -8h-6l6 -11v-14l-5 -14v-23l5 -4l-2 -9l-3 -3v-14l3 -2v-9 l6 -8h7l-12 -19l4 -5l-5 -5l2 -14l3 -2l-5 -3v-6l5 -10l-3 -2v-9l-3 -7l6 -10l-8 -10v-32l7 -6l-8 -11l4 -19l5 -4v-5l-5 -5v-11l-4 -10l1 -16l5 2l4 -3l-9 -3v-19h3v-7h2v-7l4 -7l3 -16l7 -9l2 -9l15 -20l13 -5v-12l6 -7l4 7l9 -8l2 -4l10 -7l15 -4h14l21 -7h7l7 -6l-3 -7 l10 -5l11 6v-2h7l2 -3h5v3l-5 4l3 5v7h18l7 7l19 4h11l7 7v8l9 9l8 -3l4 9l21 21l7 10l-3 10l-10 5l7 6l11 -7l16 16l-3 7l-14 10v8h3l4 -5l3 3v4h-12v2l6 4l8 10l2 7l-4 3v6l-3 3v6l4 8l-5 9h4l6 7l-2 2h-7v7l6 11l-6 3l-9 12h-18v9h-15l-9 3l-9 -4l-16 3l-5 -5l-9 5h-7 l-16 8v6l2 2l-10 10l4 18l12 13l5 -6l17 9h14l7 4l5 -4l18 2l5 3l6 -4l25 4l19 -5l7 2l24 -2l4 -5h11l12 -11l7 -14v-19l-4 -6l4 -3l2 -16l4 -4l-4 -8l4 -14l-6 -4v-9h6l5 -10l-6 -7l1 -27l-2 -6l5 -10l-3 -5l3 -4l-4 -3l6 -2v-12l-6 -4v-58l5 -5l-4 -6l-1 -28l-6 -11l4 -9 l-3 -8v-18l-4 -5l-11 -3l-14 -14l-8 5h-14l-16 17v7l-9 9l-5 -4h-6l-3 9l-3 -5l-11 -4l5 -5l-5 -7h-19l-21 -22l-12 6l-3 -5h-9l-5 3h-12l-16 10l4 7l-9 5v4l-7 11l-6 -3l-7 -14v-9l-10 -7l-2 -9l-11 -3h-12l-5 5l-16 -5l-33 3zM450 467v2l-12 7l-11 22l6 12l-4 12l2 7 l-4 18v12l-7 7l-8 2v7l-20 24l-3 -4l-7 3l-6 9l-25 8l-5 -3h-7l-4 -3l-8 10l-9 3l-9 -5l-5 9l-7 -3l-2 9l3 12l-12 11l9 3l14 16l11 3v5h7l5 -3l5 3h41l10 2l11 -5l4 -5l11 -2l3 -7l12 -4l9 -9l2 -5l21 -21l9 -4l13 -19l7 -3l3 -16l8 -13v-24l3 -4l-5 -10l3 -13l-2 -6l5 -21 l-18 -26h-19l-2 -3h-5l-2 3h-9zM390 155l-5 4l2 3l10 -7l2 -7l-12 2zM369 111l-2 5l2 2l2 -2v-14h-7v4zM355 138v-2h-7v6zM133 129h3v3l-3 2v-5zM297 33h2v2h-2v-2z" />
<glyph unicode="H" horiz-adv-x="539" d="M82 14h-3l-6 11v28l-2 7v30l4 8l-7 34l-3 53l3 12l-2 18l4 8l-6 13v30l-2 4l2 5v12l3 7l-5 6v8l4 -3l2 4l-6 14v6l5 11l-3 11v17l-4 10l5 22l-7 8l6 5l2 15l-2 4v23l2 6l-4 9l6 24l-2 15l-6 17l6 18l-4 15v19l4 4l-6 9l5 21l-4 16l3 5v28l4 4l14 5h10l11 3l13 -6l8 -15 v-17l5 -11l-3 -2l2 -23l6 -11l-6 -10v-9l5 -6l-2 -6l-3 -3l9 -6l-9 -5l-2 -12l7 -7v-27l3 -9l-3 -3v-6h7v-6l-3 -4v-7l5 -2v-2l-6 -4v-5l6 -3v-5l-6 -7v-6l4 -3v-6l-3 -3l3 -3h16l-2 -9h-5v-9l7 8l10 -8l4 4l39 -1l4 -5l13 5h11v-4l10 6l6 -5h7l7 4l5 -4h11l16 -2l3 5l-4 3 l5 10h8v-9l-3 -7h7l4 9h6v-2l-5 -3l5 -4l4 4h12v8h7v-8l25 -8l3 8l12 -4l1 3l10 1l4 5l-2 7l7 5v7l-5 2v7l7 7l-5 5l5 9v26l-4 18l4 4v26l3 14l-5 2l4 2l-2 7v32l2 5l-3 8l3 15v48l9 12h12l7 7h14l20 -16l6 -19v-21l2 -22l3 -6l-3 -6v-28l5 -20l-4 -11l5 -11l-4 -4l3 -9v-21 l-3 -2l5 -10l2 6v-59l9 -7l-5 -11l6 -3l-3 -10h4l-2 -6l2 -6l-11 -18h-2v-3h11l-4 -5l2 -4l-7 -4v-22l-5 -8l5 -5v-10l3 -6l-12 -10v-6l16 6v-21l-5 -29l4 -8l-4 -18l-6 -13l6 -13v-9l-3 -5l3 -7l-2 -4v-28l-2 -6l2 -17l-2 -5v-60l-5 -18l-16 -16h-27l-17 12l-5 29l4 3 l-5 14v57l3 12l-5 5l3 29v23l3 3l-7 11v17l8 13l-4 7l-11 10l4 16l-2 2l5 2v14l3 14l-6 5v9l-2 2l-3 -4l-10 6v5h6v12l-4 5l2 -8l-3 -6l-9 9h-12l-10 -20l-4 7l-15 9l-2 -3l-16 -6l-2 -6l-13 13l-8 -6h-15l-3 -9h-24v9h-18l-9 4l-16 -7l4 5v6l-8 -8h-18l-3 7l-4 -5l3 -5v-6 h-3l-5 5l-9 4l-12 -12l-7 -2l3 -7l9 -2v-10h-16l-12 -4l-8 -12l9 -11l-3 -3v-10l-2 -8l2 -2v-11l3 -5l4 2l5 -5v-8l-12 -5l-2 -5l6 -12l-7 -8l3 -4l-3 -2l3 -13v-15l-6 -9l6 -18v-23l-5 -11l3 -19l-4 -37l-4 -7l4 -7l-13 -12l-18 -5l-12 5zM243 308l4 -4l-12 -6l-5 5z M277 420l7 -16l-11 7zM191 430v-7h-7v7h7zM403 342l4 7l-6 2l-3 -9h5zM155 436l3 -4l-2 -4h-7v2zM149 296l3 2v7h-7zM205 288l9 -6l-2 -3l-7 5v4zM182 287h4v-8h-4v8zM196 419h4v-6h-4v6zM418 252l1 6h-5zM290 330h5v3h-3zM401 393h5l2 2h-5zM230 390h2v3h-2v-3zM156 293h2 l-4 3z" />
<glyph unicode="I" horiz-adv-x="193" d="M89 15l-9 45l3 11l-4 12l3 23l-6 18v19l4 3l-7 9l3 17l-2 5v23l2 3l-4 24l5 6l-4 6l3 14h-4l2 5l-2 7v45l3 11l-3 8l4 9l-4 10v18l2 4l-2 22l3 15h-3v13l-3 9l3 11v15l-2 5l2 2l-2 8v48l5 5l-5 13v50l2 3l-2 27l-3 8l3 22l4 9v7l7 7l16 7h17l4 -4h6l3 -12l5 -8l6 -27 l-4 -18l2 -5v-13l5 -17l-5 -9l5 -4l3 -38l-5 -14l7 -23l-3 -10v-28l2 -6l-2 -18l3 -10l-3 -3l6 -17l-6 -5l2 -10l-2 -39l-5 -5v-9l5 -9v-14l-2 -3v-18l-3 -5l9 -10l-7 -11l8 -12l-5 -10v-9l6 -12l-4 -15v-12l-4 -14v-21l4 -4v-49l-2 -7l4 -6v-35l-4 -9l-2 -14l-7 -3l-5 -10 h-11l-10 -3l-6 3z" />
<glyph unicode="J" horiz-adv-x="467" d="M238 10l-12 21l5 12l-6 5l-2 10l-9 3l5 4l3 -4l7 4l6 -6l15 10l3 7h7l2 -4h7l19 9v5h10l3 7l14 9h-12v5l12 8v-4h5v6l4 6h9l12 11l-5 4v5l3 3l2 9l3 2l2 10l-6 12l4 4l5 16l-9 18l4 2v12l-8 7v14l3 5v6l-3 3l10 13l-5 5l4 19l-7 9l3 16v19l6 10l-3 5v24l-3 13l3 17l-3 14 l6 29l-3 8l2 6v58l5 5l-6 23l6 17l-5 23l4 18l-4 5v26l9 23l9 4l3 -3l7 7h11l18 -9l7 -21l-4 -9l4 -9v-35l-3 -9l3 -3l-3 -10l8 -15v-9l-2 -3l2 -11l-5 -9v-26l5 -4l-2 -5v-19l-4 -6l8 -15l-7 -15l5 -9l3 -27l-3 -36l-3 -6l5 -6v-11l-5 -17l5 -7l2 -9l3 -1l-5 -6l-2 -15h4 v-21l5 -23l-7 -7v-23l-4 -15l7 -7l-7 -11v-13l3 -7l-9 -16l3 -3h7l-4 -12l-3 -2v-7l-9 -9v-9l-8 -8l-11 -4l-8 -14l-7 -7l-3 -8l-11 -4v-6h-5l-5 3l-6 -16l-10 -3l-4 -10l-9 3v-7l-13 -13l-15 -3h-37l-4 2zM159 0l-11 5l-9 -5l-9 3l-22 18l-21 15l-3 9l-18 13l-2 7l-10 9 l-2 7l-14 14v16l-6 12l4 22l-2 5v12l-3 9v36l5 10l7 7v9h9l5 5h16l5 2l16 -5l6 -13l5 -5v-19l3 -4v-11l6 -4v-17h7l-4 -5l1 -7l4 9h6l-2 -9l2 -4l-7 -3l-3 4l-4 -11l5 -5l11 5h9l-6 -16l5 -6l-3 -8l4 -7l14 -6l12 8v-8l-14 -3v-4l18 -17h8l4 5l8 -5l8 3l2 -5l5 -4l3 -7l9 -5 l-3 -5v-16h-6v-9l-8 -7v-4l-13 -10l-9 -5l-9 8zM169 103l8 8v-16h-5v2zM183 123v-6l-10 -3l-2 9h12zM126 116l2 1v10h-7v-7zM414 308h3l-3 4v-4zM174 113h-5l4 1z" />
<glyph unicode="K" horiz-adv-x="502" d="M437 -4l-12 2l-7 7l-7 10h-3l-15 26v4l-12 27l-4 4l-5 15l-5 5v9l-2 1v9l-9 4v11l-5 17l-14 9v13l-8 11l-7 4l6 6l-2 7l-7 4l-2 7l-8 2l-6 5l2 2v10l-9 16l-2 -3h-9l-3 3l-5 -5l-2 -7l10 -4v-12l-6 -5h-4l-5 7l3 5l-5 5l-2 -2l4 -15h-9l-6 -13l4 -7v-21l-10 -4l-2 4l5 2 v7l-3 2v7l6 -2v7h-17v14l-12 2v5l3 2l11 -2l-8 10l-6 -6l-6 -2l2 -2l-7 -4v-12l11 -8l-5 -11l-13 5v8l-10 5l4 4l-6 6l3 9h-9l-4 -7h-3v2h-5l7 -15l4 7l7 -10h-11v-7l2 -2l-2 -3l-17 3l-3 -12l-3 -4v-7l9 -10l-2 -9l5 -5l-5 -1l-4 3l-3 -11l4 -22h-4v-9l3 -3v-5l-9 -8l4 -10 l-3 -7l-2 -23l-7 -3v-4l-7 -7v-17l-11 -4l-14 -10l-24 4l-8 8l1 5l-9 9v37l-2 5l3 33l-3 10v20l-4 20l4 23v26l4 7l-6 6l3 7l-5 12l4 11l-2 23l-5 5l-6 2v2h-3v5h7l5 4l2 8l-5 9v21l-4 4l7 14v9h-6l-3 10l4 9l9 3l-8 11l4 7v27l5 19l-5 11v8l-5 4v5l5 4l4 17l4 7l-4 4v21 l5 4v21l-5 23l2 2l5 44l-2 3l5 18l-3 9l3 25l11 19h7l5 3l8 -3h20l9 -9l10 -23h6v-37l2 -5l-2 -4l2 -10l6 -6l-4 -9l11 -24v-6l-8 5l-8 -17l6 -7l4 2l2 7l7 -4v-8h6l6 -11l-3 -6l-8 4l-8 -8v-6h12v-5l-5 -9l-7 -3v-7h4l5 6h7l8 -4v8l4 5l5 -3l4 5h9v9l-2 2l-9 -4l-3 3 l-11 -6v7l3 5l6 -3h12l4 3h8v7l9 11l2 -2l3 3l8 -5l2 -5l-4 -2l-12 3l-4 -7l5 -6h18v10l11 5l3 6l3 -3l4 3l3 9h9l12 13l-3 6l13 6l7 10h5l14 11v8l18 15l18 21l5 3l10 14l27 30l9 4l8 -2l13 6l18 -4l9 -5l-4 -13l3 -3v-9l-17 -16l-2 -9l-7 -9l-4 -2l-5 -7v-8l-16 -13 l-3 -10l-15 -8l-8 -19v-11l-12 -4v-4l4 -6h-5l-3 -5l-5 -2l-4 4l-9 -14l-8 -18l10 -7l-2 -5l-26 -5v-6l6 -9l-3 -2h-11l-5 -10l4 -7l-2 -7l11 -11v-5l-2 -2l4 -10l-5 -6l-8 11h-7l-3 -4l3 -8l9 -4v-13l7 -10l14 -9l-5 -5h-4v-5h9l5 5l2 -2l-5 -9l7 -21l8 -4l8 -15v-13 l-4 -10l11 -6l3 -12l7 -3l-11 -7l7 -8l8 9v-5l-6 -10l4 -4v-4h2v-8h5l6 -7v-25l8 -2l4 -9v-7l3 -2v-13l6 -4l9 -15v-23l9 -4l5 -6l3 -14h3l4 -7l3 -14l11 -11l6 -26v-21h-4l-6 -11l-15 -2l-7 2h-4zM187 531h-2l5 7l-3 7l6 3l6 -12l5 -5l11 -2l9 6l-4 8l5 5l15 4l3 -2l2 4h2 v-4l-10 -10l3 -4h7l5 5l-3 2h7l5 -5l-6 -2l-8 -7l-15 2l-28 -14l-3 7zM259 217h5v21h-8l-4 10l-5 -5l5 -7l7 -14v-5zM226 268l8 5h4l2 5h-6v4h-9v-9l-8 2l-2 3l-4 -5zM217 167l9 4h5l8 5l-13 -17l-9 4v4zM193 239l6 6v4l-19 -1l7 -3zM264 264h9l3 4l-6 2l-6 -2v2h-5v-2z M226 240h5l4 7l-10 5l1 -4v-8zM174 187l1 8h-4l-2 4l-4 -3zM199 160l5 -4v-6l-8 4zM217 566v-3l-4 -2l-9 5h13zM229 538l7 3l-2 2l-8 -2zM247 249h2l-4 6h-7zM199 222h2v3l-6 6v-4zM220 252l2 3v9l-2 -3v-9zM238 238l2 5h-4v-3zM165 511v7l-4 -7h4zM268 243h7l-7 4v-4z M249 268h3l3 5l-6 -3v-2zM289 395h2v4h-2v-4zM238 231h2v3h-2v-3zM206 291h2v3h-2v-3zM261 282h3l-3 3v-3zM208 460h2v2h-2v-2zM166 522l3 2h-3v-2zM215 213v2h-2z" />
<glyph unicode="L" horiz-adv-x="484" d="M80 99h-5l-8 8l4 6h-12v12l5 7l-2 18l-3 2v7l3 2v30l-3 10l3 16l2 2l-2 39l-4 10l6 20v26l-6 5l7 8l-3 10v16l-3 9l5 9v17l-2 6l2 26l-2 4v33l4 18l-3 4l3 4l-6 14l5 23l-7 14l6 8v110l5 16l13 8h19l5 -4h10l5 -21l6 -7l-4 -10l8 -12v-10l5 -24l2 -47l-5 -6v-7l4 -11 l-2 -6l2 -22l3 -8l-3 -8h-7l4 -22l5 -5l-9 -18l10 -8v-7l-3 -3v-21l5 -4l-5 -5v-16l-11 -5l10 -1v-17l-5 -4v-9h9v-21l-4 -7l6 -5v-7l-6 -8l9 -8v-9l-6 -11l7 -6l-11 -8l3 -10h4l3 3h4v-3l-12 -11v-30l3 -5v-48l-3 -5h3l2 3h4v-6l-11 -5l-11 -19v-10h-34zM94 0l-23 11l-5 10 v27l9 14v5h21l8 11h12v-8l21 8l7 -5l6 10l8 -5l-3 -7l8 -4h12l2 -3l4 8h15l1 9l13 -13l9 7l11 -3l6 3l11 -7l9 8l9 -2l10 -7l13 5l30 -3h36l12 4l20 -7l5 3l14 -3l25 5l12 -9l11 -5l5 -11v-7h-2l3 -5l-3 -15l-7 -3l-3 -6l-8 -3h-8l-1 -2h-20l-6 -2h-39l-21 -3h-48l-7 3 l-8 -3h-32v3l-16 -3l-27 3l-5 -5h-16l-5 2l-18 -5h-10l-2 3l-12 -3l-9 5h-34z" />
<glyph unicode="M" horiz-adv-x="586" d="M468 15v12l-5 9v47l-2 4v37l3 20l-3 3v72l-3 11l6 23l-6 4l5 11v18l-4 4v3h4v6l-9 9l10 13l-8 8v5l7 7l-2 8l2 1l-8 6l12 13l-6 2l-7 8v7l7 3l2 29l-4 2v3l-10 -3l-14 2l3 9l9 -2l3 7h9l2 3l-7 1v5h-16l-9 -9v-27h4l4 3l3 -6l-2 -5l3 -12h-17l5 9l-5 6v11h-3v8l-12 9l8 5 v6l-5 -3l-9 3v-14l9 -9l-4 -7v-14h9l2 -19h-4l-5 8v4h-2l-2 -4l-15 1l-6 8l-5 -14l-4 -3l9 -1l6 6h8v-9h7v-5h-7l-3 -2l5 -8l-2 -8h-3v9h-5l-8 -4l-5 11l-8 -2l3 -17l3 -4l-5 -7h-3l-4 10h-14v-11l-12 -4h-7v-6l-9 -10l-16 -8v5l-16 3l-2 5l-6 -5l-4 7h-5l-6 12l-5 -3h-11 l-3 3l5 9l3 12l-12 1l-10 -6l-8 9v5l4 -3l5 12l-12 14l5 6l-9 13l-2 -3h-8v7l-5 -6l7 -8v-10l-5 -2l-6 12l-7 5h-5v9l10 7l-2 13h-12v-11l-8 7v4h-7l-11 -20h-7l-2 -12l-4 -9v-13h6l3 6h7v-9l-15 -14h-6l-3 -3l3 -1v-3h6v-9l-6 -7v-5l9 -9l-8 -8l5 -6v-3h-2l-4 -6v-9h-3v-3 l4 -2l-5 -10l6 -6v-8l-12 -7l6 -10l1 -8l-5 -7l4 -6l1 -9l-6 -10v-25l-3 -5l5 -4v-54l-4 -6l7 -12l-5 -5v-30l-4 -5l4 -6v-20l-7 -10l-3 -11l-15 -5l-5 2h-19l-11 12v13l-5 9v95l-2 33l2 6l-2 11l3 8l-3 7l4 4v30l-3 12l3 18l-3 10l6 11l-7 8l4 22l-4 25l4 13l-3 8l3 5v8 l3 6l-3 4l-2 15l-4 5l2 4l-4 8l8 15l-4 7l2 8l-2 19h-6l4 12l4 3l-5 23h10v4l-5 5v25l3 14l-3 7v18l5 5v9l-3 3l-3 24l3 15v25l9 18l9 3l6 5h15l9 -5h6l15 -30l5 -16l-2 -5l2 -7l4 -4v-14h15v-3l-3 -2l3 -6l6 6l-1 5l13 6l7 -1l2 -5l19 -19l7 -20l6 -7l3 11h4v-9l5 -4v-19 l15 -11v-10l4 -5l9 3v-3h16l3 -13l4 -2l3 1l-3 16l4 7l4 -5l6 3v-2h7l5 -3l7 13v6l-8 7h10l8 -8l-6 -13l-11 -15l-8 -7h-11v-15h14v-4h-12l-4 -8l-8 6l-5 -10l3 -5l10 -2l12 6l8 8v12l-7 6h12l7 -6l-9 -5l18 -9l2 16l-6 4h-7l9 6l2 -3l7 -3l4 5l-9 12v4h3l5 -5l15 -5l-6 15 l18 2l2 5l-4 3l-5 -3l-4 5l4 2l4 10l5 6h5l18 19l3 9l7 6l14 26h4l2 -5l5 5h3v-3l12 -16l6 5l-5 5l3 2l6 -3l3 5h5l4 5l-3 3l10 20v14l2 2v14l5 2l7 8l5 1l7 8l16 2l4 -10h7l7 -6l-3 -11l5 -13v-18l3 -7v-16l5 -14v-23l-6 -22l7 -8l-3 -14l8 -9l-6 -9v-28l10 -15v-8l-7 8 l-3 -3v-18l-5 -24l9 -2l5 2l4 -5l-13 -9h-3l4 -7v-5l-4 -4v-6l3 -6l-5 -24l2 -31l-4 -4l8 -12v-16l3 -5v-12l-4 -11v-23l-3 -2v-30l4 -19l-6 -2v-23l2 -5v-37l-5 -5l3 -11v-12l2 -4l-2 -16l-3 -7v-35l-12 -20l-20 -6l-21 4zM178 462l8 8l-7 5l-9 12h-4l-5 12v7l-15 -5v-2h3 l6 -17h8l5 -5l-2 -7l4 -1v-3h5zM426 452l17 8l-3 10h-6l-3 14l-12 -11l10 -11l-3 -5v-5zM161 448v4l-7 9h9v9h-12l-5 3l-2 -7l9 -21zM262 544l-6 -2l-9 2l-6 -2l-5 6l19 5l7 -4l15 -3v-8l-15 4v2zM187 355l-3 7l-5 -3l4 8l13 -5l1 -7l-4 -6l-2 4l-10 -4l-5 -5l-3 11h14z M421 350v3l15 3v-7l-3 -3l-7 4h-5zM209 383v-12h-7v12h7zM175 450h9v9h-9v-9zM167 406l3 -9l-9 -3v7zM179 391v-11h-3l-5 7zM421 374l5 -7h-5l-9 4zM142 420h7l4 3l-8 5zM451 409l3 -3v-5h-5l-3 4zM343 549l3 -2v-7h-5v7zM260 505h7v5h-7v-5zM449 452h2l5 7h-7v-7zM301 508 h5v4h-7l-2 -2zM350 538l2 -5h-6v5h4zM172 328l3 -5l-5 -3v8h2zM145 551h1l-1 8l-4 -4zM239 359l2 5l-4 5v-5zM399 394l-3 7l-2 -2zM454 482h2l-2 5l-3 -3zM396 410v8l-3 3zM154 519h2l2 4h-4v-4zM456 579l5 2l-5 2v-4zM304 454h2v5zM431 493h2v3zM170 459h2v2z" />
<glyph unicode="N" horiz-adv-x="553" d="M83 16v2h-4l-7 21v23l2 4l-3 14l5 6l-4 4v16l-3 10l3 14l-3 11l3 18v38l3 1l-3 17l-6 14l3 59l4 18l-4 3l-6 17l7 2l-3 11h-3l8 17l-10 10l5 10v12l-6 12l9 9l-6 33l6 38l-3 2l-2 18l-7 13l8 8l-6 9l5 17l-5 12l5 32l-5 14v23l3 4l-4 11l6 6l3 20l8 12l10 4h18l18 -15 v-10l15 -9l6 -7h6l5 9l10 -2l9 2l24 -25l1 -7l8 -5l2 -16h20v-5l5 -8l-9 -5l4 -8l6 4l8 -3v-3h-4v-17l11 -8l9 -18h8v-5l-3 -3l-2 3h-3v-4l8 -8h4l2 -7l-2 -5l5 3l3 -3l-8 -9h7l5 5l7 -11l-3 -5l5 -19h9l2 9l5 -1v-5l-5 -5l3 -9h4l5 5v5h3l4 -10l-12 -3v-7l-9 -9l7 -1 l13 -10l15 20v8l-5 4l9 3l5 -3l3 5l19 -15l-4 -3h-6l-4 9l-14 -6l6 -6h5l-4 -9h-6l8 -21v-11l5 -16l4 4l3 13l3 -4v-18l4 -6l-8 -5v-7h11l3 8l20 10h9v-16h10l7 7l13 4l-11 9v8l5 9h2v-16h7v25l-7 2l3 4l10 4l-6 4l-4 16l-9 8l10 8l5 7v21l4 18l-7 5l3 32l5 9l-7 19l5 62 l-3 14l3 16l4 9v12l9 9h8l11 2v5h11l9 -9l10 -23v-9l5 -15l-5 -20l3 -11l-3 -3l2 -2v-7l-2 -2v-8l4 -3l4 -14l-8 -11l7 -6v-7l-4 -7l4 -7l-2 -9l-6 3l6 -15v-11l6 -42l-4 -21l-5 -9h8v-51l9 -9v-13l-4 -4l5 -22l3 -5v-9l-4 -9v-12l-6 -10l3 -11l8 -4l-4 -30l-5 -14l8 -18 l5 -4v-17h-13l4 -7l-3 -3l3 -9l-3 -4l-2 -35l4 -6l-7 -12l9 -8l-9 -4l3 -5v-6l-3 -3v-39l-7 -14l3 -10l-12 -3l-9 -5h-6l-4 3l-4 -4l-12 3l-7 8l3 13l-8 8l-8 24l3 33l-11 7l3 6l-2 3h-4v-9h-12l-5 -10h-4l-12 12h-14v12l-14 10l-6 20h-10v11l-4 2l-8 14l-15 11l9 4v9 l-14 22h-4l-8 -7l2 -15h-2l-7 13v5l7 3v9l-8 7l-5 -3v-7l-6 -6l9 -4l-7 -7l-3 -10h-5v6l5 3v6l-5 7h-2v7l9 2l2 8h7v11l-5 5l9 5l-6 6h-5v-5h-4l-4 4l-4 -7l-4 3l-3 8h-4l-4 4l-5 -7v-18h-3l-14 10l12 3l2 10l5 4v12h5l4 -9h17v16h-12l-9 9v7l-4 -4l-7 13l-5 -2l3 25l-7 -13 h-8v9h-4v6h-5l-8 6l-6 -3h-11v2l9 4l8 9l-6 6v12l-19 3l-9 17l-8 8l5 4l3 -3h8v4l-3 10l-6 6l13 5l-9 5l-5 10l-16 -3l-4 2l5 6l13 4v5l-14 10v12l-20 -2l-4 -10h-10v-10l5 -11l-4 -4l5 -15l7 -5l-10 -4l-6 6v-5l3 -4v-21l18 4l4 3h5l4 5l-1 18l-4 3l4 4h6v-24l6 -2l-12 -18 l-20 -2l-9 -5l3 -3v-13l5 -7h4l5 -7l5 -3l-3 -15h-14l-4 4l-2 -7l10 -3v-8h-4l-5 -5l3 -7v-11l5 -2v-5l-9 -8l4 -6l6 -3v-24l-9 -4l-1 -25l6 -11l-4 -13l8 -6l-7 -9l3 -15h-4l8 -12l-8 -9l4 -33l4 -2l-6 -15v-9l-3 -4v-17h-6v-6l5 -4v-14l-5 -7v-8l-5 -13l-14 -9h-16l-10 4z M424 248l3 3l-2 5h-12v12l13 2l-6 11l2 15h-6v-9l-10 -3l-3 -8l-8 -5v-5h6l5 -10l7 -2zM379 302h16v7h-12v5l7 4v8l2 2l-5 11l-12 6l4 -8l-10 -13l5 -6h3v-4l-4 -6zM208 309l-11 12v5l-7 3l8 7l3 -6v-7l5 -5h6v8h5l11 -9v-12l-6 -5v5l-7 -7h-7v11zM222 375l16 6l-5 14l-18 3 v12l3 8h-8l-4 -17l4 -2l7 -9l5 -14v-1zM152 492l3 2h7v6l5 10l-10 16h-7l2 -2l-2 -7l7 -7l-5 -14v-4zM416 330l9 3v6l-9 10l-10 1l-10 -4l4 -7l9 5l2 -9h5v-5zM280 537l-6 -7l-7 7l10 10l5 -2v-4l8 -4l5 -9l-11 5zM177 360h5l8 -8l-5 -6h-3v3l-5 -3v-5l-6 5zM386 349l12 9 l-5 8l-13 -7zM168 374l17 5l7 -3v-5l-11 3l-10 -5l-3 -7l-1 12h1zM231 270h7l4 4l4 -8l-6 -5h-9v9zM371 404v2h-9v4h12l6 -5l-6 -6h-5l-2 5h4zM404 307h5l13 7l-4 2h-14v-9zM141 540h9v10h-9l-3 -5zM392 281h8l6 7v5l-5 -2l-3 4l-3 -7l2 -2zM365 383l2 3h7l3 -6l-3 -4h-5 l-2 4zM416 449v-10h-5l-6 6zM330 406v7h-9v-7h9zM162 309v-3l-9 -5l-3 8h12zM152 455v-10h-6v10h6zM524 224l3 8l4 -4l-2 -7h-8v3h3zM430 316l2 13l-10 -8zM164 278v-6l-5 -4l-7 2zM138 341l8 5v3l-9 1v-6zM138 485h9v6h-9v-6zM212 307l7 2l3 7l-3 2l-4 -2v-5zM306 483l5 -5 l-2 -3h-4l-4 4zM168 328v-7h-6v7h6zM219 284h8l1 -3l-9 -3v6zM261 240l2 -9h-8zM402 432l-2 -10h-3v8zM339 526v-5h-7v5h7zM197 455v9h-5v-4zM287 503h4v-7l-2 -2l-2 2v7zM240 286v-9l-7 2zM245 337h2l3 8l-8 -4zM411 410v-4h-7v4h7zM203 440l3 3l-8 2v-2zM197 399l9 5h-9 v-5zM141 517h5l1 3h-6v-3zM335 380v6h-3v-3zM400 321l3 3l-3 4v-7zM344 365h3l-3 4v-4zM194 448l7 2h-7v-2zM431 293l3 3h-4zM515 251h2v3h-2v-3zM365 326l2 2h-5zM404 298h2l-2 4v-4zM134 628h3l-3 2v-2zM134 500v3h-2zM434 215v2h-3zM277 302h2l-2 3v-3zM129 642h3l-5 2z M173 494v2h-2z" />
<glyph unicode="O" d="M330 -8h-33l-9 9l-3 26l3 13l7 9l3 9h11l5 3l23 -4l9 6h6l23 10l4 8l11 5l11 11l7 19l3 -5l9 4v17l7 7l2 12l-6 8l5 11l3 16l-2 1l2 8l5 3l-7 10v68l3 10l-4 5l8 13l-7 33l5 17v16l-4 3l7 15l-5 11l5 4l-6 11v5l-5 2l5 11v30l3 14l-3 3v13l-3 7l3 5v17l-6 6v4h6l3 3l-7 7 l-2 7h-7l-6 20l-4 3l-11 -2v18l-7 3l-6 -3l-6 3l3 2l-9 14h-5l-7 -6l-3 6h-18v4l-19 2l-20 10l-7 14l-3 2v9l-5 8l5 8l24 19l46 2l7 2l16 -2l7 -4h9l9 -5l7 -7l15 -7l34 -37l11 -18l11 -3l3 -7l7 -6v-8l4 -1v-3l3 -2l2 -24l5 -2l-5 -11v-44l4 -17l-4 -7v-13h-2v-30l-3 -14 v-18l-2 -4l2 -17v-42l-5 -12l8 -15v-19l5 -9l-3 -2v-9l-5 -6v-18l-4 -6l3 -8v-52l-7 -13l9 -9l-5 -11v-9l4 -5v-11l-7 -12l-4 -16l-7 -7v-10l-16 -13h-8l-10 -23l-12 -9l-6 -11l-8 -3l-4 -12h-14l-24 -11l-4 -5l-21 2l-5 -2l-15 2zM185 -13l-10 5h-12l-16 9l-25 21l-6 10 l-12 8l-9 12l-8 6l-4 10l-16 13l-14 24l-5 25l3 5v90l2 4v28l2 11l-2 5v12l-4 6l6 12l-2 7l2 5v14l6 16h-4l-4 -3l2 21l3 8l-4 13l3 16l4 8l-4 3v10l-3 9l6 23l-3 8l6 11l-3 9l-5 4l7 10v6l-4 10l6 23l-7 7v7l3 4v17l4 4v8l23 27l6 12h11l3 11l10 2l3 9l11 8l4 9l10 9l10 3 v2l20 11l14 2l14 -2l25 5l4 -4l17 -3l11 -11l8 -14l13 -3l-6 -2l-5 -20l-7 -3l-3 -17l-34 -1l-2 -5l-14 9h-10v-3l3 -1v-8l-7 3l-5 5h-6l-7 -9l-7 -4l-3 -7l-4 -1v-9l-5 -5l-5 2l-7 -9l-7 -4l-8 -13l8 -1l-5 -5h-6l-4 -5v-19l-3 -6v-16l-3 -7l6 -3l-5 -4l9 -16l-7 -8v-9 l3 -4l-3 -6l3 -6v-16l-4 -8l5 3l4 -4l-6 -14l4 -28l-9 -12l3 -11v-14l-3 -6l3 -3v-39l-4 -7h7l4 -5v-14l2 -4v-14l-3 -6l4 -14l-3 -5v-8l2 -1l-6 -7l4 -19l8 -8l-6 -6l-2 -10l5 -9l-6 -15l6 -6v-4l11 -11l2 -6h6l12 -20l21 -16l22 -5l5 -6l3 4h14l16 -8l8 3l3 -3l-6 -6 l12 -12v-15l3 -7l-10 -10l6 -6l-13 -5l-13 -7l-13 -2l-25 2h-13zM378 585v-9l-7 6z" />
<glyph unicode="P" horiz-adv-x="510" d="M74 16l-7 8l3 9l-3 6v26l-2 4v51l3 14l-5 4l2 3v14l-7 2l6 3l4 7l-3 25l-2 2l7 7v26l-6 15l6 3l-3 4v9l-3 8l8 16l-5 36l-3 6l3 9l3 76l2 2l-7 10v11l6 8l-7 8l3 7v16l4 13l-9 12l8 5v7l-9 -2v2l9 3v16l-5 4v12l5 9v26l-3 5l5 10l-6 9l6 17v23l2 5v23l19 16l7 2h25 l20 -18l3 -21l5 -9l-5 -5l3 -5l-6 -26l19 -11l-11 -11h-5v-9l5 -2l3 -26l-6 -15l5 -3l2 -5l4 4l4 -6l-5 -2l-7 -17l9 -9h4l3 5h2l-2 -7l-3 -2v-12l12 -12l-4 -4h-5v-10l2 -2v-5h-9l-5 -4l5 -5h16v-8l-13 -3l-10 -5v-14l2 -14l3 -2l5 -11l-10 -12l5 -5v-4l-3 -3l3 -4l-5 -14 l5 4h5l4 10h5l4 4h8l4 10h6v-3l3 -2v-5l-7 -6h-14l-7 -5l-2 -9h5l9 9l9 -4l4 2l3 -2l5 4h9l3 -3l6 5v9l3 5l9 -5l-5 -4v-7l5 -4l2 -14l16 4l4 3l5 -5h3v16h4v-12l3 -4l8 -6l19 13v-10l5 -5l4 5v-5l8 3l5 6l11 -9h23l12 12h4l18 17v6l3 5v6l7 -4l3 8l10 5l3 8l4 2v15l3 6v21 l-3 7v14l8 9l-5 9l-10 6l3 3h7v19l2 7l-2 7v30l-6 12l-6 -3v7l-4 9l3 4l-8 6v2h2v5h-16v13h-5l-2 5h-4l-5 -8l-7 13v4h-7v-9h-11l-3 2l3 3l-3 10l-11 -4l-15 3l-13 -9v8l-13 -4l-7 3l4 4h-14l-6 6l-6 -4l-27 -2v2h-12v-4l-12 10l-9 -3h-16l-10 5l3 1v3l-13 2l-8 5v2h10 l-2 12l-8 -5l-4 18l2 3h5l2 7h9l7 7l5 2l7 7l26 7l6 -2h34l14 -7l-4 11l2 3l9 -10h10l7 3h9l12 2l4 -5l5 5l2 -2h5l5 4l18 -12h21l3 -2l7 3l22 -10l3 -6l15 -6l3 -13l7 3l5 -10l11 -4l2 -5l9 -6v-6l7 -4l2 -5l10 -9h5l2 -12l7 -16l4 -4l-2 -3l2 -5v-25l9 -17l-9 -6l2 -18 l6 -6l-8 -11l8 -16l-3 -14l2 -4l-2 -16l-5 -5l4 -23l-6 -19l-6 -5l5 -19l-9 -9l-4 -11l-15 -18h-3l-5 -9l-7 -3l-2 -4l-3 3l-9 -8l-4 -13l-24 -12l-2 -7l-9 -2l-5 -11l-29 -7l-13 6l-13 -6h-27l-7 -12h-8l-4 -3v5l-8 9l-15 -7l-10 -2l-5 -5h-9v10h-6l-6 3l-6 -3l7 -10l-2 -2 l-16 -3l-9 14l-5 3v-12l7 -6v-3h-10l-14 -10v8l-10 6l-6 -11h-9l-2 2h-5l10 -12l18 8v-5l-8 -10l-6 5l-18 -4v-7l24 -7v-7l-6 -3l-4 3l-5 -3l5 -14l-12 -8h-4l-4 -8l4 -2l-10 -11v-5h6l-4 -6l3 -6v-15l-10 -19l2 -11l5 2v-17l3 -4v-9l-3 -2v-7l-6 -8l-4 -12l-6 -6v-6l-19 -3 h-18l-12 12zM151 459l13 1l3 10l-12 13v-14l-4 -5v-5zM220 323l7 5l-5 5l-21 -5l4 -3l10 4zM178 321l14 5l-2 4h-12l-3 -2zM192 183h6l9 -15h-6l-5 5zM200 398l9 -4l-4 -9l-9 9zM243 215h7v-8h-9l-3 3zM196 485l4 -3l-4 -6l-1 2l-5 -5h-3v5zM225 206h11v-9l-5 1zM169 360 l9 3v-5l-17 -2l4 4h4zM161 615l4 -4l-3 -3h-7l-3 3zM171 548h4l6 -10l-10 3v7zM190 240h2v8h-11l4 -3zM192 194v4h4v-8l-8 -3zM199 213v-7l-3 -3l-5 5zM211 529l5 -3l-4 -5l-6 3zM181 173l4 -2v-4l-10 1zM416 416v-5h-5v5h5zM254 588l2 -10l-6 6zM160 649h5v4zM151 450h4 l-4 3v-3zM195 233h1l-1 3v-3z" />
<glyph unicode="Q" d="M258 -87h-9l-7 9l-5 28v23l-5 5l4 15l-6 10h-6v-3l-5 -5h-4v3l4 2l-10 5h-6l-4 -3l-8 4l-11 -5l-16 4l-14 10h-5l-10 9l-15 8v7l-7 6v7l-8 4l-4 -2v9h-9l-5 9l-7 7l-5 2l-11 14l-4 14l-7 7l2 5l-4 15v19l2 7l-5 14l5 48l-2 3l-3 13v18l5 8l-5 4v5l3 3v30l3 16l-3 14v13 l-3 5v9l7 7l2 11l-2 7v30l-2 23l-4 7l4 16v49l-2 2l2 12l2 52l5 5l5 17l13 9l7 13l14 3l2 7l24 23l10 3v6l15 15l6 -3l3 4l14 7h18l8 3l42 -6l3 -4l7 2l5 -2l14 -29l-5 -5v-5l-17 -13l4 -8h-17l-5 2l-9 -9l-16 -2l-9 5l-5 -5h-9v-7h-3l-2 3l-4 -5l-8 -3l-5 -16h-5l-17 -11 v-6l-7 -10v-8l-5 -1v-33l8 4l1 -6l-4 -12l-5 -7l-1 -44l-7 -12l7 -6v-18l-5 -13l7 -14l-2 -15l2 -3l-5 -9v-13l-3 -15l3 -6v-10l-5 -1v-8l3 -1l5 -29l-5 -11v-14l-3 -5v-21l8 -7l-5 -8l2 -10l-5 -5h9v-4l-4 -5l-2 -21l8 -5l-7 -4l5 -11l8 7l1 -11l-5 3l-4 -3v-21l12 -3 l7 -11l10 -3l6 -13h7v6l6 6l5 -3h7v-7l-9 -7l-3 -12l5 3h6l6 7v-7h-2v-3l5 -4h4v14h2l5 -7h4l3 -3l-4 -7l4 -4h7l11 8l-2 11l-4 6h-9l1 3h14v6l-21 7v5h10l-3 5h8l14 10l-8 11v10l7 3l-2 5l7 7v5l4 7l-7 2l-5 8l12 5l4 -7l22 7v-4h14l9 -5h9l4 5l3 -5l-3 -4l-2 -14l12 -16h7 l7 -5v-4l-25 7l1 -12l3 -7l7 7h5l6 -7h8v-7l-3 -2l-17 8l-5 -9l13 -13l15 -27h10l-2 9l2 2l7 -5h7l12 12l7 4l2 12l4 2l5 12l3 -3v-6l9 9v11h7l5 7v5l-10 2v7l14 4l-5 6l2 20l6 11l-4 11l4 14l-3 3v16l6 19l-5 6l5 5l-4 10l3 8l-4 9l8 9l-3 11v18l-6 6l5 19v81l-7 3l8 8v12 l-4 5v7l5 3l-2 12l1 15l4 3l-5 11v11l-3 5l-2 9v9l3 7l-7 7h-5l-5 5l-10 -1l3 3v6l4 4l-4 4l-23 10l-5 8l-8 5l-3 7l-14 -3l-2 5h-8l-5 -3l-8 7v7l-18 -10l-3 8l-9 10h-9v2h4l7 17l-4 8l8 5l3 9l3 -2l4 4l7 -2l5 4h32l4 -4l12 2l4 4l13 -4l4 -4l13 3l10 -10l7 -12l5 2l4 -4 v-5l20 -17l7 -14l5 3l7 -6l4 -8l9 -5l4 -5v-6l9 -2l4 -21l5 -7v-11l-5 -4l5 -9v-12l-4 -4l8 -11l-7 -14v-24l-3 -16l4 -3l-3 -10l4 -22h-4l-2 -3l2 -2l-2 -39l9 -9l-14 -6v-4l11 -13l-6 -5v-16l-6 -17l7 -10l-8 -10l8 -7l-3 -14v-13l-5 -8l7 -17v-15l-2 -20l-3 -5l3 -21 l3 -4l-3 -3v-14l2 -16h-5l-2 -2l5 -7v-14l-3 -2l-11 -19l-10 -5v-6l-6 -4l-7 -9l-35 -33l-5 -8l-6 -1l-5 -8v-6l-16 -5l-9 -10h-12l-4 5h-14l-8 -4l-15 10l-3 -10l-13 5l-4 -6l4 -4l4 3v-5l-10 -12l-1 3l-8 -7h-3l4 -28l-5 -10v-9l-5 -4l-4 -10l-22 -5zM224 33l2 4l7 -2l3 9 l-5 8l-7 -4l-3 6l-6 3v-8l4 -4l2 -10zM325 58h3l4 9l-12 17h-4l2 -8l7 -9l-7 -12zM316 5h4l-2 10l-4 6h-6l-2 -9zM159 129l3 -3l-3 -10h-3l-3 8zM233 104h4v7h-15zM186 168l8 -1l-12 -10v5zM185 132l6 -7v-7h-2l-4 9v5zM364 118h7l2 -4l-2 -3l-7 4v3zM203 97h4v-4l-4 -3 l-4 4zM346 99v3h7v-5h-3zM311 28l4 7h-4l-4 -3zM311 90h5v5h-5v-5zM145 572h5v-4h-5v4zM117 496h5l3 3l-3 1zM304 60h3l1 3l-4 2v-5zM368 157l3 -2l-3 -5l-1 7h1zM219 10l2 2h-2v-2z" />
<glyph unicode="R" horiz-adv-x="508" d="M87 4l-11 15l-3 69l-2 5v18l-3 8l3 38l-3 8l-4 46l5 10l-5 8l2 18l-7 7l8 30l-5 19v15l6 8v16l-7 10l4 7l-7 15l6 3l2 6l-4 16l-4 7l4 12l-3 2l3 2l2 8l-5 7v13l4 4l3 22l-2 4v14l-5 13l6 14l-3 10v46l3 24l-4 10l3 8l-6 8l6 28l7 16l-4 7l27 14l12 -7l6 4l16 -8v-11 l9 -10l-1 -28l4 -1v-12l-3 -8l3 -6l2 -16l-6 -12l5 -10l4 4h4v-3h-3l-10 -14l4 -13h6l3 6h5l-3 -9h5v-5h-7v-4l13 -5l-17 -10l-7 -21l8 -8v-4l-9 4v-7l5 -5h3l9 -9l4 -14h-18v-13h16l-2 -24h-9l-3 3l-3 -4l6 -8h9v-16l7 -2v-12l-5 -5l5 -1l6 -8l12 12l11 5v-3h3v7h-14l7 7 h10l4 -9l-3 -5v-5l3 3l10 -4l4 6v9l4 5l2 -2v-9h6l1 -3l14 -3l7 8l5 2l4 5h-2v2h5l2 -2h5l-2 -9l-5 -5h21l-3 9h7l9 -13l12 4h16l2 5h-6l-5 4l2 7l8 11l4 -4v-7l4 -11l3 4l4 -2l6 3l8 -8l9 -4v7l3 15l6 7l9 -3l12 13l3 7h-12l-3 2l8 4h9l7 18v15l-3 5l-1 27l-5 10h-7l-3 4 l7 2l13 13l-7 7l3 10v25l-16 5l5 3v9l-5 9l-15 7l-3 7l-13 13l-12 3l-6 -6l13 -3v-7l-14 7l-5 5l-13 5l-15 -3l-2 7l-4 2l-3 -5l-4 5l-10 -2l-2 -5l-11 -5l-3 3l3 2v5h-8l-2 2l-7 -2v-7l9 -2v-3l-9 -3l-6 13l-9 -4l-6 7l-10 -9l-10 10h-5l3 -9h-4l-4 7h-7l-10 -6l-14 4l6 6 v5l-9 3l-2 13l2 2v5l-9 4v7l5 15l20 13h21l17 9l31 -8l9 6h31l4 3l3 -4l11 4l13 -6l8 3h37l6 -7h12l23 -13l7 -10l27 -25h5v-11h11l8 -17l9 -4v-9l5 -5v-16l2 -3v-9h2v-39l5 -5l-10 -10l7 -23l-3 -17l10 -12l-4 -7l2 -5l-5 -2l4 -16l-4 -2v-5l4 -4l-6 -8v-4l-9 -19l-7 -2v-9 l-6 -7l-15 -10l-5 -15l-9 -12l-12 -6l-9 -14l3 -6h-9l2 -4v-14h-5v5l-6 9l-5 -12v-5l-5 -1l-5 4l5 5v9h-5l-4 -5h-5l-2 3h-4l-3 -3h-7l-5 -12l-5 7l-10 -4h-7v2l-5 3l-3 -3v-5l-5 -9h4l1 3h19l10 -20l-3 -4l14 3l2 -7l-4 -9l-3 -2l5 -3v-12l5 -9l6 -2v-7l-6 -3l7 -7l8 -24 v-7h10v-21l10 -4l1 -16l8 -3l-3 -5l3 -6l11 -8l14 -25v-6l7 -5l4 -19l5 -8l-5 -8l5 -5l-8 -20l-15 -4v4h-18l-12 5l-12 13l-2 9l-7 14l-8 5l-8 23l-5 6l4 8h-10l-5 9l-4 3l-5 15l-5 5v7l-27 27l6 3v5l-4 4h-5l-7 12l3 3l-3 6l5 5l-14 7l-5 18v14l-6 5l-5 -7l-12 -6h-9l2 15 h14l3 6l-5 5v18l16 -4v7l-6 5l4 7l-9 1l-3 -10l-18 15l-18 3l-6 -3h-11l-8 -7l8 -8h7l-2 -20l-7 -5l-7 7l5 8l-3 5h-6l-3 -3l-9 -2l-5 7h7l6 12l-5 9l-6 -9l-10 -4l-4 4l-1 -17l-3 -4l3 -3v-11h-15v-9l-5 -9l10 -12l9 8l9 -4l-4 -4l-7 2l-2 -2h2l3 -7h9v-7h-12v4l-12 3 l-2 -2l10 -16l-8 -5v-5l3 -2l-5 -5v-32l6 -5l-11 -15l3 -3l-6 -13l7 -4l-8 -13l6 -7l-1 -34l-3 -5v-12l-4 -3l4 -4h7l-9 -9h2v-3l-8 -4l-7 -13h-11l-1 2l-9 -5l-8 3zM166 295l13 3l-3 7l-10 3l-8 9l-2 -15zM221 264l8 8l4 -9h6l5 3l2 -14l-2 -3l-8 6l-4 -7v12zM184 227v9 l4 4l6 -9l-4 -7l7 -9h-13l-5 2zM179 257l9 6l9 -9v-5h-18v8zM175 422v10l4 7v-7l7 -12l-5 -4h-6l-5 -3l-3 3zM299 441l9 -4l-4 -17l4 -4h-9v25zM343 422h11v-6h3l2 -3l-6 -10l-10 14v5zM248 399l9 8h5l3 -6l-8 -3l-8 -7l-4 5zM232 291l3 -3v-13h-5l-8 8zM382 536h7l-2 11h9 v-6l-7 -10h-7v5zM271 392v7h17v-9l-3 2h-14zM292 420v-4l-16 -6v10h16zM214 231l6 5l7 -8l-7 -4l-2 -5l-4 5v7zM235 213v-4l-9 -3h-8v7h17zM250 199h-9l9 5l5 -7l-3 -8h-6l-2 3zM167 487l3 -2v-14h-3l-5 10zM361 551l3 8l4 -8h5v-4l-5 -5l-4 8zM235 246l9 -5v-5l-3 -2l-6 6 v6zM166 448h6v-5l-5 -2l3 -2h-9l2 2zM387 520l4 -5v-4h-7l-3 3zM186 551l9 -8l-11 -1zM148 561l3 -7l-2 -3h-7v3zM340 398h5v-10l-7 2zM306 291l12 5v2h-12v-7zM197 441l10 2l2 -2l-3 -6l-9 4v2zM375 490l7 3v-11h-4v3zM137 520h5v9h-5l-1 -5zM188 490l-7 -5h-6v5h13z M161 506l-3 -12h-2v12h5zM253 411v-2l-9 -5v7h9zM190 596h6v-3l-6 -4l-2 4zM285 282l7 2l-12 3zM336 515h4v-7l-2 -2l-2 2v7zM235 392h6v-4l-4 -2l-2 2v4zM149 323h5l4 7h-2zM220 257l-2 -5h-2v11zM253 469v-9h-3v7zM336 491h2l2 -6l-2 -3l-2 3v6zM145 422v5h-5v-2zM146 275 h3l5 7l-5 -3zM190 365h6l-6 4v-4zM271 245v4l-2 -1zM338 261l-4 -3zM158 660l3 2h-3v-2zM349 240l-1 5v-2zM274 409l2 1v-1h-2z" />
<glyph unicode="S" horiz-adv-x="527" d="M148 316l-5 3l-15 3l-11 11l-10 -4l-3 10l-14 20l-12 6v7l-7 7l-5 10h-6l-8 7l3 9l-2 30v35l2 4v30l-2 18l-5 5v3h8l-6 31l3 5v12l4 12l9 9l3 6l23 26v4l20 10l6 13l37 26h18l7 2h30l5 6l11 -3l5 -5l6 7l3 -5l16 -7l2 -8l8 -8l1 -4h8l6 -4l6 10v12l13 3l7 7l7 -3l21 2h30 l28 -7l32 -29v-4l12 -8v-6l6 -3l26 -30l2 -8l5 -6l-3 -5l3 -9v-23l-3 -5l6 -15l-16 -27h-15l-6 -2l-13 2l-13 9v15l-8 2v21l3 7l-16 16l-7 16h-8l-9 12l-6 -5l-3 2v8l-15 7l-10 -6l-7 7l-13 -2v2l-6 -2l-10 2l-9 13l-9 -6l-4 16l-2 -6h-10l-4 -5v-4h-12l-5 -5l-1 -7l-5 2 l-4 -2l-9 7l-8 -3v-7l-16 -5v3h-5l-4 -4v-4l-12 -4l4 8l5 4l-3 4l-11 -16v-13l-4 2h-12l-6 -16l5 -12h11v-9h-7l-8 7h-6v-7h2l-5 -7v-6h-4l-7 -7l5 -8h9l-7 -6l7 -4v-5h-9l2 -8l-2 -2v-10h6v-5l-11 -5l5 -8h6v-2l-12 -3l3 -8l3 4l6 -3v-9l3 -1l-7 -3l7 -12v-6l5 -5h4v-12h6 l4 14l7 -8l-4 -9l19 -7l5 6h7v-12l3 -2l10 9h5l5 -9h7l9 -5h16l-7 -14l3 -2v-12l9 3v-13l-8 -4l-5 -16h-5l-5 9l-5 -14l-27 7l-4 -8h-10l-11 3l-22 -3l-6 4zM307 -6l-20 20l-4 7h-6l2 9l12 14h2l3 5l11 5h7l13 7l12 -4l12 6h5l4 9l18 9l3 -2l5 9l2 11l18 5l7 25v15l6 12 l-5 5l8 8l-6 14l2 2v7l-5 2l-5 11l5 5h5l6 9l-11 8v7l5 5l-5 6v12l3 7l-12 27h-6l-6 14h-9l-10 7h-13l-7 7h-6l-13 -9l-4 5h-4l-5 4l-21 -2l-4 -5v14l-5 19v9h-3v14l8 4l2 7h4l15 7h22l12 6l10 -7l29 6v-2h5v-3l6 -2l5 -5l16 -2l7 -8l5 -1l-5 -3l11 -6l4 -7l17 -14h8l2 -9 l8 -9l6 -31v-10l6 -6l-8 -12l8 -9l-5 -45l3 -15l-5 -15l3 -10h4l-4 -8l2 -18l-2 -16l-5 -14v-23l-9 -9l-10 -21h-4l-5 6l-4 -8v-7l-18 -14l-7 -14l-18 -9l-11 -11l-18 -3l-4 -4h-18l-12 -3l-17 3h-20zM203 -11l-14 5l-8 -5l-20 6l-9 8l-17 7l-4 9l-5 2l-18 21l-7 2l-9 7 l-2 7l-5 5v3l-11 7l-5 11l-5 4l-4 9v14l-3 9v16l-3 6l3 11v54l18 15l9 -4l5 6l10 -7l10 -3l12 -9l4 -13l1 -28l5 -5l-6 -2l1 -18l9 -16h6l4 -19l14 -14l9 -18l13 6l12 -12l14 -6h8l8 -3l5 6l12 -7v-5l5 -5h12l4 9l10 -10l-13 -6v-4l8 -5v-9l-5 -5v-11l-10 -5l-6 -6l-7 2 l-18 -11l-5 4h-12zM175 455h5l5 10l5 -15h-15v5zM277 349h7l3 -10h-6l-6 8zM274 635l3 3l-10 9l-3 -7zM251 564l-6 -7h-5v7h11zM191 504l4 -4l-6 -5v5zM206 587v-5h-5v5h5z" />
<glyph unicode="T" horiz-adv-x="493" d="M210 35v51l-3 4l3 27l-3 9v17l3 7v11l-3 5v16l-3 7l-2 38l2 9l-3 17l6 12v7l-6 6l5 10l-4 7l2 21l4 7l-4 14v28l-4 9l2 2l2 21l-5 8l3 26l6 6l-6 6l-4 -3v8l2 2v32l-5 5l-2 7l5 5v6l-5 9h7v17l4 9l-6 11l6 2v3l-6 5v22l8 8l-4 4l-8 -4l-5 6l18 3l3 9h4l5 -5l13 -2l2 5 l-6 6h-3l-6 5l-5 -5l-3 3h-9l-2 -3l-9 -4l-2 3h-8l-22 11h-9l-10 -5h-19l-4 3h-39l-5 2h-23l-28 9l-2 7l-7 4v12l3 3v14l6 6h9l5 3l34 1l5 3h15l4 -4h6l10 7l16 2l4 -2h15l16 -4l10 4l10 -4l11 9l8 -8l19 9l11 -1l-2 -5l9 2h21v3l-3 1h7v-6h5l2 2h42l4 3h38l21 -7l21 4 l10 -5h5l3 -3l1 6h17l22 -6l5 -6l5 -14l-2 -7v-19l-27 -15l-36 2l-5 -5h-17l-10 -6l-14 11l-13 -6l-17 -4l-4 8l-5 -5l-9 -3l-5 -7l-7 3l-11 -6l2 -11l-9 -6v-12l2 -2l-2 -7l5 -12l6 8l3 -8l-5 -4v-9l-4 -9v-5l4 5l5 -5v-5l3 -2l-3 -11h-5l-2 -9l-6 -11l8 -8v-7l-2 -3v-9 l-4 -7l4 -6v-8l-7 -6l8 -13l-3 -6v-9l-3 -5l3 -5l-8 -26l7 -11l-4 -13l-5 -2v-5l7 -4v-12l5 -14l-5 -4v-33l6 -5l-6 -7v-9l3 -4l2 -17l-2 -13l-3 -5l-2 -27l5 -9v-19l3 -11l-6 -5l-2 -21l-2 5l-5 -5l7 -4v-12l5 -5l-5 -9l2 -12v-25l-7 -5l-2 -21l-5 -4v-7l-4 -4h-5l-2 -3 h-19l-11 4zM267 588h5l-3 7v12h-16v-9h11zM216 593h7l2 2h-9v-2zM276 609h3v4h-3v-4zM246 612l5 1l-2 3z" />
<glyph unicode="U" horiz-adv-x="538" d="M293 12v2l-14 16l6 3l7 11l-6 2l3 2l2 7l10 3l4 7h15l3 2h9l5 5l12 4l6 5l12 2l7 4l-4 11l9 5v5l-3 3l15 3l6 11v7l12 5v13l-6 8l6 10l1 8l3 4l-3 14l5 7l-5 11l-2 14l5 14l6 6l-4 13l-7 5l2 6l3 -2v7l-3 8l4 4l-4 19l6 6l-6 18v16h5v4l-5 8l6 12l-4 9l3 43l-3 8l3 13v23 l4 4l-6 5l2 67l-3 13l6 6l-5 35l2 34l5 5l-3 8l7 22l7 4h12l11 3l16 -8l3 -12l7 -13v-30l-3 -3l3 -45l4 -5l-7 -12l8 -13l-4 -19h-6l12 -12v-4l-7 -4l4 -10h5v-7h-5l-4 -14v-10l7 -3v-23l-3 -10v-25l-4 -5h4v-39l-2 -14l5 -4v-10l2 -4l-2 -7v-39l-5 -5v-5h2l5 -13l-5 -9 l-3 -26l6 -3l-3 -1v-14l6 -23l-4 -14l5 -19l-18 -45l-19 -22l-7 -13l-8 -3l-11 -8l-6 -17l-9 -3l-3 3l-1 -7l-8 -7l-13 -5l-9 -9l-21 -5h-49zM225 -2l-12 -5l-36 8l-6 6l-17 6l-8 8v7l-14 7l-11 16h-5l-29 30l-13 16l-7 16v23l-5 6l5 10l-7 3l3 2l3 36l-4 14l5 12v8l-4 4v11 l-5 5l9 16l-5 10l3 22l-5 5v7h6l-4 11l3 5v12l-2 4l4 13l-5 41l3 6v14l-2 5l4 9v9l-3 4l5 26l-5 12l3 6v33l5 4l-3 5v16l4 10l-4 11v32l4 9l-5 12l6 26l-3 8l5 5h4l5 9l8 -2l6 2l24 -8l-5 -8l9 -11l7 -25v-38l-3 -5l4 -7l-8 -31l5 -14l5 -5v-37l-3 -6v-9l-5 -6l8 -13l-3 -10 l3 -4v-12l-3 -6l4 -10l-1 -31l-10 -4l8 -4l3 -7l3 -25l-6 6l-4 -7l6 -9l5 -2l-4 -16l4 -6l-8 -38l3 -20l1 -30l8 -4v-4l-3 -1l4 -10l-6 -10l5 -9v-6l-5 -5l3 -9l11 -5l-6 -8l3 -3v-7l-3 -7l11 -5l13 -18l4 2l8 -2v-10l6 -4l7 -9l3 6h2v-4l11 -6l7 6v-7l28 2l-2 -11l11 -5 l5 -5l-3 -13l6 -5v-5l4 -2l-2 -11h-5l-22 -22zM243 -5l5 10h-9zM138 197l3 1h-3v-1z" />
<glyph unicode="V" horiz-adv-x="500" d="M202 15v12l-7 8l-5 11v11l-5 6l3 8l-8 8l-3 16l-7 9l4 7l-7 14l-5 28l-5 4l-4 14l-7 14v18l-11 7l1 3h8v2l-5 2l-7 10v4l4 2l-1 10l-12 23l3 9v12h-3l-7 12l5 6l-9 9v9l-7 15v4l-5 5v13h-8l-6 14l3 5l-7 32l-6 8v15l-4 5v10l-5 9l-1 15h-5l3 10l-10 17v13l-5 14l-3 23 l-11 27v10l-2 4v10l-10 29l3 3v7l-7 11v12l10 19l14 5l7 -4l13 4l7 -8l12 -3l9 -17v-10l18 -35l7 -34h5l6 2v-7l7 -6l-11 -6l3 -9l4 -4v-11h18v-8l-14 -7l8 -18h11v-7l-7 -7v-7h11v-38l8 -4l4 6l14 2l3 13l4 3l4 -8l-7 -4v-5l7 -2l-8 -12l-8 3l-1 4l-12 -9v-9l2 4l7 -4v-9h7 l6 -3l17 -2l-9 -9l2 -7l-5 -5l7 -9h3v-7l-7 3l-4 10l-9 -7l8 -8l7 -3v-10l-7 -8l3 -6l9 4l5 -5h6l4 -9l8 -6v-8l-12 -4v-8l-8 9l-6 -9v-9l9 -4h8v-8l4 -9l-3 -1v-5l8 -7l13 -8l-6 -4v-16l2 -2v-6l9 -4l-6 -10l6 -3l-2 -10v-20l5 -6v-6l-3 -3v-4h7v-17l8 -6l1 2l-5 8l4 9 l-6 11v6l12 7l4 10l-16 -2l3 9h3l6 5h7l2 7l7 3v6l-4 5l-9 1l1 3h-6l-6 -3l-5 15l5 5l-11 21l-7 4v6l14 -13l7 6l-7 10l10 20l-3 6l-17 1l10 12l3 -4l3 1v10l-12 2l-9 -2l-12 10l9 9v9l-4 3l8 9l-4 1l-2 3h-5v14l10 5l-3 -10l4 -4h8v-8l3 -7l-6 -6v-21h5l4 12h6v-5l6 -9 l8 -4l-5 -3l1 -3l-6 -2v-12h9l2 14l5 10v9h4l3 -13l11 -6l2 3v7l-4 2l12 4v3l-5 2v13l-16 -4h-12l-2 -6h-9l6 9v9h12l10 -6h4v13l4 5h5l5 -12h10v18h-8l-2 -4l-10 2l-4 8l9 6h5v-5h4l7 12h-1l1 11l3 -4l5 4v6l-5 1v5l-7 -2v-7l-12 -5h-6l21 21l1 -4l9 2v7l8 6v10l-4 7l4 4v7 l-8 2l10 7l4 12h5l3 13l-5 6v4h7l2 -2l3 2v12l4 6l5 21l12 17l-3 8l3 8v8l6 4v9l4 5l3 20l5 9l3 15l13 13l3 8l16 9l19 -4l10 -11v-16l3 -5l-3 -20l-4 -5v-30l-5 -14v-13l-4 -3l3 -12l-6 -6l-4 -15v-13h8l-6 -9l2 -2l-9 -4v-13l-5 -2l2 -10l-2 -4h-5l-4 -7v-18l-9 -2v-6 l5 -2l-8 -11v-10l-5 -5l5 -11l-1 -11l-8 -4l2 -20l-9 -13v-9l-6 -8v-22h-8v-8h3l-3 -4v-7l-7 -7v-9l7 -5l-13 -9l-7 -10v-6l5 -5l-5 -12l-9 -10l4 -8l-3 -10l4 -9l-3 -6v-7l-3 -5v-9l-11 -9l-9 -15l4 -9l4 -2l-8 -13l-3 -17l-14 -14l6 -11h-8l-3 -7l-14 -9h-5v7l-3 2l-7 -7 l-13 5l-3 -3l5 -9l11 -3l-7 -13l-3 2v-28l-10 -13l-12 -5h-25zM278 245h2l6 21h8v12l-6 17l4 3v11l-7 3v6h-5v-9l-9 -4v-7l-7 -3v-7l3 -1l1 -8l-5 -11l6 -6l-5 -5v-9h9l5 4v-7zM202 398l14 1l-3 10l5 5l-5 9v9l4 -2v-2h10v-5h11v-7l-4 -7l-2 2v8h-6l-4 -10l3 -10l3 -3 l-12 -5v4l-11 -6l-3 4v5zM213 356h-5l-4 4l-2 8l5 4v5h4l2 -5l11 -5l-7 -10l9 -5l-4 -3l-6 2zM308 464h7l8 9l5 -8l-10 -5h-6l-6 -7h-9v6zM241 298h9v-11h-7l-5 -5l-1 6zM267 409l4 -5l9 5l-4 -7h-18l-8 7h17zM217 240l5 8v4h-11v-7l-4 -7zM207 469l13 6v-6h2v-7l-5 2l-9 -2 v2zM266 438l2 -4l12 -2l-2 -2h-16l-14 4zM255 386h5l8 -12l-6 -3l-7 8v7zM229 309l8 -1v-11l-14 6zM273 389v6l15 -2l1 -4l-8 -4l-3 4h-5zM268 425h17l-6 -8l-11 3v5zM184 399l9 4l-9 10l-3 -6zM306 443h4v-6l-4 -5v-4h-6zM262 81h5v5l-3 1v6l-2 2l-3 -2zM195 329h4v9h-9 l2 -3zM276 296h4v-9l-9 1zM250 462h10l-3 -9l-7 7v2zM221 217l4 5l-3 6l-5 -4zM237 198l-3 5h-7v-5h10zM243 473l5 3l2 -9l-7 3v3zM160 518h5v-7l-8 4zM234 217l3 2v5l-8 -2v-3zM199 479h3v-8h-3l-3 4zM139 552v-7h-4l-3 4zM213 321l4 5l-4 9v-14zM259 106h5v5h-5v-5z M177 393h4l-3 9l-1 -3v-6zM213 278v4h-2v-3zM318 389v4l-3 -3zM328 423h3v2z" />
<glyph unicode="W" horiz-adv-x="840" d="M187 3l-5 4l-5 9l-9 9l-7 28l-3 4l-1 8l-3 2v5l-5 11v13l-7 10l-2 23h-3v12h-6v4l6 2l-1 8l-8 4l-1 18l4 9l-4 10l-10 -5l-5 6l10 5v4l-5 5l4 9l-6 7h-9l6 5v9l-9 5v8l3 3l-3 9v13l-5 5l6 5l-6 13l-3 16h-6v5l7 16l-11 26l-3 2v13l-5 10l-2 14l-4 6l-4 15l2 5l-7 16l4 7 l-9 17l-10 30v11l-7 21l5 9l-7 6v12l-6 11v10l-4 12l5 5l-8 17v9l-6 17l4 9v6l9 9h11l3 3h13l14 -14l7 -3v-14l9 -14l-2 -10l11 -12v-9l9 -10l-4 -11l7 -9l7 -19v-16l7 -6l3 -21l5 -17l-4 -7l5 -14l9 -4v-7l5 -7l-2 -4v-12l2 -2l-2 -5l12 -11v-5l-11 -11l14 -14l3 -19l7 -7 v-16l-5 -6l6 -6l6 3l2 -2v9l8 4v-4l3 -4l-6 -3l-9 -14l-3 -16l12 -9v4l-6 8l4 4l14 2l4 4v12h8l4 8l5 -3v-7l-3 -5l-5 2l-2 -11l-7 -2l5 -5l3 -7h20v5l4 2l3 -2l4 2v7l2 -2l6 4v19l-3 4h5l2 -2l5 2v9l-4 4l13 6l4 -5l-4 -5v-11h6v5l8 6l-8 17l-4 4l10 7v-13h6l-3 15l14 11 l-7 7l8 6v18l4 7l-7 2v8l5 4v11l14 4l-2 11l-17 6l24 14v10h-3l-2 6l9 19l9 5l-2 1l-2 10l4 10h-4l13 17l-6 14l9 3l9 16l11 4l17 -4l12 4l-3 3l-2 34l-4 10l4 11v7l5 10l23 7l23 -5l9 -19l5 -4l5 -15l6 -9v-13l10 -4v-13l9 -4l1 -19l5 4l9 -5l-10 -10l8 -11l2 -19l12 -5 l7 4v-5l-7 -4l-2 -9h9v-7l-7 -6v-9l4 -8l5 3l3 8l14 -18l-4 -9h-8v-5l7 -1l9 -12l-5 -6l14 -10l4 -10h12v-4h3l7 7h11v-7l-2 -2l7 -7v-8h-12l-4 -4l2 -7h7v-7l8 -5l10 3l-7 -12l5 5h5l-5 30h5l7 -14l3 6l6 3l5 -4l10 5l10 -10l-7 -2l-6 -8h-5l-10 10l-9 -14l-2 -7l-7 -7 l7 -9l3 3l6 -3v-7l7 -2l-3 -7h-8v12h-4l-7 -16l7 -4l10 6h8l6 -9l-10 3l-8 -11l-14 -9l-7 2v-2l7 -4v-7l12 -2l14 8l-3 3h-5l-6 7l8 5l8 -8h9v15l-2 4l2 2l-7 3v2l5 2v2l-7 4v17l5 12l18 2l-12 -22v-8h9l9 23v5h-3l12 15l-3 10v19l4 9h2v7l-2 2l9 10v9l-7 6v5h11l5 25l8 8 v16l3 4l-3 7l11 25v10l12 49l3 28l8 25l11 7l9 9h20l4 -5l6 -3l3 -13l-3 -3l5 -11l-5 -10l-1 -9l-5 -2h6l4 -3l-5 -6v-25l-5 -8l-9 -31l3 -7l-10 -14v-16l7 -2v-3l-8 -3l-7 -15l8 -8v-7l-8 -4l5 -2v-8l-5 -4l-1 -21l-3 -5l4 -5l-4 -31l-10 -22l5 -6v-14l-4 -2l-3 -8l4 -10 l-3 -5v-7l-4 -12l4 -7l2 -11l-11 -8v-6l-4 -9l10 -10l-6 -7l3 -8l-6 -10h-3l6 -9l-3 -7h-9v-14h5l1 -5h3v-4h-4l-3 3h-5l5 -10l-7 -2l-4 -12l5 -6l-8 -4v-7l8 -10l-3 -5h-7l-4 -9v-10l-6 -6v-10l-8 -6l-3 -8l-9 -6l-3 -10l-16 -4h-9v-10l-7 -39l-15 -15l-28 -4l-24 10v9 l-25 53v11l-5 8v9l-4 4v8l-12 10l4 11l-10 9l-3 13l-5 5v8l12 -5l3 11l-12 7l-10 9l6 9l-10 9l4 8l-6 4h-5l-11 11l10 4l4 17l-6 5l-1 -10l-13 -5l4 7l-3 5l-7 4v8l-5 5h-3l-6 9l4 4l10 -4v-3l10 -7l7 6l-3 13l-7 -5h-5l-4 17l-9 4l-7 6l-5 -8v-7l-9 -2l-5 -14h-4v4h-5l-3 3 l3 2l2 12h3l1 -5h5l-3 4l8 7l2 7h26l2 3l-10 2v5h-9l-6 7v6l-10 3l-6 -7l-3 2v17h7l8 8l7 -13h3l5 9l-3 11h-15l-12 -6l-3 -8l-6 -4l2 -2v-11l-11 -5v-3h8l3 -6l5 2l4 -7h-13v7h-6l-5 -6l-8 8l5 23h-10l-4 5v7l-22 -14l11 -8l9 5l3 -27h-5l-4 9h-10v-21h-3l-4 5l-3 -23h5 l5 9l1 11l5 5l8 -10l-10 -10v-9h-9l-9 -3l2 -3h7v-6l-3 -3l4 -9h-18l4 -12l8 6l2 -8l-4 -4l3 -4l-10 -5l3 -4l-3 -5h-10v-12l-2 -9l-7 -3l-2 -5l2 -1v-5l-4 -5v-5l3 -3l-3 -6l-5 -2v-3h5l4 3l7 -3l-7 -9h-13l-6 -17l6 -6l-5 -10h-9v-6l-3 -16l-4 -5v-18h-7v-7l-4 2l-8 -3 l-11 8l2 2h-11v9l-9 8l-3 -3l2 -2l-2 -14l2 -9h-7l-4 -5l2 -7l7 -7v-32l-18 -18l-16 -4l-10 4h-6zM613 257h2v6l12 3v6l3 9h-8l-4 7l-4 -7l-8 3v-3l3 -2l-7 -3l-5 15l-5 5h-13v9l6 9v14l-3 11l6 5l-16 12l-10 2v-12l-3 -7l3 -4l12 11h3l-4 -28l-6 -7v-13l8 -3l-9 -9l4 -8 l4 9h11l7 -6l5 -11l-2 -4l16 4zM217 257h6l5 4h9l4 -3h6v3l-5 4l5 12l-6 -2v9h10l2 -16l3 -5l6 7l-2 21l2 5l-4 2l-21 -2l-5 -5l-9 -4h-16v-6h-11v-6l13 2l14 -2l3 9l4 -5v-4l-13 -14v-4zM385 358l9 9l3 -6l3 4h8l2 4h2v-2l5 4v5l3 3h-3l-11 -8l-4 4l9 9l-7 7l8 5l3 10l-4 7 l-19 4l-2 -7l-4 -3l5 -3l9 5l9 -4l-6 -6l-3 -9h-4v-13l-14 -4v-8l3 -3l-3 -2zM373 266l3 2l2 7l-8 10l10 13h2l-2 -10l2 -7l7 4l9 -9l-4 -4l-4 3h-8v-14l-4 -4l-7 1zM415 431l2 9l-2 12l-9 -2v6l-10 -6l7 -7l-7 -9l4 2l9 -7zM235 180l4 12l-2 2v10l-9 4l-4 -7h-7v-7l9 -5z M555 357l10 5l22 5l-4 7h-16l-2 -3l-10 -2v-12zM253 399v11h16v-20h-4l-5 7zM207 227l7 4l4 -3l5 3l3 5l-8 6v5l-11 -6v-14zM249 304l23 12l-3 2h-18l-2 -11v-3zM532 416h6l4 8l-7 10h-3l-2 -13zM373 367l3 2l4 19l-7 7v-16l-4 -3l2 -2zM230 227l7 2l4 13h-9l-5 -12z M243 356l8 -10l-4 -2h-10v12h6zM233 214l14 3l2 2l-17 5l-4 -5zM390 556l1 16l-9 3v-5l3 -9zM415 460l2 10l7 3l5 5l-9 -3l-14 -14h6zM202 374h12v-7h-12v7zM445 298l5 -2v-8h-9v5zM196 418l8 -3l-4 -5h-7v12zM425 387l8 8v6l-7 -4l3 -2l-9 -5zM218 214l5 3l-9 4h-7l-2 -2 l2 -2h5zM570 503h11v-4l-11 -4v8zM466 238v-10h-5l-3 10h8zM451 333l5 6l-2 5h-4l-4 -3zM391 300l-1 5l2 3l4 -8v-7l-2 -2l-3 5v4zM602 242l9 5l-16 4zM572 470l6 -5l-6 -5l-6 10h6zM614 423l4 -7l-5 -3l-6 7zM341 270l7 7l-8 3l-4 -3l3 -2zM442 383h8v3l-5 4l-6 -3z M378 242v-2l-5 -2l-11 10zM230 99v5l-7 7l-2 -9h7zM221 416v6h5l4 -4v-5l-2 3h-7zM618 374h5v-5l-6 -3l-4 3zM410 261l-7 -7h-3v7h10zM514 473l7 2v3l-6 2l-4 -2zM433 284l9 -3l-1 -2h-12v5h4zM406 281l6 -2v-4h-6l-4 3zM606 228h3v8h-3l-4 -4zM592 351l3 2v5h-7v-2z M415 314v-5h-9l4 5h5zM436 233h5l4 -5h-9v5zM450 349h6v7l-6 -5v-2zM221 351v-10h-3v10h3zM223 150h5v5h-7l2 -3v-2zM463 308l8 3l-8 4v-7zM237 321v-7l-6 4zM237 245l4 2v7l-4 -5v-4zM301 431h6l2 3h-8v-3zM570 404v6h-3l-2 -4zM555 383h6l-6 7v-7zM398 423l2 4l-6 3v-3z M217 388h4v-5h-4v5zM399 272l1 -9l-4 3zM341 296l5 2l-5 4v-6zM415 420v7l-4 -4zM399 349v9l-3 -3zM260 404l5 2l-3 3zM595 341l2 3l-2 5v-8zM420 418h4v2h-4v-2zM597 323v5h-2v-2zM623 245h2v4l-2 -2v-2zM269 302h2l-2 5v-5zM426 443h3l-3 3v-3zM579 245v2h-3zM477 261v2 h-2z" />
<glyph unicode="X" horiz-adv-x="499" d="M28 3l-4 2v7l-5 7l7 20v12l9 9l2 9l17 24l3 11l6 2l6 10l5 16v9l7 16l7 3v11l14 16l2 10l4 1l6 8l4 11v11h5l2 10l6 6l-5 4l12 7l-5 5l4 3l-5 3l12 6l6 12l6 5l-3 9h-5l7 10l9 4l7 -7l12 3v4l-4 2l10 5l-6 10l6 6l3 7l-12 2v7l5 2v5l-6 7l-7 -3l-4 5l8 2v16l-9 -6l-5 4v7 l7 8l-19 1v10l9 3l-4 4h-5v14l-9 9l-12 -2l-4 2l-2 4l5 5h7l-3 10l-7 2v9l-9 11l-8 4v10l-4 5l-3 11l-7 11l-4 15l-12 11v7l-6 7l-4 11l-10 10l-4 14l-6 9l-8 22l-5 5l-3 13l-8 8l3 9l-6 5l3 10l10 10l24 5l14 -6l2 -3l4 -1l12 -12l7 -12l14 -11l5 -10v-11l6 -4l11 -16 l4 -13l7 -3l6 -13l9 -3l10 -21l-3 -8h5l6 -5l6 5h3l-5 -9l-6 -4l14 -5l5 2l5 -10l-5 -11v-9h7l8 7h10l-4 -5l10 -7l11 7h9l-2 -13l16 7v6l-7 5l17 6v10l-3 2v5h7l5 7l7 4l-3 5v7h6l12 19l3 13l11 23l6 4l20 41l7 6l4 11l21 22h19l11 5l7 -3l7 -7l9 -4v-13l-7 -11l3 -2l-3 -9 l-7 -7l-5 -22l-4 -4l-2 -7l-5 -5l-7 -13l-3 -12l-6 -5l-2 -9l2 -4l-7 -4v-8l-14 -14l-5 -13l-4 -2l-2 -10l-8 -14l5 -12l-2 -2h-9l-3 -9l-13 -7v-4l6 -2l3 -8l-19 -10l3 -10h-9l-2 -8h6l5 3v-7l-11 -2l-3 -3l-12 -4h-9l-6 -7l-9 5l4 -18l9 3l2 6h5l2 -6l-7 -9l-2 5l-12 -3 l8 -6h6l4 3l11 -6l4 -17l-3 -3h-4v-7l5 -3l-3 -7v-7l10 -2l2 -9h7v-12l-5 -3l7 -3l12 -18l-3 -4l7 -18l6 -3l3 -11l7 -3v-16l11 -8v-5h8l2 -23l11 -9l7 -14v-11l17 -10l2 -14l4 -7v-6l7 -7l10 -17l4 -18l15 -20l3 -15l-3 -3l9 -5l-7 -11l7 -7l-3 -8l-18 -7h-12l-7 7h-11 l-7 6l-5 10l-21 23v5l-16 16l-9 16l-6 20h-4l-4 8l-4 3l-3 10l-11 18l-8 8l-7 16l-6 6h-12v6l3 2l-3 2l3 2l9 -9v9l-7 5l-5 -2l-2 14l-7 11l-12 -2l-4 4l4 3l-14 5l12 5l-3 8h-9l-5 8l-13 -4l-3 4l-1 -8l-13 -13l5 -5h6l4 16h7l6 -7l-4 -8l10 -5v-5l-16 4l-10 -4h-10v-6 l6 -1v-8h4l-10 -1l-4 -3l-5 4v5h-5l-5 -6l5 -5l-1 -3l4 -6v-12h-4l1 9l-2 3l-7 -3l-1 3l-3 -3v-18h-9l-4 -11l-5 -5v-14h-5l-5 -5v-3l-10 -7l-9 -20l-5 -18l-16 -10l4 -5l-14 -20v-14l-12 -8v-7l-8 -3l-10 -12l-27 -6l-8 4zM217 472l2 8h5l-2 12l-13 -4l-3 -8zM203 293v5 l-2 2l4 8h-20v-8h4zM231 458h5l9 9l-12 6l3 -4l-3 -2zM257 409h6v13h-4l-6 -10zM308 413h11l7 -6l-4 -8l-5 10zM243 437l3 9h-6v-7zM219 261h5v5l-3 3l-3 -3zM219 524v-4v4zM206 245l3 3h-3v-3zM239 485l-6 -3zM162 305h2l-2 3v-3zM197 326l2 4l-2 -2v-2zM243 471h2l-2 2v-2 zM213 287h2l-2 1v-1z" />
<glyph unicode="Y" horiz-adv-x="460" d="M201 15l-13 14v24l-3 18v25l4 7l-4 16v17l-2 7v51l-6 5l10 10l-8 18l5 4l-5 23l3 11l-6 9v10l3 4l-7 2l-3 9l-10 10l-1 20l-7 7l4 3l-5 10l-6 6v4l-10 10l-2 10h-4l-5 10v8l5 4l-8 8l-6 15l-6 6l-4 12l4 7l-10 3v12l-3 6v13l-9 5v12l-8 9l-10 31l-3 4l-2 17l-7 13l-4 16 l-10 10v14l-13 18l-10 30l6 10l10 7l16 4l20 -7l13 -9l2 -7l7 -9l6 -21l7 -6l2 -12l7 -7l3 -14l5 -11l9 -10v-19h9l3 3h7l-3 -14l7 -3l-9 -13h16v-13l10 -5l-5 -6v-16h7l5 -14l10 -13h3v-12l7 -6v-9l5 -6h7l-2 -6l-5 -5l5 -12h10l3 -2l7 5v5l7 9l-4 3l16 7l6 11v13l-2 5l2 9 l6 -6l-3 -3l2 -7l6 18l13 14v17l16 13v14l-6 5l11 4l1 12l8 7l9 18l4 14l3 3v4l5 9l1 8l8 18l23 38l33 12l6 -6l11 -4l-4 -17l-5 -2l8 -6l-3 -15l-7 -7v-5l-5 -9v-10l-11 -4l5 -2l2 -5l-6 -5l-8 -25l-5 -6l-2 -8l-5 -4l-2 -18l2 -6l-8 -5l-6 -10l-9 -21l-4 -3v-11l2 -3 l-5 -4h-6v-17l-3 -4v-6l-5 -6l4 -7l-11 -11v-18l-3 3l-8 -8l2 -9h-2v-5l-12 -14l-2 3l-9 -12l4 -5l-6 -7h-12l-2 -2l2 -9h-7l-2 2h-5v-5l-11 -5l4 -4l9 5h5l3 -14l-13 -6l8 -8v-14l5 -5l-6 -11l8 -4l-3 -3v-7l3 -5l3 4l3 -4l-6 -12l5 -4l-3 -9l-5 -5v-6l3 -5v-25l-5 -7 l2 -19l-2 -11l2 -2l-6 -24h4l-2 -21l2 -18l-2 -5v-27l-5 -10l-2 -14l-16 -9h-21l-8 3zM258 338l-5 9l-7 -4l-3 3h-4v-9l6 3l4 -8zM218 434v2h6l10 4v-9l-6 -6l-4 6zM239 490l4 -10l-3 -2l-6 2zM222 461v-7h-7v7h7zM227 379l3 3l-3 7l-6 -5zM206 436h7v-6h-4l-5 4zM205 474 l4 -5l-8 1zM273 339l5 2h-5v-2zM254 329l3 3h-3v-3zM234 367v2h-3zM234 383h2l-2 2v-2z" />
<glyph unicode="Z" horiz-adv-x="528" d="M181 -8l-8 3l-9 -3h-78l-21 2l-9 4l-5 7l-7 2l-5 21l6 19l6 7l21 9l2 -5h5l4 5h8v4l4 5l5 -2l-3 5l-5 1l-4 10l3 7l-8 3v6l-4 9v12l9 13v8l9 6v15h7l8 4v9l10 17l8 6v9l10 6l12 32l11 3l4 6l-6 5l12 13l5 10l8 7l-4 8h5l7 8v11l9 7l17 21l4 13l11 15l8 24l7 3v12h14v11 l7 7v5l-3 2v7l4 -4l10 25l-7 -7h-4l9 11h6l3 12h9v5l5 9v4h7v12l-5 9l-4 -4h-4l4 6h6l5 -4l12 5l7 11v14l-7 2l4 5l9 -6l5 21l4 6l-2 11l5 2l6 -7h8l7 21h5l14 6l17 -4v-5l5 10h4l17 -19h3l7 -22l-15 -17v-18l-4 -5v-7l-10 -4l2 -7l-9 -10v-9l-6 -6l-5 -15h-7l-4 -9v-7 l-12 -8v-9l-9 -3l-10 -10l-4 -16l-14 -18l-3 -11l-7 -8l-1 -14l-3 -6l-5 2l-3 -4l3 -8l3 -2l-5 -5l-11 3l-8 -10v-11l-6 -7h-4l-3 -18l-7 -7l-3 -12l-4 -5v-7l-12 -8l-6 -10v-7h-5l-2 -2l4 -2l-9 -9l-2 -12l6 -9h-6l-7 4l-3 -2v-5h7v-6l-15 -13l-3 -11l-12 -11l3 -3l7 -1 l-5 -10v-11l-6 -5h-7l4 6v8l-4 3l-9 -10l6 -11l-9 -8l-10 -2l-2 -10l-14 -8v-5l7 -2l-20 -20l5 -5l6 6l7 3l5 -5l9 2l-7 14l7 2l7 -7l21 -5l7 -6l8 3l7 -5l7 4h10l4 3l5 -5h16l8 8l10 -3l8 -8h4l7 5h5l4 4l7 -9h25l12 -4l5 3h48l14 -4l2 5l17 -5l6 4l7 -3h17l13 -14v-9 l-3 -7h7l-4 -12l-7 -6v-4l-11 -7l-23 -3l-6 -3l-12 6l-3 -3l-28 -3l-16 5l-6 -5h-17l-4 -2h-12l-5 2l-4 -2h-38l-9 -4l-12 5l-10 -3h-32l-15 -4l-11 4l-5 -6l-7 4h-13zM344 607v5l-4 2l-6 -2l-6 10h-12l-4 -5h-28l-11 -5l-5 5h-12l-11 -3l-7 -7h-5l-1 3h-6l-6 7h-9l-4 -6 l-13 6h-16l-8 3l-15 -6l-3 4l-10 4l-32 -4l-6 5l-27 -1l-5 4l-5 -3h-9l-5 5l-5 -3l-10 10l-3 27l5 13l9 7l16 4l48 2l50 5l6 -5l12 5h52l18 6l3 -4h26l14 -3l13 7l7 -4l14 -2l6 -3l3 5l5 2l2 -3l10 3l1 -2l15 -2l7 2l20 -2l14 -4l10 5l37 -4l7 -7l8 -3l4 -29l-6 -7l-2 -9 l-19 -12h-18l-10 -6h-4v5l-3 1l-9 -4h-18l-4 -2v6h-8l-22 -7v-9l-3 -2l-2 2h-5zM319 557v-9h5v-7h-10v11zM302 560l4 -5l-5 -3h-6v2zM293 585l2 4l6 -5v-4h-6v2zM233 88h4l4 -7h-8v7zM229 160v-7h-5l-2 7h7zM226 123l3 -5v-7l-6 5zM273 298h4l-2 2zM466 7l5 3h-2z" />
<glyph unicode="[" horiz-adv-x="253" d="M79 -90l-4 4l-3 10h-7v30l-2 2v39l2 6l-4 11v45l-3 9l7 7l-4 28v159l5 7l-3 2v29l-2 6v49l3 8l-6 23l3 6l-3 11v79l3 4l-7 11v24l4 13l-4 5l2 12v32l-3 11l3 9l-4 15v23l-4 5l8 4l-4 9v35l-3 9l3 14v18l6 39l17 7l47 5l8 -2h36l5 -5l11 3l8 -7l2 -5l7 -7v-8l-15 -5l-5 5 l-9 -15h-13l-9 5h-8l-4 -8l-20 -2l-10 -7l-1 -39l-3 -5l4 -11l-3 -13l5 -27l-4 -23l4 -15l-6 -18l6 -19l-9 -3l5 -9l2 -13l-3 -10l4 -18l-3 -7l2 -9v-56l-5 -6l5 -12l-4 -10l4 -4l-2 -16l5 -13l-3 -36l-3 -7l3 -11l-1 -23l-5 -5v-4h5l5 -9l-4 -20l3 -10l2 -15l-5 -5l6 -19 l-4 -7l4 -22l-4 -11l6 -11l3 -22l-3 -16l-6 -2l7 -34l-4 -15l3 -15v-26l7 -15l-6 -7l3 -8l3 -2v-11l9 -26h11l12 -4h13l8 -4l14 5l16 -9l2 -4l11 -6l-4 -18l-7 3l-3 -6h-8l-8 -8h-16l-5 3h-27l-4 -3h-21l-18 5h-17z" />
<glyph unicode="\" horiz-adv-x="260" d="M209 -78l-3 9l-6 7v12l-4 15l-5 9l5 8l-3 3h-5v18l-16 42l4 13h-4l-6 8l-3 22l3 3l-12 14v13l-8 14l-1 25l-13 30l-4 26l-12 44v7l3 2l-9 14v16l-12 23v14l-4 12l-8 14v12l-13 37v11l-4 7l-8 41l-5 4l-4 17v16l-14 30v14l3 4l-7 14v10l-5 9l-7 26l2 5l-2 17l-7 10v13 l-4 10v16l-4 11l13 12l14 -2l1 2h8l13 -24v-10l8 -8v-21l9 -9l-2 -11l6 -16l3 -3v-12l11 -19l-5 -3v-8l9 -13l6 -21v-9l9 -18v-10l2 -11l4 -8l3 -18l-4 -6l16 -26v-10l2 -4v-14l4 -4l8 -26v-14l5 -5l-4 -7l10 -22v-12l5 -16l5 -6l-5 -10h5v-12l6 -13v-8l16 -43v-14l5 -10 v-14l7 -16l5 -27l1 -18l14 -32l-6 -12l13 -21l5 -21v-12l3 -3l9 -36l-5 -8l7 -13v-21l-2 -4l-3 4h-4v-9h-17z" />
<glyph unicode="]" horiz-adv-x="253" d="M140 -85l-6 -2l-9 2l-8 -4h-13l-5 2l-10 -3l-15 7h-12l-5 5l-3 16h7l6 13l7 -6l9 9h16l6 -3l8 3l21 2l6 8l15 33l-5 18v50l4 21l-6 17l5 22l-3 9l-3 43l6 21l-5 4l4 25l3 4l-3 7v10l3 4v60l2 8l-5 22v44l-2 11l2 2v32l3 9l-3 24l-2 51v48l-4 20l4 6l-3 9v23l6 11l-3 8 l3 13l-6 9v21h5v10l-5 4v27l-11 15l-19 4l-22 2h-24l-16 8l-7 11v9l5 7h7l6 4h17l3 -2l6 5h12l5 -3l25 3l11 -3l7 3h25l5 -7l9 -2l5 -9l2 -15l-2 -4l4 -23l-2 -23l3 -16l-6 -10l5 -8v-12l-6 -18l7 -5l-5 -30l7 -13l-7 -30l4 -12v-8l4 -9l-9 -20l7 -6l-4 -11l6 -16l-4 -7 l3 -4l-5 -12l2 -20l-3 -7l4 -7l-5 -5v-23l4 -5v-22l-4 -3v-5l5 -5l-3 -8v-15l-3 -10l3 -14l4 -4l-4 -46l8 -7l-3 -6v-12l-3 -5v-9l4 -7l-7 -17l8 -8l4 -47l-4 -38l-2 -3l2 -9v-15l3 -13l-5 -11v-14l6 -3v-9l-2 -1l-4 -29l6 -27l-2 -28l-9 -9l-2 -11l-7 -5l-19 -2l-17 -7 l-13 7v2z" />
<glyph unicode="^" horiz-adv-x="347" d="M235 489l-11 11v5l-8 8l-6 13v6l-7 8v11l-12 11v6l-11 8l-5 8l-14 11h-5l-1 -4h-5l-5 -5l-3 -11l-20 -22v-7l-9 -9v-6l-9 -10l-4 -16l-10 -5l-4 -7h-11l-6 -4h-14l-7 7v18l3 3l3 14l6 6l2 9l11 11l8 28l19 33h4l1 7l8 7v11h9v13l8 12l20 17h15l15 -4l3 -7l6 -3l9 -9 l4 -10l8 -9v-11h5v-16h9v-12l4 -16l9 -9l9 -17l5 -20l12 -14v-23l2 -3v-15l-12 -4l-8 6h-10z" />
<glyph unicode="_" horiz-adv-x="439" d="M170 -72l-14 3h-28l-32 4l-12 -2l-11 2l-9 -4l-10 4l-27 -1l-10 4h-7l-10 9l5 16l5 2h12l5 5h37l11 4l27 -4l5 4l10 -4h18l4 3l3 -3l14 -2l34 2l7 4l10 -4h12l1 -2l10 3l16 -6l9 3h25l6 -5l11 6l8 -4l26 3h73l12 -15l-7 -15l-19 -6l-11 5l-13 -6h-9l-5 3v-7l-27 9l-5 -2 h-30l-6 5l-5 -5l-15 -3l-5 5l-4 -3l-9 2l-6 -4h-20l-4 -2h-14l-7 -3l-6 5z" />
<glyph unicode="`" horiz-adv-x="337" d="M237 793h-10l-32 6l-11 7h-19l-4 5l-14 4l-9 -3l-16 8l-23 4l-14 8l-11 2h-10l-4 4h-9l-3 12v14l19 10l18 -6h10l9 -4h21l10 -10l3 3l18 -3l10 -7h18l12 -6h11l5 -5l34 -2l20 -12l-1 -20l-5 -9l-14 -5l-7 6z" />
<glyph unicode="a" horiz-adv-x="500" d="M395 29l-9 19v14l-5 4v10l-7 10l-5 18l-4 6v16l-13 6l4 13l-2 2l2 2v5l-5 4l-2 14l-7 3l-3 11l-5 4l-13 -6h-6l-7 -7l-3 7l-9 -11h-2l2 -5l-8 -4l-7 7l-5 -4l-4 7l-14 -9l-5 4l-3 -3h-7l-7 7l-20 4l1 -7h-7l-15 6v-18l-8 -6l-1 9l2 3l-10 5l-4 -11l-9 17l-3 -5l-9 -4h-12 l-9 -5h-5v-4l-9 -14l4 -7l-12 -5l6 -10l-5 -15l-5 -7l-2 -17l-13 -19v-6l3 -3l-10 -10v-18l-12 -6l-4 -8l-25 -7l-16 8l-8 17l3 25l4 4v21l5 21l11 15l-2 20l13 36l5 24l5 4l4 9h-2l2 24l6 19l11 20v9h-5v5l2 2l5 -2v7l-2 2v7l8 3l4 6v23l6 3l7 18l-3 4l3 17l10 14l-5 13 l2 9l10 -2v12l-4 6l5 10l5 2v17l7 10l-3 14l12 12l5 18v20l7 6l3 8l-4 9l3 8l7 8l9 24v9l21 13l8 -8l13 4v-20h7l4 5v12l-4 7h-5v5h5v11l4 8l-4 8v16l4 5l-4 7l6 6l34 6l9 -6l12 -3l14 -27l3 -11l3 -2l2 -13l9 -5v-9l2 -3v-14l5 -4v-12l4 -9l-3 -9l3 -8l3 -2v-14l5 -5l-5 -4 h16l-7 -7v-19l5 -6h7v-9l-5 -11l12 -16l-5 -6l7 -16l6 -7l-4 -4v-7l4 -5h3v-9l5 -5v-7l-3 -5l4 -10l8 -3l-2 -7v-21l5 -6l-3 -7l8 -17l9 4l-7 -14l5 -5l-4 -10l2 -3l8 -2l4 -5l-4 -2l2 -21h10l-3 -14l3 -11v-14l4 -3v-11l-3 -4v-5h5v-2h7v-28l6 -17l3 -38l3 -7l5 -5v-16 l4 -5v-9l7 -10v-6l2 -2v-12l3 -8l-10 -21l-9 -3l-9 -7l-5 4l-16 -4l-17 11zM272 259l6 4l9 -4l11 6h7v7h-29l-3 -4l-11 -3zM234 505l4 5l8 3l-3 4h-12l-4 9l-4 -21h11zM240 450h6v18l-6 -5h-4v9h-3l-7 -10l10 -3zM312 161l7 14h9l-4 -7l-5 -2v-8l-4 -4l2 -5l-2 -2l-3 2v12z M264 308h2l4 8l-9 7l-9 3v-8l14 -5l-2 -2v-3zM252 290h5l-2 8l-5 4h-12v-7l5 4h3v-5zM250 373l7 7l-7 12h-4l2 -16zM276 248h24v5h-24v-5zM229 544h7l10 5l-7 5l-8 -5h-4zM319 217l7 4v9h-9v-12zM265 412l7 4l6 -4v7l-8 3l-4 -5h-5v-2zM220 350h2l7 11l-7 8h-4l5 -9z M310 274l5 4v5l-5 5l-3 -11zM250 416l8 7l-6 6l-4 -5zM298 308l8 3l-3 9l-5 -7v-5zM252 248h5v8h-5l-4 -4zM195 157h6v-10l-6 2v8zM276 380l6 2l-4 6h-6zM183 290h9v8l-6 -5h-5zM321 205l3 4h4l2 3l-2 2h-7v-9zM255 498v9h-5v-9h5zM206 339h4l4 3l-4 6l-4 -5v-4zM210 367 l4 12l-10 -10zM312 235l-2 12l-6 -12h8zM227 325l7 4v3h-7v-7zM171 258l5 2v5h-5v-7zM324 191h4v5h-7zM240 487l3 9h-5v-5zM319 258l5 5l-3 2l-4 -2zM287 325h4l-2 7l-4 -4zM264 293h9v5zM252 362l4 7l-8 -3zM238 352h8v3h-6zM264 445h4v5h-4v-5zM280 278v8l-4 -3zM259 468 h5l2 2l-2 2l-5 -2v-2zM227 268h4v6h-2zM176 278h2v10l-2 -2v-8zM273 341h3v5h-3v-5zM231 367l3 4h-5v-2zM300 298h3v4h-3v-4zM229 447h7l-5 3zM197 364l2 3l-4 2v-2zM259 399l2 4h-4v-2zM268 369v4h-4zM213 394l3 5h-3v-5zM213 461l3 5h-3v-5zM195 283l2 7h-2v-7zM273 436h3 l-3 4v-4zM264 346l6 2h-6v-2zM255 260l4 3h-2zM187 313l3 3h-3v-3zM206 256h2v2h-2v-2zM252 475l3 2h-3v-2zM321 239v3h-2zM216 251h1l-1 2v-2z" />
<glyph unicode="b" horiz-adv-x="506" d="M204 3l-19 2l-16 16l-7 9l3 6l-10 8l-2 -17l-8 3l-2 6l-5 -17h-8l-4 -10l-16 -4l-10 5l-10 -3l-16 17v16l-7 20l5 6v18l-4 6l5 8l-7 18l5 10l-8 9v4l7 10l-5 18l-2 2v7l5 6l-7 7v6l8 2l-8 18l7 8l-6 16l5 6v14l-4 20l2 5v21l4 22l-4 8l5 11l-7 14v17l5 11l-10 10l7 6v12 l-3 10l9 9l-6 6l2 11l-2 10v39l-2 10l6 12l-8 18v52l2 9l-2 26l4 12v27l9 15l10 4h6l6 7l19 -7l15 -10v-4h2v-7l15 -15l3 3v9l10 10v11l6 -1l3 8l30 7l9 -2l8 3l11 -5l4 4h53l4 -4l16 9l13 -5h11l2 -2h21l9 -4h5l9 -9l8 -3l7 -11l13 -8v-7l5 -4h10l6 -12l5 -3l13 -15v-9 l9 -3l3 -23l5 -3l-5 -1v-3l10 -10l-5 -6v-4h2l-3 -14l8 -12l-6 -7v-7l10 -2v-3h-5l3 -4v-11l-9 -8l6 -9l5 -2l-2 -2v-12l-3 -6l5 -15l-14 -9l3 -3l-5 -11l6 -7l-6 -6h-7v-8l2 -1v-5h-10l-4 -3l7 -7l-7 -2l-5 -9h-9l3 -9l5 -4l1 9h8l4 -5v-10l-5 -3l3 -7l9 8v5h2l5 9v-14 l-7 -13l14 -17l7 -17l-3 -9l5 -16v-22l8 -8l-3 -9v-18l2 -5l-5 -9v-19l3 -4l-3 -11l5 -3v-16l-3 -7l4 -24l-8 -10l-2 -16l-11 -6l-8 -12l-7 -4v-2l-9 -7l-6 -9l-33 -34h-5l-6 -8h-6l-4 -9h-23l-21 -2l-4 5h-9v-9h-10l-4 2h-13l-3 -8l-4 9l-4 -8l-6 7h-30l-7 3l-7 -3l-6 -6 l-15 6h-4zM156 46l6 12l7 2l9 10l26 5l6 6h9l6 -5h6l7 8l23 -3l5 3h7l2 -8l2 5h23l3 -2l2 5l2 -3l5 3h18l12 -3l5 3l14 21h8l5 4h10v14l5 8l-8 -4l-8 3l15 11h10v12h-8v4h3l7 12l-2 7l1 30l-6 6l5 7v17l-3 4v14h-5l-6 -5v15l6 4h5v7h-7l-2 3l-9 1l1 21h-4l-2 -4h-7l-9 -5 l-5 5v7h4l3 -8l6 9l-9 9l-7 -8l-7 7l3 12l3 2h-19l-6 -3l-10 10h-9v-7l-7 -5l-2 3h-10v-3l8 -7l-10 -6l-3 6h-2l-2 13l-7 -3l2 -3l-4 -9l-7 14h-7v-9l-7 -3l-2 -5l-7 -6v6l4 5v4l7 8l-4 4l-7 3h-37l-12 -12l-2 18l-20 -4v12l-5 6h-7l-6 -20l6 -4v-5l-8 -7l-1 -8l4 3l5 -4 v-10h-5v5l-3 2l-1 -7l-4 -3l5 -11v-5h-6v-13l6 -7l8 -3v-8l-8 -5v-5h3l3 -6l-3 -3v-10h5l-3 -9h-6v-6l4 -9l-3 -15l5 -9l-2 -9v-14l5 2l2 -4l-2 -16h7l2 -5l-2 -2v-6l-7 -3v-24l-5 10h-4v-34l10 -11l-5 -5zM145 389h10l14 13l17 2l4 9l11 -11h12v5l9 2v-5h23l2 3l19 -3l4 5 v16l6 3l6 -17l7 -2l5 11v5l3 3l3 -8h9l-4 -4v-7h9l3 2h9l11 6v8l-11 7l-3 7l21 -9v4l10 5l-3 -7l4 -3l6 6l-7 11l6 4v5h4l3 -7l10 2l-5 2v7l6 3l4 7l-8 16v5h7l5 4v18l-2 8l4 9v16l-4 5l4 11h-8l4 7l-6 7l-1 5l-10 9v-9h2v-12l-3 7h-6l3 5v13l-9 9h-12v8h-3l-4 -12l-7 14v5 l-9 5h-12l-4 -5l-7 2h-19l-4 -2l3 -4l-4 -4l-6 10l-10 -5h-13l-4 4l-10 -11v-5h-4l-3 3l3 2l-4 10l-15 3l-10 -6l-4 3h-5v-7h-9v7l-13 14h-10l-5 11l-11 -3l-3 -22l3 -8l-4 -22h9l9 -6v-4h-14l-6 -3l8 -8v-5l8 -4l-4 -3h-9v-4l5 -5v-7l-5 -5l8 -6l-9 -16l10 -3l5 -5l-2 -9 l-4 -4v-17l-3 -4l3 -9h6l-2 -5l10 -10l-4 -5l-6 6l-11 -11l16 -5l-5 -5v-7l7 -7v-9h-8l-4 -8zM169 305l-3 4l3 3l9 -7h9l5 7h3l5 6l-4 3l-4 -3v6h7l11 -7l-2 -8h-12v-6h-4l-7 -5h-7l-4 5zM198 489l-5 10h6v7l-4 9l1 18l6 -2l-4 -18l6 -5v-7h6l8 -8l-5 -5l-8 7zM217 287 l-10 6l3 3v5l7 4l2 -7l6 2l-8 -10l9 4h8v-3h-8l-7 -13l-2 4v5zM270 439l-5 2l4 9h10l4 -10l-9 -9zM169 524l-3 3l3 9l5 2l11 -6l-10 -8l-3 -7l-3 3v4zM368 262l-14 10l13 6l5 -5v-14l-5 -2l-2 2zM210 458l5 6l10 -9l-9 -11l-6 6v8zM298 282v6h14l2 -9v-9h-7v12h-9zM155 497 h5l2 -3l16 3l5 -5l-3 -2l-9 -2l-13 2zM160 464l5 -2l4 2l5 -2l-9 -11l-10 4zM165 329l6 -3h12v-9l-18 5v7zM324 288l-3 3v4l16 -7l-7 -9h-6v9zM314 485l-7 4l2 5l12 -6h5l-2 -8h-5zM314 240v5l12 7l2 -16l-7 4h-7zM180 423h-2v5l-4 9l4 6h9v-4l-4 2l-3 -2v-7l7 -7v-5l-4 5z M238 497l5 9h2l4 -9h6v-3l-7 -5l-3 3zM367 559h2l3 -5h9l-3 -9l-4 6l-11 -9l2 8zM166 165l-11 4v2h7l7 -4l6 -14h-4l-5 4v8zM252 439h5l4 -7l7 -2v-2l-7 -3l-9 9v5zM247 275l5 -7v-9l-9 3zM314 305l3 -2l-5 -9h-7l4 11h5zM219 326l7 -2l-4 -7h-5l-6 6zM169 416l6 2l-1 -7 l-14 -4v4zM330 527l3 2h-9v4h15v-9h-2v3h-7zM335 593h13l-1 -13l-3 4zM273 571v4l16 6v-10l-8 5zM225 243l1 2l10 -3v-11zM286 447l4 4l4 -3v-11h-5l2 2zM249 208l12 3l-3 -12zM153 289l10 -2l-10 -8l-3 5zM326 420l-9 -3v13zM367 503l2 3l8 -7l-5 -5h-3v5zM326 106l2 5 l5 -2v-7l-7 -5l2 5zM190 478v2l6 2l5 -13h-2l-4 7zM229 511l5 -5l-4 -4l-8 9h7zM157 430l8 -7l-5 -3l-6 6zM317 213h11l-2 -5v2l-5 -4l-4 4v3zM340 219l6 -6l-12 -4l3 4zM291 508v-5h-9v5h9zM296 472l2 -5l-4 -3l-7 3zM196 132l3 -2l-4 -5l-8 7h9zM314 148l3 5l2 -6l-2 -6 l-5 5zM174 450l1 -4l-4 -7l-2 7zM261 529l5 -5l-2 -2h-5v5zM291 305l-6 -7l-3 7h9zM219 229l4 -3l-5 -5l-3 3zM321 473h5v-6h-5v6zM259 561l-5 -8l-5 4zM354 195l2 -6l-5 -4v7zM337 201v-9l-6 4zM287 529l2 -2v-5h-6zM335 187l4 -2l-2 -6l-4 4zM277 598v-2h-7l4 6zM309 197 l-2 2l2 2l3 -2v-7l-3 3v2zM339 266h5v-5l-7 3zM328 460v-10l-2 -2v12h2zM312 75l7 6h-7v-6zM180 120l7 -6h-7v6zM161 90l-4 -6l-3 6h7zM384 208v-4h-3l-4 4h7zM157 589l8 -2v-3l-8 3v2zM162 257h4v-5h-4v5zM169 278l2 -3l-2 -5l-3 8h3zM171 589l3 -2v-3h-5v3zM314 520v-8 l-5 8h5zM365 199v-4h-5l-2 2zM141 37l4 3l-6 3v-3zM298 482v-4h-4v4h4zM312 542v-4h-3l-2 3zM270 229v-7l-4 4zM309 326l-6 -9l3 9h3zM369 238h3v-4l-5 2zM190 279h-5l5 5v-5zM314 572l3 -1l-5 -3v4h2zM276 295l-3 -4v7zM358 254l-4 -2v5zM148 407h5v2h-5v-2zM309 441l3 -4 h-3l-2 4h2zM266 542h4l-2 -4l-2 3v1zM255 455h-6l3 3zM249 291v-3l-4 3h4zM279 245h-6l6 3v-3zM360 515l3 -3h-5zM317 432h-3l3 5v-5zM225 165l-3 -3v5zM185 511l-2 -3l-3 3h5zM314 554l3 -2h-5v2h2zM208 185l-4 -2l2 4zM255 171v-4l-3 4h3zM225 273l-6 -3l6 5v-2zM183 584 l-3 -4l-2 1zM264 224l-5 -2v2h5zM305 437l-2 -5v5h2zM231 278v-5l-2 5h2zM171 132v-2l-5 2h5zM231 448l-5 -2v2h5zM335 480h-5l3 2zM259 76v3h-3zM458 464v3h-3zM199 234l-3 -3v3h3zM240 478l-2 -2v4zM187 497h-2v4zM367 529v-2h-2v2h2zM261 155v-2h-2v2h2zM247 298l-2 -2v4 zM196 116l3 -2l-4 2h1zM339 294v-3l-2 3h2zM314 464h-2v3zM363 559h-3v2zM275 497v-3l-2 3h2zM296 309h-2v3zM279 581h-2v3zM305 455h-2l2 3v-3zM367 511v-3l-2 3h2zM208 607h-2l2 3v-3zM145 105l5 1h-5v-1zM213 478l-5 2h2zM314 215h-2l2 2v-2zM309 469h-2l2 2v-2zM291 264 h-2v2zM236 501v-2l-2 2h2zM210 155h-2v2zM279 153h-2v2zM335 575h-2v2zM321 125l-2 -2v2h2zM139 644h2v2zM335 245v-2l-2 2h2zM300 125l-4 -2l2 2h2zM185 102v-2l-2 2h2zM298 515h-2l2 2v-2zM215 605h-2l2 2v-2zM256 162v-3l-1 3h1zM314 416l3 1v-1h-3zM369 136l-2 -1v1h2z M219 136h-2h2z" />
<glyph unicode="c" horiz-adv-x="534" d="M196 3l-2 2l-5 -2l-21 4l-4 5l-8 4l-27 28l-4 7h-5l-7 5l-3 11h-10l-8 16l-16 11l-5 10l-7 2l-4 21l-7 7l-4 18h8v3l-4 2v5l-5 7l3 16v25l4 6l-2 6v35l-2 4v14l2 4v35l-3 4l5 17l-2 34l4 8h-4v11l-4 7l4 11l-5 10v14l5 16l-5 20v24l5 4l-2 18l2 5l-4 14l4 10l2 36l5 9 l11 5l4 11l10 10l5 9l15 8l5 8l10 6v8l7 4l5 9l11 6l9 9l12 6l3 -3l15 11h18l10 3l46 -8l4 -7l7 -5l2 -6l-5 -3l4 -8l7 -4h11l15 7l-8 8l6 2l12 11l14 5l2 5l5 -6l12 3h32l4 -2l5 2l3 -2v-3l17 -5l17 -18l19 -14l18 -20v-9h16l3 -16l9 -13v-29l2 -2v-30l-6 -13l6 -6l-2 -17 l-13 -20l-15 -4h-19l-9 9l-7 3v10l-6 8v67l-10 9l-2 11h-9l2 6l-14 3l-14 12l-3 7l-6 -2l-5 4h-9l-4 3h-17l-9 9h-14l-11 14v11l-3 2l-2 -6l-2 2h-11l2 -7l4 -2l-4 -7l-5 2l-7 -2l-7 -7v-5l-12 -7l-11 -2l-14 2l-2 5l-7 -7l-2 -9h-3v2h-16l-14 -9l-10 -27h-13l-7 -10l-2 -7 l-7 -7l-4 -11l9 -16l-6 -12l5 -18l-13 -17l12 -6l-7 -7v-26h6v-4l-6 -4l1 -13l-4 -7v-29l3 -6l-7 -18l7 -9v-14l-6 -11l10 -13l-3 -6l-1 -23l8 -4l-4 -7l-12 -12v-18h6l-3 -14l4 -4l-8 -8v-4l5 -6l4 7v-52l6 4l7 -9h-7l3 -9l-3 -3v-4l12 -14h3l6 -7v-7l3 -2l1 -5l10 -2l2 -7 h5l12 -12l13 3l5 -7h12l12 -8l23 4l6 4v-6l-11 -3l11 -2l4 -12v-16l7 -6l-17 -13h6l-7 -9l-18 -7h-24l-4 3h-16zM332 -2l-3 5l-9 4h-8l-12 8l-3 8l-7 2v8l3 2h-7v12l13 6l8 7v7h16l4 5h8l5 -4l15 10h11l3 8l23 16v4l5 7l9 4l12 17l-3 4l4 13l-4 13l4 9l6 3l-3 9v22l6 18 l22 14l9 -6h7l9 -9l12 -7v-32l2 -3v-9l-3 -8l3 -6v-12l-2 -1v-12l2 -2l-2 -5v-25l-18 -23l-5 -3l-8 -13l-16 -7l-6 -14l-7 -7l-14 -7l-24 -23l-9 -5h-11l-3 4l-13 -9l-5 3h-16zM297 642h2v2h-2v-2zM297 30v-2v2zM125 275h1l-1 2v-2z" />
<glyph unicode="d" horiz-adv-x="535" d="M274 3v2h-4l-10 7l-7 -7h-14l-4 4h-19l-5 -5l-25 3l-14 7l-6 7h-4l-6 12h-6l4 23l9 1l-2 5l2 7h18v12h12v-7l14 -4l2 6l25 -2l3 2l14 -2l18 2l2 2l-2 5l4 3l8 -12h5l13 7h5l4 -5h12l14 7h6v9l10 10l5 9h9l9 9l5 9l25 26l2 13l10 -1v10h-7l2 5l-2 19h7v6l-3 3v17l3 4v20 l2 7v21l-2 19l-3 2l7 8l-2 22l-2 5l2 48l4 8l-10 6l10 20l-6 13l-6 5l6 5l3 13l-4 14l7 9l-6 35l4 8l-11 16v10l-9 9l-5 2l-4 9h-5l-12 12l-4 8l-14 7v8l-17 5l-4 7l-5 2l-2 -2v-10l-2 -2l-9 10l8 3l-17 4l-7 -4l-17 6l-3 -3h-9l-6 4l-17 -8h-7l-2 7l-19 -7l-10 10l-4 -8h-4 v5h-9l-6 -3l-8 3l-18 -7l-15 -2v2l-1 -5l-6 -5l3 -9l11 -3l5 -6v-4l-11 2l-6 -6l4 -5l1 -15l5 -5l-2 -4h-4v-21l-3 -5h12l-15 -10l3 -12l11 5l3 -4l-6 -1l-5 -21h3l3 -9h-6v-14l6 -6l-5 -9l-4 3l-2 -3l2 -4l-2 -9v-9l5 -6l-4 -11l4 -6v-7l-3 -3l4 -15l-6 -3l-4 -19l9 -4v-7 l-14 -6l6 -5l-1 -45l-4 -5l4 -13v-14l-4 -3l13 -10v-12l-9 -13l4 -19l-5 -16l11 -9v-3h-6l-9 -17l5 -15l-3 -7v-35h12v-7h-9l1 -18l9 -8v-9h-4l-2 3h-4l9 -12l-8 -2l-1 -10l-15 -13l-9 -5l-2 5l-3 -2h-15l-16 9l-8 23v25l6 8l-3 13v35l4 11h-4v21l-3 5l3 5v9l-5 4l2 21l3 9 v26l-3 11v16l-3 8l3 6v28l-2 4l-2 86h-2v35l3 3l-4 4l6 13l-3 7v60l2 3l-4 13v12l4 5v6l-8 13l6 11l-2 11v30l5 11l-5 10l6 32l5 2l4 5l16 10l5 -3h23l5 -9l14 -9h11l15 6v11l15 3v4l3 3l12 -5l6 2h35l7 -4l19 5l13 -2l4 -5l3 9h14l4 3l7 -6h14l9 -4h21l7 -7h11l15 -13 l6 -13l21 -15v-2l11 -5l5 -12h8l11 -13l3 -8l10 -7v-6l24 -26l5 -18v-46l2 -6l-1 -6v-67l-2 -9l2 -2v-40l6 -5l-6 -9l3 -18l5 -5l2 -16l-7 -7l5 -8l-3 -8v-16l4 -3l-4 -4l3 -5l-3 -8l-2 -30l4 -12l-4 -8l2 -4v-16l-6 -12l6 -13l-5 -7l-8 -6l4 -8l-5 -5l-1 -9l-21 -14v-16 l-12 -2l-17 -17l-9 -4v-7l-9 -2l-4 -5l-6 -3l-13 -16l-2 3l-7 -5l-11 -18l-17 -9h-14l-50 -12h-10l3 6zM149 616h9l3 16l-4 3l-8 -3h-7l4 -4h8v-5h-12zM415 185v4h-3zM166 619h1l-1 2v-2z" />
<glyph unicode="e" horiz-adv-x="506" d="M83 14l-4 6l-9 5l-3 23l-3 8l3 8v19l3 4l-5 14v16l4 4l-5 15l5 10l-4 15l2 21l6 10l-6 8v3h-4l2 39l-4 6l6 21v23l-9 3l3 3h4l-2 13l4 2l-2 24l-3 8l5 5l3 8l-3 1l-2 17l3 8l-5 16l2 18l-5 4l5 11v21l-6 3l11 11l-7 7v7l4 7v7l4 7l-4 4v81l3 3v18l5 11l-3 34l9 19l14 12 h10l9 -4h11l10 -5l1 -4l13 -17l15 7l6 14l8 5l3 5l18 4h35l3 3l13 -3l35 -3l7 5l4 -5h30l6 -3l5 6h21l11 -6l3 3h23l7 -2h30l9 -4h7l15 -7l6 -19l-3 -3l4 -12l-12 -13l-12 -6h-12l-20 -8h-47l-9 -4v8l-16 -10l-8 7l-25 -2l-11 -5l-2 -7l-5 2l-2 5l-4 -5h-17l-2 -5l-5 5 l-5 -2v4l5 3v2h-16l-7 -5l-13 -2v2h-10l-9 -4v3l-11 6h-10l-3 -3l8 -11l-5 -5l-10 2v5l4 4l-7 16l-10 4l-3 -7l-4 4v3l-7 -5v-12l9 -9l-7 -15l3 -6l-3 -9v-14l5 -4l5 -10l2 3h4l5 -8h-14l-4 -4l7 -9l5 -2v-5l-3 -2v-8l8 -5l7 7l-6 6l-3 9h18l4 -14l-6 -5l8 -7v-3l-16 4 l-10 -3l-1 2l-3 -2h-9l2 -4h7l7 -5l-3 -2l-1 -5l-5 -5v-7l5 -4h6v-9l-11 -2v-17l5 -2l-3 4l3 5h9v-2h9v-3l-8 -4h-7l5 -20l-4 -3l2 -5l3 5l4 -3l6 6l6 -3h6l3 9h5l4 -9h8l4 8l6 -6v-6l8 4l9 -5l25 5l14 -7h21l9 -5l10 4l11 -4h16l18 -6l7 -15v-9l-7 -20l-16 -5h-14l-13 -2 l-28 -8l-19 5h-9l-10 -10l-11 8h-9l-11 -8l-7 8h-10l3 -3l-7 -1l-6 -6l-15 6l-2 6l-12 5l-2 -2l3 -9h-10l-7 9l-5 -3v-11h-2v2l-4 -5v-22l-3 -5v-21l-6 -8l4 -4l11 -2v-5l-9 -11l4 -9v-12h-6v-7l2 -2v-16l4 -8l-7 -7l6 -15l-9 -13l9 -10l-5 -9v-15l-3 -11l5 -4l-2 -3v-18 l-5 -6l2 -6l-1 -42l-12 -14v-4h-5l-5 5l-11 -5l-11 3h-8zM231 5l-44 1l-4 3h-8l-14 5l4 9l-11 23l8 7v11l12 2l8 6l5 -3h9l8 7h25v-5h16l3 -3l13 3l14 6l10 -6l5 3l6 -3l9 5l12 -3l20 3l25 -6l19 6l21 -5l42 -2l6 -7h6l11 -17v-27l-9 -9l-24 -7h-57l-5 4l-15 -3l-14 3 l-11 -3l-17 3l-22 -5l-8 4l-14 -5l-8 5l-13 -3l-8 7zM155 298h2l3 -10l9 -2v-3h-16l-3 4zM153 450h7v9h-10zM162 625h6l-8 12l-6 -4zM217 512h8l-4 -6l-4 4v2zM162 334l4 5h-4v-5zM279 612h6l-8 1zM294 9h2l-2 2v-2z" />
<glyph unicode="f" horiz-adv-x="481" d="M101 18h-15v9l-4 5l-2 16l3 7l-6 5l-3 15l6 13l-3 8v8l-2 2v10l5 6l-3 4v17l-6 14v16l-5 4l5 12v20l-3 5v12l6 13l-6 5l-5 13l5 11v31l-6 8l2 1l-2 17l4 7l-4 11l5 30l-5 19l-4 3l6 11l-5 2v9h5v10l3 7l-8 8l7 21v9l2 3v14l-2 18l3 5l-8 5l5 20l-2 39l2 12l2 44l3 9v13 l5 18l15 8h12l3 -3l16 4l9 -17v-7l5 -5v-9l4 -9v-21l-3 -2v-19l8 -9l1 -7h-4v-11l3 -9l-3 -4l3 -10l-3 -2v-29l4 -4l12 -4v-5l-2 2l-2 -4h-3l-2 4h-3l3 -14h5l9 -5l-2 -6l-12 -5v-4l5 -5v-4l4 -6h17v-11l6 -7v-4l-11 -6l5 -3l-8 -8v-6l3 -9h2l14 11l11 4l3 -2l-4 -2l1 -2h5 v-12h-6v-2h20l4 -4l16 7l11 -9l11 12l11 -10h11l6 -7l12 9l3 -5l4 7h5v-4l5 -6h72l18 -12v-22l3 -9l-12 -10l-3 3l-6 -4l-17 -3l-7 -5l-15 3l-9 -5l-15 8v-3l-5 -5l-4 2h-23l-4 -7h-8v5l-9 -2l-9 2l-23 -2v-11l-9 -3l2 16l-25 -10h-9l-3 -15l-5 5h-4l2 15h8l1 -2l8 2l-19 8 l-7 -3h-13l-5 -5h-7v5l-5 -2l12 -28v-5h-7l-3 4l-5 -9l-1 -10h4v-38l-3 -3l3 -3l-7 -7v-19l4 -9v-7l-6 -4v-9l9 -13l-12 -9l4 -20l-5 -3l6 -11l-3 -7l4 -3l-6 -17l7 -7l-4 -8v-27l-6 -19l-16 -11l-12 2zM220 615h-18l-6 5l-8 2l-4 -2l-4 8l-8 -13l-9 7v9l-8 -5l-4 12l11 6 l-6 6l5 4l2 6l3 2l-3 7l7 6l3 7l11 5h12l4 -3l3 8h4l4 -8l24 9l11 -7l13 7l8 -4h41l6 -3l14 3h12l12 3h26l6 -3h9l3 -2l7 2l6 -2h33l11 -12l5 -2l4 -19l-4 -11v-7h-11l-8 -6h-11l-14 -5h-15l-10 5l-3 -8l-30 -2l-15 2l-7 -3l-16 4l-8 -8h-11l-12 4l-8 -4l-3 5h-7l-4 -5h-21 v-4l-5 -5l-16 3zM222 433l-6 14l8 4l7 -8l4 7h2l2 -14l-4 -5l-5 5zM225 412h7v-9h-7l2 -4l-3 -7l-7 10zM188 451v8l5 -2l3 4h4l5 -4l-5 -10l-7 4h-5zM175 470v10h4l5 -5l-5 -3v-2h5v-2l-14 -7v5zM207 484v12h4v-19l-2 -5l-6 4zM227 479l4 -5l-6 -6h-5v4zM151 540v-3h5v-5 h-10l3 8h2zM172 311l3 -3l-3 -4h-6v7h6zM179 293l5 -5v-5l-3 -2l-5 12h3zM184 510l2 -3v-7h-7l2 7zM151 567h5l-2 -6l-8 1zM170 528v-9h-4v9h4zM154 654v-4h-5v4h5zM146 424h5l-2 5l-3 -2v-3zM197 493l5 -4h-6v4h1zM154 355h2v3h-2v-3zM186 389l2 3h-2v-3zM225 611l2 4 l-2 -2v-2z" />
<glyph unicode="g" d="M212 -2l-7 -2l-7 2h-28l-18 18l-5 8l-13 7v11h-9l-10 9l-10 15l-24 17l-15 22l-9 9v4l-4 5v51l-5 9l9 14l-6 52l4 10l-4 19l2 1v9l4 12l-5 18l3 12l7 8l-9 9l2 4v18l-4 5l4 5v46l5 5l-3 4l-2 39l2 5v16l3 11l-7 14l4 26v14l5 16l6 3l10 20l10 4l7 14l17 8l5 8v5l9 5 l12 11l2 8l10 1l3 7l22 16h14l7 3l18 2l9 -6l7 4h26l7 -7l6 -2l12 -17l-4 -30h-8l-4 -4v-5l4 -2l-2 -2l-9 3l-9 -8l-25 -2h-24l-10 -19h-11l-23 -32v-10h-6l-6 4l3 -8l-7 -2v-7l-5 -2l-1 -9l-5 -6h-3l-1 -6l8 -8l-7 -6l-1 -7h-3v-3l4 -1l3 -33l5 -9v-7l-5 -7v-6l5 -6v-13 l-8 -10v-11l5 2l3 -7l-3 -4v-19l-5 -9v-13l5 -20h-5l5 -6v-14l-5 -4v-36l8 -6v-14h-9l1 -28l6 -5l-3 -6v-12l-4 -9v-23h4v-7l5 -4h4v-19h9v10h8v-5l-7 -6l7 -6v-12h9v-6h6l6 -9l15 -7v-9l28 -8h16l11 -4l4 7h4l2 -4h2l2 4h3v-9l11 -6v-6l-10 -4l3 -8l10 -2l-8 -14v-13 l-18 -5l-5 -5l-13 -4h-17zM301 9l-4 16l-4 -1v11l-6 9l12 7v10h14l24 11l1 4l5 -4l12 3v9l30 27l12 5l11 10l-7 4v7l19 11l-2 7l-3 2l10 19l-7 21l7 7l-4 7l4 12l-3 8l-4 -4l-5 3l9 13l2 11l4 3v4l-4 3v9l-2 2v7l-8 14h-13l-4 -2l-3 2v4h-9l-6 3l-6 -3h-9l-4 4l-3 -4l-25 -2 l-14 14l-11 3l-8 23l13 20l50 2l13 4l10 -4h37l16 3l14 -3h14l11 -4l14 -9l9 -16v-10l5 -3v-4h-7v-8l8 -4l-4 -18l3 -2v-4h-3l-2 -3l5 -7v-16h4l-4 -9v-33l4 -11l-2 -12l-5 -11l3 -7v-19l6 -14l-11 -1v-19l-2 -7h2v-55l-2 -3l-2 -31l-13 -18l-25 -7l-5 4l-15 4l-16 12v10 l-7 8l-5 -5h-7l-5 -4h-4l-6 6l-10 -15l-21 -14h-9l-9 -6l-7 3l-9 -5l-5 8zM440 473l-4 7l-3 28l-6 13l1 8h-2l2 16l3 2l-9 14l-4 11l-8 3l-13 14l-9 15l-4 -5l-4 3h-7l-5 5h-6l-16 7h-14v-4h-3l-27 22h-7v14l-5 9h-4l-2 3l23 16l2 7l19 6l6 6l14 -5h14l14 -3h25l2 -7l24 -6 v-5l4 -9l11 -7l3 4l4 -4l7 -16l10 -7l5 -12h10l3 -14l14 -18l4 -9v-16l3 -5l-3 -9l6 -23l-8 -11v-25l-11 -4l-3 -8l-16 -5h-13l-10 4h-7zM405 33l7 2v6l-9 -6z" />
<glyph unicode="h" horiz-adv-x="539" d="M83 23l-5 9l4 9l-4 12v16l4 3l-4 6l-2 18l2 30l3 10v23l-5 -2v39l4 3l-6 6v25l4 5l-4 9v16l-3 3l3 11l-2 30l-6 14l6 5h-7l2 14l-2 5l2 11l-2 2l7 14l-4 6l4 4v15l-6 5l4 12l-3 11l-9 4l9 4v48l-2 2l2 4v16l2 3l-2 7v25l-5 10l3 11v18l2 3v25l-2 8v18l-2 6l2 11l7 4 l-4 15l4 8l9 4l2 5h21l9 -5h10l6 -14v-22l9 4v-51l3 -4l-4 -10l6 2l-2 -25l-4 -6l6 -12v-5l-2 -2l2 -21l6 -6l-6 -5v-17l-3 -8l12 -18l-9 -9l3 -7l6 4l3 -4l-9 -9v-5l12 -6l-5 -10l11 10l12 4v-6l-11 -6l6 -6h6l15 -5h21l3 6l3 -8l5 2l9 18l7 -4v-6l14 -5h12l7 -4l8 5l16 -6 l7 11h5v-9h35v8l11 -4l5 8l3 -3v-6l9 -3h11l3 -2l-6 -6l10 -5l3 2l-3 9l5 5h5l-2 -3l2 -20l-5 -5v-6l9 5v4l7 6l5 19l4 5v31l-7 8l7 7l-2 20l-7 7l9 9v3h-3l4 8l-3 3h-5v4l7 3v17l3 2v7l-5 6l5 19v11l-5 6l2 24l3 6l-3 6l3 3v43l6 18l12 5h26l6 -6l10 -21l2 -24l-2 -22 l-2 -2l2 -15l2 -2v-19l5 -18v-18l-5 -3l9 -11v-7l4 -4l-7 -6l3 -8v-9l3 -3v-7l-3 -5v-15l-4 -10l5 -18l-3 -5v-9h5l2 -9l-7 -8l2 -9l-3 -3l5 -11l-6 -9v-7h7v-16l4 -9l-4 -5h-5v-23l7 -21v-9l4 -5l5 -2v-3l-8 -2l-3 -9l2 -25l-2 -23l2 -7l-2 -9l-6 -7l10 -10l-2 -11l-5 -9 v-5l3 -3l6 -17l-4 -8l2 -5l-4 -9l2 -21l-5 -10l3 -10l-3 -5v-19l-2 -4v-15l-15 -5l-8 -7h-16l-10 4l-9 18l-2 19l-4 12l4 9h5l-5 7l-2 41l3 11l-5 42l2 2l-3 13l6 12l-5 5v5l-6 5l6 16l-3 19l-2 2v12l-3 1v8l5 4l-2 7l-5 5v5l-3 5l5 9l-4 4v13h-6l-3 8l4 9l7 3l3 8l-8 7h-11 v-11l-2 -3l-2 3l-19 -9l-7 -7l-12 2l-2 -6l-5 4h-39l-4 -4l-3 5l-11 -9l-20 -3l-8 3l-5 5h-20l-8 -10l-7 -4h-5l5 12h-9l-4 -3l-4 4l-13 -10l-15 11l-12 -5l-9 -13l4 -12h-19l3 -17l-7 -8l7 -2v-5h-7v-9l12 2l4 -4l-9 -3l3 -2h15l-6 -7l-19 2l4 -9v-12l-4 -4v-12h7v-3 l-11 -7l4 -4l4 -27l3 -7h-7l4 -34l-6 -12l5 -39l-3 -19v-23l-6 -19l-5 -6h-7l-2 -5l-3 2l-10 -5l-14 3zM194 314h9l5 -5h-14l4 -5v-4l-10 8zM339 427h8v-12l-8 4v8zM402 464l2 2l3 -2l-4 -6l6 -4v-2h-7v12zM416 329l8 -4l-4 9h-2zM189 320v-6l-4 -3v9h4zM252 320l-12 -5v5 h12zM233 298v-5h-5v5h5z" />
<glyph unicode="i" horiz-adv-x="193" d="M78 23v4l-9 4l3 58l3 8l-3 4l2 5l-3 9l3 2v26l-2 6v23l3 8l-5 8l8 12l-6 7v16l-5 4l5 8l-3 6v39l3 14v24l3 24l-5 9l6 24l-4 14l7 21l-8 14l5 10l-4 9l5 20l-3 13l-4 48l6 18l2 81l5 11l-3 7l3 24l7 4l11 12l9 1l6 -2l15 3l14 -16v-22l7 -11v-11l-4 -7l7 -19l-3 -13 l-3 -3l6 -10l-3 -20l-3 -4l3 -16v-44l4 -7l-7 -9v-34l-2 -5v-48l4 -28l-4 -7l2 -9l-2 -4v-24l-4 -9v-23l3 -13l-3 -3l3 -6l-4 -9l4 -7l-3 -10v-12l3 -5l-6 -10l3 -7l-4 -8l7 -11l-3 -13l3 -11l-8 -8l2 -4v-17l5 -11l-9 -26v-27l2 -5v-18l-12 -25l-26 -7l-19 9zM143 363l2 3 h-2v-3z" />
<glyph unicode="j" horiz-adv-x="467" d="M227 32v4l5 2l2 6l-5 4l3 9l14 14h4l2 5h4l15 9h9l5 4v7l5 7l7 -2l6 2l7 7v5l-2 2l2 16h5v-7h6l10 10l-7 11l16 5l5 14v7l4 4l-7 2v17l-2 2l3 9l-3 8l2 8l-7 8l5 10l-4 12l2 5l-2 2v17l-5 4v5l2 2l6 -2l-3 6l5 6l-5 10l2 21l-2 14l-4 11l7 25l-3 8v13l-10 3l3 5l-3 15 l5 3l2 -9l3 3l-3 15v28l-2 12l2 6l-3 11l3 3v16h3v8l-6 10l7 11l-4 15v12l3 3l-4 11l4 31l-5 5l8 18l-3 15l2 9l3 3l4 16l6 6l16 6l25 -7l9 -21v-10l6 -7v-18l-3 -5l4 -9l-5 -10l8 -8l-4 -7l3 -7l1 -28l5 -13v-12l3 -8l-10 -4l2 -14l5 -4v-9l5 -8l-7 -11h5v-20l-3 -5l-2 -16 l5 -5l-5 -12l2 -2v-7l5 -3v-9h-7v-22l3 -10l-3 -9h5l6 -7h-6l-8 -14l16 -10l-4 -3l-4 4l-4 -6l4 -3v-10l2 -2v-7h-7v-9l8 -16l-6 -11l-3 -26l3 -9v-9l6 -6l-6 -4h-5v-2l6 -3l-8 -33l5 -3v-16l-7 -21l-23 -26v-10l-18 -12l-5 -11l-19 -10h-4l-26 -30l-6 2l-7 -12l-44 -6 l-21 20zM135 14h-9l-8 6l-2 6l-8 3l-17 15l-4 1l-8 8l-7 3l-4 8l-14 14l-7 3l-2 8l-11 26l-3 22v90l18 20l13 2l8 -2l8 -8l1 3h5l4 -5l3 -14l7 -6v-20l8 -30h-6l-4 -4l12 -14l1 -21l24 -20l2 -5l13 -14h7l3 -6l12 -7l18 -4l14 -17v-11l-3 -3l4 -10l-8 -16l-13 -9h-22l-4 3z M328 170l-4 -7h-4l1 7h7zM260 14h4l-4 1v-1z" />
<glyph unicode="k" horiz-adv-x="502" d="M92 9l-11 17v36l2 3v9l-6 5l6 7l-9 22l2 21l-2 17v41l-2 4l3 9l-5 8l4 4v5l2 2l-10 10l3 11l5 5v18h-7v4l7 3v18l-2 2v8l-5 -2l4 13l-4 11l-9 7l5 3h6v7l3 4l-9 3l4 5l2 6l5 5l-2 19l-3 4v23l-3 9l3 10v18l-9 7l9 2l3 8l-8 11l6 12l-4 8l6 17v6h-4l4 7l-3 10l-4 4l7 15 l-3 12l6 11l-9 11l7 25l-4 10v18l5 5l-4 11l4 7h-2l6 9v9l14 5l7 5h8l1 -3l16 -5l3 -8l7 -8v-5l9 -14v-38l4 -5l-6 -9l5 -10l6 -4l7 -9h-5l-5 9l-4 -6l2 -17l3 -7l2 -16l-6 -4v-5h4l2 -3l-9 -2v-5l12 5l7 -19h-7v-13l12 -3v-23h6l3 8l-3 6l4 7h10l10 5l1 4l4 3l-4 6l3 8h8 l3 -9h8l6 9l-9 16l5 13l5 -4l3 -12h6v12l4 2l2 -9l-2 -12l-6 -5l5 -5l6 10l5 -5l4 3l3 12l9 9l11 2l14 19v4l9 12l-4 4l16 7l4 8l8 3l5 10l6 2v11l11 6l12 13l4 9l33 35l2 5l16 11h21l14 -4l11 -14l-11 -16v-5l-8 -4l-13 -26l-18 -18v-5l-7 -3l-7 -20l-14 -10l-14 -31l-7 -7 l-2 -5l-8 -2l-4 -5l3 -19h-3v3l-9 2l-5 -2l-2 -19l-7 -6l-2 -5l-5 -4l-2 -8l-9 -9v-9l6 -7l5 -11h-14v7l-6 4l-5 -2l2 -3v-9l-7 -7l-13 -3l11 -7v-6l5 -4l4 2l-2 7h11v-7l14 -8l3 -9v-8l13 -3l4 -17l8 -3l3 -20l6 -6l-3 -7v-9l12 -11v-10l5 -2l7 -26l12 -8v-8l7 -21h7l3 -14 l10 -16v-4l16 -24l2 -13l11 -16l3 -12l5 -5v-15l5 -7v-5l9 -3v-13l7 -7l4 -10v-13l5 -7h-2l2 -5v-13l-11 -3l-13 -10l-16 3l-9 9l-4 -2l-5 2l-22 37v5l-11 15l-9 21l-1 12l-9 8l-4 15l-13 10l-9 23l-7 9l-2 9l-9 12l-7 4v9l-5 10v7l-7 7l-2 -5l-3 2l3 8l-3 15l-9 -9l-2 -16 l-5 12l-6 5l11 15v8l-14 18l-5 -5h-8l4 7l7 4v10h-5v-4h-15l-4 -8l-4 5l7 14h-3v2h8l4 7h3v4l-5 -2v8l-3 2l-11 -8l-9 -15h-10l-3 3l-8 -3v-5l-6 3l-7 -7l4 -8v-20h-5l-5 7l-1 11l-5 -2l-7 2l-3 7l-20 -15l-4 -8l-10 6l4 -8l7 -2l3 4l3 -3l-4 -8l10 -12h9l-7 -7v-4h-10 l-9 -14l13 -10v-15l-9 11l-3 -8l2 -23h3l8 -10l-3 -4l-9 9l-6 -8l8 -8l-4 -4l3 -11l7 -9l-5 -6l-2 -31l3 -6l-9 -15l4 -7l-3 -7v-16l-2 -2v-21h-3l-9 -17l-12 -4l-24 3zM206 307h2l4 7l8 5l8 -7l6 10l6 4l6 11l-8 4l-2 -4l-9 2l4 7l-5 10l-5 -7l-13 -10l7 -7v-6h-7v-10 l-5 -2l3 -3v-4zM185 443l7 2l5 7v8l-10 9l-10 -3v-12l8 -6v-5zM202 256h10v2l-9 5h7l5 5l4 -5l9 -5l-7 -11l-6 2h-7l-6 -6l-4 4zM219 473l12 11l3 9l-9 -4l-13 5l-2 -4v-14zM176 430h6v6h-9l-2 12h-4l-5 -5v-7zM164 296v4l-7 6l7 3v7h-7l-8 -8l6 -8zM182 300l3 2v7l8 4l4 -8 l1 14l-11 -3l-11 -9zM203 551l14 -13v-3h-9l-9 9zM177 251l-2 11l4 5l3 -9h11l-7 -10l-4 3h-5zM167 500l6 5h4l7 -5l-11 -4l4 -6l-10 4v6zM242 350h5l4 5l4 14h-6v-9l-7 -2v-8zM323 415v-5l-2 -1l3 -4l-3 -4h-10v3zM167 561v4h15v-6l-14 2h-1zM270 254l2 4h5l-2 -11l-8 4z M247 263h7v-7l-12 2zM212 293l5 -3l2 -6l-4 -5l-3 2v12zM189 279l6 -6l-6 -5l-4 4zM201 531h5l4 -10h-4l-5 5v5zM185 515l9 -3l-2 -7l-5 3zM275 268v-7h-5l-3 7h8zM228 277l12 -2l-2 -3h-10v5zM270 390h5l2 7l-7 -2v-5zM238 198l2 -1l-7 -6v7h5zM182 328h5v4l-5 -2v-2z M168 415h3v3h-4zM150 469v4h-3v-3zM198 478h3l-3 6v-6zM167 242v5h-3zM194 296h3v4zM198 328h5l-5 2v-2zM224 328h-5l2 2zM171 296l2 2h-5zM194 469h4l-6 1zM296 249v2h-3zM266 399v2h-3z" />
<glyph unicode="l" horiz-adv-x="484" d="M92 96l-7 5l-4 -5l-13 13l3 2l-5 25l-4 9l4 3v8l-2 1l2 9l-2 8v27l2 4l-8 11l4 6l3 28l-3 7v19l-3 4l3 2v9l3 4l-3 3v67l2 21l-2 3v25l4 6l-4 9l4 26v40l2 5l-2 1l2 79l3 10v24l3 7l-6 10v19l6 14l6 4l10 14h13l12 -5l18 -18v-5l3 -2l1 -14l-2 -11l5 -10l-7 -7l3 -9l5 -6 l-4 -5l-1 -10l4 -9v-30l3 -20l-6 -6l5 -2l4 -12l-4 -4v-9l3 -3l-3 -2v-21l4 -3l-6 -6l-3 -18l5 -10l-3 -5l5 -30h-4l2 -13l-6 -7l4 -10v-39l3 -4l-3 -26l-4 -12l10 -22l-12 -13l8 -13l-2 -30l11 -10l-11 -5l-6 -12h6v-9l-7 -17l3 -4h4v-4l6 4l-1 -21h-9l1 -14l-4 -4v-9h-5 l-2 4l2 5l-9 -3l-4 -5h-3l-6 -5l-3 4h-11zM271 -2l-3 -3l-3 3l-18 -2h-33l-7 2l-10 -3l-18 3h-16v5l-7 -2l-7 3l-7 -3h-14l-11 -3l-2 7h-3l-3 -9l-27 14l-7 6l-4 10l-5 4l7 10l-2 6l9 8l3 8l18 9l15 -6l17 5v6l12 -1l-3 -5l16 -3l3 5h5l4 3l6 -3h20l9 9v-7l16 -4h36l7 3 l9 -7l8 5l18 -5l5 4h9l5 -3h73l12 -5l10 4l11 -5h16l9 -10l12 -8l-4 -30l-6 -6l-13 -6h-23l-9 -3l-17 -2l-7 5l-4 -3l-21 -2l-5 2h-46l-8 -5l-10 5h-17zM115 93h4v-9h-4v9z" />
<glyph unicode="m" horiz-adv-x="586" d="M492 3l-9 2l-10 20l4 10l-3 9v21l-5 17l5 8v9l-3 3l3 6l-3 5v21l6 -2l-4 11l4 4l-6 15v5l3 1v10l-5 15l3 13l-5 2l4 2l3 12l-5 14l4 3l-8 9l7 7l-3 12l-9 3l2 5v12h-9l-5 5l-7 -4l-4 11l11 6l3 -5l7 5v4l13 12l-8 3l-3 -3l5 -3l-9 -1v4h-9l-4 -5l-19 3l-6 -5l-3 -6h-4 l-3 6l-3 -5l-5 -1l4 -8h-11v8l-5 4h-4l-3 -3l7 -6l-4 -3h-5l-7 -9l-12 3l3 6l7 3l5 5h-8l-9 -3h-22v13l-5 -4h-5l-5 -11h-6l-12 -6l-3 13l-9 7l-25 9l-3 9l-9 -2l5 11h-3l-9 10l-1 -3h-8v4l-9 4l-9 -5l-3 -5h-6v10l5 4l-3 18l-7 4v9l-10 -5l-6 6h-7v-9l-5 -5l-3 3l-6 -3v-12 h2v3l5 6l7 -13l4 -16l5 -2v-5l4 5l12 -18v-8h-3l-9 16l-9 2l-4 10l-17 10l-15 -8v-2l6 -2v-3h3l2 -5l3 -1v-12l3 -10l-11 -11h-9l7 -19l-19 -46v-12l5 -6l-2 -33v-32l2 -7l-11 -4l6 -3l1 -15l-5 -5v-3h9l-5 -12h3l-3 -4l-1 -35l-5 -8l5 -9l-8 -22l-5 -3l3 -11l-4 -4l-16 -7 h-12l-14 4l-9 19v39l3 21l-6 20l5 5l-3 36l5 22l-2 5v22l-7 7l5 12v19l3 12l-6 10l6 3l-3 9l4 46l-2 13h-5v13l5 27v12l-9 9l4 5l-2 12v17l-7 10l7 7l5 12v11l-3 3l3 7v18l-4 10l8 13l-4 7h-3v7l5 5v7l-5 4v3h4l8 18l-5 11l3 53l-4 15l6 7v11l13 23h8l5 6l20 -3l19 -17v-7 l4 -11l-3 -5l8 -5l9 -11l-5 -2l-4 -7l2 -5h16l19 6v-13l6 -2l3 4l9 -4l3 -5l-6 -5l6 -6h9l2 -5l11 -2l-4 -7l-6 -3l28 -28l5 3v-2l5 -2l5 2v4l-5 3v9l6 -5l13 -5l-4 -9l-8 -4v-7l-5 -8l3 -4h12l10 -19l5 8h8l9 -9l2 -7l7 4l4 -3l11 9l-6 8l8 5l11 -6v-11l10 3l4 5l-6 3 l12 10l-1 5l-8 2v10h8v-5l4 3h5l12 15v7l17 10l5 11v9l5 5h5l24 20l6 -7l-3 -5l7 -12l12 9l5 -9l4 9l5 4v12l10 28l-3 4v7l4 5l2 9l9 9l22 3l16 -10l19 -26l-6 -15h7l-4 -37l-4 -6l6 -5l-8 -13l3 -9h5v-7l-5 -2l5 -2v-11l3 -5v-23l-4 -8l4 -11l-3 -9l3 -25l-5 -8v-11l-5 -5 v-4l10 -3l1 -18l-5 -12l5 -7l-1 -6l-11 -3l3 -9l8 -4l1 -9l-6 -3v-5l-3 -4v-17l-8 -2l8 -7v-9h-5l3 -7v-7l2 -2l-2 -9l3 -12l-3 -9l3 -11l-3 -3l-2 -14l-5 -5l5 -16v-19l-7 -6l8 -17l-6 -11v-7l-5 -10l3 -4l2 -11l-5 -9l3 -8l-2 -7v-25l-5 -32l3 -7v-26l-6 -9l-3 -11h-17 l-7 -3l-7 3zM375 313l4 20h8v-3l-8 -6v-9l26 3l-7 11l-10 4l14 6l-4 4l-10 -4h-8l-4 -12l-9 -9zM319 559h5v-3l7 -4l3 4l6 -6l-3 -5l-4 -2l-2 -4l-3 2v-7l-4 -5l-5 5v25zM422 320l8 9h11v6l-11 4v5l-3 4l-4 -13h-14v-2zM144 312l16 5v12l3 6l-6 3l-6 -4l-3 -10zM166 384l8 3 l-3 11h-6l-8 4v-9l5 -4h4v-5zM438 370l9 4l-3 3l3 4h-12v3h-7v-3zM282 550l3 4l6 -6l-6 -9v-5h-3l-4 12zM196 371l-5 5l17 -4l-4 -9l-14 3zM409 349h9v10l5 1v3l-5 2v7l-4 -13l-3 -3zM370 338h5v4h5l-3 12l-5 2l-2 -5v-13zM458 381l5 8l-4 10l-6 -6v-7zM418 294l5 -6h7l2 -4 l-9 -5l-5 5v10zM224 378l2 3l-1 12h-4l-4 -9zM166 416h5v7l7 2v6l-12 -7v-8zM428 249l9 -1l2 -5l-2 -5l-9 6v5zM282 494h5l4 5l5 2v7l-14 -11v-3zM190 333v-7h-15l11 7h4zM299 478l-5 10l-7 -5v-3h2zM291 529h10v-7l-10 2v5zM255 317l9 -3v-6l-9 2v7zM423 309l11 -3l-4 -3 h-7l-4 3zM155 411l7 5v3h-10zM183 430h13l3 4h-12zM310 541v-7h-7v7h7zM412 303l5 -7h-12v2zM201 395l3 3l-3 6h-5v-5zM381 285l10 -3v-3h-10v6zM179 341l6 -6l-7 -2l-4 2zM400 268l3 -3l-4 -7l-5 4zM430 389l11 9h-4l-7 -5v-4zM228 364l10 8l-13 -4zM358 335l8 3v3l-8 1v-7 zM400 369v5l-4 3l-5 -4zM428 261l7 -3l-9 -4v10zM251 577l-8 -4v9zM324 479h9v4h-9v-4zM448 349v10h-4v-5zM467 582h4v5l3 4h-4zM432 349h5v7l-5 -5v-2zM462 575v3l-4 4v-7h4zM448 444l-1 9l-4 -3zM67 430l5 2l-2 5zM351 314h3l3 4h-3zM175 608h3v4h-3v-4zM456 409l4 2v3h-2 zM273 501l4 5v5zM426 372l4 2l-4 3v-5zM357 324l1 5h-4zM435 446l2 4l-5 -1zM458 587h4l-4 4v-4zM418 587h5v2h-2zM271 509v4l-3 -2zM460 351h2v3h-2v-3zM462 360v5l-2 -2zM462 419l5 1h-5v-1zM183 409v2h-2z" />
<glyph unicode="n" horiz-adv-x="553" d="M435 30l-5 21l-4 35l-14 13h-9v-4l-12 1l-2 8l-7 7l-18 5l-3 6l3 5l-12 4v12l-9 14l-9 3l8 7l-4 10l-16 -9v3l7 9l-4 5l-7 2v11h-12l-5 -4v-5h-4l-5 7v5l3 5l-4 7l4 4l-7 4h-12v7l4 -3l6 11l-10 4v5l7 6v7h-5l4 11l-6 3v14h-12l3 10l2 -3l5 3v2l-5 2v2h-12v6l8 3v8l-19 7 h-23v6l4 -2l3 5h7l-2 9l-8 -5h-4v10l3 4l-3 2l-2 10l-3 4l3 2l-3 8l-7 4l-9 -3v5l7 7v18h-7l-4 -7l-7 4l6 11h14v12l-6 10h-3v-6l-11 9l9 2l-9 12v5l-14 -3l-16 7h10l4 8l-9 5v6l10 3v8l-6 7l-3 10l-7 -3l-18 2l-2 -7l4 -7l-7 2l12 -15h-18v-6l6 -4l-4 -14l5 -11l13 13 l3 -11l-6 -5l3 -13l3 -4l-5 -5v-16l-8 -5l10 -7h10l8 -6l6 13l9 -9v-5l-8 -2l-5 -6l-8 8h-21v-5l3 -2l5 6l8 -9v-4l-9 -5h-13v-9l-5 -2l2 -2l9 9l3 -2h16l2 -3l-8 -3l3 -4h12v-9l-9 3h-10l-3 10l-6 -6l-3 -14l-8 -4v-9l5 2l1 4h9l8 3v-5l-17 -4l-2 -17h2l3 5l2 -9l3 -5 l-10 -13l3 -8l-7 -3l5 -11l-5 -18h6v-11l-4 -3v-5h9v-11h-5l-4 -5l4 -6l3 -24l2 -2l-6 -3l-5 -9l2 -76l3 -3l-3 -8v-12l-6 -5l6 -10l-5 -8l-2 -16l-14 -16h-16l-23 10v8l-5 14v11l-3 9l3 12l-2 38l-4 9l3 12l-7 21l4 3v35l4 10l-3 21l6 7l-5 11v32l2 9l-4 10l4 11l-4 7l2 18 l4 8l-4 9v20l4 23l3 5h-5v18l2 3v12l5 6h-7v25l5 5v4l-7 8v12l-3 1l5 35v14l-7 7v7h3v11l-4 6l6 15l2 88l16 14h22l21 -14l3 -12l8 -13v-12h4l2 -7l6 -3l-12 -13l4 -12l9 12v9l4 4l3 10l-5 -3v8l25 12v-8h5l7 -14l5 -4v-5l9 -9l12 -6v-10l7 -7v-10l14 -18l4 -12v-9h14v-7 l-7 -6l5 -8l5 -1l15 -17l12 -9v-14l5 -5l2 -14l9 5h14v-11l5 -5l15 -8l7 -15l14 4l12 -8v-8h-7l-2 5h-9l2 -19l-2 -4l4 -2l-2 -3l-14 -8v-4l12 -1v-5h13v-3h-2v-8l11 -5l9 -9l8 9h4l3 7h-3v7l14 -3h12l-5 5v5h-5l-4 6l2 5h5l3 -3l5 3l-13 7h14l5 -9l2 2v7l3 6l-14 6l4 9h6 l4 7v9l-6 6l-6 -6v-9h-2l-3 11l5 4v10h7v5l-7 2v4l9 3v6l9 7l-5 9l4 7l-8 10l-5 14l9 3v15l-3 5l4 8l-5 11l4 13v79l5 9v12l16 16h19l5 -3h9l11 -9l8 -14l-4 -10l8 -8v-30l-4 -17l4 -11v-16l-5 -2l3 -3l5 -14l1 -25l-2 -5l4 -20l-4 -8l7 -23l-6 -1l4 -19h-7v-11l4 -9h9v-10 h-9l3 -10l8 -3l-3 -15l-6 -8l3 -4l-6 -18l1 -16h-4v-7l11 -10l-8 -6v-9h4l6 -6l-6 -18l-4 -4v-11h10v6l8 3l3 -4l-12 -12h-8l3 -5v-9l11 -12l-2 -16l-3 10h-6l-6 -7l6 -5l6 -28l-10 -13l4 -7v-12l-3 -5l8 -2v-2l-8 -5l-1 -7l-4 -4l4 -4l-5 -9v-9l-3 -1v-5l3 -3v-16l-5 -5 l2 -1l3 -10l-3 -7l3 -3l-5 -9v-22l-10 -10v-11h-10l-5 -5h-12l-17 7zM370 371l6 3v6l6 8v11l5 2l15 -5l-8 -6l-3 -14l-14 -17l-7 6v6zM333 460l-4 -8l-2 3v15l4 10l15 -7v-5l6 -11l-9 -9h-5v12h-5zM246 263l5 3v10l14 -6l2 -12l-2 -4l-5 2l-9 -5l-10 5zM325 406h6l5 4l4 12 l-6 3h-18v-7l4 -8l5 -1v-3zM244 300l-10 10l5 6h15l-3 -14v-21l-3 3zM158 519l-2 21h-16v-5l5 -4v-8zM381 420l-7 10l6 6l2 -6h5l3 5l4 -4v-4l5 -7v-5h-3l-5 5h-10zM185 344l11 14l1 -9h10v-8l-16 -6v9h-6zM299 499l8 -3l-3 -9l-3 -2v-10l-2 -2l-8 8zM346 494l-8 -3v5h5 l8 11l8 -13l5 -3l-12 -4l-4 9zM172 427v3l12 4l2 5l2 -8l-2 -6l-9 -6l-2 6zM167 418l8 -3l6 3v-9h-15l-4 -2l-1 6zM364 392l-3 3l3 4l-3 5v6h5l4 -9v-11l-4 2h-2zM200 298h7l-2 -5l9 -3v-2l-11 -5l-3 3v12zM370 448v4l8 5v-17h-8l-2 3zM308 430l14 9v4l-6 -3h-10v-9z M133 544h7l2 3l9 3l-2 4h-9zM320 524l13 6l-6 -14l-9 4zM239 358v11l-7 2l-4 -8zM138 581l11 3l-4 8l-10 -5zM221 384l8 5l-6 6h-6zM176 262l3 -6l-9 -9v9zM359 485l2 -5h5l-5 -5h-6v10h4zM420 97l6 7l-7 7l-2 -7zM191 290v-9h-7v9h7zM299 198h5v12l-8 -8zM226 371h4v8l-4 1 l-4 -2zM209 365l5 2v-7h-9v5h4zM194 383l4 -9l-13 5zM128 374h8v6h-8v-6zM306 445v7l-3 4l-5 -6l6 -2zM253 565h3l-3 -9l-5 5zM202 247h3v-7l-7 3zM343 439h12l-9 -5l-3 2v3zM126 499h5l5 4l-7 2zM385 457h2v-9l-6 5zM399 349v6h-5v-6h5zM385 482v-7l-5 -2v5zM241 286h3v-7 l-5 2zM278 529v-8l-6 4zM133 515h4v6l-6 -4zM256 256v4l-3 3l-2 -5zM136 440h4v5l-4 -2v-3zM514 129v-4h-4v4h4zM241 332l3 3l-3 2l-2 -2zM396 318l3 2v3h-3v-5zM131 388h5v2h-3zM126 401h5l-5 3v-3zM299 440h2v3h-2v-3zM405 349l3 4l-5 -3zM271 487h3l-3 3v-3zM140 410v3 h-3zM412 355h3v3zM507 422h3l-3 3v-3zM137 559l3 2h-3v-2zM137 425h3v2zM235 376h2v3zM331 469h5l-2 1zM308 210l2 2h-2v-2zM290 256h2v2zM419 344v2h-2zM338 464h2l-2 2v-2zM151 379h3l-3 1v-1zM163 406h-2l1 1z" />
<glyph unicode="o" d="M315 5h-7l-19 9v8l-7 -4l-2 15l-2 6l7 7v13l12 8l20 2l-6 3l-7 -4l4 10h9l9 9l3 -12l31 5l4 10h4l11 12l17 10l20 30v20l8 8l-5 6v6l4 5v10l-2 4v21l-9 5l7 6v7l-3 7l3 2v8l6 11l-9 22l7 8v19l-4 1v8l4 4v19l-2 4l2 5l-3 9h6v44l3 22l-3 8v9l-3 7l7 7v12l-7 35l4 12 l-5 32l-6 6l-5 19h-11v11l-12 3l-7 7v6h-11l-11 11l-8 -4l-6 8l-33 1l-14 8l-1 6l-10 -3v8l-5 5v6h7l-2 5l7 16l7 3l9 9h21l3 -4l17 6h34l26 -16v-6l12 -4l18 -25h10l7 -6l2 -8l16 -16l14 -20l10 -10v-18l-3 -5l3 -23l-3 -4l4 -12v-35l-2 -6l2 -3v-11l3 -3l-3 -14l-4 -6 l5 -11l-2 -4l4 -10l-4 -15l1 -23l7 -5l-7 -18l-1 -23l2 -6l-2 -14l-4 -7l5 -5v-12h-10l4 -14h6l-5 -15l4 -7l-3 -3v-7l4 -5v-21l-7 -7l6 -16v-18l-3 -4l-2 -12l-5 -3l7 -14h-2v-6l-4 -7h4v-3l-11 -10l4 -8l-14 -14l-4 -7l-12 -11l-4 -7h-5l-5 -5v-3l-14 -15l-10 -7l-7 -11 l-19 -11l-3 3l-10 -4l-9 -9h-14l-2 2l-20 -5h-9l-9 8zM156 16l-5 2l-11 11l-10 4l-4 6l-5 3l-3 6l-12 5v8l-6 4l-4 7l-23 19l-17 22v12l-7 10l5 8l-6 22l4 6v35l2 6v21l-2 7l2 12v36l4 40l-4 17l4 59l-2 7v16l5 19l-3 6l-2 42l5 5l-3 4l-2 19l-2 2l2 9v35l2 7l-3 3l22 34h5 l15 20l15 8l10 18l20 14l21 12l23 7h31l14 -3h15l15 -6l3 -10l7 -7v-7h3l-3 -21l-4 -5h-8l-9 -9h-13l-7 -5l-18 4l-8 -3l-3 -5l-4 3l-5 -3h-5l-13 -16h-5l-8 -5l4 -6l-5 -6h-4l-5 -4l-4 -9h-7l-4 -13l-9 -8v-11l5 -5l-6 -7v-4h4l2 -3l-5 -2v-4l5 -9l-6 -5l-3 -32l10 -5 l-3 -3v-16l-9 -14l8 -7l-8 -9l4 -15l-6 -11l4 -4h3v-21l-4 -3l4 -6l-3 -4v-8l-7 -7l5 -9v-6l-6 -7l6 -5v-14l-3 -11l3 -5v-33l-6 -5l3 -4v-11l3 -5v-7l5 -3v-6l4 -4v-5l-7 -5v-10l3 -6l-5 -9v-15l5 -4l5 -11l13 -10v-5l12 -13h9l8 -16l13 -2l9 -12h6l3 4h9l4 -4l9 2l12 -6 l9 5l5 -8v-7l12 -12v-9l-9 -6l-6 -18l-6 -6h-6l-10 -4l-20 4l-20 -4l-25 4z" />
<glyph unicode="p" horiz-adv-x="510" d="M68 20l-4 25l5 11l-3 6l-3 35l5 11l-2 7v25l-2 5l4 8l-4 17l-2 23l2 7v53l-6 22l4 6l5 17l-4 20l-4 4l5 7v10l-4 6l8 13l-3 7l5 13l-5 11l6 3v46l-3 4v19l4 10l-4 4v25l5 7v7h-7l3 15l-4 8l3 10l7 5l-9 34l6 5l-4 13l3 8v24l4 15v15l5 3l5 16l1 -3l8 8h12l1 2l14 2 l16 -16l10 -15l9 4l5 -5l-3 -5l-11 3l-5 -5l4 -7v-62l-6 -5l2 -7l4 3h5l-2 -26l-7 -14l4 -5l-4 -10l3 -11l-3 -9l13 -17l-10 -8l4 -7l7 3l2 -3l-2 -2v-6l-7 4l-3 -3v-9l5 -12l5 -2l-2 -2h-9l-3 -7l4 -4l5 -26h8l4 -9l4 5l9 4v-7l5 -2l6 -9l-5 -20l4 -4l-6 -2l-4 2h-13l-5 -4 l-4 3l-5 -6v-4l5 -5h4l6 9l6 3l5 -5v-7l6 7h3v-7l-5 -4h-11l-3 -11h5l9 4h5v5l7 6h6l13 -14l5 3l-8 17l2 6h5l7 -5l2 -11l-4 -8l13 7l8 -13l4 7l2 -3h7v16l8 4l4 -3l-6 -6l7 -13l14 10h7l-4 -8l27 -1l8 6l7 -6h21l6 4l-2 2l2 3h12v4l-5 5v4h5l6 -7l8 -2l2 12l14 5v11l-3 2v7 h17l9 10v15l8 11l-6 8v9l6 6l-8 15v5h4v30l-4 4v11l-7 4l14 13v21l-5 4l-3 13l-9 4l3 8l-2 5l-12 5h-5v12l-6 6l-11 4l-5 5l-21 12h-10l-3 4l-10 -6h-17l-9 9h-7l-7 -7l-11 3h-28l-5 4l-11 -3l-19 -1l-4 -3v3h-5l-2 4h-14l-7 7h-12v23l-4 18l15 16l31 7h30l5 -4h13l5 2h16 l5 -2h23l10 2l18 -2l4 2l10 -8l7 4l18 2l18 -11h8l13 -10v-5l14 -6l9 -9l10 -19l11 -4l3 -7l11 -3l3 -13l17 -17v-11l8 -4v-3h-5l-3 -14l10 -10l-5 -11l-2 -16l2 -5v-12l5 -4l-3 -15l3 -7l-5 -12l3 -5l-3 -11l3 -6v-9l2 -3l-2 -13l-3 -2v-5l3 -2v-11l-4 -4l7 -7l-6 -7l3 -7 l-9 -13l-8 -7l-6 -11v-4l-6 -4l-10 -16l-8 -4l-2 -5l-25 -18l-9 -2l-6 -14h-15l-3 -14h-9l-7 -7h-5l-4 3l-9 -5h-30l-7 -3h-10l-16 -6l-4 5l-12 1l-2 3h-14l-15 7l-10 -10l2 -6h-16l-7 14h-7l-2 -3h-19l-3 5l-4 -10l-5 -1l-2 8l-11 5l-7 -2l-2 5l-6 -6l3 -4l10 -3v-15 l-10 -7l8 -10l-3 -12l-11 3l-3 -2l4 -9h12v-5l-10 3l-11 -21v-12l7 -3l-8 -7l6 -6l-5 -9v-7l-4 -5v-4l3 -3v-6l-5 -5l5 -14l1 -28l-9 -9v-34l-13 -14l-9 3l-17 -6l-10 4zM165 421l12 6l5 -9l-11 -6l4 -6h-4zM151 376h5l3 13l-9 3l-6 -6l2 -4zM163 364l11 5l5 -5v7l-5 6 l-11 -8v-5zM260 369v4l-3 3l5 3l4 -10l-4 -7l-5 5zM196 378l-3 4l9 -2l-2 -4l2 -7h-4zM151 322l5 8l-5 4l-4 -7zM158 438h5v-9l-8 6zM179 227l7 6l2 -3l-2 -7l-7 3v1zM154 242l5 3l-9 4zM227 244l5 3l-5 1v-4zM176 385h3l-4 3zM142 420h3l-3 2v-2z" />
<glyph unicode="q" d="M266 -81l-5 8v9l-7 28l3 14h-5l-9 6v14l4 7l-9 10l9 -3l5 12l-2 4l-13 -2l-10 7v-18l-7 -2v-3l-7 -9l-9 -7l-5 2h-13v9h-21l-14 8l-15 15l-11 7l-4 8h-7l-2 9l-6 2l-1 4l-14 5v12h-5l-14 11l3 7l-23 19l6 2l-2 23l-6 13l6 3v10l5 11l-12 3l3 14l-4 8h4l4 5l-2 34h4l-4 16 l7 18l-8 5l3 11v30l-2 13l2 7v28l-6 25l4 35l-4 23l5 27l-7 6l4 10v21l3 7l-4 11l4 19l-3 10v13l26 42h9l6 12l19 18l3 7l11 5l10 11l8 4l8 10l24 5l5 -3l5 3l1 5l10 -5h32l21 -7v-16l9 -2v-10l-5 -13l12 -7l-5 -3h-6l-12 -5l-17 -3l-6 6h-4l-15 -10h-9l-21 -20h-5v-5l-9 -5 l-1 -9l-5 -5h-5l-2 3l-14 -21l-3 -16l7 -3l-4 -4l-5 -13l5 -15l6 -6l-9 -17v-37l-2 -12l4 -18l-8 -36l2 -10l4 -5v-14l-7 -12l6 -6l1 -39l5 -16l4 -5l-5 -9l5 -3l10 5l-2 -15l-8 4l-4 5l-5 -5l9 -19v-18l-2 -4l6 -6l-5 -16l1 -4h12v4l-3 4l13 5l5 -5l-3 -7h-3l-6 -13h-7v-5 h-8l-4 -4l6 -3l6 -14l-3 -5l3 -4l4 -18l5 -5l3 2l1 5l10 -6l-2 -14l4 4l9 3l8 -3v-2h-7l-8 -19h5v5l2 2l3 -2v-5l11 -2v-11l3 -3l8 8l-4 4v9h9l3 -14l-4 -4l4 -7l6 9h7l3 -14h3l4 16l3 2l3 -7l10 -6l2 2v14l4 3l-4 6h-2v-5l-4 -2l-7 6l8 6v20l3 5v16h-7l3 7v12l6 1v10l14 10 l10 4h9l9 6h8l-4 -6l12 -12l5 -18l15 -4l3 -3l-21 -2v-12l9 -2l-4 -32h2v-8l-2 -11l-2 -2l6 -3l10 25l17 -17l-6 -5l-11 -4v-8l-5 -9h-7v-7h5l9 5l-2 4h7v7l4 7l5 -4h9l2 2l-7 7v11l3 5l2 -3l7 5v-7l-9 -7l6 -3l9 16l15 4v11l-3 9h10l2 -2l-4 -2v-7h7l3 -9l8 7l-6 8l6 15 l3 -10h11v7l2 3l-2 4l5 12v11l4 4h-4v6l4 2v9l-11 3v6h13v37l-5 8l7 8l-4 12v53l2 2v9l-9 10l4 3l3 25l-5 12l5 10v33l2 12l-4 2l5 2l-3 23v26l-2 11l3 4l-6 26l5 5v11l-4 5v5l-4 3l4 8l-3 7l-7 5v12l-10 6l-8 -5l2 8l-7 11v8l-7 -3v5l-5 4l-9 2l-8 9l-8 -5l-2 5l-13 5 l-8 -2l-25 2l-12 24l-7 -4v10l9 21l26 9l7 7l44 -2l2 2h16l9 -7h6l6 -10l15 -7l6 -11v-5l14 -11l9 -2l4 -7l14 -14l3 -7l13 -14l8 -16v-18l4 -5v-44l2 -4v-10l-5 -5v-13l4 -8l-4 -11h3l2 -4l-3 -8l3 -6l-6 -12l1 -7l5 -4v-26l4 -14l-4 -7l-2 -9v-30l2 -4l-4 -13l4 -22l-2 -2 l5 -30l-5 -3l-3 -6l3 -15l2 -1v-12l-2 -5v-21l6 -6v-12l-4 -4l3 -6l-3 -11v-12l3 -1v-5l-8 -7v-21l-4 -9h-2l-3 -9l-6 -8l-7 -2l-8 -11l-4 -12l-4 4l-9 -4l-4 -16l-13 -2l-8 -17l-21 -13l-3 -5h-5l-6 -10l-4 4l-15 -6l-15 4l-11 11h-8l-4 12l-9 8l-2 5l-2 -3v-7l2 -2v-5 l9 -14l-6 -5l-5 8h-5l-5 -13l5 -5h5v-7l-3 -2l-2 -8h-2l-2 5h-3v-12l7 -9l-2 -14l6 -5l-13 -5l5 -3l-9 -7l-4 -10h-20l-3 -6l-6 6zM238 38h9v20h-6l2 8h-6v-10l-5 -8l-7 -3l9 -2zM201 114l-4 4l9 7l7 -4l-5 -5l6 -11h-7zM375 79h4l6 6l-4 6h-4v-7l-5 -2zM230 159l4 -3v-5 l-3 -3l-5 7zM220 105l4 -4l-6 -5l-2 4zM370 70l2 5h-4v2l-6 -3zM126 217l1 12l-4 -2zM342 33h3v2h-3v-2zM336 77l2 2h-2v-2z" />
<glyph unicode="r" horiz-adv-x="508" d="M85 14l-13 24l-2 47l-3 9v21l3 10l-3 24l4 7l-6 19v12l6 10l-7 13l6 25v12l4 4l-7 14v13l-2 5v30l6 12l-13 9l7 5l-2 2l2 5v24l-4 5l6 10l-4 4l7 7v7l5 6l-3 3h-5l3 12v35l-5 4l3 7l-4 11l6 5l2 9l-4 16l6 23v19l-2 5v12l-5 24l5 5v30l2 4v29l21 20h14l16 -4l10 -9l5 -20 l4 3l1 10l5 -3l5 -10l5 3v10l25 25l5 -5l14 5h11l10 5l15 -3h19l7 -5l3 7l8 -4l7 2l3 4l9 -6h32l9 -4l14 6l21 -2l11 -3v-8l21 -6l3 -7l13 -13l3 -7l5 -2l10 -12l13 -7l5 -13l11 -7l6 -14v-21h9v-7l-4 -5v-11l-6 -6l9 -8l-3 -19l3 -10l-5 -11v-13l4 -5v-12l-5 -10l6 -12 l-3 -8v-9l-2 -11l3 -3l-14 -26l-10 -11l-11 -4l-3 -14v-13l-5 8l-11 -6h4l4 -3l-10 -11l-8 -4l-9 -14l-11 -5h-9v-9l-5 -5h-3v9l-18 -4l-2 -3h-10v-9h-5l4 -6l-3 -3l3 -9h9l4 -3h13l-4 -18l7 -6l-4 -3h-5l-2 -3h-5l-4 3v-11l16 -10l6 3l10 -12h-2v-8l-5 -3l12 -15v-12l-3 -1 l3 -3v-11l9 -3l5 -18v-14l6 -21l5 -4v-7l5 -5l5 -14v-9l6 -7v-12l4 -10l-13 -5v-8l-12 -4h-14l-1 3h-8l-21 24v7l-8 4l-5 15l-5 4l-18 38l-5 3l-3 16l-12 15h-12l-4 13l4 10l-7 3l-5 -3v12l-5 4l-2 5h-26l-7 7l4 3l12 -7l4 22l6 -2l4 5l-9 2l-4 4h-5l-9 5l2 4l-2 8h-5v7l3 8 l-3 3l14 28l-18 14l-3 -3v-6l-6 -17h4l3 7l4 -5v-11l-9 -9l2 -3l-20 -2l-5 5v11h2v3h-7l-7 6l-6 -6l-12 2l4 2v9l5 5h-12l-5 5h-10l10 -11l3 -14l-10 5l-3 -10l4 4l3 -3l-15 -15l9 -12l-5 -10l5 -5v-8h-7l-4 12h-5v-12l5 -4v-21h-7l-3 -2l3 -5h7v-14l-7 -5v-11l7 -14h7v-8 l-7 -10h-7v-23l3 -4l-6 -10l-1 -7h-3v-30l-2 -8l-14 -18l-20 -5l-3 4h-17zM155 350l16 13v6h9l4 -3l6 12l23 -2l-3 4l5 9h2l-2 -16l2 -4h5v7h13l3 6l-12 4l-4 -4l-3 6l7 3l3 5l7 -5l-2 -5l15 3l-6 -7v-9l17 -4l6 7h4l3 -7l9 4l5 5h4l3 4l14 -3l9 8l-3 4l3 12l7 7l-3 -28 l6 -13h12l12 11h15l3 7l9 9h5l7 12l8 7l1 39l3 5l-3 6v12l5 4v9l-9 20l-7 6v7h5l11 14v7l-2 2l-3 16l-4 8l-12 1l-6 12v9l-5 -2h-12l-2 12l-4 4l-17 3l-4 4h-9l-10 -11v4l-11 6v-10h-5l-2 -3h-7v7l-5 5h-14l-4 -5l-10 7h-20l-5 -4l-16 2l-5 4v-6l-5 -7l-18 13h-7l-2 5l-7 -7 l-5 5l-2 8l-7 3l-2 3h-5l-6 -16l6 -10l-5 -5l3 -12l-5 -12l12 -10l-3 -11l-16 -7h9l8 -4v-8h-9v-8l6 -4v-4h-9v-5l14 -6h10l1 -3l-5 -6l-8 4l-10 -25l10 -3v-2l-12 -6l3 -6v-16l7 -17l-6 -15l-1 -9h9l8 7l5 -5h5l16 12l4 -8h5v-2l-6 -2v2h-10l-5 -4v-6l5 -1l10 4l14 -3l3 -6 l-45 -5v-4l4 -5l-1 -7h-8l-2 -14l-2 -2zM192 433l4 17l12 -12v-14l-4 -4h-5v17zM182 211l5 6h3v-5l11 4v-4l-8 -15h-8l2 5zM145 370h3l2 10l5 5l4 12l-16 -7l2 -3v-17zM226 253h8v9l-8 7l-8 -8zM164 458l11 -4l8 -7l-5 -5h-4l-8 8zM186 195l6 -8l-5 -5l-7 -3l-3 7zM357 242 l6 6v8h-3l-4 -5h-8v-4zM294 544h6l3 3l9 -3v-4h-12l-4 -3l-7 3zM304 428l5 -11l-8 -3l-7 4zM208 412l9 8v-15l-9 3v4zM231 214h7l2 -5l-6 -7l-6 9zM259 253l5 16h-8v-13zM217 274l5 7v5h-7l-2 -9zM252 429l11 2l-6 -10l-10 5zM361 289l7 -7l-4 -7l-6 6zM206 187v-3l-11 -6 l-4 5zM204 235h9l4 -3l-10 -5l-3 3v5zM210 292v8l-9 -3v-5h9zM259 454l5 -4l-8 -3v-5l-2 -2l-2 7zM383 245l3 -6l-5 -7l-4 10zM342 438l5 -5v-4h-8v6zM240 420l5 -5l-5 -3l-2 -4l-3 6zM391 430l7 -6l-7 -4l-5 4zM294 562v12l4 -14l-4 -7l-3 5zM367 400l4 -6h-13l9 9v-3z M335 391v-4h-5l-2 -5h-2v9h9zM309 465l3 5l2 -10l-7 -2v5zM180 237l3 -5l-8 -2v7h5zM324 426v-5h-7v8zM272 473l4 -4l-10 -4l-2 3zM367 498l-4 -5h-7v5h11zM204 562l4 2v-15h-4l2 11zM229 555l5 5l6 -2v-5l-6 2h-5zM153 269l2 7l-5 2l-3 -7h3zM279 391l8 -2v-2h-12l-2 2z M201 615h7v5h-7v-5zM369 200h5v7h-5v-7zM162 481l7 -1l-4 -7l-3 4v4zM234 450l2 -8l-7 5zM157 301l3 3v4l-6 3zM317 459h1l-1 -8h-5v3zM226 430h-7l7 8v-8zM199 544l2 -7h-5v4zM196 481h5v-4h-5v4zM178 295h7v2l-7 2v-4zM180 514l3 -4l-8 1zM289 450l2 -3h-7v3h5zM268 429 v-8l-2 -1v6zM358 537l2 -3h-4l-3 3h5zM185 579l-2 -5l-3 2zM153 643l-5 5v-5h5zM171 430l-5 -1v4zM185 500l2 -2h-7v2h5zM178 583h2l-2 -4l-3 2zM252 530l-3 -5v5h3zM347 385l-5 -3v3h5zM300 519v-5h-2v5h2zM395 516h4v5zM287 430h4v-4l-4 3v1zM162 571v-4l-5 4h5zM317 590 l4 -5h-4v5zM309 602l-2 -8v5zM268 281l2 2l-2 3l-2 -3zM377 475h-3v6zM282 597h2v-5l-2 2v3zM174 380h-3l7 5zM174 599h-5l2 3zM231 480l3 -5l-3 2v3zM377 426v-5l-3 3zM234 507h2v-5l-2 3v2zM225 511v-1l-8 1h8zM348 408l-4 -2v2h4zM337 262h2l-4 3zM141 498l4 4v3z M277 585v-6l-2 2zM261 475h-5l3 2zM367 430l2 -1l-6 1h4zM372 410h-5l2 2zM273 516h-3v3zM330 278h3l-3 3v-3zM219 438l-2 -3v3h2zM324 551h-3l3 2v-2zM388 555h-2v3zM259 244l2 3h-2v-3zM289 410v-2l-2 2h2zM377 196l4 1h-3z" />
<glyph unicode="s" horiz-adv-x="527" d="M177 0l-3 -4l-22 17l-16 5l-19 19l-11 14v3l-14 9v9h-8l-13 16l-3 11l-7 4l-4 17v16l-2 5l3 9l-3 17v18l2 4l2 24l3 2l2 7l7 5l16 1l5 3l2 -4l7 4h5v-4l4 -5h5v-3l9 -2l4 -16v-9l3 -9v-9l3 -7l-4 -11l6 -15v-7l6 -16h3l2 5h5v-3l-5 -4v-5l13 -16h12l5 -15l7 -4l4 2h17 l7 -6l25 3l2 -6l12 -6h5l2 -5l7 -7l3 -12h8l3 9l10 10l2 6l18 5h30l7 5l13 2l8 7l2 7l21 14v4l4 6h6l4 6v16l5 2l1 19l5 17l-5 20l3 23l-6 12l6 19v13l-9 -7v7l5 5l-5 4v18l-5 8l-5 2l-2 -4l-12 -7l3 11l7 3v6l-11 5l-15 3l-5 5l-6 -6l-11 11l-5 -14l-3 6l-9 1v-6h-6l-3 9 h-30v9l-11 9l-3 -6h-19l-9 -10l-21 -6h-62v-5l4 -8l-16 13l-8 -3l-4 3v5l-6 4h-7l-17 18l-9 5l-11 10l-4 9l-17 16v5l-4 4v9l-5 5l-4 30v21l-5 8l5 21l-4 50l4 45l9 9l2 8l9 11l4 10l8 2l30 35l16 8l17 12h6l4 9l40 3l5 -5h28l13 -7l16 -16h9v-5l-14 -4l3 -2v-15l2 -4l-4 -9 l-5 -2l-4 2l-11 -7h-19v-5l-5 -5h-7v3l3 2l-8 2l-4 -4h-8l-9 -5h-11l-5 -9l-11 -12v-4l-7 -14l-17 -14v-35l-5 -8l5 -6v-4l8 -9l7 4h6v-13l-22 8v-8l4 -8h6l16 -20l-16 -10v-4l12 -14v-7l8 -5l1 -4l8 -8l25 -1l13 -3l5 3l5 -3l21 -2l7 2l9 -5l2 -6l7 6l3 -1v-5l-5 -5l11 -14 v-6l12 13v7h-7v5l5 5l2 -3l12 3l10 14l5 -10l38 2l7 7l9 -9h32l4 -7l11 -2l11 -7l4 -5h5l5 -10l20 -18h3l9 -9l-2 -5l11 -5l5 -20v-18l7 -8l2 -31l-6 -7l4 -3v-41l4 -4l-11 -10v-7l4 -2l-2 -3l2 -3l-3 -48h3l-10 -24l-15 -15v-11l-9 -3l-10 -16l-4 -3v-6l-7 -7l-10 -4 l-20 -23l-37 -5l-6 -4l-17 4v2l-5 -2l-9 4h-12l-4 2l-4 -4l-16 9l-8 7l5 9l-4 4l-8 -6l-2 2h-11l-4 -13l-13 -12l-16 -5h-7l-5 -5l-16 5h-23zM420 500l-12 14l-7 4v13l-5 6l10 11l-15 18l-6 3l-2 4v11l-16 3v4l-8 8h-3l-5 9h-17l-6 2h-17l-13 7h-5l-14 14l-5 2l3 11l-5 6h-3 l5 6l3 9h-8v5h8l4 7l17 7h22l8 2h25l6 -3l8 4l23 -17h4l16 -16h5l7 -7h3l15 -19l12 -8l12 -17v-12l5 -4v-9l4 -3v-55l-21 -23h-12l-13 4zM272 339l4 9l-7 6h-4l-2 -5l6 -5zM316 474v-7h-5v7h5zM298 300v-4l-3 -2l-4 6h7zM268 307l-5 -4v9zM283 663l3 2v3h-5v-3zM466 557h3 l-3 3v-3zM277 652h2v2h-2v-2z" />
<glyph unicode="t" horiz-adv-x="493" d="M210 35v73l-3 5l-2 19l2 4v44l-2 9l4 13l-8 12l6 13l-3 5l8 12l-2 3h-5v16l6 5l-6 11v12l2 5v13l3 5l-6 10l4 14l-5 9l8 12l-6 15l2 5l-2 28l-3 6v28l6 10l-6 10l-2 41l2 10l1 25l-8 8h-6l9 5h4v9l-4 -2l-4 9l7 13l-6 6l8 5l-5 11l-3 1v8h6l1 -3h8l1 3l11 3l-6 4l-24 -3 l-3 -7l-9 7l-29 8l-4 -3l-2 3l-3 -3h-7l-5 3h-18l-4 -3h-12l-9 4h-30l-29 9l-15 14v26l9 3v8h24l2 3l13 5h29l18 -3l2 3h19l10 -3l33 3l14 -3l3 3h12l13 -7l17 9l1 -7h8l22 7h23v4h3l4 -4h8l2 3l9 -4l14 5l2 -2h28l5 -2l20 -2l10 -4l6 4h12l5 -3h9l4 3l5 -3h7l18 -5v-7h14 v-20l-2 -7l4 -7l-12 -6l-5 -11l-6 7l-4 -9l-10 3l-4 -3l-16 -1l-2 -3h-23l-7 -3h-23l-9 -4l-7 6l-22 -5l-9 6l-18 -3l-4 -6l-6 -3l6 -2l-6 -4h-4l-9 -5v-3h11v-4l15 -4l-6 -10v-9l3 -3l-4 -2l-8 -11l2 -5v-18h7v-10h-11v-6l-2 -8h3l3 -6l10 -7v-10h-6l-5 10h-3l3 -11l-3 -3 v-5l3 -3l-5 -7v-9l4 -4v-7l-5 -11l5 -8v-18l-9 -18v-19l2 -2v-12l-4 -14l2 -21l5 -1v-10l-9 -9l4 -10l-2 -1l7 -30l-7 -10l4 -5l-2 -11l3 -19l-6 -14l5 -11v-7l-5 -5l3 -5l-2 -23l2 -6l-2 -7l-2 -44l-3 -7l3 -7v-16l-3 -4v-14l-2 -3l2 -2v-15l-7 -12l-9 -5h-23l-13 12z M291 574v7h-6v3l-9 -4l3 -3zM225 601h6l4 6l5 3v3l-18 -10zM283 610l-4 4h-14v-4h18zM258 604v3l-5 5l-9 -5h5z" />
<glyph unicode="u" horiz-adv-x="538" d="M204 1l-4 4l-38 11l-18 19l-12 6v4l-14 16l-11 5l-3 10l-29 25l-5 56l3 12l-3 12v14l-8 7l3 6l6 3l-4 6v20l4 7l-6 6v14l-5 5l3 7l2 25l-2 5v15l-5 3l5 5v7l-5 4l3 2l2 17l-3 14l3 23l2 51l-2 10l4 13l-4 13v12l2 2l2 51l3 13l-3 8v21l3 12l-4 6l4 12l-3 4l5 12v23l12 13 h16l17 -5l12 -23l-4 -17l6 -8l-4 -4v-21h3l6 -25v-21l-2 -7l7 -16v-16l3 -5v-12l-8 -13v-7l6 -14l-4 -30l6 -11l-3 -10v-32l3 -3l-3 -2l-2 -9l2 -4v-12l4 -9v-9l3 -6v-15l-4 -8l-3 -2l4 -14l3 -2l-4 -2v-10l-3 -1l3 -3h4v-7l-4 -9v-10l-8 -9h7l2 8l6 -6v-6h-6l-4 -6l7 -3v-8 l-3 -4v-9l3 -3v-5l7 -6l-8 -8l6 -6v-16l-3 -13l6 -10l10 -5l5 -12l7 -6l4 -8h5l7 -8l7 -4v-10l3 5l7 -4h14l9 5l4 -9l16 -4l10 -10l10 -6l7 -21h-8v-7l4 -5l-1 -4h-3l-5 9v-12l-12 -7l-4 -7h-16l-11 3h-21zM345 3l-8 4l-20 3h-11l-8 6v8l-11 11v13l10 5v13l9 -3l1 6l17 6 l7 -3h23l12 12l-3 2l6 3l8 13l7 3l14 18l2 -2l7 6l5 9l-4 9l8 7l5 28l-9 6h9l-3 13v32l6 21l-7 7l2 21l-7 15l8 7l-4 31l2 3l-1 18l6 7l-5 2l-1 24l-3 11v25l3 5v16h-8l5 5l3 13l-4 9l5 23l-4 10v26l3 2l-3 7v21l-2 2l2 11v19l-5 14l3 6v10l2 2l-2 9l2 3l-2 9v7l2 2l5 23 l11 5l12 2l9 4l12 -5l6 -12l5 -5v-4l3 -3l-5 -4l9 -17v-18l-2 -8l4 -20v-14l3 -5v-60l-5 -11l5 -14l7 -4l-7 -19l4 -5v-13l-4 -10v-16l-5 -2l9 -26l-2 -4l4 -35l-5 -5l4 -5l-3 -13v-34l-2 -3l2 -3l-6 -5l4 -13h4v-5l5 -9l-3 -4h3v-3l-5 -4v-10l5 -4l-7 -3l4 -36l5 -3l-5 -2 l4 -3l-6 -16v-39l-2 -16l-5 -11l-6 -5l-3 -7l-5 -5l-12 -18l-10 -4l-4 -11l-13 -13l2 -5h-4l-40 -27l-13 -3h-14l-7 -6l-7 2h-2zM361 102l6 -9l-4 -2l-2 2v9zM141 319h3v2h-3v-2z" />
<glyph unicode="v" horiz-adv-x="500" d="M187 7l-7 4l-9 14l-6 26l-8 11v12l-4 7l-3 15l-4 6l2 4l-2 2l-2 12l-3 5l-4 12l-2 30l-9 7l-4 13l4 7l-5 12l-6 2l5 17l-8 4l-3 7l-5 4l8 5l-6 11l4 9l-8 12v9l-5 7l-6 -4v22h6l-2 14l-7 10v15l-7 19l-8 4l3 7v8h5l-6 9v4l-5 5l5 3v9l-5 2l-3 20l-5 17h-4v18l-7 14l3 11 l-9 18l-10 38v16l-4 7v7l-9 30v36l-3 3v5l17 13h9l2 -2l19 -4l2 -11l9 -8l11 -36l5 -8l4 -25l5 -9v-12l4 -9v-11l10 -10v-5l4 -7l3 -23l4 -4v-14l5 -12l4 -4v-20l-3 -9l8 -8l12 -2l-9 -10l12 -11v-18l9 -2v-5l10 -11l-5 -4l7 -7l-3 -11h3l-6 -12l3 -12l9 -5l7 13l5 3v-8 l5 -11l-13 -3l3 -8l5 -3v-5l-8 -6v-9h14l3 -12l-4 -3l8 -9l9 9h8v-4h6l-4 12h9l9 -10l-3 -3l6 -6v-7h13v30l-2 16l9 5v18h11v7l-14 5l-8 14h4l7 -8h11l5 6v6l10 9v9h-16v5l13 3l4 19l8 -4l4 12l-9 3l-4 4l9 5h9v16l-4 2l1 10h5l8 7l-3 9l7 10l2 24l7 11v10l12 18l7 26v13 l6 8v11l8 19v7l6 9v16l7 16l5 4l3 10l6 7l12 3l2 4h14l14 -4l9 -10v-14l3 -7l-12 -41l-5 -8v-10l-7 -10v-16l-9 -18l3 -14l-15 -14v-5l3 -2l-4 -3l5 -9l-9 -16v-9l-4 -5v-9l-5 -12l-7 -31l-6 -10v-11l-5 -5l-3 -9l-2 -14l9 -6l-11 -10l6 -6l-11 -9v-19l-6 -10v-10l5 -4 l-12 -14v-18l-12 -12l4 -9v-9l-4 -12l-5 -5l-3 -17l-7 -6l4 -4h4l2 -7l-9 -3v-6l6 -10l-13 -7l3 -9v-12h-9l2 -16l-12 -6l2 -5l8 -4l-3 -5v-7h-7l-5 3l-4 -8h-5l-5 -9l-9 -4l-2 -8h-4l-9 9l-6 -10v-19l5 -9l-12 5l3 -15l-2 -4h-5l-2 -8l-9 -6h-32zM217 196l11 2l3 8l13 12 l-10 10h-5v2l-7 -6v-14h7v-4h-16l-3 -6zM225 290l-8 -4l-2 2v7l5 5l2 7h3l2 -9h21v-10l-10 -4l-4 6h-9zM236 335h-14v2l-9 -8l2 6l-2 4h-5v7h9l10 -5h13v8h5v-8l-5 -4l-2 -9l-2 1v6zM215 320l-2 5h7l10 -10l-8 -4v7zM217 228l4 4l-11 7v-11h7zM243 233v9h-5l-3 -9h8z M225 376v-5l-5 -7h-3l4 12h4zM178 383l8 -4v-5h-5zM210 277l5 -9v-5l-5 2v12zM248 221l4 5l5 2l-4 4l-5 -6v-5zM204 307l4 -5l-3 -4l-5 5zM229 176l7 6h-5l-6 -2zM225 236h4v4h-2zM201 233v5h-4zM187 268h3v2h-3v-2zM217 240l3 2h-3v-2z" />
<glyph unicode="w" horiz-adv-x="840" d="M572 7l-14 5l-13 13v14l-10 10l-4 29l-4 5v15l-5 8l-1 20l-12 22v6l-3 4l-2 8l-4 2v26l-5 4v5l-4 3l-3 15l-5 -3l-3 22l3 7l-8 15l-15 7l10 20l-8 19l-9 5v3h-12v4l5 4l-11 4l-3 -5l-4 2v-6l-10 4l9 15l-16 -4l-2 -5h-7l3 5l-3 5l5 2l2 -4l5 2l5 7h7l4 4v7l10 2l-14 12 l-12 5l-5 -3l-4 -9v-5l9 8h5v-8l-8 -4l-18 3l-3 4l-2 -3l4 -9h-6l-4 9l-3 -8l-13 -6v5l6 8v9h12l6 6v12h-9l-4 -5l-9 -4l-5 -12l-7 -9v-16h-9v-5l7 -11l-5 -3v-7l-7 -6h-4v-7l9 -4v-6l-15 -14l4 -8l9 9l9 21l13 -10l-7 -2l3 -3l-7 -2l-2 -16l5 -5h7l7 5l10 -6l-6 -6l-2 3 l-9 2v-7h-8l-12 20l-15 -7l-5 -11l-9 -9l2 -11l12 5h8l-3 -8l-10 -4h-11l-5 -3l7 -16l-2 -2v-11h4l-2 -6l2 -1l-2 -3l-7 3v8l-7 -4l3 -3l-3 -4h-5v-11l-4 -5l2 -2l-8 -4l3 -10l7 -7l-13 -2v-5l4 -4l-9 -3l-9 -12v-6l-7 -4v-13l-3 -4v-6l-11 -8h-12l-4 -4l-3 2v16l-4 10 l-13 9l-3 -3v-10l-4 -11l9 -21l-3 -2v-5l5 -4l-2 -19l-5 -4l-4 -17l-18 -5l-25 4l-16 15v12l-7 17v16l-5 5l-4 10v19l-5 5v26l-9 5l5 13l-5 4v18l-4 5v7l-8 8l4 10l-5 19l-5 5v30l-9 20l-5 5l5 10l-7 15h-4l9 14l-7 3l-6 32v14h-9l-1 46l-5 7l2 14l-9 12v17l-5 12l-3 16 l3 21l-12 23v28l-6 14v9l3 6l-10 29v16l-5 11l3 7v19l10 8l3 -4l12 6l16 -3l9 -6l16 -32l5 -18v-9l3 -4l1 -29l8 -13l1 -17l5 -9v-4l5 -2v-16l2 -3v-16l13 -8l-5 -6l1 -7l3 -2v-10l6 -4v-3l-4 -2v-7l16 -13l-4 -5v-5l2 -2v-11l3 -7l-3 -7l6 -4l-4 -6l3 -5l-3 -4v-11l12 2v-7 l5 -5v-6l-9 -3l1 -5l5 3h7l2 2h6l4 -7l20 -5l-4 -4v-5l-11 3l-8 7h-8l12 -18l-15 -7l2 -3l-5 -3l3 -9h4l7 -14l3 3h6l3 -3l5 5l2 9h-5v7l-5 5v4l8 8l6 -8v-13l7 4h14v-4l-15 -8v-10l6 4l5 -11l11 11l2 5h5l3 -7l9 5l-2 15l-5 9l-10 5h-9v5l3 4l-3 3l5 7l-5 5l8 4l6 -3l5 -8 l-4 -7l-6 -3v-2l10 -5h5l-3 9l12 10l11 3l-9 8v3l11 -4v6l-15 15l8 5l-4 8l-17 -9l-4 -8l-7 8v7l14 7l7 -3l8 8l3 -4h5l2 3h5l3 -3l-6 -8l3 -3h5l5 16l-6 6l13 18l-6 7l3 9l7 2l2 4h-5v16h-4l-2 -4h-7l-5 4l12 3l4 9l9 9h5l-5 -7l5 -2v5l5 6l-7 7v8l5 4l-4 14l15 6v10l11 28 v7l8 6l2 9l9 8l9 4l5 11l8 -14l8 -4h7v-11l5 -5l1 -4l6 14v6l4 5l-7 5v5l-9 8l6 32l-4 10v10l7 13h12l5 7l13 -7h12l9 -9v-7l12 -8l11 -29v-10l4 -4v-5l4 -2l-8 -4l9 -3v-12l6 -5l6 -22l9 -4l-2 -17l9 -6v-3l-5 -3l2 -15h5l4 -3v-4l-4 -2l-2 -10l6 -2l-1 -11l16 -7l6 -8 l-4 -9h-6v-4l4 -5v-4l5 -3v-5l3 -3l-5 -10h-3v-12h5l4 5l2 -2v-5l3 -3l2 5h11v-7l-9 -9v-22l-7 3l-5 -2l3 -5l7 -2l-2 -4l6 2h15l4 -5l-13 -13l4 -3v-9l-4 -3l-4 -13h13l-5 6l6 3l10 -4l2 -5l18 -14v-11h14v-8h7l3 12h2l5 -19h9l-5 15l8 5l-10 8l5 7h11l2 2l-10 4l5 9l-4 16 l-11 -6l-5 5v11l-3 7l10 3l5 -5h4l7 7v18l12 -3v3l-5 5l5 5l4 -2l3 2v16l2 8l7 10l2 17v18h7v14l16 32v5l2 2v10l-3 8l8 12l-2 5l7 6v17l7 9l4 30l3 4l4 26l10 12l3 10l8 3l5 5h23l15 -7l6 -11l2 -28l-5 -2l4 -13l-6 -17v-11l-10 -3l4 -13l-6 -20v-9l-3 -8l4 -7l-5 -6 l-4 -11h-5v-16l-5 -14l-4 -3l6 -16l-8 -12l4 -4l-7 -16l-5 -4l4 -7l-4 -12v-8l-10 -5v-7h3v-15l-4 -9v-5l-3 -4l-5 -14v-8l-6 -10l2 -15l-5 -6l-2 -9h-4v-3l4 -4h5l2 -5l-9 -4l-2 -5l-7 -7v-7l-11 -20l8 -8l-10 -11l3 -7l3 5l9 -4l-2 -6l-8 -2l-4 -7v-11l-5 -5l-6 -20l9 -5 h-9l-8 -3l3 -2l2 -16l-2 -5l-7 4v-19l-9 -5v-5l2 -2l-11 -17h-3l3 -11l-4 -4l-4 4l-11 -4l-6 4l4 7l-9 18h-6l-13 -21l-5 -2v-13l9 -3l-4 -5l5 -13l-3 -17l2 -2l-6 -7l-4 -9h-20zM594 239h16l2 3l14 6v8l-4 -3h-5v3l5 4l2 16l-9 2l-3 8h-18l-13 3l-3 6l-9 -9v-18l-12 -8 l4 -4l8 2l4 5h12l5 -5v-5l8 10h10v-7l-3 -3l3 -2l-18 -7zM187 238h5l-7 11l2 7h5l9 -12l7 3v6l-11 3l3 6l13 6l-4 -9l8 5v7l11 4l6 -6l-4 -11h4l7 10l2 9l-2 6l-14 -2l-7 7l-9 -2l-3 4v5h-4l-5 -9l-2 2l-7 -2l7 -5v-3l-11 -4v-16h-8l5 -5l-2 -12zM398 376l7 7l9 3v-3l17 3 l-3 8l-5 -2l-4 3l-3 -3h-11v11h6l5 10l10 2v18h-12v7l-7 3l7 11v16h-5l2 -16l-4 -4h-7l-5 -10l7 -4l9 -12l-2 -6l-7 -4v-4l-7 -7l3 -9v-18zM564 358l14 8v-8h4v9l8 6v7l12 -2l3 -7l5 -4h-18l-2 -21h-17l-2 -5l-13 13zM444 281l-8 8l-4 -6l-13 -2l-3 2h-9v3l9 7h7l7 5h16l7 4 l3 -6l-3 -6l3 -2l-6 -5v-9h-2zM566 385h-9l-3 -8l-9 12l12 4v4l-9 2l12 2l9 21h4l4 -13l-11 -3v-5l5 -2l-2 -5l4 -11l5 -5v-5h-12v12zM400 312l-11 6v5l7 2l11 -6v-8h12l13 6v-6l-13 -12h-8v8h-6l3 -4l-6 -5l-2 1v13zM195 196l9 4l3 -3l10 10l8 2l-8 5l3 4h9l2 10l-15 -2v-8 l-17 -15l-2 11h-5v-11zM195 385l2 16h7v-4l-4 -4l8 -8l8 -2l-5 -3v-7h-16l-4 -2l-6 4zM596 117l12 3v6h-3v10l-7 8l3 3l3 11h-3l-10 -13h-6v-6l14 -4v-9l-7 -5zM557 299h14l7 8h4v3l-7 3l-2 5h-7l-9 -11v-8zM356 313l3 3l1 7l10 -4v-6l5 10h2l2 -5l-2 -9l-8 -3l-13 3v4z M591 346h8v-12h4l2 7h5l3 -8l-10 -4h-12l-3 9zM377 334l-6 6l4 3l14 3l1 -3l8 -2l-5 -4v-9h-4l-3 4zM555 431l11 23l5 -4h4v-4l-6 -3v-10l-8 -6l-1 2zM601 207h7l3 6l-4 12l-8 4l-4 -12zM599 94l8 12h5l3 11h-5l-7 -4l-2 -5l-5 2l-4 -7l4 -5zM620 399l11 4v-11h-32l14 7h7z M441 258v7h8l4 -5h9v-7l-4 -5l-5 8zM587 424h7l4 4l3 -4h4v-4h-9l-5 -10l-4 3v11zM204 161l4 3l-1 18h-6l-4 -5l4 -4v-5zM366 389h9l4 14h-7v-9l-3 4l-9 -6zM599 184l6 7l-9 -3l6 10h-6l-2 -2l2 -2l-2 -3h-7v-7h12zM347 230l-5 3l3 8l6 -6v-7l3 -2v-8h-5zM386 392h4l-1 18 l-4 4l-4 -6l5 -14v-2zM622 334l4 7h3l2 -7l-5 -5l-4 -9l-4 10zM205 282l3 -4l8 -1l-8 -8l-11 6zM444 244l5 -2v-9l-5 -10l-4 13zM250 328l9 9v9h-4l-7 -14l2 -3v-1zM207 429l6 -14l-5 -2l-7 14zM513 528l-4 3l9 4l3 -15l-8 3v5zM400 470l5 5l2 7l-9 -4l-5 -6zM216 359v-9h-9 v9h9zM227 244l3 10l-5 -3v2h-3l-3 -9h8zM186 286v12h-3l-6 -9zM465 244l-3 3h5l7 -3v-6l-3 -3zM180 326l3 -3v-10h-5l-2 4zM534 459h5l5 -6l-3 -3l-7 3v6zM345 248h-12l12 10v-10zM585 230l6 6l-4 3h-5l-1 -6zM539 526h9v-7l-12 4zM545 436l6 -7l-10 -2v4zM647 355l3 3v9h-5 v-9zM608 230h4l5 5l-4 4l-5 -6v-3zM207 239h6l3 9h-3l-5 -6zM638 418l6 -4l-5 -5l-5 5zM390 445h3l-10 10l-4 -3l5 -2zM603 281l-9 -7v7h9zM402 420v7h-6v-5zM390 562h6v8h-3zM557 517l4 -5l-9 -3v3zM192 367l3 -3v-5h-3l-4 4zM381 253l7 -3l-4 -3h-7l2 1zM336 188l6 -4v-2 h-6l-3 5zM430 402l9 5l-5 4zM246 424h5l-3 -6l-5 4zM582 198l3 2v3h-7v-3zM517 465l4 3l-8 2v-2zM590 152l-5 6l-4 -2zM217 410l-1 -4h-5v4h6zM539 493h2v-6l-6 3zM257 459h4v-5h-4v5zM381 427h5v2l-5 2l-2 -2zM201 230h6v3h-6v-3zM162 334h5v3h-5v-3zM208 119v5h-4v-2z M518 424l3 3l-3 6v-9zM423 399h3l-3 4v-4zM539 348h4v2h-2zM596 166l3 4l-3 -2v-2zM578 244l3 3l-3 1v-4zM569 350h2l-2 5v-5zM615 274l-3 -5v3zM575 6h-9l6 1zM456 334v3h-3zM566 288l3 5l-3 -3v-2zM590 226v2h-3zM252 323h3l-3 2v-2zM458 323l2 5l-2 -3v-2zM449 350h1 l-1 3v-3zM551 307l1 6l-1 -5v-1z" />
<glyph unicode="x" horiz-adv-x="499" d="M23 15l-4 14l4 8l4 3v9l6 6l3 11l5 4l18 35l5 4l3 15l6 3l5 20l4 3l5 9l5 3l5 29l10 10l10 16v7l8 3l-3 7l2 4h3l4 5v11l6 7h3l6 18h8v9l-4 8h4l3 -3l1 10l5 -5v10l7 6h5l2 -6h7v6h13l8 15h-9v9l-5 -5l-3 2v7l12 -3v8l-13 6v19l-16 16l-3 13l-10 15v10l-6 -4l-3 3v16h-9 v14l-3 5l3 2l-3 9h-8l-7 11l-5 20l-14 20v9l-5 5l-1 5l-9 13l-7 17l-8 9v4l-9 18l-2 12l-12 17v4l-9 16v14l-3 6l4 7l12 6l27 -3l31 -25v-8l15 -12l4 -22l14 -12l2 -4l-3 -3l8 -15h5v4l9 -9v-18h10l4 -9l-3 -4l2 -6l5 -2l-3 -6l21 -22l-2 -2v-7l7 -7l3 -10h11l7 21v14h7 l4 -5l-9 -9v-18h-7v-25l20 2l3 7l5 4l3 7l6 -7l2 5l-3 8l6 6l-5 5h-7l-4 9l2 2h9v3l6 5l5 -5l3 4l9 5h5l4 4v9l12 21l5 5v10l9 6l11 18l5 3v5l14 27l4 4v8l8 9l1 4l9 9v5l15 14l20 2l6 3l13 -4l12 -15l-3 -9v-17l-11 -6l-2 -21l-9 -3l-6 -18l-5 -2v-7l-10 -12v-6l-8 -9v-7 l-4 -5v-12l-14 -4l4 -14h-8l-7 -6l7 -3v-7l-5 -12l-3 5l-4 -2v-13l-12 -6l-2 -11v-11l-13 -4l6 -8v-12h-9l-5 9l-3 -19l3 -8l-4 -5l-5 7v7l-11 -11l-5 6l-12 -4l4 -5l-9 -7l8 -8l-5 -6v-4l6 -7l7 -27l10 -10v-4l9 1l4 -4v-14l5 -9l10 -5l3 -10l-6 -6v-9l5 -5h7l4 3l2 -3 l-1 -14l-7 -3l6 -5l12 6v-3l-7 -9l2 -6l7 -7v-10l9 -11l3 -9l-4 -3l13 -16l7 -4v-17l8 -8l3 -10l3 -3l7 -25h7l23 -41l2 -10l5 -6l2 -12h4v-35l-4 -4l-20 -6l-5 4l-15 2l-36 39l3 3l-3 6l-9 7l-12 17l-7 20l-17 21l-6 2l-4 9v8l-6 14l-8 -4l-6 18l-9 -4v-24h6l2 11l2 -10 l6 -2l-6 -7h-10l-4 5l-2 -5v21l-5 2l7 5l-4 9l7 10v15h-8v-9l4 -9h-13v7l-9 -2l13 -13l-8 -5v-5l11 -11l-4 -3l2 -4l-2 -10h-9v21l-3 2v19l-2 11h-10l-17 18l-6 -7v-13l-5 -11l-11 5v-3l-6 -8l-5 3l-3 8l8 4h11l4 9v14h10v7l3 3l-6 6l10 6l9 -4l2 -5l6 -3l4 8l8 -3l5 5h-4 l-5 7h-10l-5 16l-12 -4v-9l-10 -12l-6 -3l-10 -15l-4 -3l6 -7l-4 -4h-11l-8 -5l4 -7l-4 -6l-7 4l-3 -3l3 -7h15v-9l-6 3h-11v-12l-2 -2l-9 8l-5 -11l3 -4v-7l-8 2l-7 -2l-5 -26l-10 -11l-3 -12l-7 -4l-2 -5l-5 -4v-9l-18 -21v-3l-15 -23l-13 -4l-26 -5l-15 7v10zM202 288h14 l-2 12l-5 5h-7l-2 3h-8l-4 -8h10zM218 141h-7v7h17l15 -6l-14 -8l-6 2zM232 118h-6l7 8l4 -3h4v-5h-4v-13l-2 -5l-3 2v16zM258 399h9l4 5l-5 9l-8 -11v-3zM262 185l7 7v5h-11v-8zM309 368l4 4l2 -7l4 -4l-9 -8v10zM244 187l5 6l-8 8h-3l-3 -9l6 4zM172 338l3 4h3l-4 -16 l-6 9zM239 251v6h-13v-3zM292 369h9l-2 -9l-7 4v5zM181 146h8l-5 -11l-5 6zM239 480h7v-8l-9 4zM158 395l10 -6l-7 -3l-4 4zM283 116h-12v6zM223 261h3v3h-3v-3zM269 497v6l-2 -4zM226 204h4l-2 2z" />
<glyph unicode="y" horiz-adv-x="460" d="M204 9l-14 9l-3 30l5 8l-6 20l2 12l-7 18l5 35l-6 22l4 13l-7 12l4 6l-5 20l6 10l-5 8l6 6l-6 19l4 6l-3 7v7h-5l-5 9l4 3l-7 13v9l-8 7l-11 37l-6 -3l-9 9l5 4v4l-4 5l-4 -13l-3 4l2 14h9l-4 6l-9 6v13l-7 16l-10 11l-1 12l-5 5v12l-7 6l-10 37l-5 6l-6 17l-6 9l6 3 l-2 4l-7 4l-5 13v6l-12 19l3 7l-7 16l-17 21l-6 23v27l9 10h28v-7l5 2l6 -5l11 -16l13 -6v-11l15 -10l5 -14v-9l7 -12l5 -4l3 -20l15 -17v-12l5 -7v-14h17l-6 -14l-4 5l-4 -4l7 -5l4 -9l5 -5v-10h9l2 -19l11 -16l12 -4v-9l-3 -10l17 -6l5 6l5 -5l-3 -11l5 -6l-5 -3l-10 4v4 l-6 -3v-6l6 -3h7v-9l3 -5l2 9l9 18v12h14l5 23l7 7l-6 6l4 3l2 9l11 6l3 14l11 6l3 14l4 4v5l-2 2l11 19l-4 4l11 10l10 25l6 7v12l18 39l8 11l4 10l8 6l-3 5l17 15l16 6l4 -5h6l5 -4v-33l-9 -16l-5 -4v-16l-9 -33l-6 -11l-16 -42l-10 -18v-9l-5 -6l-5 -15l-9 -9v-33l-11 -2 v-12l-4 -18h-7l-5 -5v-16l-5 -4l-9 -19v-11l-3 3l-9 -12l-15 -4l-5 -11h-7l-2 3l-10 -5v-7l8 -7l4 -16l5 -5l-3 -8l7 -14l-2 -12v-14l-6 -11l6 -5l-7 -7v-5l5 -5v-27l-3 -13l5 -6v-13l-10 -23h10v-8h-2v-18l-5 -3l2 -6l-3 -19l6 -11l-5 -14v-29l-24 -12h-18zM231 335l17 2 l3 7l-11 2l-9 -6v-5zM192 464h8l-4 -13l-7 7zM236 466h7v-6l-7 2v4zM190 434h5v2h-5v-2z" />
<glyph unicode="z" horiz-adv-x="528" d="M156 1h-23l-4 -5l-15 2l-6 -3l-7 3v3l-5 -3l-18 5h-16l-3 7h-11l-7 6l-6 19l6 19l11 16h5l2 -3l6 7l10 2l4 -2l18 6l4 4l-3 7l-12 -3l-6 17l-7 1v12l13 26h7l3 13l-3 8l6 4h5l13 21l6 14l6 4l14 19l1 7l35 44v4l7 3l2 9l3 2l3 12l11 4l9 21l14 14v7l14 14v9l9 9v10h7 l23 30l4 14l5 6l3 -5l2 15l11 15l2 9l3 3v5l-3 2v5h3l4 5v9h17v7l-3 2l4 7h7l4 11l11 12v9l-11 -4v4l22 9l10 9v7h-5v4l14 8l20 7l3 10h-21l-4 -6h-5l-2 -2h-5v9h3v3l-10 2l-7 -5l-4 -13l-9 4v2l9 6l-15 1v-9h-13v12l-5 2l-6 -2l-7 -12l-3 12l-2 -3h-7l-9 5l-8 -5v8h-6 l-5 -3h-7l-6 -2l-7 6l-19 -9l-12 5l-4 5h-24l-5 3l-12 -8l-13 6l-6 -3l-14 2h-37l-39 12l-8 12v15l5 7v13l19 3l9 5h12l5 -3l7 3l12 -5l3 2h7l10 5h10l16 -8l5 6h29v-3h6l5 3l7 -5l11 4l17 -5l19 9l10 -6h7l5 5l14 -5l2 3h12l6 -3l14 5h10l7 -5h9l7 4l18 -4h14l10 -4l39 3 l21 -5l6 -8l12 -2v-11l2 -3v-24l-20 -12l-10 -9l-16 -7l-21 5l-7 -4l-2 -11l9 2l2 -2l8 6l7 -4v-5l6 -9l3 -11l6 -7v-3h-6l-5 -13v-14l-11 -12l-9 -2l-8 -20l-9 -14l-21 -21v-12l-8 -17l-10 -4l3 -2l-3 -2l-5 2v-11l-13 -14l-3 -12l-23 -25v-16l-12 -3l-9 -9l5 -2l-6 -17 l-15 -8v-15l-6 -4l-6 4h-4l3 -7l-12 -25l-10 -7l-1 -4h-3l-7 -14v-8l9 -5l-9 -3l-11 4l-4 -3l7 -8l-8 -7l-4 -33h-6l-2 -2l6 -6l-7 -6l-11 8l-6 -3l-3 -7v-14l3 -2v-5l-4 -5l-15 -1l-3 -11l-6 -6l5 -11l-12 -5l-5 -9l-15 -5l-3 -7l13 -9h8l2 9l2 -9l3 -2l2 5h9l13 -5l22 2 l4 4l6 -4v-2h18l4 5l20 1l5 -13l5 3l12 1l6 -2l8 7h12l1 4h3l3 -13h8l7 3l8 -3h9l13 -5h37l10 -4l9 4l28 -2l6 -6l3 5l9 -4l11 -14v-11l-6 -19h-5l-23 -11l-35 2l-12 3l-9 -5l-24 -4l-11 7l-11 -5l-37 2l-4 5l-4 -7h-10l-4 2h-12l-3 2l-6 -2h-26v3l-34 -5l-5 2h-12l-9 -3 l-11 11zM186 128l9 7v-5l3 -3v-10l-12 6v5zM177 100h8l3 -7l3 -2v-3h-5l-9 7v5zM281 603l12 -4v-3h-12l-5 -5h-4zM212 146h2v-5l-5 -9v3l-5 4zM233 86v-7l-5 -4l-4 3zM203 157l4 3l4 -3l-4 -4l-4 3v1zM304 63h4v3l-3 2l-3 -2zM129 81l4 3l-4 2v-5zM119 1h3v2h-3v-2zM475 26 l2 2h-2v-2zM487 647l1 3h-1v-3z" />
<glyph unicode="{" horiz-adv-x="366" d="M203 -82l-7 2l-3 4l-9 5l-25 25l-4 8l-15 12l-9 21l-2 20v57l-3 8l5 20v18l4 4l-4 13v13l-4 7l6 11l-7 26v14l5 2v25l-6 13l-4 20l-13 19l-3 11l-6 4l-13 22l-16 5l-15 14l-2 8h-5v7l12 6l4 5l19 9l13 14l14 20v10l9 10v9l10 18v7l-5 -3l7 19l-6 7v51l4 6l-3 7v51l-3 10 l3 10v81l14 14v9l12 12l4 9l21 14l7 2v8l19 6l6 7h12l5 2h25l5 -2h27l15 -8l3 -6v-11l-4 -12l-11 -3h-12l-25 -5l-8 4l-23 -8l-3 -7l-27 -15l-4 -31l-6 -23l9 -13l-4 -14l4 -9l-5 -5l3 -14l-3 -2l4 -2v-26l-4 -4l-3 -17l3 -6v-16l5 -6l-3 -13v-12l-5 -10l6 -11l-3 -39l-7 -4 l-14 -30l-3 -12l-6 -6l-14 -28v-9h-7v-5h3l6 -7l5 -11l2 -17l7 -6l2 -5l8 -7v-5l-5 -7l11 -11l7 -21v-27l-4 -5l4 -19v-34l-5 -21l5 -8v-60l-2 -12l5 -6l-3 -6v-14l2 -4l3 -30l7 -21h6l6 -14h8l9 -9l19 -6h14l5 -6l15 3l16 -2l7 -6l5 -17l-12 -5l-2 -6l-20 -3h-44l-15 3z " />
<glyph unicode="|" horiz-adv-x="138" d="M52 -85v19l2 4l-5 6v33l3 6l-4 11l4 15v39l2 8l-2 10l-4 4l4 10l-3 5v27l3 4v33l2 7l-5 4v44l6 16l-3 7v9l2 2l2 13l-4 15l4 11l-2 2l2 39l-4 8l2 15l-2 12l5 17l-3 10l2 19l-4 8l4 8l2 14l-3 16l3 7l-2 13l2 16l-6 7l7 12l-4 16l3 15l-3 10l5 10l-6 23l4 17v35l-3 11 l7 12l-4 23l3 2v7l7 13l20 -1l-3 -8h12l-2 -13l6 -6l-4 -20h5l-3 -4l3 -7l-5 -13v-12l5 -26l-3 -2l6 -7l-3 -11l-8 -8l8 -5v-5l-5 -9l4 -7l-4 -28l5 -18v-46l-3 -5v-39l5 -9l-5 -2l5 -4v-8l-5 -4l4 -17l-4 -6l3 -3v-15l-3 -8v-20l3 -5v-25l-3 -7v-9l-4 -25l2 -32l5 -9v-9 l-7 -8v-15l2 -3l-2 -12l2 -18l7 -26l-5 -31v-16h-4l2 -7v-35l-4 -9v-32l2 -4v-30l-5 -16l-8 -11h-10l-14 4z" />
<glyph unicode="}" horiz-adv-x="366" d="M71 -86l-7 4l-2 6l-5 -1l-4 6v7l7 7h4l11 11h17l3 3l31 5l17 6l18 21l7 4v8l6 5l-6 6v19l6 14l-5 8l5 43l-5 13l7 11l-7 13l7 10l-7 14l6 30v19l-2 2l2 6l-3 13l6 37l10 5v9l5 9l-2 1v9l7 10l5 2v8l9 12v29l-7 21h-2l-7 13v5l-14 18v10l-7 14v9l-5 6v16l3 9l-3 17v16l4 4 l-6 5l2 23v37l3 27l-6 21l3 17l-3 30l-6 25l-5 2l-9 10l-7 4l-9 14l-21 4h-18l-9 3h-14l-21 10v15l9 9l17 2l4 3h23v-3l22 4l29 -8l12 -7l4 -9l16 -16h5l16 -21l6 -4l5 -14l7 -39l-2 -33l3 -7l-3 -20l-5 -5l2 -4v-12l4 -6l-6 -9l5 -11v-39l-3 -2l3 -4v-30l5 -5l1 -40l16 -27 h3l2 -5l4 -3l4 -13l27 -16l3 -7l6 -2l11 -21l-13 -9v-7h-20l-26 -32l-4 -14l-10 -6v-5l5 -3l-2 -6l-10 -8l6 -11l-6 -11v-14l7 -4v-5l-7 -6v-4l4 -2l-1 -18l-3 -7l3 -14v-18l-3 -10l4 -16v-9l3 -4v-6h-7v-2l7 -3v-57l-3 -2v-16l-4 -11l3 -7l-10 -10v-5l-9 -4l-2 -7l-5 -4 l-4 -8l-17 -16l-11 -4l-5 -10l-4 3l-11 -11l-17 -5h-16l-7 3l-7 -3l-14 3h-16z" />
<glyph unicode="~" horiz-adv-x="379" d="M236 302h-15l-3 6h-8l-3 3l-6 -3l-23 6l-19 8l-7 7l-9 -6l-12 6l-68 -2l-10 5l-5 7v11l12 12v5l14 11h22l17 4h30l18 -6l4 -5l24 -2l44 -14l7 -7h46l21 5l9 -3l4 -7v-6h-4v-5l4 -4l-4 -8l-7 -2l-3 -8l-31 -11h-17l-20 6z" />
<glyph unicode="&#xa1;" horiz-adv-x="170" d="M72 7l-9 7v9l-4 14l2 28l-2 6l2 16l-7 18l3 24v30l3 8l-7 21l6 10l-5 9l5 5v9l-3 9l5 18l-2 3l-2 23l-3 4v14l3 6v15l2 5l-6 21l4 7v25l-4 10l4 19l-3 3v47l10 15h11l11 8l20 -10l10 -28l-5 -5v-10l3 -5l5 -24l-3 -4l3 -2v-16l3 -7l-6 -14v-11l3 -5l2 -34l-6 -18l6 -5 l-5 -21l3 -6v-9l2 -1l-2 -8l2 -8l-6 -9l8 -8v-7l3 -6l-3 -10l-4 -5l4 -7v-11l-4 -7h3l5 -41l-4 -7v-12l-2 -5l5 -40l-3 -24l-7 -7l-3 -8l-12 -8h-25zM65 600l-8 13v14l-4 13l8 30l9 7l17 4l20 -5l12 -10l7 -38l-7 -15v-9l-8 -6h-25l-14 -3v5h-7z" />
<glyph unicode="&#xa2;" horiz-adv-x="483" d="M222 27l-2 8l-3 1l-4 20l-26 14l-5 -4l-17 3l-4 4l-4 -7l-1 3h-12l-9 9l-22 15l-12 15l-8 4l-23 26l-14 29v18l2 4l-2 9v51l5 5h-3l-2 3l4 3l-6 3l4 3l-2 13h-2l2 35l-5 3l7 11l3 11l14 14l16 5l15 -12v-22l8 -3l2 -16l-2 -14l4 -7l-2 -36l5 -10l-7 -17v-11l5 -10l-3 -14 l5 -9l11 -2l-2 -14h6l8 -11l-8 -7h21l8 -14l4 5l9 4l14 -7h15l12 -4l3 11l5 5l2 -12h12l6 -3l17 6h12l6 -3l5 5h4l6 5h9l2 -3l-5 -2l3 -5l6 4l25 6l3 6h9v8l12 7v11h5v-6l2 1l4 12l9 8l-7 23l3 4l2 32l5 7l2 14l12 7h21l11 -7l9 -17l2 -20l6 -11l-7 -10l4 -7l-4 -15l4 -3 l2 -12l-5 -21l-13 -14l-7 -4v-8l-16 -13l-3 -9l-9 -12h-10l-9 -17l-21 -8l-17 5l-3 -6h-16l-7 -6h-20l-5 -12l-7 -2l-6 -16h-8l3 -11l-15 -10l-4 4l-2 -7l-3 3h-6l-17 16zM79 386l-14 6l-7 9l-9 21l3 5v85l-4 32l8 10v9l6 15l13 6l9 14l8 4l4 8l6 4l8 10l11 4l9 9h12l6 3 l21 4h23l9 5l3 -3l3 3h4l3 6l6 3v7l6 15l5 6h26l11 -12l3 -7l5 -5v-3l13 -10l8 -3l4 3l14 -5h18l18 -7l15 -2l9 2l4 -5v-6l20 -26l6 2l14 -11l16 -25l9 -35l-3 -5l-2 -15l4 -16l-8 -8l-8 -16l-13 -2l-15 -5l-14 9l-6 12l-4 23l-4 7l6 11v7l-26 13l-4 8l-7 2l-9 9l-14 3 l-28 -2l-3 -7h-8l-2 7l-14 6l-16 -4l-5 4l-4 -9h-3v3h-17l-8 5l-8 -8h-4l-2 8l-8 -5l-22 -10l-3 9l-14 -6h-6l-3 -3l7 -6v-5l5 -4l-7 -4l-5 8h-7v-3l4 -4l-4 -5v-7h-5l-4 -6h-4l-3 -9l9 -7l-4 -8v-9l3 -6l-7 -6l6 -11v-25l-5 -5v-18l-8 -19l-14 -8v-6h-3l-2 3h-12zM280 566 h2v2h-2v-2z" />
<glyph unicode="&#xa3;" horiz-adv-x="563" d="M210 607l8 9l-2 -11l-8 -3l4 -4l-2 -5h-10l-10 -10l4 -11l-3 -1l7 -12l-2 -2l-6 8l-4 -5l7 -4l-8 -8l11 -27l-2 -3h-5l-5 -23l13 -4l-7 -8l4 -15l-7 -14l4 -4v-13h16l6 -6l6 3l8 -5l-3 -4v-14h-11l-7 21l-8 -3l-7 3l-5 -8l6 -15l10 -6l-6 -5v-10l2 -2l9 4l14 -4l-6 -3 l9 -4v-2l-8 -4l3 -4l7 -1l3 -4l7 5l-5 4l5 8l6 -2h9l7 -7l8 -4l18 1l5 -5l11 7l9 -6l3 3l13 -3l5 -5l7 4l7 -4l18 9l14 -11l12 -2l9 -9v-25l-14 -10h-16l-26 -4l-2 -3h-16l-3 3h-9l-6 -8h-5l-3 3l-2 -3h-7l-9 -4l-3 -4l-4 4l5 7h-37l-3 -3l5 -7l-12 -2l-14 7h-4l4 -16h-4 l-6 5v11h-6l-3 -6l-17 -9v-5l9 -10l-3 -12l5 -7l3 -11l-3 -5l3 -2h8l4 9h6v-7h-5l-1 -2l5 -12l-15 -2l-3 -10l3 -6h10l5 -3l-15 -8l2 -5v-13l9 -4l-1 -9h8l-6 -14l6 -6l-8 -3l2 -6l-3 -4l3 -10l-5 -5v-10l7 -4h9l5 5v-12l-9 -3v-9h10l11 8l6 -4l3 6l1 -10h12l5 5h3l1 7l10 3 v9h11v-5l-12 -6l8 -5v-10h18l5 -5l12 8l-3 7h7v-10l8 3l4 7l9 -5h6l28 -9l5 4l25 -2l5 4h16l2 3l7 2l10 10v13l3 7l-3 10l1 11l-3 8l9 17l17 18l21 -8l9 -18l3 -17l4 -5l-1 -21l3 -6l-3 -16v-31l2 -10l-5 -10v-11l-16 -12h-10l-4 -5l-13 3l-31 -5l-2 2l-7 -4h-35l-4 -8l-5 3 l2 2l-9 7l-11 -13l-7 4h-7l-2 2l-5 -2l-4 2l-20 -5l-6 5h-4l-11 -10l-11 8l-11 -3h-21l-5 -2l-9 2l-1 3h-10l-12 -4l-5 4l-66 -4l-5 4l-19 -6l-27 8h-14l-21 11l-6 26l6 9h4l5 14l26 7l4 -2l16 11l-4 7l3 3h4v9l-4 8l7 7l-5 6v11l-8 7l3 2h7v21h-10l10 17l-9 23l5 4h4v18 l7 13l-6 11l4 7l-5 10l5 8l-5 -2l-6 15l-4 3h15l5 3v-8l10 -8l8 8v3h-3l-6 6v9l-12 3l-5 -7l-4 -2l-3 5l-20 4l-3 3l-17 2l-22 17v20l24 16l7 -8l8 15v4h5v8h7v-5h6v20l6 6l-6 1l6 5l-7 4v13l11 8v17l4 11l-8 3v7l-6 2l6 4l2 12v18l2 6l-2 14l2 12l-6 23l4 3v7l5 12l-3 27 l14 16l5 14l30 30l15 11l5 9l7 4h25l9 3l37 -4l10 -11l11 -15l-11 -11l3 -4l-9 -9h-6v2l-14 -10v-4l-20 -2l-7 -7h-9v-12zM418 480l-10 3v14l-2 2v34l-2 5v16l-3 9v12l3 3l-3 11l-6 4l-23 33h-18l-6 11h-4l-7 -6h-7l-10 9l-3 6l-8 4v3l-6 7l4 15l9 7l6 9l28 4l7 -4l26 2 l25 -14l28 -27l2 -10l13 -6l8 -13v-8l7 -10l3 -18l-3 -12v-12l-2 -2v-16l5 -5l-3 -9l-4 -3l6 -6l-5 -8l4 -11l-4 -22l-19 -12h-19zM251 123l-13 13l8 3l5 -5l5 4l2 -4h5l-5 -7l2 -2v-5l-11 -4l-3 2zM210 178l-3 2v5l9 2l6 -5l-3 -9l-4 -2l-5 5v2zM226 157l-5 2v9l5 -4h10 l2 -6l-6 -7zM301 86l-4 9h8l6 -9v-8l-4 8h-6zM237 409l3 2l9 -7v-2h-12v7zM219 278l7 -5l-2 -5l-5 -2l-4 2zM245 533l4 -11h-9zM240 113l2 3l3 -8l-5 -2v7zM246 286l-6 -8l-3 10zM221 136h5l2 -9l-7 5v4zM226 536l-2 -5h-3l-6 5h11zM145 288l5 5v3h-5v-8zM245 173v-6l-7 3z M233 392l4 -2v-4h-4v6zM175 266l2 4l-2 3v-7zM219 619h2l-3 -3z" />
<glyph unicode="&#xa5;" horiz-adv-x="582" d="M235 7v9l-11 18l4 3h-7v5l9 4l-2 26l-7 3l4 3l-11 4l7 12l-3 6l-20 2l-6 -6l-8 9l-5 1l-11 8l-16 -11l-5 11l-9 -5l-21 5l-6 -4l-5 6l-14 4h-16l-10 10l-9 3v19l16 8l6 6l4 -4v-5l11 10h25v10l17 3l1 -2l-9 -9h9l3 7l7 -5h20l3 9l5 5h9v-5h3l5 6l-10 13v7h15l3 -9l10 10 l-26 4v6l11 3l-10 13l3 7h-22l-5 -2l-11 11l-13 3l-6 -4l4 -8h-8l-4 15l-18 -6l-8 3l-9 -4l4 6l-5 -2l-4 2l-5 12h-7l-5 -5l-5 13l3 5v12h9l12 12l9 -3l12 3h11v-3h5l9 5h26l-3 3v9h23l-5 12v9h3l9 9h4v4h-9v5h12l7 7l-5 14l12 2l7 5l-10 6l-4 8v9l-6 6l-10 -4l-5 4l5 3 l-3 3v4l5 5l-9 9v6l-8 5l10 9l-16 7l-12 24l-7 6v7l-2 2l-7 -3l-6 27l-10 6v8l-6 17l-8 8l-11 23l-7 7v5l-12 21l-7 6v4l-5 6l-13 29l8 20l6 4h6l5 4h24l6 -9h4l8 -4l4 -10l13 -8l20 -27l12 -26l13 -9v-11l11 -10l3 -12l7 -3l2 -5h5l4 -4l-2 -3l2 -8l9 -4l-4 -4l18 -11v-5 l-4 -2v-8l9 -4l-5 -9l15 -2l4 -5v-9l7 -3v-9l4 -9l7 -4h5l3 9h13v9h-7l-6 6l12 3l-3 7l-9 8l12 9l8 -3l-6 -8l5 -5l-6 -10l2 -3l17 -2v6l-9 4l6 6l10 3l4 4h7v7l14 12v2h-2v6l7 3v5l2 2l2 -5l3 4l-7 8v3h6l8 -5l5 5l-4 7l12 20l18 18h3l5 12l22 35l5 2l4 11h5l3 9l27 20 l7 -3l10 3l11 -3l5 -5l3 -20l-12 -12v-11l-8 -8v-6l-9 -10l-4 -9l-3 -2v-5l-2 -2v-7h-9v-10l-7 -13h-7l3 -8l-10 -10v-5l-4 -3l4 -4l-9 -7h-9l7 -15l-14 -6l-2 -4h-3v-3l4 -4l-4 -10l-3 5v-9l-10 -6l-8 -17l-9 -10l3 -2l-7 -7l-5 -11l-6 -3l-8 -13v-12l-6 -8l15 -8l-3 -10 l4 -10l-3 -3l-2 4l-7 -6l-3 3l-5 -8l10 -7h7l2 9l11 -7l-4 -9h-5l7 -6l2 4h10l-4 11l2 5l-7 3l11 10l5 -18h7l2 -2l-6 -12l-12 -4l4 -2l14 3v-9l-5 -4v-6h21l4 3l4 -3l-3 -5l22 -5l10 6l4 -8l18 -7h9l6 -10v-21l-11 -6l-7 -7h-17l-9 -9l-13 4v5h-8l-7 -16l-8 -2l-7 -8l-5 3 l-3 -3l4 -5l-4 -4h-4l4 -11l-4 -2h-17l4 -12l17 2l5 10h10l5 -6l-8 -11h-7v-6l-5 -3l8 -4h13v9l-4 2v2l5 3l7 -9v-7l9 -7l4 5h14l12 -5l2 -3h7l9 -9l4 -9l-2 -17l-11 -11l-12 -5l-2 5l-7 -5h-17l-19 -5l-10 6l-19 -7h-12l-8 4l-3 -8h7l3 -6l-10 -2l-9 2l-9 10h-7l-4 3 l-14 -9l11 -6l-9 -12l-7 -13l-5 -22l-5 -4v-16h-4l-2 -9l-9 -8l-30 -6l-3 5zM214 333h4l3 7l-10 6l5 8l-4 5l-5 -5h-7l7 3v3l-11 -3v-10l-3 -5l5 -4l9 4zM149 226l8 3l6 -4l3 2h10l-4 -11l-10 4l-8 -7l3 -6l-8 3v16zM352 175l9 3h8v7l-10 3l-7 -5v-8zM198 171l2 5l7 7v4 l-5 5h-4l-2 -18zM390 368h5l5 -9h3v-10l-8 4zM366 398l6 2l6 -5v-6h-12v9zM373 210h7l5 3l-13 6l-3 -4zM166 383h9v-9h-9v9zM175 363v-7h-12l4 7h8zM394 229h9l5 5l-3 5zM336 192h5l2 3l-4 9h-3v-12zM172 213l3 -7l-3 -2l-2 -7l-3 10zM152 335h3l6 -11h-4l-5 5v6zM339 354 l-8 6v8h-2v-14h10zM417 197h6l3 -8l-6 -2v8zM196 314l4 3l7 1v4l-14 -5zM146 242l3 -4l-8 -2l-4 2zM336 338l10 1l-3 3h-7v-4zM350 326h7v4h-7v-4zM378 374v-5l-8 5h8zM359 317h7l-2 4zM346 363l2 2l-2 3h-3zM341 210l2 3l-4 2v-2zM355 305l4 3h-4v-3zM390 174v4h-3z M269 443h2v3zM385 222h2v3zM175 312h2v2zM350 363h2v2zM184 317h3l-3 1v-1z" />
<glyph unicode="&#xa6;" horiz-adv-x="331" d="M145 379h-5l-6 -2l-8 23h-2l-9 23h-5l-5 9l5 5v12l-15 16v15l-5 10v7l-3 4l-4 29l-5 9l-4 15l-8 15v11l-4 9v16l-8 7l-3 40l-3 8l3 7v12l22 3l12 -3l7 -17l8 -3l5 -27l7 -10l7 -31l7 -3l5 -19l7 -8l-4 -4l1 -14l-4 -4h9l5 4v-7h8l4 -10l-10 5l-2 -18l7 -2l7 -7h5l4 -4 l2 6l-12 13l4 6l7 -4l8 9v4l8 16l-6 16l3 5h4v-10h2v23l8 7l-3 2v5l14 12v2h-4l4 11v17l9 9v13l19 20h13l14 -20v-10l-5 -8l4 -6l-8 -24l-5 -27l-4 -9l-7 -5l6 -6l-4 -10v-12l-6 -14l-6 -4v-26l-5 -2l-10 -34h-7l-18 -12h-4l5 9l-4 5l-11 3l-3 4l-5 -3l-5 -21l10 -5v-17h7 l2 -2l-6 -7v-14h2l2 -12l-7 -6l-4 -12h-17zM184 32l2 6l27 26l5 12l4 3l-6 6v9l-3 6l5 6l-2 2l2 14l-4 4h-8l-11 17l-14 -7l-7 8l-5 -6l4 -2v-8h-8l-4 -4h-5l-4 7l3 10l-10 -10v-5l-3 -3l-4 13h5v6h-14l-4 -6h-3l-7 6h-5l-5 5h-9l-32 32l3 8l-5 6l2 18l-4 5v7l-3 2v19l3 6v8 l4 13l5 5l2 7l-3 5l21 13l7 12l3 -3l6 8l8 1l4 -4h8l1 -2h8l4 -10l11 -4v-7l-7 -3l-6 -15h7v8l9 3h9l4 4l3 -1v-8h-14l-5 -13l-11 -3l-4 3l-9 -6l4 -3h6v-3l-5 -3l-5 -8l5 -4l-7 -7l-4 6h-9v2h-2v-4l5 -8v-6l-4 -4l10 -8l12 4l-2 -19h25l21 -3v9l7 -6l-3 -6l3 -2l6 8h5l7 4 l3 -10l-3 -2h17l4 9v5h5l6 -19l-5 -4v-3l8 3v-7h7l4 4l2 -9l9 -6v-7l8 -9l1 -21l-6 -8l5 -18v-16l-5 -5v-15l-3 -5v-9h-11v-12l-13 -13l-15 -5l-4 -4h-16l-14 13v5zM226 225l-14 16l-7 14h-7l-14 9l-6 19h-5v14l-4 10l8 -6h5v9l-3 3l-4 -3l-2 3l4 5l27 2l5 -2l3 4h4l2 -3 l-4 -1l9 -10l10 -5l16 -22l8 -17v-20l-4 -5v-4l-5 -6h-4v3h-5l-4 5l-9 -19h-3l-3 7h6zM108 14l-18 18l-16 9l-3 9l-5 3v4l-4 5v14l-2 1v8l6 3v6l-2 2l2 7h5l6 13l24 -11l3 -28h5l4 -13h4l4 -8l14 -5l5 -6v-11l-5 -7l-1 -12l-9 -5l-8 4h-9zM164 317l4 -4v-3l-16 -2l-4 3z M164 483l6 5v4l-6 3l-5 -5v-5zM165 460l5 2l3 -4h4v-5h-12v7zM191 128l-3 5h5l5 -7l-7 -4l-3 2zM125 229l-3 -13l-6 6zM200 241l-4 -6h-8l4 6h8zM170 274v-5h-9v5h9zM156 492l5 8h-7v-5zM154 209h5v-4l-3 -3l-2 3v4z" />
<glyph unicode="&#xa8;" horiz-adv-x="335" d="M106 807h-58v77h58v-77zM287 807h-59v77h59v-77z" />
<glyph unicode="&#xaa;" horiz-adv-x="335" d="M194 335l-8 3l4 20h6l5 8l17 4v7l10 6l2 9l7 3v24l7 11v9l-9 11v4l4 5l-6 4h-10l3 7l-16 14l-10 -6l-2 2l2 2v7h-9l-7 20l14 19v6l10 -5l8 3h12l5 6v4l-5 7h5v9h4l5 9v12l4 13l-8 9l6 8l-7 7v9l-8 8l-13 5l-20 15l8 20l10 3h21l11 -10l18 -8l3 -11l7 -4l3 -16l6 -6v-30 l3 -8v-16l-5 -4l6 -19v-9l6 -16l-7 -22l5 -16l-4 -6l3 -8l-3 -6l-4 -22v-19l3 -5v-11l-8 -16l-1 -17l-5 -2l-11 -10l4 -6h-8l-11 -16l-28 -14l-15 3zM104 328l-5 4l-3 6l-11 3l-23 24l-11 23v27l-3 5v23l3 5l2 27l7 14l10 13l20 17l9 4l5 5h16l9 -5l6 3l-10 6l10 4l3 -5h6 l6 -10l15 8l-4 -8v-11l3 -2l-5 -3v-12l-12 3l-14 -21h-11l-7 4l-7 -9h-3l-1 -11l-9 -4l4 -12l-7 -7l4 -5l-1 -7l4 -9l4 -22l14 -13l-3 -3l8 -3l12 -9h4l5 -5v-16l-8 -16l-18 -2l-7 2h-6zM63 586l-4 12l8 44l18 18l7 2l16 16h18l8 -7h4l7 -14h3l-3 -11l-19 -10l-22 -18v-5 l4 -4v-5h-3l-4 -7l-8 -20h-13l-6 6zM186 535l2 -9l-6 -5v10zM197 460l-5 -10h-6l2 7zM231 471l4 4l-5 3l-2 -3zM152 505v3h-3zM191 349h5l-2 1z" />
<glyph unicode="&#xab;" horiz-adv-x="318" d="M100 248l-5 4l2 2l-2 3h-4l-15 15l-11 15l-3 1l-1 5l-12 12v4l-22 19l-13 37l3 17l8 5l5 14l10 8l1 7l29 32l1 7l12 16l26 14l12 2l13 -2l9 -15v-13l-4 -5h-3l-5 -6l-1 -16l-8 -10l-5 -11l-18 -9l-8 -17l-10 -12l2 -25l20 -14h3v-11l10 -13l11 -6l4 -9v-5l10 -9v-27h-7 l-11 -7h-10l-2 3h-11zM226 263l-16 12l-16 18v8l-12 7l-11 18l-7 6l-6 12h-5l-2 9l-8 9v3l-8 5l6 7l6 -4l10 15l3 9l9 9l3 12l10 2l5 10l5 4l2 5l9 1v10l24 18l4 8l7 2l8 8l13 -4h11l3 -9v-13l-12 -17l-2 -12h-7v-13l-12 -12l-3 -7l-11 -3v-10l-9 -15l-4 -2l4 -11l11 -11 l3 -17l9 -6l28 -37l5 -19l1 -13l-24 -7l-19 13z" />
<glyph unicode="&#xaf;" horiz-adv-x="313" d="M264 826h-216v42h216v-42z" />
<glyph unicode="&#xb0;" horiz-adv-x="318" d="M99 497l-11 11l-12 8v7l-17 12l-8 25l4 7l-3 10v11l-4 6l6 8l-3 9l3 23l7 7v12l11 7l16 15h5l3 7l6 3h33l11 -17l-6 -12l-10 -5l-7 -8l-9 -4l-8 -7l-1 -5h-11l-3 -9h11l-9 -9v-18l3 -10l1 -30l14 -7l12 -11l7 -2l2 -5l11 -5l-7 -20l-16 -2l-4 -5l-10 6zM189 510l4 18 l29 16l6 26l7 2l-4 5l3 8l-4 6l3 6v16l-5 3l-4 14l-5 6v3l-15 6l-4 10h-7l-4 7v9l5 7l10 3l23 1l9 -4l13 -12l8 -11v-3l9 -4v-9l5 -6l-4 -3v-5l5 -4v-33l-5 -6l5 -8v-21l-6 -6v-9l-5 -5l-5 -11l-29 -23l-17 -3l-5 -6l-12 5z" />
<glyph unicode="&#xb1;" horiz-adv-x="398" d="M197 217h-12l-5 4h-9v14l-7 12l3 2v9l2 3l-2 7l3 20l-6 12v18l-18 10l-7 -3l-10 10h-48l-23 5l-7 10l3 8v16l8 8l26 6h23l3 2h31l13 9v5l9 14v13l5 9l-9 10l6 19v11l9 10v13h19l18 -21v-16l4 -5l3 -18l5 -8l-6 -19l10 -10l3 -8l15 -6h15l5 3l9 -5h18l26 -6l8 -13h3l2 -6 l4 -4l-4 -11l-11 -9l-17 -5l-15 3l-10 -4h-18l-15 -7l-15 -2l-8 -8l5 -7v-4l-9 -7v-7l7 -7l-5 -7v-23l5 -6l-5 -18l-5 -4l-4 -9l-6 -4l-5 4zM167 95l-9 4l-8 -4h-9l-7 3l-5 -3h-43l-21 9l-9 9v16h9v5l-4 3l13 3l12 6l10 -3l19 3l6 -4l11 5h39l20 4l8 -7l8 4l24 -5l9 2h68 l9 -5h7v-2l6 -4l12 -15l-4 -13h-8l-2 -10l-24 3l-25 -5l-14 2l-29 -1l-17 -3l-10 3h-26l-3 -6l-2 6h-11z" />
<glyph unicode="&#xb4;" horiz-adv-x="337" d="M289 853l-241 -55v37l241 56v-38z" />
<glyph unicode="&#xb7;" horiz-adv-x="200" d="M69 333v46l12 11l2 5l2 -3l7 3l3 4h9l16 -4l5 -5l-3 -2l7 -8l7 -13v-9l-3 -7l4 -10l-9 -18h-8l-9 -9h-15l-16 4z" />
<glyph unicode="&#xb8;" horiz-adv-x="161" d="M82 -148h-34l20 128h44z" />
<glyph unicode="&#xba;" horiz-adv-x="321" d="M190 329l-9 17l6 9l10 2l6 -2l-4 7l14 14l8 3l6 15l2 17l-2 7l3 30l-3 6v12l2 4v16l-9 25l2 12l5 5v18l4 37l-2 14l2 3v8l-9 4v15l-10 3l-10 13l-10 2l3 3l-3 2l-5 12l5 4v10l35 -7l15 -9l4 -8l11 -11l2 -9l5 -7h3l3 -28l6 -11l-5 -5l4 -14v-30l-5 -14v-21l3 -2v-7l-5 -9 h5v-12l-3 -2v-11l-2 -2v-21l2 -5v-14l3 -5l-5 -20v-8l-11 -6v-11l-10 -14l-7 -3l-14 -17l-5 5l-13 -13h-7l-4 3zM86 339l-23 25l-14 18v39l3 8l-4 11l5 13l-5 17l6 5l-5 5v25l5 19l-5 27l4 20l-5 9l4 15v23l11 25l23 23l16 9l4 -2l5 5h13l6 -9l6 -4v-8l-7 -10l5 -5l-11 -6 l-4 -6h-17l4 -8l-11 -19l-4 -15v-21l4 -4l-13 -6l6 -6l8 -14l-10 -5v-18l10 -9v-9l-5 -8l5 -5l-3 -3v-5h-5l4 -25h-6v-19l5 -10l-5 -4v-5h5v-11l9 -22l-3 -7l21 -8l12 -15l-3 -20l-13 -5l-12 4zM54 387l2 2l-2 3v-5z" />
<glyph unicode="&#xbb;" horiz-adv-x="318" d="M14 261l3 5l4 16l5 6l3 9l11 5l18 28l8 4l8 24v9h-3l-4 7v18l-2 3l-6 -4l-10 16l-14 13l-7 14l-7 7v14h-4l-3 14l9 9h12v-7h5v9l34 -27l7 -14l7 -8l21 -11v-4l-4 -4l15 -9l10 -20l1 -6h15l-3 -8v-9l-6 -3l-6 -13h-4l-2 -12l-4 -2l-5 -12l-7 -6l-8 -12l-15 -7l-3 -14 l-12 -11v-5l-13 -11l-14 -7h-21l-9 9v7zM152 252l-1 6l-7 7l14 6l-3 7l7 18l9 4l16 13l7 22l5 4l2 5l10 9v26l-6 9h-7l-8 16l-12 12l-5 11l-18 19l-4 14v16h4l5 -5l2 9h10l24 -10v-6l18 -13l3 -12h4l14 -12l8 -14l16 -16l6 -14l5 -4v-28l-7 -7l-2 -5l-7 -4v-8l-16 -11 l-3 -14l-13 -11l-27 -34l-10 -5l-18 -3l-5 3h-10z" />
<glyph unicode="&#xbf;" horiz-adv-x="487" d="M166 1l-15 6l-7 8h-8l-15 16l-12 2l4 3l-7 9l-10 5l-12 16l-2 6l-15 14v5l-9 9l-2 18l-8 4l6 4l2 6l-2 4v20l-2 1v5l4 5v19l-2 1v14l9 24v9l5 11l8 5h6l5 6l-3 3h-8l10 5h7l3 -6l5 5l-4 3v6l19 9l3 9l7 4l5 11l8 3l18 11l4 10l19 12l6 10l9 9l2 5l12 6l8 15l13 9l11 14 v31l10 34l24 6l13 -4l3 -6l7 -5v-30l8 -7l-3 -14v-19l-7 -15l3 -4l-19 -29l-33 -23l5 -3l-14 -13l-7 -3l-5 -16l-10 -6l4 -15h5v-4l-12 2v6l-6 -4v-18l-6 2l-2 -4l-12 -5l-1 -3l-10 -2v-4h10l21 -25l6 -3v-2l-6 -3l-3 5l-9 4l-3 6l-5 1l-2 7l-10 6l-9 -10l-1 -4h9l7 -8 l-7 -2l-9 -7v-12h4l2 -4l-2 -3h-9v-14l-12 -4v-5l17 3v9l4 2l3 6l6 3l3 6l2 -3v-7l-9 -5v-9l10 10l4 -9l-2 -7l-5 -6l3 -8l-6 -7h-4l-3 -5l5 24l-5 3l-6 -9v-9l-5 -4v-15l-4 -11h11l8 -11l6 -2l5 -10l12 -10l9 5l1 -6l5 -5h9l6 -6l13 -4v-6h6v-5l-4 -4v-8l4 -4v-9l-10 -19 l-20 -7h-18l-12 3h-21zM297 7h-10l-7 8l-9 2l-8 24l6 12l9 5h9l4 9h17l13 3l9 -6l6 12l34 30l9 5l2 12l5 9l5 18v10l7 7v9l9 2l2 5h19l13 -18v-12l5 -7v-16l-2 -4l3 -7l-3 -13l-5 -9l-5 -25h-15v-11l-3 -3l-2 5l-7 -7v-5l-8 -14l-19 -15l-12 -3l-15 -12h-8l-7 4l-3 -5 l-27 -4zM261 601h-6l-14 8v13l-3 4v19l5 5v14l16 13h19l4 -5h5l10 -11l-3 -2h7l5 -12l-3 -21v-18l-6 -7l-23 -6zM199 111l-12 7h-6l-3 8l9 -3h8l9 -7h16v-7h-21l-4 -12l-5 -4v13zM195 160h4v9h9l11 -8l-6 -5l-6 5l-7 -11l-5 3v7zM229 238l2 5l6 3l1 -3l-7 -7h-6v2h4z M201 136h6l-4 -8l-5 5z" />
</font>
</defs>
</svg>
